<svg id="Camada_1" data-name="Camada 1" xmlns="http://www.w3.org/2000/svg" viewBox="0 0 1090 1363"><defs><style>.cls-1{fill:#697aff;}.cls-2{fill:#353e80;}</style></defs><title>exo-maker-reduzida</title><path class="cls-1" d="M1052.73,554.87,549.82,52a16,16,0,0,0-22.53,0L417.76,161.5l.18.18L130.74,445.39c-48.05,48.05-85.41,72-61.89,245.14h0l439-439L677.15,420.89,505.73,592.32,523.3,747.67,763.62,507.36l91.45,91.45-448.95,449,35.71,35.71a71.78,71.78,0,0,0,101.51,0L943.17,686.91l0,0,5.44-5.45h0L1052.73,577.4A16,16,0,0,0,1052.73,554.87Z"/><path class="cls-2" d="M941.53,728.5l-405.71,409c-71.5,44.89-108.08-11.64-108.08-11.64L188.3,886.47c-48.22-48.22-13.3-93.12-13.3-93.12L590.69,377.66C481,321.13,406.12,396,406.12,396L83.54,715.2C-22.87,821.62,66.92,941.34,66.92,941.34l306,305.95c126.37,96.44,219.48,0,219.48,0L924.91,908.08C1001.39,815,941.53,728.5,941.53,728.5Z"/><polygon class="cls-2" points="319.66 951.32 502.42 768.55 484.85 613.2 233.19 864.85 319.66 951.32"/><line class="cls-2" x1="938.21" y1="894.78" x2="605.65" y2="1233.99"/><line class="cls-2" x1="498.15" y1="599.89" x2="246.5" y2="851.55"/></svg>