<svg id="Camada_1" data-name="Camada 1" xmlns="http://www.w3.org/2000/svg" viewBox="0 0 3000 3000"><defs><style>.cls-1{fill:#353e80;}.cls-2{font-size:234.42px;font-family:FuturistFixedWidth-Regular, Futurist Fixed-width;}</style></defs><title>exo-maker-preto</title><path d="M1218.73,1459.87,715.82,957a16,16,0,0,0-22.53,0L583.76,1066.5l.18.18-287.2,283.71c-48.05,48-85.41,72-61.89,245.14h0l439-439,169.33,169.33L671.73,1497.32l17.57,155.35,240.32-240.31,91.45,91.45-448.95,449,35.71,35.71a71.78,71.78,0,0,0,101.51,0l399.83-396.56,0,0,5.44-5.45h0l104.08-104.08A16,16,0,0,0,1218.73,1459.87Z"/><path d="M1107.53,1633.5l-405.71,409c-71.5,44.89-108.08-11.64-108.08-11.64L354.3,1791.47c-48.22-48.22-13.3-93.12-13.3-93.12l415.69-415.69C647,1226.13,572.12,1301,572.12,1301L249.54,1620.2c-106.41,106.42-16.62,226.14-16.62,226.14l306,306c126.37,96.44,219.48,0,219.48,0l332.56-339.21C1167.39,1720,1107.53,1633.5,1107.53,1633.5Z"/><polygon points="485.66 1856.32 668.42 1673.55 650.85 1518.2 399.19 1769.85 485.66 1856.32"/><path d="M1552,1819.65l.33,83.15s-14.93-2.72-16.63-20l-.67-68.56s-.34-19.34,22.4-22.4h62.44s21.38,3.06,21.38,24.78l-.34,65.5s0,15.27-17,20.7V1818s-1-8.14-10.86-8.14h-48.87S1554.66,1807.77,1552,1819.65Z"/><polygon points="1611.96 1806.89 1591.1 1807.21 1590.42 1851.31 1611.02 1867.6 1611.96 1806.89"/><line class="cls-1" x1="1104.21" y1="1799.78" x2="771.65" y2="2138.99"/><line class="cls-1" x1="664.15" y1="1504.89" x2="412.5" y2="1756.55"/><path d="M2120.36,1438.84,2269,1290.26l-36.46-36.46a16,16,0,0,0-22.53,0l-137.32,137.32L1935.32,1253.8a16,16,0,0,0-22.53,0l-42,42,148.59,148.59-169.66,169.66a16,16,0,0,0,0,22.53l36.45,36.46,180.93-180.93,186.48,186.47,42-42a16,16,0,0,0,0-22.53Z"/><path d="M2762.49,1613.59l-1.17-118,.76-147.36c0-80.57-79.31-91.9-79.31-91.9H2451.13c-84.34,11.33-83.08,83.09-83.08,83.09l1.16,118-.76,147.36c0,80.57,79.31,91.9,79.31,91.9H2679.4C2763.75,1685.35,2762.49,1613.59,2762.49,1613.59ZM2654.22,1630H2472.94c-36.51,0-40.28-30.22-40.28-30.22V1353.39c11.79-37.2,43.65-30.38,43.65-30.38h181.28c36.51,0,40.29,30.22,40.29,30.22v246.35C2686.09,1636.78,2654.22,1630,2654.22,1630Z"/><path d="M1702.12,1258.48,1430,1257.07c-90.22,0-102.91,88.82-102.91,88.82v259.39c12.69,94.45,93,93,93,93l284.77-2.82c71.89-7,83.17-69.08,83.17-69.08l-345.38,1.41c-49.34-11.28-40.88-50.75-40.88-50.75v-203c0-40.88,33.83-45.11,33.83-45.11h352.43C1765.55,1258.48,1702.12,1258.48,1702.12,1258.48Z"/><polygon points="1430.04 1457.26 1584.99 1457.26 1643.4 1383.95 1430.04 1383.95 1430.04 1457.26"/><text class="cls-2" transform="translate(1662.37 1901.25)">aker</text></svg>