<?xml version="1.0" encoding="utf-8"?>
<!-- Generator: Adobe Illustrator 23.0.2, SVG Export Plug-In . SVG Version: 6.00 Build 0)  -->
<svg version="1.1" xmlns="http://www.w3.org/2000/svg" xmlns:xlink="http://www.w3.org/1999/xlink" x="0px" y="0px"
	 viewBox="0 0 1130.4 1080" style="enable-background:new 0 0 1130.4 1080;" xml:space="preserve">
<style type="text/css">
	.st0{fill:none;}
	.st1{fill:#697AFE;}
	.st2{fill:#353E80;}
	.st3{opacity:0.6;}
	.st4{fill:#3F3D56;}
	.st5{fill:#FFE385;}
	.st6{opacity:0.1;enable-background:new    ;}
	.st7{opacity:0.6;fill:#FFE385;enable-background:new    ;}
	.st8{opacity:0.1;fill:#FFE385;enable-background:new    ;}
	.st9{fill:none;stroke:#3F3D56;stroke-width:4;stroke-miterlimit:10;}
	.st10{fill:url(#SVGID_1_);}
	.st11{fill:#BE6F72;}
	.st12{fill:#FF6F61;}
	.st13{opacity:0.1;}
	.st14{fill:url(#SVGID_2_);}
	.st15{fill:url(#SVGID_3_);}
	.st16{opacity:0.1;fill:none;stroke:#000000;stroke-miterlimit:10;enable-background:new    ;}
	.st17{fill:url(#SVGID_6_);}
	.st18{fill:#2F2E41;}
	.st19{fill:#FBBEBE;}
	.st20{fill:#E8E8F0;}
	.st21{fill:#F86D70;}
</style>
<pattern  x="190.2" y="28" width="36.9" height="49.5" patternUnits="userSpaceOnUse" id="SVGID_4_" viewBox="0 -49.5 36.9 49.5" style="overflow:visible;">
	<g>
		<rect y="-49.5" class="st0" width="36.9" height="49.5"/>
		<g>
			<rect y="-49.5" class="st0" width="36.9" height="49.5"/>
			<g>
				<rect y="-49.5" class="st0" width="36.9" height="49.5"/>
				<rect y="-49.5" class="st0" width="36.9" height="49.5"/>
				<path d="M4.3-13.2c4.5,0,4.5,7,0,7S-0.2-13.2,4.3-13.2z"/>
				<path d="M4.5-17.2c4.5,0,4.5,7,0,7S0-17.2,4.5-17.2z"/>
				<path d="M4.5-20.9c4.5,0,4.5,7,0,7S0-20.9,4.5-20.9z"/>
				<path d="M3.4-24.7c4.5,0,4.5,7,0,7S-1.1-24.7,3.4-24.7z"/>
				<path d="M1.1-28.3l0.2-0.4c1-1.7,3.1-2.2,4.8-1.3c1.6,1,2.2,3.1,1.3,4.8l-0.2,0.4c-1,1.7-3.1,2.2-4.8,1.3
					C0.7-24.5,0.2-26.6,1.1-28.3z"/>
				<path d="M1.5-30.1l0.2-0.6c0.3-0.9,0.8-1.6,1.6-2.1s1.8-0.6,2.7-0.3c1.9,0.5,2.9,2.4,2.4,4.3l-0.2,0.6c-0.3,0.9-0.8,1.6-1.6,2.1
					s-1.8,0.6-2.7,0.4C2.1-26.3,1-28.2,1.5-30.1z"/>
				<path d="M1.6-33.9v-0.4c0-1.9,1.6-3.5,3.5-3.5s3.5,1.6,3.5,3.5v0.4c0,1.9-1.6,3.5-3.5,3.5S1.6-32,1.6-33.9z"/>
				<path d="M4.9-42.3c4.5,0,4.5,7,0,7S0.4-42.3,4.9-42.3z"/>
				<path d="M1.8-42v-0.2c0-1.9,1.6-3.5,3.5-3.5s3.5,1.6,3.5,3.5v0.2c0,1.9-1.6,3.5-3.5,3.5S1.8-40.1,1.8-42z"/>
				<path d="M6-49.3c4.5,0,4.5,7,0,7S1.5-49.3,6-49.3z"/>
				<path d="M10-14.1c4.5,0,4.5,7,0,7S5.5-14.1,10-14.1z"/>
				<path d="M6.6-20.9c4.5,0,4.5,7,0,7S2.1-20.9,6.6-20.9z"/>
				<path d="M8.5-27c4.5,0,4.5,7,0,7S4-27,8.5-27z"/>
				<path d="M8.5-29.3c4.5,0,4.5,7,0,7S4-29.3,8.5-29.3z"/>
				<path d="M14.9-33.8c4.5,0,4.5,7,0,7S10.4-33.8,14.9-33.8z"/>
				<path d="M9.8-38.5c4.5,0,4.5,7,0,7S5.3-38.5,9.8-38.5z"/>
				<path d="M10.6-45.1c4.5,0,4.5,7,0,7S6.1-45.1,10.6-45.1z"/>
				<path d="M10.6-49.5c4.5,0,4.5,7,0,7S6.1-49.5,10.6-49.5z"/>
				<path d="M12.8-18.1c2.6,0,2.6,4,0,4S10.3-18.1,12.8-18.1z"/>
				<path d="M13-20.4c2.6,0,2.6,4,0,4S10.4-20.4,13-20.4z"/>
				<path d="M13.1-21v-0.2c0-1.1,0.9-2,2-2s2,0.9,2,2v0.2c0,1.1-0.9,2-2,2S13.1-19.9,13.1-21z"/>
				<path d="M15.1-25.9c2.6,0,2.6,4,0,4S12.5-25.9,15.1-25.9z"/>
				<path d="M16.6-11.1c0.6,0,1,0.4,1,1s-0.4,1-1,1s-1-0.4-1-1C15.6-10.7,16.1-11.1,16.6-11.1z"/>
				<path d="M21.7-16.5c0.6,0,1,0.4,1,1s-0.4,1-1,1s-1-0.4-1-1S21.2-16.5,21.7-16.5z"/>
				<path d="M16.9-8.9v0.4c0,0.6-0.4,1-1,1s-1-0.4-1-1v-0.4c0-0.6,0.4-1,1-1C16.4-9.9,16.9-9.5,16.9-8.9z"/>
				<path d="M16.5-4.8v0.2c0,0.6-0.4,1-1,1s-1-0.4-1-1v-0.2c0-0.6,0.4-1,1-1C16-5.8,16.5-5.3,16.5-4.8z"/>
				<path d="M15.5-2c0.6,0,1,0.4,1,1s-0.4,1-1,1s-1-0.4-1-1S14.9-2,15.5-2z"/>
				<path d="M10.6-2c0.6,0,1,0.4,1,1s-0.4,1-1,1s-1-0.4-1-1S10-2,10.6-2z"/>
				<path d="M10.4-4.7c0.6,0,1,0.4,1,1s-0.4,1-1,1s-1-0.4-1-1S9.8-4.7,10.4-4.7z"/>
				<path d="M7.4-6.2c0.6,0,1,0.4,1,1s-0.4,1-1,1s-1-0.4-1-1C6.4-5.8,6.8-6.2,7.4-6.2z"/>
				<path d="M11.9-7.1h0.4c0.6,0,1,0.4,1,1s-0.4,1-1,1h-0.4c-0.6,0-1-0.4-1-1C10.9-6.7,11.3-7.1,11.9-7.1z"/>
				<path d="M13.3-11l0.6-1.3c0.3-0.5,0.9-0.6,1.4-0.4l0,0c0.5,0.3,0.6,0.9,0.4,1.4l0,0L15-10c-0.3,0.5-0.9,0.6-1.4,0.4l0,0
					C13.2-9.9,13-10.5,13.3-11z"/>
				<path d="M18.4-19.3v-0.2c0-0.6,0.4-1,1-1s1,0.4,1,1v0.2c0,0.6-0.4,1-1,1S18.4-18.8,18.4-19.3z"/>
				<path d="M20.7-24.9l0.2-0.4c0.6-1.1,2.3-0.1,1.7,1l-0.2,0.4C21.8-22.8,20.1-23.8,20.7-24.9z"/>
				<path d="M22.1-29.4c-0.5-0.5-0.8-1.1-0.8-1.9c0-0.6,0.4-1,1-1s1,0.4,1,1c0,0.2,0.1,0.3,0.3,0.4c0.4,0.4,0.4,1,0,1.4l0,0
					C23.2-29,22.5-29,22.1-29.4z"/>
				<path d="M20.3-33.4l-0.5-1.7c-0.4-1.2,1.5-1.8,1.9-0.5l0.5,1.7C22.6-32.7,20.7-32.2,20.3-33.4z"/>
				<path d="M19.4-37h-0.2c-0.6,0-1-0.4-1-1s0.4-1,1-1h0.2c0.6,0,1,0.4,1,1S20-37,19.4-37z"/>
				<path d="M17.6-41.5l-0.2-0.4c-0.6-1.2,1.1-2.2,1.7-1l0.2,0.4C19.9-41.3,18.2-40.3,17.6-41.5z"/>
				<path d="M15.8-47.9v-0.6c0-0.6,0.4-1,1-1c0.6,0,1,0.4,1,1v0.6c0,0.6-0.4,1-1,1S15.8-47.3,15.8-47.9z"/>
				<path d="M14.3-49.4c0.6,0,1,0.4,1,1c0,0.6-0.4,1-1,1s-1-0.4-1-1C13.3-49,13.8-49.4,14.3-49.4z"/>
				<path d="M14.3-41.3c0.6,0,1,0.4,1,1c0,0.6-0.4,1-1,1s-1-0.4-1-1C13.3-40.9,13.8-41.3,14.3-41.3z"/>
				<path d="M17.1-36.5c0.6,0.3,1,1,1,1.6c0,0.6-0.4,1-1,1s-1-0.4-1-1c0,0.1,0.2,0.2,0,0.1C15-35.3,16-37,17.1-36.5z"/>
				<path d="M17.4-31.3c0.6,0,1,0.4,1,1s-0.4,1-1,1s-1-0.4-1-1S16.8-31.3,17.4-31.3z"/>
				<path d="M18.1-28.5c0.6,0,1,0.4,1,1s-0.4,1-1,1s-1-0.4-1-1S17.6-28.5,18.1-28.5z"/>
				<path d="M19-24.9l0.2,0.4c0.6,1.1-1.1,2.2-1.7,1l-0.2-0.4C16.7-25.1,18.4-26.1,19-24.9z"/>
				<path d="M17.9-16c0.6,0,1,0.4,1,1s-0.4,1-1,1s-1-0.4-1-1S17.4-16,17.9-16z"/>
				<path d="M24.6-16l0.6-0.9c0.3-0.4,1-0.5,1.4-0.2s0.5,0.8,0.3,1.2l-0.6,1c-0.3,0.5-0.9,0.6-1.4,0.3C24.6-15,24.4-15.5,24.6-16
					L24.6-16z"/>
				<path d="M34.9-29.7v-0.2c0-0.6,0.4-1,1-1s1,0.4,1,1v0.2c0,0.6-0.4,1-1,1S34.9-29.2,34.9-29.7z"/>
				<path d="M24-39.2c0.6,0,1,0.4,1,1c0,0.6-0.4,1-1,1s-1-0.4-1-1C23-38.8,23.5-39.2,24-39.2z"/>
				<path d="M22.9-29c0.6,0,1,0.4,1,1s-0.4,1-1,1s-1-0.4-1-1S22.3-29,22.9-29z"/>
				<path d="M18.2-21.9l0.6,0.6c0.9,0.9-0.5,2.3-1.4,1.4l-0.6-0.6C15.9-21.4,17.3-22.8,18.2-21.9z"/>
			</g>
		</g>
	</g>
</pattern>
<pattern  x="190.2" y="28" width="36.9" height="49.5" patternUnits="userSpaceOnUse" id="SVGID_5_" viewBox="0 -49.5 36.9 49.5" style="overflow:visible;">
	<g>
		<rect y="-49.5" class="st0" width="36.9" height="49.5"/>
		<g>
			<rect y="-49.5" class="st0" width="36.9" height="49.5"/>
			<g>
				<rect y="-49.5" class="st0" width="36.9" height="49.5"/>
				<rect y="-49.5" class="st0" width="36.9" height="49.5"/>
				<path d="M4.3-13.2c4.5,0,4.5,7,0,7S-0.2-13.2,4.3-13.2z"/>
				<path d="M4.5-17.2c4.5,0,4.5,7,0,7S0-17.2,4.5-17.2z"/>
				<path d="M4.5-20.9c4.5,0,4.5,7,0,7S0-20.9,4.5-20.9z"/>
				<path d="M3.4-24.7c4.5,0,4.5,7,0,7S-1.1-24.7,3.4-24.7z"/>
				<path d="M1.1-28.3l0.2-0.4c1-1.7,3.1-2.2,4.8-1.3c1.6,1,2.2,3.1,1.3,4.8l-0.2,0.4c-1,1.7-3.1,2.2-4.8,1.3
					C0.7-24.5,0.2-26.6,1.1-28.3z"/>
				<path d="M1.5-30.1l0.2-0.6c0.3-0.9,0.8-1.6,1.6-2.1s1.8-0.6,2.7-0.3c1.9,0.5,2.9,2.4,2.4,4.3l-0.2,0.6c-0.3,0.9-0.8,1.6-1.6,2.1
					s-1.8,0.6-2.7,0.4C2.1-26.3,1-28.2,1.5-30.1z"/>
				<path d="M1.6-33.9v-0.4c0-1.9,1.6-3.5,3.5-3.5s3.5,1.6,3.5,3.5v0.4c0,1.9-1.6,3.5-3.5,3.5S1.6-32,1.6-33.9z"/>
				<path d="M4.9-42.3c4.5,0,4.5,7,0,7S0.4-42.3,4.9-42.3z"/>
				<path d="M1.8-42v-0.2c0-1.9,1.6-3.5,3.5-3.5s3.5,1.6,3.5,3.5v0.2c0,1.9-1.6,3.5-3.5,3.5S1.8-40.1,1.8-42z"/>
				<path d="M6-49.3c4.5,0,4.5,7,0,7S1.5-49.3,6-49.3z"/>
				<path d="M10-14.1c4.5,0,4.5,7,0,7S5.5-14.1,10-14.1z"/>
				<path d="M6.6-20.9c4.5,0,4.5,7,0,7S2.1-20.9,6.6-20.9z"/>
				<path d="M8.5-27c4.5,0,4.5,7,0,7S4-27,8.5-27z"/>
				<path d="M8.5-29.3c4.5,0,4.5,7,0,7S4-29.3,8.5-29.3z"/>
				<path d="M14.9-33.8c4.5,0,4.5,7,0,7S10.4-33.8,14.9-33.8z"/>
				<path d="M9.8-38.5c4.5,0,4.5,7,0,7S5.3-38.5,9.8-38.5z"/>
				<path d="M10.6-45.1c4.5,0,4.5,7,0,7S6.1-45.1,10.6-45.1z"/>
				<path d="M10.6-49.5c4.5,0,4.5,7,0,7S6.1-49.5,10.6-49.5z"/>
				<path d="M12.8-18.1c2.6,0,2.6,4,0,4S10.3-18.1,12.8-18.1z"/>
				<path d="M13-20.4c2.6,0,2.6,4,0,4S10.4-20.4,13-20.4z"/>
				<path d="M13.1-21v-0.2c0-1.1,0.9-2,2-2s2,0.9,2,2v0.2c0,1.1-0.9,2-2,2S13.1-19.9,13.1-21z"/>
				<path d="M15.1-25.9c2.6,0,2.6,4,0,4S12.5-25.9,15.1-25.9z"/>
				<path d="M16.6-11.1c0.6,0,1,0.4,1,1s-0.4,1-1,1s-1-0.4-1-1C15.6-10.7,16.1-11.1,16.6-11.1z"/>
				<path d="M21.7-16.5c0.6,0,1,0.4,1,1s-0.4,1-1,1s-1-0.4-1-1S21.2-16.5,21.7-16.5z"/>
				<path d="M16.9-8.9v0.4c0,0.6-0.4,1-1,1s-1-0.4-1-1v-0.4c0-0.6,0.4-1,1-1C16.4-9.9,16.9-9.5,16.9-8.9z"/>
				<path d="M16.5-4.8v0.2c0,0.6-0.4,1-1,1s-1-0.4-1-1v-0.2c0-0.6,0.4-1,1-1C16-5.8,16.5-5.3,16.5-4.8z"/>
				<path d="M15.5-2c0.6,0,1,0.4,1,1s-0.4,1-1,1s-1-0.4-1-1S14.9-2,15.5-2z"/>
				<path d="M10.6-2c0.6,0,1,0.4,1,1s-0.4,1-1,1s-1-0.4-1-1S10-2,10.6-2z"/>
				<path d="M10.4-4.7c0.6,0,1,0.4,1,1s-0.4,1-1,1s-1-0.4-1-1S9.8-4.7,10.4-4.7z"/>
				<path d="M7.4-6.2c0.6,0,1,0.4,1,1s-0.4,1-1,1s-1-0.4-1-1C6.4-5.8,6.8-6.2,7.4-6.2z"/>
				<path d="M11.9-7.1h0.4c0.6,0,1,0.4,1,1s-0.4,1-1,1h-0.4c-0.6,0-1-0.4-1-1C10.9-6.7,11.3-7.1,11.9-7.1z"/>
				<path d="M13.3-11l0.6-1.3c0.3-0.5,0.9-0.6,1.4-0.4l0,0c0.5,0.3,0.6,0.9,0.4,1.4l0,0L15-10c-0.3,0.5-0.9,0.6-1.4,0.4l0,0
					C13.2-9.9,13-10.5,13.3-11z"/>
				<path d="M18.4-19.3v-0.2c0-0.6,0.4-1,1-1s1,0.4,1,1v0.2c0,0.6-0.4,1-1,1S18.4-18.8,18.4-19.3z"/>
				<path d="M20.7-24.9l0.2-0.4c0.6-1.1,2.3-0.1,1.7,1l-0.2,0.4C21.8-22.8,20.1-23.8,20.7-24.9z"/>
				<path d="M22.1-29.4c-0.5-0.5-0.8-1.1-0.8-1.9c0-0.6,0.4-1,1-1s1,0.4,1,1c0,0.2,0.1,0.3,0.3,0.4c0.4,0.4,0.4,1,0,1.4l0,0
					C23.2-29,22.5-29,22.1-29.4z"/>
				<path d="M20.3-33.4l-0.5-1.7c-0.4-1.2,1.5-1.8,1.9-0.5l0.5,1.7C22.6-32.7,20.7-32.2,20.3-33.4z"/>
				<path d="M19.4-37h-0.2c-0.6,0-1-0.4-1-1s0.4-1,1-1h0.2c0.6,0,1,0.4,1,1S20-37,19.4-37z"/>
				<path d="M17.6-41.5l-0.2-0.4c-0.6-1.2,1.1-2.2,1.7-1l0.2,0.4C19.9-41.3,18.2-40.3,17.6-41.5z"/>
				<path d="M15.8-47.9v-0.6c0-0.6,0.4-1,1-1c0.6,0,1,0.4,1,1v0.6c0,0.6-0.4,1-1,1S15.8-47.3,15.8-47.9z"/>
				<path d="M14.3-49.4c0.6,0,1,0.4,1,1c0,0.6-0.4,1-1,1s-1-0.4-1-1C13.3-49,13.8-49.4,14.3-49.4z"/>
				<path d="M14.3-41.3c0.6,0,1,0.4,1,1c0,0.6-0.4,1-1,1s-1-0.4-1-1C13.3-40.9,13.8-41.3,14.3-41.3z"/>
				<path d="M17.1-36.5c0.6,0.3,1,1,1,1.6c0,0.6-0.4,1-1,1s-1-0.4-1-1c0,0.1,0.2,0.2,0,0.1C15-35.3,16-37,17.1-36.5z"/>
				<path d="M17.4-31.3c0.6,0,1,0.4,1,1s-0.4,1-1,1s-1-0.4-1-1S16.8-31.3,17.4-31.3z"/>
				<path d="M18.1-28.5c0.6,0,1,0.4,1,1s-0.4,1-1,1s-1-0.4-1-1S17.6-28.5,18.1-28.5z"/>
				<path d="M19-24.9l0.2,0.4c0.6,1.1-1.1,2.2-1.7,1l-0.2-0.4C16.7-25.1,18.4-26.1,19-24.9z"/>
				<path d="M17.9-16c0.6,0,1,0.4,1,1s-0.4,1-1,1s-1-0.4-1-1S17.4-16,17.9-16z"/>
				<path d="M24.6-16l0.6-0.9c0.3-0.4,1-0.5,1.4-0.2s0.5,0.8,0.3,1.2l-0.6,1c-0.3,0.5-0.9,0.6-1.4,0.3C24.6-15,24.4-15.5,24.6-16
					L24.6-16z"/>
				<path d="M34.9-29.7v-0.2c0-0.6,0.4-1,1-1s1,0.4,1,1v0.2c0,0.6-0.4,1-1,1S34.9-29.2,34.9-29.7z"/>
				<path d="M24-39.2c0.6,0,1,0.4,1,1c0,0.6-0.4,1-1,1s-1-0.4-1-1C23-38.8,23.5-39.2,24-39.2z"/>
				<path d="M22.9-29c0.6,0,1,0.4,1,1s-0.4,1-1,1s-1-0.4-1-1S22.3-29,22.9-29z"/>
				<path d="M18.2-21.9l0.6,0.6c0.9,0.9-0.5,2.3-1.4,1.4l-0.6-0.6C15.9-21.4,17.3-22.8,18.2-21.9z"/>
			</g>
		</g>
	</g>
</pattern>
<g id="Camada_3">
</g>
<g id="Camada_2">
	<path class="st1" d="M304.2,0c0,0,508.6,77.3,396.5,526.9s64.5,557.1,64.5,557.1h-715V0H304.2z"/>
	<path class="st2" d="M244.2,0c0,0,508.6,77.3,396.5,526.9s64.5,557.1,64.5,557.1H0.2V0H244.2z"/>
</g>
<g id="Camada_1">
	<g id="ae37f038-3a9e-4b82-ad68-fc94ba16af2a">
		<title>contact us</title>
		<g class="st3">
			<ellipse class="st4" cx="271.5" cy="564.7" rx="6.1" ry="7.9"/>
			<path class="st4" d="M276.3,530.8c0.9-1.5,1.3-3.1,1.3-4.8c0-4.4-2.7-7.9-6.1-7.9c-3.3,0-6.1,3.5-6.1,7.9c0,1.7,0.4,3.3,1.3,4.8
				c-1.7,3-1.7,6.7,0,9.7c-1.7,3-1.7,6.7,0,9.7c-0.9,1.5-1.3,3.1-1.3,4.8c0,4.4,2.7,7.9,6.1,7.9c3.3,0,6.1-3.6,6.1-7.9
				c0-1.7-0.4-3.3-1.3-4.8c1.7-3,1.7-6.7,0-9.7C278,537.5,278,533.8,276.3,530.8L276.3,530.8z"/>
			<ellipse class="st4" cx="271.5" cy="516.3" rx="6.1" ry="7.9"/>
			<ellipse class="st4" cx="271.5" cy="506.7" rx="6.1" ry="7.9"/>
			<path class="st5" d="M248.9,440.4c-0.9-1.1-1.6-2.2-2.2-3.3l15.9-2.6l-17.2,0.1c-3.3-7.3-3.5-15.6-0.5-23l23.1,12l-21.3-15.6
				c7.9-13.9,25.6-18.8,39.6-10.8c13.9,7.9,18.8,25.6,10.8,39.6c-0.7,1.3-1.6,2.6-2.6,3.8c1.3,1.6,2.4,3.4,3.3,5.3l-20.6,10.7
				l22-7.4c3.1,9.3,1.4,19.5-4.7,27.2c9.9,12.6,7.7,30.8-4.8,40.7c-12.6,9.9-30.8,7.7-40.7-4.8c-8.3-10.5-8.3-25.3,0-35.8
				C240.6,465.7,240.6,450.9,248.9,440.4L248.9,440.4z"/>
			<path class="st6" d="M300.7,458.3c0,6.5-2.2,12.8-6.2,17.9c9.9,12.6,7.7,30.8-4.8,40.7c-12.6,9.9-30.8,7.7-40.7-4.8
				c-8.3-10.5-8.3-25.3,0-35.8C245,471.3,300.7,455,300.7,458.3z"/>
		</g>
		<g class="st3">
			<ellipse class="st4" cx="342.2" cy="547.8" rx="4.5" ry="5.9"/>
			<path class="st4" d="M345.7,522.4c0.6-1.1,1-2.3,1-3.6c0-3.2-2-5.9-4.5-5.9s-4.5,2.7-4.5,5.9c0,1.3,0.3,2.5,1,3.6
				c-1.3,2.2-1.3,5,0,7.2c-1.3,2.2-1.3,5,0,7.2c-0.6,1.1-1,2.3-1,3.6c0,3.2,2,5.9,4.5,5.9s4.5-2.7,4.5-5.9c0-1.3-0.3-2.5-1-3.6
				c1.3-2.2,1.3-5,0-7.2C347,527.4,347,524.7,345.7,522.4z"/>
			<ellipse class="st4" cx="342.2" cy="511.6" rx="4.5" ry="5.9"/>
			<ellipse class="st4" cx="342.2" cy="504.4" rx="4.5" ry="5.9"/>
			<path class="st5" d="M325.2,454.9c-0.6-0.8-1.2-1.6-1.7-2.5l11.9-2l-12.9,0.1c-2.5-5.4-2.7-11.6-0.4-17.2l17.2,8.9l-15.9-11.7
				c6-10.4,19.2-13.9,29.6-8s13.9,19.2,8,29.6c-0.5,0.9-1.1,1.8-1.8,2.6c1,1.2,1.8,2.6,2.5,3.9l-15.4,8l16.4-5.5
				c2.3,6.9,1,14.6-3.5,20.4c7.4,9.4,5.8,23-3.6,30.4c-9.4,7.4-23,5.8-30.4-3.6c-6.2-7.9-6.2-18.9,0-26.8
				C319.1,473.8,319.1,462.7,325.2,454.9L325.2,454.9z"/>
			<path class="st6" d="M363.9,468.3c0,4.8-1.6,9.6-4.6,13.4c7.4,9.4,5.8,23-3.6,30.4c-9.4,7.4-23,5.8-30.4-3.6
				c-6.2-7.9-6.2-18.9,0-26.8C322.4,477.9,363.9,465.8,363.9,468.3z"/>
		</g>
		<g class="st3">
			<ellipse class="st4" cx="568.8" cy="543.4" rx="6.1" ry="7.9"/>
			<path class="st4" d="M564.1,509.6c-0.9-1.5-1.3-3.1-1.3-4.8c0-4.4,2.7-7.9,6.1-7.9s6.1,3.6,6.1,7.9c0,1.7-0.4,3.3-1.3,4.8
				c1.7,3,1.7,6.7,0,9.7c1.7,3,1.7,6.7,0,9.7c0.9,1.5,1.3,3.1,1.3,4.8c0,4.4-2.7,7.9-6.1,7.9s-6.1-3.6-6.1-7.9
				c0-1.7,0.4-3.3,1.3-4.8c-1.7-3-1.7-6.7,0-9.7C562.4,516.2,562.4,512.6,564.1,509.6z"/>
			<ellipse class="st4" cx="568.8" cy="495.1" rx="6.1" ry="7.9"/>
			<ellipse class="st4" cx="568.8" cy="485.4" rx="6.1" ry="7.9"/>
			<path class="st5" d="M591.5,419.1c0.9-1.1,1.6-2.2,2.2-3.3l-15.9-2.6l17.2,0.1c3.3-7.3,3.5-15.6,0.5-23l-23.1,12l21.3-15.6
				c-7.9-13.9-25.6-18.8-39.6-10.8c-13.9,7.9-18.8,25.6-10.8,39.6c0.7,1.3,1.6,2.6,2.6,3.8c-1.3,1.6-2.4,3.4-3.3,5.3l20.6,10.7
				l-22-7.4c-3.1,9.3-1.4,19.5,4.7,27.2c-9.9,12.6-7.7,30.8,4.8,40.7c12.5,9.9,30.8,7.7,40.7-4.8c8.3-10.5,8.3-25.3,0-35.8
				C599.7,444.4,599.7,429.6,591.5,419.1L591.5,419.1z"/>
			<path class="st6" d="M539.7,437c0,6.5,2.2,12.8,6.2,17.9c-9.9,12.6-7.7,30.8,4.8,40.7c12.5,9.9,30.8,7.7,40.7-4.8
				c8.3-10.5,8.3-25.3,0-35.8C595.4,450,539.7,433.8,539.7,437z"/>
		</g>
		<g class="st3">
			<ellipse class="st4" cx="510.4" cy="544.6" rx="4.5" ry="5.9"/>
			<path class="st4" d="M506.8,519.3c-0.6-1.1-1-2.3-1-3.6c0-3.2,2-5.9,4.5-5.9c2.5,0,4.5,2.7,4.5,5.9c0,1.3-0.3,2.5-1,3.6
				c1.3,2.2,1.3,5,0,7.2c1.3,2.2,1.3,5,0,7.2c0.6,1.1,1,2.3,1,3.6c0,3.2-2,5.9-4.5,5.9c-2.5,0-4.5-2.7-4.5-5.9c0-1.3,0.3-2.5,1-3.6
				c-1.3-2.2-1.3-5,0-7.2C505.6,524.3,505.6,521.5,506.8,519.3z"/>
			<ellipse class="st4" cx="510.4" cy="508.4" rx="4.5" ry="5.9"/>
			<ellipse class="st4" cx="510.4" cy="501.2" rx="4.5" ry="5.9"/>
			<path class="st5" d="M527.4,451.7c0.6-0.8,1.2-1.6,1.7-2.5l-11.9-2l12.9,0.1c2.5-5.4,2.7-11.6,0.4-17.2l-17.2,8.9l15.9-11.7
				c-6-10.4-19.2-13.9-29.6-8c-10.4,6-13.9,19.2-8,29.6c0.5,0.9,1.1,1.8,1.8,2.6c-1,1.2-1.8,2.6-2.5,3.9l15.4,8l-16.4-5.5
				c-2.3,6.9-1,14.6,3.5,20.4c-7.4,9.4-5.8,23,3.6,30.4c9.4,7.4,23,5.8,30.4-3.6c6.2-7.9,6.2-18.9,0-26.8
				C533.5,470.6,533.5,459.5,527.4,451.7L527.4,451.7z"/>
			<path class="st6" d="M488.7,465.1c0,4.8,1.6,9.6,4.6,13.4c-7.4,9.4-5.8,23,3.6,30.4c9.4,7.4,23,5.8,30.4-3.6
				c6.2-7.9,6.2-18.9,0-26.8C530.2,474.8,488.7,462.6,488.7,465.1z"/>
		</g>
		<g class="st3">
			<ellipse class="st4" cx="49.4" cy="543.4" rx="6.1" ry="7.9"/>
			<path class="st4" d="M54.2,509.6c0.9-1.5,1.3-3.1,1.3-4.8c0-4.4-2.7-7.9-6.1-7.9s-6.1,3.6-6.1,7.9c0,1.7,0.4,3.3,1.3,4.8
				c-1.7,3-1.7,6.7,0,9.7c-1.7,3-1.7,6.7,0,9.7c-0.9,1.5-1.3,3.1-1.3,4.8c0,4.4,2.7,7.9,6.1,7.9s6.1-3.6,6.1-7.9
				c0-1.7-0.4-3.3-1.3-4.8c1.7-3,1.7-6.7,0-9.7C55.9,516.2,55.9,512.6,54.2,509.6L54.2,509.6z"/>
			<ellipse class="st4" cx="49.4" cy="495.1" rx="6.1" ry="7.9"/>
			<ellipse class="st4" cx="49.4" cy="485.4" rx="6.1" ry="7.9"/>
			<path class="st5" d="M26.7,419.1c-0.9-1.1-1.6-2.2-2.2-3.3l15.9-2.6l-17.2,0.2c-3.3-7.3-3.5-15.6-0.5-23l23.1,12l-21.3-15.6
				c7.9-13.9,25.7-18.7,39.6-10.8c13.9,7.9,18.7,25.7,10.8,39.6c-0.7,1.3-1.5,2.5-2.5,3.7c1.3,1.6,2.4,3.4,3.3,5.3L55,435.1l22-7.4
				c3.1,9.3,1.4,19.5-4.7,27.2c9.9,12.6,7.7,30.8-4.8,40.7c-12.5,9.9-30.8,7.7-40.7-4.8c-8.3-10.5-8.3-25.3,0-35.8
				C18.4,444.4,18.4,429.6,26.7,419.1L26.7,419.1z"/>
			<path class="st6" d="M78.5,437c0,6.5-2.2,12.8-6.2,17.9c9.9,12.6,7.7,30.8-4.8,40.7c-12.5,9.9-30.8,7.7-40.7-4.8
				c-8.3-10.5-8.3-25.3,0-35.8C22.9,450,78.5,433.8,78.5,437z"/>
		</g>
		<g class="st3">
			<ellipse class="st4" cx="107.8" cy="544.6" rx="4.5" ry="5.9"/>
			<path class="st4" d="M111.4,519.3c0.6-1.1,1-2.3,1-3.6c0-3.2-2-5.9-4.5-5.9s-4.5,2.7-4.5,5.9c0,1.3,0.3,2.5,1,3.6
				c-1.3,2.2-1.3,5,0,7.2c-1.3,2.2-1.3,5,0,7.2c-0.6,1.1-1,2.3-1,3.6c0,3.2,2,5.9,4.5,5.9s4.5-2.7,4.5-5.9c0-1.3-0.3-2.5-1-3.6
				c1.3-2.2,1.3-5,0-7.2C112.6,524.3,112.6,521.5,111.4,519.3z"/>
			<ellipse class="st4" cx="107.8" cy="508.4" rx="4.5" ry="5.9"/>
			<ellipse class="st4" cx="107.8" cy="501.2" rx="4.5" ry="5.9"/>
			<path class="st5" d="M90.9,451.7c-0.6-0.8-1.2-1.6-1.7-2.5l11.9-2l-12.9,0.1c-2.5-5.4-2.7-11.6-0.4-17.2l17.2,8.9l-15.9-11.7
				c6-10.4,19.2-13.9,29.6-7.9c10.4,6,13.9,19.2,7.9,29.6c-0.5,0.9-1.1,1.8-1.8,2.6c1,1.2,1.8,2.6,2.4,3.9l-15.4,8l16.4-5.5
				c2.3,6.9,1,14.6-3.5,20.4c7.4,9.4,5.8,23-3.6,30.4s-23,5.8-30.4-3.6c-6.2-7.9-6.2-18.9,0-26.8C84.7,470.6,84.7,459.5,90.9,451.7
				L90.9,451.7z"/>
			<path class="st6" d="M129.6,465.1c0,4.8-1.6,9.6-4.6,13.4c7.4,9.4,5.8,23-3.6,30.4s-23,5.8-30.4-3.6c-6.2-7.9-6.2-18.9,0-26.8
				C87.9,474.8,129.6,462.6,129.6,465.1z"/>
		</g>
		<ellipse class="st7" cx="308" cy="634.4" rx="291.4" ry="4.7"/>
		<ellipse class="st7" cx="308" cy="673.1" rx="291.4" ry="4.7"/>
		<ellipse class="st7" cx="308" cy="553.7" rx="291.4" ry="4.7"/>
		<ellipse class="st7" cx="308" cy="594" rx="291.4" ry="4.7"/>
		<path class="st8" d="M446.7,430.9c-1.9-0.4-3.9-0.2-5.6,0.6c-2.2,1-4.6,1-6.8,0c-2.6-1.1-5.5-1.1-8,0.2c-0.7,0.4-1.5,0.6-2.3,0.6
			c-3.2,0-5.9-3.2-6.5-7.5c0.6-0.5,1.2-1.1,1.6-1.8c1.9-3,4.8-5,8.1-5s6.2,1.9,8.1,4.9c1.2,1.9,3.2,3,5.4,2.9h0.1
			C443.4,425.8,445.6,427.9,446.7,430.9z"/>
		<path class="st7" d="M456.5,417.4l-5.2,3.3l3.2-5.7c-0.9-0.7-2-1.1-3.1-1.1h-0.1c-0.4,0-0.7,0-1.1-0.1l-1.8,1.1l0.7-1.4
			c-1.3-0.4-2.3-1.3-3.1-2.3l-3.2,2l2-3.6c-1.9-2.2-4.4-3.6-7.1-3.6c-3.3,0-6.2,2-8.1,5c-1.1,1.9-3.2,3-5.4,2.9h-0.2
			c-3.6,0-6.6,4.1-6.6,9.2c0,5.1,2.9,9.2,6.6,9.2c0.8,0,1.6-0.2,2.3-0.6c2.5-1.2,5.4-1.3,8-0.2c2.2,1,4.6,1,6.8,0
			c2.6-1.1,5.4-1.1,7.9,0.2c0.7,0.4,1.5,0.6,2.3,0.6c3.6,0,6.6-4.1,6.6-9.2C457.9,421.1,457.4,419.1,456.5,417.4z"/>
		<path class="st8" d="M224.7,428c-1.3-0.3-2.7-0.1-3.9,0.4c-1.5,0.7-3.2,0.7-4.7,0c-1.8-0.8-3.8-0.7-5.6,0.1
			c-0.5,0.3-1.1,0.4-1.6,0.4c-2.3,0-4.1-2.3-4.5-5.3c0.4-0.3,0.9-0.7,1.1-1.2c1.3-2.1,3.4-3.5,5.7-3.5s4.3,1.4,5.6,3.5
			c0.8,1.3,2.2,2.1,3.8,2.1h0.1C222.3,424.5,223.9,425.9,224.7,428z"/>
		<path class="st7" d="M231.5,418.6l-3.7,2.3l2.2-4c-0.6-0.5-1.4-0.8-2.2-0.8h-0.1c-0.3,0-0.5,0-0.7-0.1l-1.2,0.8l0.5-1
			c-0.9-0.3-1.6-0.9-2.2-1.6l-2.2,1.4l1.4-2.6c-1.2-1.5-3-2.4-4.9-2.5c-2.3,0-4.4,1.4-5.7,3.5c-0.8,1.3-2.2,2.1-3.8,2h-0.1
			c-2.6,0-4.6,2.9-4.6,6.4s2.1,6.4,4.6,6.4c0.5,0,1.1-0.2,1.6-0.4c1.8-0.9,3.8-0.9,5.6-0.1c0.7,0.3,1.5,0.5,2.4,0.5
			c0.8,0,1.6-0.2,2.3-0.5c1.8-0.7,3.8-0.7,5.5,0.1c0.5,0.3,1.1,0.4,1.6,0.4c2.6,0,4.6-2.9,4.6-6.4
			C232.6,421.2,232.2,419.8,231.5,418.6z"/>
		<path class="st8" d="M160,469.7c1.3-0.3,2.7-0.1,3.9,0.4c1.5,0.7,3.2,0.7,4.7,0c1.8-0.8,3.8-0.7,5.6,0.1c0.5,0.3,1.1,0.4,1.6,0.4
			c2.3,0,4.1-2.3,4.5-5.3c-0.4-0.3-0.9-0.7-1.1-1.2c-1.3-2.1-3.4-3.5-5.7-3.5c-2.3,0-4.3,1.3-5.6,3.5c-0.8,1.3-2.2,2.1-3.8,2.1h-0.1
			C162.3,466.1,160.7,467.6,160,469.7z"/>
		<path class="st7" d="M153.1,460.3l3.7,2.3l-2.2-4c0.6-0.5,1.4-0.8,2.2-0.8h0.1c0.3,0,0.5,0,0.7-0.1l1.2,0.8l-0.5-1
			c0.9-0.3,1.6-0.9,2.2-1.6l2.2,1.4l-1.4-2.6c1.2-1.5,3-2.4,4.9-2.5c2.3,0,4.4,1.4,5.7,3.5c0.8,1.3,2.2,2.1,3.8,2h0.1
			c2.6,0,4.6,2.9,4.6,6.4s-2.1,6.4-4.6,6.4c-0.5,0-1.1-0.2-1.6-0.4c-1.8-0.9-3.8-0.9-5.6-0.1c-0.7,0.3-1.5,0.5-2.4,0.5
			c-0.8,0-1.6-0.2-2.3-0.5c-1.8-0.7-3.8-0.7-5.5,0.1c-0.5,0.3-1.1,0.4-1.6,0.4c-2.6,0-4.6-2.9-4.6-6.4
			C152.1,462.8,152.4,461.5,153.1,460.3z"/>
		<path class="st9" d="M369.8,632.9c1.4-2.6-0.2-5.7-2-8c-1.9-2.3-4-4.7-4-7.6c0.1-4.2,4.5-6.7,8.1-8.9c2.7-1.6,5.1-3.6,7.3-5.8
			c0.9-0.9,1.6-1.9,2.2-3c0.7-1.6,0.7-3.5,0.7-5.3c-0.2-6-0.4-12-0.9-18"/>
		<path class="st5" d="M388,575.9c-0.1-2.2-1.3-4.3-3.3-5.4l-1.5,2.9l0.1-3.5c-3.5-1-7.1,1-8.1,4.4c-1,3.5,1,7.1,4.4,8.1
			s7.1-1,8.1-4.4C387.9,577.4,388,576.7,388,575.9z"/>
		<path class="st5" d="M376.3,620.2c-1.6,3.2-5.6,4.5-8.8,2.8c-2.1-1.1-3.4-3.1-3.6-5.5c-0.1-0.9,0.1-1.8,0.4-2.7
			c1.3-3.3,5.1-5.1,8.5-3.7c1.7,0.7,3.1,2.1,3.7,3.8l-4.1,3.3l4.5-1.1C377,618.3,376.8,619.3,376.3,620.2z"/>
		<path class="st5" d="M373.1,607.5c-3.6,0.2-6.7-2.6-6.9-6.2c-0.2-3,1.9-5.8,4.8-6.6l-0.1,2.7l1.5-2.9l0,0c3.6-0.2,6.7,2.6,6.9,6.2
			C379.5,604.3,376.7,607.4,373.1,607.5L373.1,607.5z"/>
		<path class="st5" d="M389,597c-3.6,0.2-6.7-2.6-6.9-6.2c-0.2-3.6,2.6-6.7,6.2-6.9c1.2-0.1,2.5,0.2,3.6,0.9l-1.2,3.2l2.3-2.3
			c2.7,2.4,2.8,6.6,0.4,9.3C392.3,596.1,390.7,596.9,389,597L389,597z"/>
		<path class="st6" d="M387.1,577.7c-1.5,0.2-3,0.6-4.5,0.7c-1.5,0.1-3.2-0.3-4.1-1.4c-0.4-0.7-0.9-1.4-1.2-2.1
			c-0.4-0.6-1-1.2-1.6-1.5c-1.6,3.2-0.4,7.2,2.9,8.8c3.2,1.6,7.2,0.4,8.8-2.9c0.3-0.5,0.4-1.1,0.6-1.6
			C387.6,577.6,387.4,577.7,387.1,577.7z"/>
		<path class="st6" d="M389,597c-3.6,0.2-6.7-2.6-6.9-6.2c-0.1-1.1,0.2-2.1,0.6-3.1c0.5,0.4,1,0.8,1.3,1.3c0.4,0.7,0.9,1.5,1.3,2.2
			c1,1.2,2.8,1.6,4.4,1.5c1.6-0.1,3.1-0.5,4.7-0.7c0.2,0,0.4-0.1,0.6-0.1C394.4,594.8,391.9,596.8,389,597z"/>
		<path class="st6" d="M373.1,607.5c-3.6,0.2-6.7-2.6-6.9-6.2c-0.1-1,0.2-2,0.6-3c0.5,0.4,1,0.8,1.4,1.3c0.4,0.7,0.9,1.5,1.4,2.2
			c1.1,1.2,3,1.6,4.6,1.6c1.6-0.1,3.2-0.4,4.8-0.5C378.2,605.5,375.8,607.4,373.1,607.5z"/>
		<path class="st6" d="M376.3,620.2c-1.6,3.2-5.6,4.5-8.8,2.8c-2.1-1.1-3.4-3.1-3.6-5.5c-0.1-0.9,0.1-1.8,0.4-2.7
			c0.5,0.4,1,0.8,1.4,1.3c0.6,0.7,1,1.6,1.8,2.3c1.3,1.3,3.5,1.9,5.4,1.9C374.1,620.4,375.2,620.4,376.3,620.2z"/>
		<path class="st9" d="M45.5,594.6c1.4-2.6-0.2-5.7-2-8c-1.9-2.3-4-4.7-4-7.6c0.1-4.2,4.5-6.7,8.1-8.9c2.7-1.6,5.1-3.6,7.3-5.8
			c0.9-0.9,1.6-1.9,2.2-3c0.7-1.6,0.7-3.5,0.7-5.3c-0.2-6-0.5-12-0.9-18"/>
		<path class="st5" d="M63.6,537.6c-0.1-2.2-1.3-4.3-3.2-5.4l-1.5,2.9l0.1-3.5c-3.5-1-7.1,1-8.1,4.4c-1,3.5,1,7.1,4.4,8.1
			c3.5,1,7.1-1,8.1-4.4C63.6,539.1,63.7,538.4,63.6,537.6L63.6,537.6z"/>
		<path class="st5" d="M52,581.9c-1.6,3.2-5.6,4.5-8.8,2.8c-2.1-1.1-3.4-3.1-3.6-5.5c-0.1-0.9,0.1-1.8,0.4-2.7
			c1.3-3.3,5.1-5.1,8.5-3.7c1.7,0.7,3.1,2.1,3.7,3.8l-4.1,3.3l4.5-1.1C52.7,580,52.5,581,52,581.9z"/>
		<path class="st5" d="M48.8,569.2c-3.6,0.2-6.7-2.6-6.9-6.2c-0.2-3,1.9-5.8,4.8-6.6l-0.1,2.7l1.5-2.9l0,0c3.6-0.2,6.7,2.6,6.9,6.2
			C55.1,566,52.4,569.1,48.8,569.2L48.8,569.2z"/>
		<path class="st5" d="M64.6,558.7c-3.6,0.2-6.7-2.6-6.9-6.2c-0.2-3.6,2.6-6.7,6.2-6.9c1.2-0.1,2.5,0.2,3.6,0.9l-1.2,3.2l2.3-2.3
			c2.7,2.4,2.8,6.6,0.4,9.3C68,557.9,66.4,558.6,64.6,558.7L64.6,558.7z"/>
		<path class="st6" d="M62.8,539.4c-1.5,0.2-3,0.6-4.5,0.7c-1.5,0.1-3.2-0.3-4.1-1.4c-0.4-0.7-0.9-1.4-1.2-2.1
			c-0.4-0.6-1-1.2-1.6-1.5c-1.6,3.2-0.4,7.2,2.9,8.8c3.2,1.6,7.2,0.4,8.8-2.9c0.3-0.5,0.4-1.1,0.6-1.6
			C63.3,539.4,63.1,539.4,62.8,539.4z"/>
		<path class="st6" d="M64.6,558.7c-3.6,0.2-6.7-2.6-6.9-6.2c-0.1-1.1,0.2-2.1,0.6-3.1c0.5,0.4,1,0.8,1.3,1.3
			c0.4,0.7,0.9,1.5,1.3,2.2c1,1.2,2.8,1.6,4.4,1.5c1.6-0.1,3.1-0.5,4.7-0.7c0.2,0,0.4-0.1,0.6-0.1C70.1,556.5,67.6,558.5,64.6,558.7
			z"/>
		<path class="st6" d="M48.8,569.2c-3.6,0.2-6.7-2.6-6.9-6.2c-0.1-1,0.2-2,0.6-3c0.5,0.4,1,0.8,1.4,1.3c0.4,0.7,0.9,1.5,1.4,2.2
			c1.1,1.2,3,1.6,4.6,1.6c1.6-0.1,3.2-0.4,4.8-0.5C53.9,567.3,51.5,569.1,48.8,569.2z"/>
		<path class="st6" d="M52,581.9c-1.6,3.2-5.6,4.5-8.8,2.8c-2.1-1.1-3.4-3.1-3.6-5.5c-0.1-0.9,0.1-1.8,0.4-2.7
			c0.5,0.4,1,0.8,1.4,1.3c0.6,0.7,1,1.6,1.8,2.3c1.3,1.3,3.5,1.9,5.4,1.9C49.8,582.2,50.9,582.1,52,581.9z"/>
		<path class="st9" d="M261.5,550.8c-1.4-2.6,0.2-5.7,2-8c1.9-2.3,4-4.7,4-7.6c-0.1-4.2-4.5-6.7-8.1-8.9c-2.7-1.6-5.1-3.6-7.2-5.8
			c-0.9-0.9-1.6-1.9-2.2-3c-0.7-1.6-0.7-3.5-0.7-5.3c0.2-6,0.5-12,0.9-18"/>
		<path class="st5" d="M243.3,493.9c0.1-2.2,1.3-4.3,3.2-5.4l1.5,2.9l-0.1-3.5c0.7-0.2,1.4-0.3,2.1-0.3c3.6,0.2,6.4,3.2,6.2,6.9
			c-0.2,3.6-3.2,6.4-6.9,6.2C246,500.5,243.2,497.5,243.3,493.9L243.3,493.9z"/>
		<path class="st5" d="M255,538.2c1.6,3.2,5.6,4.5,8.8,2.8c3.2-1.6,4.5-5.6,2.8-8.8c-1.6-3.2-5.6-4.5-8.8-2.8
			c-1.4,0.7-2.6,2-3.1,3.6l4.1,3.3l-4.5-1.1C254.3,536.2,254.5,537.2,255,538.2z"/>
		<path class="st5" d="M258.2,525.5c3.6,0.2,6.7-2.6,6.9-6.2c0.2-3-1.8-5.8-4.8-6.6l0.1,2.7l-1.5-2.9l0,0c-3.6-0.2-6.7,2.6-6.9,6.2
			c-0.1,0.7,0.1,1.5,0.3,2.2C253.1,523.5,255.5,525.3,258.2,525.5z"/>
		<path class="st5" d="M242.3,514.9c3.6,0.2,6.7-2.6,6.9-6.2c0.2-3.6-2.6-6.7-6.2-6.9c-1.2-0.1-2.5,0.2-3.6,0.9l1.2,3.2l-2.4-2.3
			c-1.3,1.2-2.1,2.8-2.1,4.5c-0.1,0.6,0,1.2,0.2,1.8C237,512.7,239.5,514.7,242.3,514.9z"/>
		<path class="st6" d="M244.2,495.6c1.5,0.2,3,0.6,4.5,0.7c1.5,0.1,3.2-0.3,4.1-1.4c0.4-0.7,0.9-1.4,1.2-2.1c0.4-0.6,1-1.2,1.6-1.5
			c1.6,3.2,0.4,7.2-2.9,8.8c-3.2,1.6-7.2,0.4-8.8-2.9c-0.3-0.5-0.5-1.1-0.6-1.6C243.7,495.5,244,495.6,244.2,495.6z"/>
		<path class="st6" d="M242.3,514.9c3.6,0.2,6.7-2.6,6.9-6.2c0.1-1.1-0.2-2.1-0.6-3.1c-0.5,0.4-1,0.8-1.3,1.3
			c-0.4,0.7-0.9,1.5-1.3,2.2c-1,1.2-2.8,1.6-4.4,1.5c-1.6-0.1-3.1-0.5-4.7-0.7c-0.2,0-0.4-0.1-0.6-0.1
			C237,512.7,239.4,514.7,242.3,514.9z"/>
		<path class="st6" d="M258.2,525.5c3.6,0.2,6.7-2.6,6.9-6.2c0.1-1-0.2-2.1-0.6-3c-0.5,0.4-1,0.8-1.4,1.3c-0.4,0.7-0.9,1.5-1.4,2.2
			c-1.1,1.2-3,1.6-4.6,1.6c-1.6-0.1-3.2-0.4-4.8-0.5C253.1,523.5,255.5,525.3,258.2,525.5z"/>
		<path class="st6" d="M255,538.2c1.6,3.2,5.6,4.5,8.8,2.8c2.9-1.5,4.3-5,3.1-8.1c-0.5,0.4-1,0.8-1.4,1.3c-0.6,0.7-1.1,1.6-1.8,2.3
			c-1.3,1.3-3.5,1.9-5.4,1.9C257.2,538.3,256.1,538.3,255,538.2z"/>
		<circle class="st2" cx="431.2" cy="498.8" r="53.2"/>
		<path class="st5" d="M454,512.6c-1.9-1.9-6.3-4.6-8.5-5.7c-2.6-1.2-3.5-1.2-5.3,0.1c-1.5,1.1-2.5,2.1-4.2,1.7
			c-1.7-0.4-5.2-2.9-8.5-6.2c-3.3-3.3-5.8-6.7-6.2-8.5c-0.4-1.8,0.6-2.7,1.7-4.2c1.3-1.8,1.3-2.7,0.1-5.3c-1.1-2.2-3.8-6.6-5.7-8.5
			c-1.9-1.9-2.3-1.4-3.3-1.1c-1.1,0.4-2.1,1-3,1.6c-1.9,1.2-2.9,2.3-3.6,3.8s-1.5,4.4,2.7,12c3.1,5.8,7.1,11.1,11.8,15.7l0,0l0,0
			c4.6,4.7,9.9,8.7,15.7,11.8c7.5,4.3,10.4,3.4,12,2.7c1.5-0.7,2.6-1.8,3.8-3.6c0.6-1,1.2-2,1.6-3
			C455.5,514.8,455.9,514.4,454,512.6z"/>
		<path class="st1" d="M431.2,445.7c-29.3,0-53.2,23.8-53.2,53.2c0,29.3,23.8,53.2,53.2,53.2c29.3,0,53.2-23.8,53.2-53.2v-0.1
			C484.4,469.5,460.5,445.7,431.2,445.7z M431.2,544.9c-25.5,0-46.1-20.6-46.1-46.1c0-25.5,20.6-46.1,46.1-46.1
			c25.5,0,46.1,20.6,46.1,46.1l0,0C477.3,524.3,456.7,544.9,431.2,544.9L431.2,544.9L431.2,544.9z"/>
		<circle class="st2" cx="309.1" cy="579.5" r="53.2"/>
		<path class="st5" d="M339.3,563.5l-15.9,16.2c-0.1,0.1-0.1,0.3,0,0.4l0,0l11.2,11.9c0.7,0.7,0.7,2,0,2.7c-0.4,0.4-0.9,0.5-1.3,0.6
			c-0.5,0-1-0.2-1.4-0.6l-11.1-11.9c-0.1-0.1-0.3-0.1-0.4,0l-2.7,2.7c-2.2,2.3-5.3,3.6-8.5,3.6c-3.2,0-6.4-1.3-8.7-3.7l-2.6-2.7
			c-0.1-0.1-0.3-0.1-0.4,0l-11.1,11.8c-0.7,0.7-2,0.7-2.7,0l0,0c-0.7-0.7-0.7-2,0-2.7l0,0l11.1-11.9c0.1-0.1,0.1-0.3,0-0.4
			l-15.9-16.2c-0.1-0.1-0.3-0.1-0.4,0c-0.1,0.1-0.1,0.1-0.1,0.2V596c0,2.6,2.1,4.7,4.7,4.7h52.1c2.6,0,4.7-2.1,4.7-4.7v-32.4
			c0-0.2-0.1-0.3-0.3-0.3C339.5,563.4,339.4,563.4,339.3,563.5z"/>
		<path class="st5" d="M309.1,585.3c2.2,0,4.3-0.9,5.8-2.4l23.2-23.6c-0.8-0.7-1.9-1.1-2.9-1.1h-52.1c-1.1,0-2.1,0.4-2.9,1.1
			l23.2,23.6C304.9,584.5,306.9,585.3,309.1,585.3z"/>
		<path class="st1" d="M308.4,526.4c-29.3,0-53.2,23.8-53.2,53.2c0,29.3,23.8,53.2,53.1,53.2s53.2-23.8,53.2-53.2v-0.1
			C361.5,550.2,337.8,526.4,308.4,526.4z M308.4,625.6c-25.5,0-46.1-20.6-46.1-46.1c0-25.5,20.6-46.1,46.1-46.1
			c25.5,0,46.1,20.6,46.1,46.1l0,0C354.5,605,333.9,625.6,308.4,625.6z"/>
		<circle class="st2" cx="183" cy="539.9" r="53.2"/>
		<path class="st5" d="M183,514.4l-21.2,48.9l2,2l19.2-8.5l19.2,8.5l2-2L183,514.4z"/>
		<path class="st1" d="M183,486.7c-29.3,0-53.2,23.8-53.2,53.1c0,29.3,23.8,53.2,53.1,53.2c29.3,0,53.2-23.8,53.2-53.1
			c0,0,0,0,0-0.1C236.1,510.5,212.3,486.7,183,486.7z M183,585.9c-25.5,0-46.1-20.6-46.1-46.1c0-25.5,20.6-46.1,46.1-46.1
			s46.1,20.6,46.1,46.1l0,0C229,565.3,208.4,585.9,183,585.9L183,585.9z"/>
		
			<linearGradient id="SVGID_1_" gradientUnits="userSpaceOnUse" x1="476.4004" y1="550.1522" x2="476.4004" y2="641.5743" gradientTransform="matrix(1 0 0 -1 -52 1209.37)">
			<stop  offset="0" style="stop-color:#808080;stop-opacity:0.25"/>
			<stop  offset="0.54" style="stop-color:#808080;stop-opacity:0.12"/>
			<stop  offset="1" style="stop-color:#808080;stop-opacity:0.1"/>
		</linearGradient>
		<path class="st10" d="M436.1,590.9c-0.5-1.2-1-2.3-1.5-3.5c-0.4-1.1-1-2.2-1.8-3.1c-0.3-0.3-0.6-0.6-1.1-0.8
			c-0.4-0.2-0.9-0.3-1.4-0.3c-0.7-0.1-1.4-0.1-2.2-0.1c-0.3-0.1-0.6-0.2-0.9-0.3c3.2-0.9,5.5-3.7,5.6-7.1c0-0.1,0-0.2,0-0.3
			c0-4.2-3.3-7.6-7.5-7.6l0,0c-1.4,0-2.8,0.4-4,1.1c-3.2-0.7-6.5,0.9-8,3.8c-1.8,1.7-2.8,4.1-2.7,6.5c0,0.1,0,0.2,0,0.3
			c0.2,4.1,2.8,7.4,6.2,7.8c-0.4,0.2-0.7,0.4-1,0.6c-1,1-1.2,2.6-1.3,4l-0.1,1.1l-1.8,0.6c-0.2,0.1-0.3,0.3-0.2,0.4
			c0,0.1,0.1,0.1,0.1,0.2l1.7,1.2c0,0.1,0,0.2,0,0.3c0,0.1,0,0.2,0.1,0.4c-0.3,0.3-0.5,0.6-0.6,1c-0.2,0.5-0.2,1.2-0.2,1.7l0.1,1.5
			c0,1.1,0.2,2.2,0.4,3.3c0.2,0.6,1.2,2.2,1.9,2.3c-0.6,2.9-0.8,9.1-0.8,9.1c-0.1,0.1,0.2,0.2,0.5,0.2c0.4,2.9,1.6,11.2,3.8,14.8
			c0.4,1.2,0.6,2.4,0.9,3.6c0,0,0.6,7.8,1.5,10.2c0.7,2,1.3,6.9,1.4,8.3c-0.3,0.1-0.5,0.3-0.6,0.6c-0.4,1.3-3.1,3.2-3.1,3.2
			c-0.9,0.4-1.6,0.9-2.3,1.5c-0.9,0.8-0.8,1.5,3,1c7.3-0.9,8.6-3.2,8.6-3.2s-0.1-0.4-0.3-0.9c-0.2-0.8-0.5-1.5-1-2.3
			c-0.1-0.1-0.2,0.1-0.3,0.3c-0.5-3.4-0.7-6.9-0.5-10.3c0,0,0.2-3.6-0.9-6.1c-0.2-1.3-0.2-2.7,0-4c0.4-1.7-1.7-9.9-1.7-9.9l-1.2-6.1
			c0.2,0.2,0.3,0.4,0.3,0.7l0.1,0.1l0.1,0.2c0,0.1,0.1,0.1,0.1,0.2c0.8,3.4,3.1,12.8,3.1,14.2c0,1.7,2.1,5.9,2.1,5.9s0.9,7,2.3,9.7
			c1.1,2.1,1.2,5.2,1.1,6.5l0,0c0,0-0.3,1.8-0.7,2.2c-0.3,0.4-0.6,0.9-0.8,1.4l-0.1,0.1c0,0-0.6,1.3-0.2,1.5
			c1.6,0.6,3.3,0.9,5.1,0.6c0,0,0.9-1.1,0.9-1.5c0-0.3-0.1-0.5-0.1-0.7c-0.2-1-0.4-2.6-0.4-2.6c0.2-0.7-0.5-2.6-0.5-2.6l-0.2-5.9
			c0.4-4-0.1-8-1.5-11.9c0,0-1.1-3.8-0.9-4.8c0.2-1-0.4-12.3-0.4-12.3l-0.1-0.2c-0.1-0.8-0.1-1.6,0.1-2.4c0.2-2.6-0.6-7.8-0.9-8
			c-0.2-0.6-0.3-1.2-0.3-1.8c0.1-0.4,0.2-1.8,0.4-3.3c2.1-0.1,4.1-0.3,6.2-0.5c0.2,0,0.4-0.1,0.5-0.2c0.1-0.1,0.1-0.3,0.1-0.4
			C438.5,596.9,437.3,593.8,436.1,590.9z M431.9,597.6c0.2-1.5,0.4-3,0.7-4.1l0.1,0.1c0.4,1.1,0.7,2.2,1,3.3
			C433,597.2,432.5,597.4,431.9,597.6z"/>
		<path class="st11" d="M415.6,614.6c0,0,1.3,11.3,4,15.7c0.4,1.2,0.6,2.3,0.9,3.6c0,0,0.6,7.7,1.5,10c0.9,2.3,1.5,8.6,1.5,8.6
			s2.9,3.3,4,0.6c-0.6-3.6-0.9-7.2-0.6-10.8c0,0,0.2-3.6-0.9-6.1c-0.2-1.3-0.2-2.7,0-4c0.4-1.7-1.7-9.8-1.7-9.8l-1.6-8.1
			L415.6,614.6z"/>
		<path class="st12" d="M428.7,655.2c0,0-1.3,2.3-8.6,3.1c-3.8,0.4-3.8-0.3-3-1c0.7-0.6,1.5-1.1,2.3-1.5c0,0,2.7-1.9,3.1-3.1
			c0.4-1.3,1.9-0.2,1.9-0.2c2.1,3.1,2.5-0.9,2.9-0.4c0.4,0.7,0.7,1.4,1,2.2C428.6,654.8,428.7,655.2,428.7,655.2z"/>
		<path class="st6" d="M428.7,655.2c0,0-1.3,2.3-8.6,3.1c-3.8,0.4-3.8-0.3-3-1c0.6,0.4,1.8,0.5,4.2-0.4c3.5-1.4,6-2.2,7-2.6
			C428.6,654.8,428.7,655.2,428.7,655.2z"/>
		<path class="st6" d="M426.7,642.2c0,0,0.2-3.6-0.9-6.1c-0.2-1.3-0.2-2.7,0-4c0.4-1.7-1.7-9.8-1.7-9.8l-1.6-8.1l-1.4,0.1l1.6,8.1
			c0,0,2.1,8.1,1.7,9.8c-0.2,1.3-0.2,2.7,0,4c1.1,2.5,0.9,6.1,0.9,6.1c-0.3,3.6-0.1,7.3,0.6,10.8c-0.1,0.3-0.3,0.6-0.6,0.9
			c0.8,0.4,1.6,0.3,2.1-0.9C426.6,649.5,426.4,645.9,426.7,642.2z"/>
		<path class="st4" d="M425.3,568.8c-1.4,0-2.8,0.4-3.9,1.1c-3.2-0.7-6.5,0.9-8,3.8c-1.8,1.7-2.8,4-2.7,6.5c0,4.5,3,8,6.7,8
			c2.7,0,5-1.9,6.1-4.6c0.6,0.2,1.2,0.3,1.9,0.3c4.1,0,7.5-3.3,7.5-7.5C432.8,572.2,429.4,568.8,425.3,568.8L425.3,568.8z"/>
		<path class="st11" d="M431.5,615.7l0.6,1.6c0,0,0.6,11.1,0.4,12.1c-0.2,1.1,0.9,4.8,0.9,4.8c1.3,3.7,1.9,7.8,1.5,11.7l0.2,5.8
			c0,0,0.9,2.3,0.4,2.7c-0.4,0.4-3.6-0.4-3.6-0.4s0.4-4.4-1.1-7.1c-1.5-2.7-2.3-9.6-2.3-9.6s-2.1-4.2-2.1-5.8s-3.3-15.3-3.3-15.3
			L431.5,615.7z"/>
		<path class="st4" d="M415.2,615.5c0,0,0.2-7.5,1.1-9.8c0.4-1.1,0.7-2.2,1-3.3c0,0,12.7,2.3,13.7,1.4c0,0,0.2,2.9,0.4,3.1
			s1.1,5.4,0.9,7.9c-0.2,2.5,0,2.5,0,2.5s-8.6,1.3-8.8,0c-0.2-1.3-0.9-1.2-0.9-1.2S414.8,615.9,415.2,615.5z"/>
		<g class="st13">
			<path d="M422,615.5c0,0-5.3-0.2-6.9-0.4c0,0.3,0,0.4,0,0.4c-0.4,0.4,7.3,0.6,7.3,0.6c0.1,0,0.2,0.1,0.3,0.1
				C422.5,615.5,422,615.5,422,615.5z"/>
			<path d="M431.2,606.9c-0.2-0.2-0.4-3.1-0.4-3.1c-0.1,0.1-0.2,0.1-0.4,0.1c0.1,0.9,0.2,2.2,0.4,2.4c0.2,0.2,1.1,5.4,0.9,7.9
				c-0.2,2.5,0,2.5,0,2.5s-6.8,1-8.4,0.3c0,0.1,0.1,0.2,0.1,0.3c0.2,1.3,8.8,0,8.8,0s-0.2,0,0-2.5
				C432.3,612.4,431.5,607.1,431.2,606.9z"/>
			<pattern  id="SVGID_2_" xlink:href="#SVGID_4_" patternTransform="matrix(1 0 0 -1 -22.58 -29205.6211)"  class="st13">
			</pattern>
			<path class="st14" d="M422,615.5c0,0-5.3-0.2-6.9-0.4c0,0.3,0,0.4,0,0.4c-0.4,0.4,7.3,0.6,7.3,0.6c0.1,0,0.2,0.1,0.3,0.1
				C422.5,615.5,422,615.5,422,615.5z"/>
			<pattern  id="SVGID_3_" xlink:href="#SVGID_5_" patternTransform="matrix(1 0 0 -1 -22.58 -29205.6211)"  class="st13">
			</pattern>
			<path class="st15" d="M431.2,606.9c-0.2-0.2-0.4-3.1-0.4-3.1c-0.1,0.1-0.2,0.1-0.4,0.1c0.1,0.9,0.2,2.2,0.4,2.4
				c0.2,0.2,1.1,5.4,0.9,7.9c-0.2,2.5,0,2.5,0,2.5s-6.8,1-8.4,0.3c0,0.1,0.1,0.2,0.1,0.3c0.2,1.3,8.8,0,8.8,0s-0.2,0,0-2.5
				C432.3,612.4,431.5,607.1,431.2,606.9z"/>
		</g>
		<path class="st11" d="M424.4,581.9c0.2,0.4,0.5,0.7,0.8,1c0.2,0.2,0.5,0.3,0.7,0.3c-0.5,0.3-1,0.5-1.4,0.7c-0.7,0.5-1.4,1-2.1,1.6
			c-0.7,0.6-1.5,0.9-2.4,1c0.6-0.9,0.7-2,0.3-3c-0.2-0.3-0.3-0.7-0.4-1c0-0.6,0.5-1.1,1-1.4c0.4-0.3,0.8-0.5,1.2-0.8
			c0.3-0.2,0.8-0.6,1.2-0.6c0.4,0,0.5,0.4,0.5,0.7C424,581,424.2,581.5,424.4,581.9z"/>
		<path class="st6" d="M424.4,581.9c0.2,0.4,0.5,0.7,0.8,1c0.2,0.2,0.5,0.3,0.7,0.3c-0.5,0.3-1,0.5-1.4,0.7c-0.7,0.5-1.4,1-2.1,1.6
			c-0.7,0.6-1.5,0.9-2.4,1c0.6-0.9,0.7-2,0.3-3c-0.2-0.3-0.3-0.7-0.4-1c0-0.6,0.5-1.1,1-1.4c0.4-0.3,0.8-0.5,1.2-0.8
			c0.3-0.2,0.8-0.6,1.2-0.6c0.4,0,0.5,0.4,0.5,0.7C424,581,424.2,581.5,424.4,581.9z"/>
		<circle class="st11" cx="429.3" cy="589.5" r="4.8"/>
		<path class="st12" d="M436.1,657.7c0,0.4-0.9,1.5-0.9,1.5c-1.7,0.2-3.4,0-5-0.6c-0.4-0.2,0.2-1.5,0.2-1.5l0.1-0.1
			c0.2-0.5,0.5-1,0.8-1.4c0.4-0.4,0.7-2.1,0.7-2.1c1.3-2.1,3.6,0.9,3.6,0.9s0.3,1.6,0.4,2.6C436,657.3,436.1,657.6,436.1,657.7z"/>
		<path class="st6" d="M436.1,657.7c0,0.4-0.9,1.5-0.9,1.5c-1.7,0.2-3.4,0-5-0.6c-0.4-0.2,0.2-1.5,0.2-1.5l0.1-0.1
			c1.4,0.6,3,1,4.6,1l1-1C436,657.3,436.1,657.6,436.1,657.7z"/>
		<circle class="st11" cx="419.7" cy="579.4" r="4.7"/>
		<path class="st11" d="M415.9,604.8c-1,1-1.2,2.6-1.3,4l-0.2,2.1c-0.1,0.6-0.1,1.1-0.1,1.7c0,0.4,0.1,0.7,0.1,1.1s0.1,0.9,0.1,1.2
			v3.1c-0.1,0.6,0.1,1.3,0.3,1.9c0.3,0.6,1,0.9,1.6,0.6c0.3-0.3,0.6-0.6,0.6-1c0.5-1.2,0.9-2.6,1.1-3.9c0.1-0.5,0.1-0.9,0.1-1.4
			s0.1-1,0.2-1.4c0.3-2,0.4-3.9,0.6-5.9c0.1-0.6,0.6-2.9-0.2-3.1c-0.4-0.1-1.2,0.3-1.5,0.4C416.8,604.2,416.3,604.4,415.9,604.8z"/>
		<path class="st6" d="M415.9,604.8c-1,1-1.2,2.6-1.3,4l-0.2,2.1c-0.1,0.6-0.1,1.1-0.1,1.7c0,0.4,0.1,0.7,0.1,1.1s0.1,0.9,0.1,1.2
			v3.1c-0.1,0.6,0.1,1.3,0.3,1.9c0.3,0.6,1,0.9,1.6,0.6c0.3-0.3,0.6-0.6,0.6-1c0.5-1.2,0.9-2.6,1.1-3.9c0.1-0.5,0.1-0.9,0.1-1.4
			s0.1-1,0.2-1.4c0.3-2,0.4-3.9,0.6-5.9c0.1-0.6,0.6-2.9-0.2-3.1c-0.4-0.1-1.2,0.3-1.5,0.4C416.8,604.2,416.3,604.4,415.9,604.8z"/>
		<path class="st12" d="M425.6,582.5c0,0-3.6,2.7-5.6,3.3c0,0-1.2,1.4-1.4,1.8c-0.2,0.3-0.6,4.1-1.1,4.9c-0.4,0.9-1.5,2.7,0,4.6
			c0,0,0.4,1.9,0.2,2.5c-0.2,0.6-1,2.9-0.3,3c0.7,0.1,2.8,1.5,4.7,1.2s8.9,1.6,8.9,1.6s1.2-10.7,2-12.7l-1.9-0.6
			c0,0-5.2-3.1-2.1-7.9C429,584.2,426,583.5,425.6,582.5z"/>
		<path class="st4" d="M412.6,611l4.3,3.1c0.1,0.1,0.3,0.1,0.4,0l1.2-0.9c0.2-0.1,0.2-0.3,0.1-0.5c0,0,0,0-0.1-0.1l-3.3-2.9
			c-0.1-0.1-0.2-0.1-0.3-0.1l-2.1,0.7c-0.2,0.1-0.3,0.3-0.2,0.4C412.6,610.9,412.6,611,412.6,611z"/>
		<path class="st11" d="M414.1,620.2c-0.3-1.1-0.5-2.2-0.4-3.2l-0.1-1.5c-0.1-0.6,0-1.2,0.2-1.7c0.3-0.7,1-1.3,1.8-1.6
			c0.8-0.2,1.6-0.3,2.4-0.2c0.1,0,0.2,0.1,0.3,0.1c0.1,0.1,0.2,0.2,0.2,0.3c0.3,0.5,0.3,1,0.1,1.5c-0.1,0.2-0.3,0.4-0.5,0.5
			c-0.6,0.4-1.3,0.7-1.8,1.2c-0.1,0.1-0.2,0.2-0.3,0.3c0,0.1,0,0.2,0,0.3c0.1,0.3,0.2,0.6,0.3,0.9c0.1,0.2,0.1,0.3,0.3,0.4
			c0.1,0.1,0.2,0.1,0.3,0.2c0.2,0.2,0.7,0.4,0.7,0.7c-0.1,1.1-0.7,2.2-1,3.3C416.1,623.8,414.4,621.1,414.1,620.2z"/>
		<g class="st13">
			<path d="M420.8,603.8h-0.1c0.4,0.1,0.9,0.1,1.4,0h0.2C421.7,603.7,421.3,603.7,420.8,603.8z"/>
			<path d="M431.8,592.4c-0.7,1.7-1.9,10.8-2.1,12.7c0.7,0.2,1.2,0.3,1.2,0.3s1.2-10.7,2-12.7L431.8,592.4z"/>
		</g>
		<path class="st11" d="M429.4,589.6c0.1,0.4,0.3,0.8,0.7,1.1c0.4,0.4,0.9,0.8,1.2,1.2c0.5,0.7,1,1.5,1.2,2.4c0.4,1.1,0.7,2.2,1,3.3
			c-2.7,1.2-5.7,1.2-8.5,2c-1.2,0.3-2.3,1-3.2,1.9c-0.9,0.9-1.3,2.2-1.2,3.5c0,0.1,0,0.2,0.1,0.2c0.1,0.1,0.2,0.2,0.4,0.2
			c0.7,0,1.4-0.2,2-0.7c0.5-0.4,1.1-0.9,1.5-1.5c0.3-0.4,0.6-0.6,1.1-0.8c1.5-0.5,3.2-0.4,4.8-0.5c2.4-0.1,4.8-0.2,7.1-0.6
			c0.3,0.1,0.6-0.2,0.6-0.5c0-0.1,0-0.1,0-0.2c0.2-3.1-1-6.2-2.1-9.1c-0.5-1.2-1-2.3-1.5-3.5c-0.4-1.1-1-2.2-1.8-3.1
			c-0.3-0.3-0.6-0.6-1.1-0.8c-0.5-0.2-1-0.3-1.4-0.3c-0.8-0.1-1.5-0.1-2.3-0.1c-0.1,0.4-0.2,0.8-0.2,1.2c0.1,1.4,0.7,2.8,1.3,4.1
			C429.1,589.4,429.3,589.4,429.4,589.6z"/>
		<path class="st16" d="M420.9,608.3c-0.4,0.6-0.5,1.3-0.5,2c0,0.3,0.1,0.6,0.2,0.9c0.3,0.7,0.9,1.3,1.7,1.6"/>
		<path class="st4" d="M423.6,574.9c-0.3,0-0.5,0.1-0.8,0.1c-0.7-1.1-2.3-1.8-4.3-1.8c-2.6,0-4.6,1.3-4.6,2.9s2.1,2.9,4.6,2.9
			c1,0,1.9-0.2,2.8-0.6c0.6,1.2,2.1,1.8,3.3,1.2c1.2-0.6,1.8-2.1,1.2-3.3C425.4,575.4,424.6,574.9,423.6,574.9L423.6,574.9z"/>
		<path class="st6" d="M423.9,579.2c-1,0-1.9-0.5-2.2-1.4c-0.9,0.4-1.8,0.6-2.8,0.6c-2.6,0-4.6-1.3-4.6-2.9c0-0.1,0-0.2,0-0.3
			c-0.2,0.3-0.2,0.6-0.2,0.9c0,1.6,2.1,2.9,4.6,2.9c1,0,1.9-0.2,2.8-0.6c0.6,1.2,2.1,1.8,3.3,1.2c0.7-0.3,1.2-1,1.4-1.8
			C425.7,578.7,424.8,579.2,423.9,579.2z"/>
		<path class="st6" d="M413.4,575c1.4-3,4.7-4.5,8-3.8c3.5-2.2,8.2-1.1,10.4,2.4c0.6,1,1,2.1,1.1,3.3c0-0.2,0-0.4,0-0.6
			c0-4.1-3.4-7.5-7.5-7.5c-1.4,0-2.8,0.4-3.9,1.1c-3.2-0.7-6.5,0.9-8,3.8c-1.8,1.7-2.8,4-2.7,6.5c0,0.2,0,0.4,0,0.6
			C410.8,578.6,411.7,576.5,413.4,575z"/>
		<path class="st9" d="M461.3,592.5c1.4-2.6-0.2-5.7-2-8c-1.9-2.3-4-4.7-4-7.6c0.1-4.2,4.5-6.6,8.1-8.9c2.7-1.6,5.1-3.6,7.2-5.8
			c0.9-0.9,1.6-1.9,2.2-3c0.7-1.6,0.7-3.5,0.7-5.3c-0.2-6-0.4-12-0.9-18"/>
		<path class="st5" d="M479.5,535.6c-0.1-2.2-1.3-4.3-3.2-5.4l-1.5,2.9l0.1-3.5c-0.7-0.2-1.4-0.3-2.1-0.3c-3.6,0.2-6.4,3.2-6.2,6.9
			c0.2,3.6,3.2,6.4,6.9,6.2C476.9,542.3,479.6,539.2,479.5,535.6L479.5,535.6L479.5,535.6z"/>
		<path class="st5" d="M467.8,579.9c-1.6,3.2-5.6,4.5-8.8,2.8s-4.5-5.6-2.8-8.8c1.6-3.2,5.6-4.5,8.8-2.8c1.4,0.7,2.6,2,3.1,3.6
			L464,578l4.5-1.1C468.5,577.9,468.3,579,467.8,579.9z"/>
		<path class="st5" d="M464.6,567.2c-3.6,0.2-6.7-2.6-6.9-6.2c-0.2-3,1.8-5.8,4.8-6.6l-0.1,2.7l1.5-2.9l0,0c3.6-0.2,6.7,2.6,6.9,6.2
			C471,563.9,468.2,567,464.6,567.2L464.6,567.2L464.6,567.2z"/>
		<path class="st5" d="M480.5,556.6c-3.6,0.2-6.7-2.6-6.9-6.2c-0.2-3.6,2.6-6.7,6.2-6.9c1.2-0.1,2.5,0.2,3.6,0.9l-1.2,3.2l2.4-2.3
			c1.3,1.2,2.1,2.8,2.1,4.5c0.1,0.6,0,1.2-0.2,1.8C485.8,554.5,483.4,556.5,480.5,556.6z"/>
		<path class="st6" d="M478.6,537.3c-1.5,0.2-3,0.6-4.5,0.7s-3.2-0.3-4.1-1.4c-0.4-0.7-0.9-1.4-1.2-2.1c-0.4-0.6-1-1.2-1.6-1.5
			c-1.6,3.2-0.4,7.2,2.9,8.8c3.2,1.6,7.2,0.4,8.8-2.9c0.3-0.5,0.5-1.1,0.6-1.6C479.1,537.3,478.8,537.3,478.6,537.3z"/>
		<path class="st6" d="M480.5,556.6c-3.6,0.2-6.7-2.6-6.9-6.2c-0.1-1.1,0.2-2.1,0.6-3.1c0.5,0.4,1,0.8,1.3,1.3
			c0.4,0.7,0.8,1.5,1.3,2.2c1,1.2,2.8,1.6,4.4,1.5s3.1-0.5,4.7-0.7c0.2,0,0.4-0.1,0.6-0.1C485.8,554.4,483.4,556.5,480.5,556.6z"/>
		<path class="st6" d="M464.6,567.2c-3.6,0.2-6.7-2.6-6.9-6.2c-0.1-1,0.2-2.1,0.6-3c0.5,0.4,1,0.8,1.4,1.3c0.5,0.7,0.8,1.5,1.4,2.2
			c1.1,1.2,3,1.6,4.6,1.6s3.2-0.4,4.8-0.5C469.7,565.2,467.3,567.1,464.6,567.2z"/>
		<path class="st6" d="M467.8,579.9c-1.7,3.2-5.7,4.4-8.9,2.7c-2.9-1.5-4.2-4.9-3.1-8c0.5,0.4,1,0.8,1.4,1.3
			c0.6,0.7,1.1,1.6,1.8,2.3c1.3,1.3,3.5,1.9,5.4,1.9C465.6,580.1,466.7,580,467.8,579.9z"/>
		<path class="st9" d="M545.9,673.3c1.4-2.6-0.2-5.7-2-8s-4-4.7-4-7.6c0.1-4.2,4.5-6.6,8.1-8.9c2.7-1.6,5.1-3.6,7.2-5.8
			c0.9-0.9,1.6-1.9,2.2-3c0.7-1.6,0.7-3.5,0.7-5.3c-0.2-6-0.4-12-0.9-18"/>
		<path class="st5" d="M564,616.4c-0.1-2.2-1.3-4.3-3.2-5.4l-1.5,2.9l0.1-3.5c-0.7-0.2-1.4-0.3-2.1-0.3c-3.6,0.2-6.4,3.2-6.2,6.9
			c0.2,3.6,3.2,6.4,6.9,6.2C561.4,623.1,564.2,620,564,616.4C564.1,616.4,564.1,616.4,564,616.4L564,616.4z"/>
		<path class="st5" d="M552.4,660.7c-1.6,3.2-5.6,4.5-8.8,2.8c-3.2-1.6-4.5-5.6-2.8-8.8c1.6-3.2,5.6-4.5,8.8-2.8
			c1.4,0.7,2.6,2,3.1,3.6l-4.1,3.3l4.5-1.1C553,658.7,552.8,659.8,552.4,660.7z"/>
		<path class="st5" d="M549.1,648c-3.6,0.2-6.7-2.6-6.9-6.2c-0.2-3,1.8-5.8,4.8-6.6l-0.1,2.7l1.5-2.9l0,0c3.6-0.2,6.7,2.6,6.9,6.2
			C555.5,644.7,552.7,647.8,549.1,648L549.1,648L549.1,648z"/>
		<path class="st5" d="M565,637.4c-3.6,0.2-6.7-2.6-6.9-6.2c-0.2-3.6,2.6-6.7,6.2-6.9c1.2-0.1,2.5,0.2,3.6,0.9l-1.2,3.2l2.4-2.3
			c1.3,1.2,2.1,2.8,2.1,4.5c0.1,0.6,0,1.2-0.2,1.8C570.4,635.3,567.9,637.3,565,637.4z"/>
		<path class="st6" d="M563.2,618.1c-1.5,0.2-3,0.6-4.5,0.7c-1.5,0.1-3.2-0.3-4.1-1.4c-0.4-0.7-0.9-1.4-1.2-2.1
			c-0.4-0.6-1-1.2-1.6-1.5c-1.6,3.2-0.4,7.2,2.9,8.8c3.2,1.6,7.2,0.4,8.8-2.9c0.3-0.5,0.5-1.1,0.6-1.6
			C563.6,618.1,563.4,618.1,563.2,618.1z"/>
		<path class="st6" d="M565,637.4c-3.6,0.2-6.7-2.6-6.9-6.2c-0.1-1.1,0.2-2.1,0.6-3.1c0.5,0.4,1,0.8,1.3,1.3
			c0.4,0.7,0.8,1.5,1.3,2.2c1,1.2,2.8,1.6,4.4,1.5c1.6-0.1,3.1-0.5,4.7-0.7c0.2,0,0.4-0.1,0.6-0.1
			C570.4,635.2,567.9,637.3,565,637.4z"/>
		<path class="st6" d="M549.1,648c-3.6,0.2-6.7-2.6-6.9-6.2c-0.1-1,0.2-2.1,0.6-3c0.5,0.4,1,0.8,1.4,1.3c0.5,0.7,0.9,1.5,1.4,2.2
			c1.1,1.2,3,1.6,4.6,1.6c1.6,0,3.2-0.4,4.8-0.5C554.2,646,551.9,647.9,549.1,648z"/>
		<path class="st6" d="M552.4,660.7c-1.7,3.2-5.7,4.4-8.9,2.7c-2.9-1.5-4.2-4.9-3.1-8c0.5,0.4,1,0.8,1.4,1.3
			c0.6,0.7,1.1,1.6,1.8,2.3c1.3,1.3,3.5,1.9,5.4,1.9C550.1,660.9,551.2,660.8,552.4,660.7z"/>
		
			<linearGradient id="SVGID_6_" gradientUnits="userSpaceOnUse" x1="287.1024" y1="572.3695" x2="287.1024" y2="626.0159" gradientTransform="matrix(1 0 0 -1 -52 1209.37)">
			<stop  offset="0" style="stop-color:#808080;stop-opacity:0.25"/>
			<stop  offset="0.54" style="stop-color:#808080;stop-opacity:0.12"/>
			<stop  offset="1" style="stop-color:#808080;stop-opacity:0.1"/>
		</linearGradient>
		<path class="st17" d="M270.8,598.3c0-1.6-0.7-3.2-2.1-4.2c0-3-2.2-5.5-5.1-6c-0.4-2.1-2-3.9-4-4.5l0,0c-0.3-0.1-0.5-0.2-0.7-0.2
			h-0.1h-0.2h-0.1h-0.1h-0.2h-0.3c-2.9,0.1-5.4,2.2-5.8,5.1c-1.9-0.4-3.6,0.1-3.9,1.3c-0.1,0.3-0.1,0.6,0.1,1
			c0.3,0.9,1.3,1.8,2.8,2.2l0.2,0.1l0.3,0.1h0.1l0,0c-0.3,0.6-0.4,1.3-0.4,2c0,1.8,1,3.3,2.5,4.1l-0.1,0.1c-0.2,0.2-0.3,0.4-0.4,0.6
			c-0.3,0.6-0.6,1.2-0.8,1.9c-0.2,0.6-0.2,1.2-0.3,1.7c-0.3,1-1.1,1.9-1.2,3c-0.1,0.5,0.1,1.1-0.3,1.4c-0.1,0.1-0.2,0.2-0.3,0.2
			c-0.2,0.2-0.4,0.4-0.6,0.6c-0.1,0.2-0.3,0.4-0.4,0.6c-0.3,0.2-0.8,0.2-1,0.6c-0.2,0.4,0.3,0.8,0.2,1.2c-0.1,0.4-0.4,0.5-0.6,0.7
			c-0.3,0.3-0.5,0.7-0.6,1.1c-1,0.2-2.1-0.1-2.9-0.7c0.2,0.3,0.2,0.7,0.3,1.1c-0.5-0.4-1-0.6-1.5-0.8c-0.6-0.3-1.2-0.7-1.6-1.2
			l0.9-0.1l-3.9-6l-1.2-0.3l1,2c-0.2,0.1-0.3,0.2-0.4,0.4c-0.1,0.2-0.1,0.4-0.1,0.7c0.1,0.5,0.2,1.1,0.3,1.6l0.3,1.4
			c0,0.1,0.1,0.3,0.1,0.4c-0.4,0-0.8,0-1.2,0.1c-0.8-0.3-1.6-0.5-2.4-0.6c-0.2-0.1-0.4-0.1-0.5,0c-0.2,0.1-0.4,0.2-0.5,0.4
			c-0.7,0.8-1.3,1.6-1.8,2.5c-2.1,3.7-4.9,6.8-7.5,10.1c-1.8,0.7-3.6,1.4-5.5,2.1l-3.9,1.5c-0.7,0.4-1.6,0.5-2.4,0.5
			c-0.4,0-0.9-0.1-1.1,0.3c-0.1,0.2-0.2,0.3-0.3,0.5l-0.4,0.1l0,0c-0.2-0.6-0.5-1.2-1-1.8c-0.2,0.1-0.4,0.2-0.4,0.3
			c-0.1,0.2-0.2,0.4-0.3,0.5c-0.2,0.3-0.6,0.5-0.9,0.7c-0.3,0.2-0.4,0.7-0.7,1c-0.4,0.3-0.9,0.5-1.3,0.5c-0.7,0.2-1.4,0.4-2.1,0.8
			c-0.3,0.2-0.5,0.3-0.8,0.4c-0.3,0.1-0.6,0.1-0.9,0.1l-2.1-0.2c-0.2,0-0.4,0-0.5,0c-0.4,0.2-0.7,0.6-0.6,1.1s0.3,0.9,0.6,1.2
			c0.4,0.3,0.7,0.5,1.2,0.6c1.8,0.7,3.7,1.2,5.5,1.6v0.4c1.3,0.7,2.8,1,4.3,1c0.1,0,0.2,0,0.3-0.1c0.2-0.1,0.2-0.3,0.3-0.4
			c0.4-1.3,0.7-2.7,0.9-4.1l0,0c0.3,0,0.5-0.1,0.7-0.2c0.7-0.2,1.4,0.3,2.2,0.4c0.9,0.1,1.8-0.4,2.6-0.7l0.4-0.1
			c-0.3,0.3-0.5,0.6-0.9,0.8c-0.4,0.3-0.7,0.4-1.1,0.7c-0.3,0.3-0.6,0.5-1,0.7c-0.2,0.1-0.5,0.2-0.7,0.3c-0.4,0.2-0.7,0.3-1,0.5
			c-0.3,0.2-0.5,0.4-0.7,0.7c-0.2,0.3-0.2,0.6-0.1,1c0.2,0.3,0.4,0.4,0.7,0.5c0.3,0.1,0.6,0.1,0.9,0c1.1-0.1,2.2-0.2,3.3-0.3
			c0.5-0.1,1-0.1,1.4-0.2c0.3-0.1,0.5-0.2,0.7-0.2c0.4-0.1,0.9-0.2,1.3-0.2c0.1,0,0.3,0,0.4,0.1c0.3,0.1,0.4,0.4,0.7,0.4
			c0.2,0,0.4,0,0.5-0.1c0.8-0.2,1.6-0.3,2.5-0.3c0.4,0,0.8-0.1,1-0.4c0.2-0.3-0.2-0.9-0.3-1.3c-0.1-0.3-0.1-0.6-0.1-0.9
			c-0.1-0.7-0.3-1.4-0.6-2.1c-0.2-0.3-0.3-0.6-0.5-1c1.6-0.6,3.1-1.4,4.6-2.3c0.8-0.6,1.7-1,2.6-1.3c1.1-0.1,2.2,0,3.3,0.4
			c2.6,0.7,5.1,1.6,7.5,2.6c1.2,0.5,2.3,1,3.6,1.4c0.4,0.5,0.8,0.9,1.3,1.2c0.9,0.5,1.8,0.7,2.7,0.7c1.3,0.1,2.6,0.2,3.9,0.2
			c1,0.1,2-0.2,2.9-0.5c0.2-0.1,0.4-0.3,0.6-0.4c0.7,0.1,1.4-0.2,1.9-0.7c0.7-0.6,1.2-1.4,1.4-2.3c0.3-1.2,0.1-2.7,0.8-3.6
			c0.2-0.3,0.5-0.5,0.6-0.7c0.2-0.4,0.4-0.8,0.3-1.2c0,0,0-0.1,0.1-0.1c0.2-0.4,0.3-0.8,0.3-1.2c0.1-0.3,0.2-0.6,0.4-1
			c0.4-1,0.7-1.9,1-2.9c0.2-0.6,0.3-1.3,0.5-2c0.1-0.5,0.1-1.1,0.2-1.6c0.1-0.9,0.2-1.6,0.5-2.4c0.7-1.9,1.1-3.9,1.1-5.9v-0.1
			c2-0.2,3.6-2,3.5-4c0-0.6-0.1-1.2-0.4-1.7C270.5,600.2,270.8,599.2,270.8,598.3z M251.7,621.4c0.1,0.2,0.1,0.4,0.2,0.6
			c-0.3-0.3-0.6-0.6-1-0.9c0.1,0.1,0.3,0.1,0.4,0.1C251.5,621.3,251.6,621.3,251.7,621.4L251.7,621.4z M250.3,620.4
			c-1.9-1.6-4-2.8-5.8-4.4c1,0.5,2,1.1,3,1.6c1.2,0.7,2.3,1.3,3.6,1.9C250.8,619.9,250.5,620.2,250.3,620.4L250.3,620.4z
			 M251.1,616.4l0.1-0.1c0,0.2,0,0.4,0,0.6l-0.5-0.2C250.8,616.7,250.9,616.5,251.1,616.4L251.1,616.4z M234.8,620.7
			c0.7-0.9,1.4-1.8,2-2.8c0.7,1.3,1.9,2.2,2.9,3.2C238.1,621,236.5,620.8,234.8,620.7z"/>
		<polygon class="st18" points="237.5,605.2 238.6,605.4 242.6,611.3 240.8,611.5 		"/>
		<path class="st19" d="M209.4,628.9c0.3,1,0.7,2,1.2,3c1.3-0.3,2.6-0.6,3.9-1.1c-0.3-0.4-0.5-0.7-0.8-1.1c-0.3-0.3-0.7-0.6-1.1-0.9
			c-0.4-0.1-0.9-0.1-1.3,0C210.6,628.9,210,628.9,209.4,628.9z"/>
		<path class="st18" d="M212.5,630.5c-0.6-0.3-1.1-0.9-1.3-1.5c-0.2-0.6-0.5-1.3-1-1.8c-0.2,0.1-0.4,0.2-0.4,0.3
			c-0.1,0.2-0.2,0.4-0.3,0.5c-0.2,0.3-0.6,0.4-0.9,0.7s-0.4,0.6-0.7,0.9c-0.4,0.3-0.9,0.5-1.3,0.5c-0.7,0.2-1.4,0.4-2.1,0.8
			c-0.3,0.2-0.5,0.3-0.8,0.4c-0.3,0.1-0.6,0.1-0.9,0l-2.1-0.2c-0.2-0.1-0.4-0.1-0.5,0c-0.4,0.2-0.7,0.6-0.7,1.1
			c0.1,0.5,0.3,0.9,0.7,1.1c0.4,0.3,0.7,0.5,1.2,0.6c1.8,0.7,3.7,1.2,5.6,1.6v0.4c1.3,0.6,2.8,1,4.3,1c0.1,0,0.2,0,0.3-0.1
			c0.2-0.1,0.2-0.3,0.3-0.4c0.5-1.5,0.8-3,0.9-4.6c0.1-0.4,0-0.8-0.1-1.2S212.8,630.5,212.5,630.5"/>
		<path class="st18" d="M252.7,622.6c-6.2,0.4-12.3-1.4-18.6-1.6c-0.8-0.1-1.5,0-2.3,0.2c-0.8,0.2-1.5,0.5-2.3,0.9
			c-3.3,1.5-6.8,2.8-10.2,4.1l-4,1.5c-0.7,0.4-1.6,0.5-2.4,0.5c-0.4,0-0.9-0.1-1.1,0.2c-0.6,1-0.3,2.3,0.1,3.5
			c0.2,0.4,0.4,0.7,0.7,0.7c0.3,0,0.5-0.1,0.7-0.2c0.7-0.2,1.4,0.3,2.2,0.4c0.9,0.1,1.8-0.4,2.7-0.7c1.4-0.5,3-0.5,4.5-0.7
			c2.6-0.4,4.9-1.6,7.1-2.9c0.8-0.6,1.7-1,2.7-1.2c1.1-0.1,2.2,0,3.3,0.4c2.6,0.7,5.1,1.6,7.6,2.6c1.3,0.6,2.6,1.1,4,1.4
			c2.9,0.7,6.1,0.6,8.9-0.5c1-0.4,2.1-1.1,2.1-2.2c0.1-0.6-0.4-1.2-0.7-1.7c-0.2-0.3-0.4-0.7-0.6-1
			C255.8,624.5,254.6,622.5,252.7,622.6z"/>
		<path class="st6" d="M252.7,622.6c-6.2,0.4-12.3-1.4-18.6-1.6c-0.8-0.1-1.5,0-2.3,0.2c-0.8,0.2-1.5,0.5-2.3,0.9
			c-3.3,1.5-6.8,2.8-10.2,4.1l-4,1.5c-0.7,0.4-1.6,0.5-2.4,0.5c-0.4,0-0.9-0.1-1.1,0.2c-0.6,1-0.3,2.3,0.1,3.5
			c0.2,0.4,0.4,0.7,0.7,0.7c0.3,0,0.5-0.1,0.7-0.2c0.7-0.2,1.4,0.3,2.2,0.4c0.9,0.1,1.8-0.4,2.7-0.7c1.4-0.5,3-0.5,4.5-0.7
			c2.6-0.4,4.9-1.6,7.1-2.9c0.8-0.6,1.7-1,2.7-1.2c1.1-0.1,2.2,0,3.3,0.4c2.6,0.7,5.1,1.6,7.6,2.6c1.3,0.6,2.6,1.1,4,1.4
			c2.9,0.7,6.1,0.6,8.9-0.5c1-0.4,2.1-1.1,2.1-2.2c0.1-0.6-0.4-1.2-0.7-1.7c-0.2-0.3-0.4-0.7-0.6-1
			C255.8,624.5,254.6,622.5,252.7,622.6z"/>
		<path class="st19" d="M221.3,629.2c1,0.3,2,0.6,2.9,0.9c0.5-0.9,1.6-1.5,1.8-2.6c0-0.1,0-0.1,0-0.2c0-0.1-0.1-0.1-0.1-0.1
			c-0.7-0.4-1.5-0.6-2.3-0.7c-0.6-0.1-1,0.6-1.2,1.1C222.3,627.9,221.5,629.3,221.3,629.2z"/>
		<path class="st18" d="M222.7,628.6c-0.6-0.1-1.1-0.4-1.4-1c-0.2-0.3-0.3-0.6-0.5-0.5s-0.4,0.3-0.4,0.6c-0.2,1-0.5,1.9-0.8,2.8
			c-0.4,0.9-1,1.7-1.7,2.3c-0.4,0.3-0.7,0.4-1.1,0.7c-0.3,0.3-0.6,0.5-1,0.7c-0.2,0.1-0.5,0.2-0.7,0.3c-0.4,0.2-0.7,0.3-1,0.5
			c-0.3,0.2-0.5,0.4-0.7,0.7c-0.2,0.3-0.2,0.6-0.1,1c0.2,0.3,0.4,0.4,0.7,0.5c0.3,0.1,0.6,0.1,0.9,0c1.1-0.1,2.3-0.2,3.4-0.3
			c0.5-0.1,1-0.1,1.4-0.2l0.7-0.2c0.4-0.1,0.9-0.2,1.3-0.2c0.1,0,0.3,0,0.4,0.1c0.3,0.1,0.4,0.4,0.7,0.4c0.2,0,0.4,0,0.5-0.1
			c0.9-0.2,1.6-0.3,2.5-0.3c0.4,0,0.8-0.1,1-0.4c0.2-0.4-0.2-0.9-0.3-1.3c-0.1-0.3-0.1-0.6-0.1-0.9c-0.1-0.7-0.3-1.4-0.6-2.1
			c-0.3-0.5-0.7-1.1-0.5-1.7c0.1-0.2,0.2-0.4,0.2-0.6C225.3,628.4,223.2,628.7,222.7,628.6z"/>
		<path class="st19" d="M243.3,612.6c-1.1-0.5-2-1.4-2.5-2.4c-0.1-0.2-0.2-0.5-0.3-0.7c-0.3-0.8-0.9-1.5-1.5-2.1
			c-0.2-0.2-0.3-0.2-0.5-0.2c-0.2,0.1-0.4,0.2-0.4,0.4c-0.1,0.2-0.1,0.4-0.1,0.7c0.1,0.5,0.2,1.1,0.3,1.5l0.3,1.4
			c0.1,0.2,0.1,0.4,0.2,0.6c0.1,0.2,0.3,0.4,0.5,0.6c0.3,0.3,0.5,0.5,0.9,0.7c0.2,0.2,0.3,0.3,0.5,0.4c0.3,0.2,0.6,0.2,1,0.3
			c1.3,0.2,2.5,0.6,3.5,1.4c0,0,0-0.9,0-1c0-0.3-0.1-0.5-0.3-0.7C244.5,613,243.9,612.7,243.3,612.6z"/>
		<path class="st6" d="M243.3,612.6c-1.1-0.5-2-1.4-2.5-2.4c-0.1-0.2-0.2-0.5-0.3-0.7c-0.3-0.8-0.9-1.5-1.5-2.1
			c-0.2-0.2-0.3-0.2-0.5-0.2c-0.2,0.1-0.4,0.2-0.4,0.4c-0.1,0.2-0.1,0.4-0.1,0.7c0.1,0.5,0.2,1.1,0.3,1.5l0.3,1.4
			c0.1,0.2,0.1,0.4,0.2,0.6c0.1,0.2,0.3,0.4,0.5,0.6c0.3,0.3,0.5,0.5,0.9,0.7c0.2,0.2,0.3,0.3,0.5,0.4c0.3,0.2,0.6,0.2,1,0.3
			c1.3,0.2,2.5,0.6,3.5,1.4c0,0,0-0.9,0-1c0-0.3-0.1-0.5-0.3-0.7C244.5,613,243.9,612.7,243.3,612.6z"/>
		<ellipse class="st18" cx="256" cy="600.6" rx="1.5" ry="1.5"/>
		<path class="st18" d="M255,599.6c-0.4-0.1-0.9-0.1-1.2,0.2c-0.2,0.2-0.3,0.3-0.4,0.5c-0.3,0.6-0.6,1.2-0.8,1.9
			c-0.2,0.5-0.2,1.1-0.3,1.7c-0.3,1-1.1,1.9-1.2,2.9c-0.1,0.5,0.1,1-0.3,1.3c-0.1,0.1-0.2,0.2-0.3,0.2c-0.3,0.2-0.4,0.4-0.6,0.6
			c-0.1,0.2-0.3,0.4-0.4,0.6c-0.3,0.2-0.8,0.2-1,0.5s0.3,0.7,0.2,1.2c-0.1,0.4-0.4,0.5-0.7,0.7c-0.3,0.3-0.5,0.6-0.6,1.1
			c-1,0.2-2.1-0.1-2.9-0.7c0.4,1.1,0.5,2.2,0.5,3.3c0.1,0.4-0.1,0.7-0.3,1c1.2,0.1,2.4,0.3,3.6,0.6c0.5,0.2,1.1,0.2,1.5,0
			c0.3-0.2,0.5-0.3,0.7-0.6c0.6-0.6,1.3-1.3,1.5-2.2c0.1-0.5,0.1-1,0-1.5c0.1-0.6,0.2-1.3,0.4-1.9c0.3-1.3,0.6-2.6,0.7-3.8
			c0.1-0.8,0.7-1.4,1.1-2.1c0.7-1.3,1.4-2.8,1.4-4.3C255.7,600.3,255.6,599.7,255,599.6z"/>
		<path class="st6" d="M255,599.6c-0.4-0.1-0.9-0.1-1.2,0.2c-0.2,0.2-0.3,0.3-0.4,0.5c-0.3,0.6-0.6,1.2-0.8,1.9
			c-0.2,0.5-0.2,1.1-0.3,1.7c-0.3,1-1.1,1.9-1.2,2.9c-0.1,0.5,0.1,1-0.3,1.3c-0.1,0.1-0.2,0.2-0.3,0.2c-0.3,0.2-0.4,0.4-0.6,0.6
			c-0.1,0.2-0.3,0.4-0.4,0.6c-0.3,0.2-0.8,0.2-1,0.5s0.3,0.7,0.2,1.2c-0.1,0.4-0.4,0.5-0.7,0.7c-0.3,0.3-0.5,0.6-0.6,1.1
			c-1,0.2-2.1-0.1-2.9-0.7c0.4,1.1,0.5,2.2,0.5,3.3c0.1,0.4-0.1,0.7-0.3,1c1.2,0.1,2.4,0.3,3.6,0.6c0.5,0.2,1.1,0.2,1.5,0
			c0.3-0.2,0.5-0.3,0.7-0.6c0.6-0.6,1.3-1.3,1.5-2.2c0.1-0.5,0.1-1,0-1.5c0.1-0.6,0.2-1.3,0.4-1.9c0.3-1.3,0.6-2.6,0.7-3.8
			c0.1-0.8,0.7-1.4,1.1-2.1c0.7-1.3,1.4-2.8,1.4-4.3C255.7,600.3,255.6,599.7,255,599.6z"/>
		<path class="st18" d="M253.7,623.9c-1.3-0.6-2.2-1.8-3.3-2.8c-2-1.9-4.4-3.2-6.5-4.9c-1.4-1.2-2.7-2.5-4.1-3.5
			c-1.3-0.9-2.9-1.4-4.5-1.5c-0.2-0.1-0.4-0.1-0.5,0c-0.2,0.1-0.4,0.2-0.5,0.4c-0.7,0.7-1.3,1.6-1.8,2.5c-2.7,4.5-6.4,8.3-9.6,12.5
			c-0.1,0.1-0.1,0.2-0.2,0.3c0,0.2,0.1,0.3,0.1,0.5l0.6,1.2c0.4,0.7,1,1.5,1.7,1.4c0.3-0.1,0.6-0.3,0.9-0.6l2.9-2.8l3-2.9
			c1.8-1.7,3.6-3.4,4.7-5.5c0.9,1.5,2.5,2.6,3.6,4c0.4,0.5,0.7,1.1,1.1,1.7c0.6,0.9,1.3,1.8,1.9,2.7l3.5,4.4c0.4,0.6,1,1.2,1.6,1.6
			c0.9,0.5,1.8,0.7,2.8,0.7c1.3,0.1,2.6,0.2,3.9,0.2c1,0.1,2-0.2,2.9-0.5c0.9-0.4,1.5-1.3,1.6-2.3c-0.1-0.5-0.2-1-0.5-1.4
			C257.5,626.9,255.9,625,253.7,623.9z"/>
		<ellipse class="st20" cx="257" cy="601.6" rx="1.2" ry="1.2"/>
		<path class="st19" d="M256.7,600.8c0.3,0.5,0.3,1.1,0.1,1.7c-0.2,0.5-0.4,1.1-0.7,1.5c-0.3,0.5-0.6,1-1,1.4
			c1.8,0.1,3.5-0.6,5.1-1.5c1.3-0.7,2.6-1.5,3.2-2.8c-0.4,0.1-0.9,0-1.2-0.2c-0.3-0.2-0.6-0.5-0.9-0.9l-0.9-1
			c-0.2-0.2-0.4-0.5-0.5-0.7c-0.2-0.4-0.3-0.7-0.3-1.2c-0.4,0.4-0.7,0.7-1.2,1c-0.6,0.4-1.3,0.7-2,1.1c-0.2,0.2-0.7,0.4-0.6,0.7
			C256.1,600.2,256.5,600.4,256.7,600.8z"/>
		<path class="st6" d="M256.7,600.8c0.3,0.5,0.3,1.1,0.1,1.7c-0.2,0.5-0.4,1.1-0.7,1.5c-0.3,0.5-0.6,1-1,1.4
			c1.8,0.1,3.5-0.6,5.1-1.5c1.3-0.7,2.6-1.5,3.2-2.8c-0.4,0.1-0.9,0-1.2-0.2c-0.3-0.2-0.6-0.5-0.9-0.9l-0.9-1
			c-0.2-0.2-0.4-0.5-0.5-0.7c-0.2-0.4-0.3-0.7-0.3-1.2c-0.4,0.4-0.7,0.7-1.2,1c-0.6,0.4-1.3,0.7-2,1.1c-0.2,0.2-0.7,0.4-0.6,0.7
			C256.1,600.2,256.5,600.4,256.7,600.8z"/>
		<path class="st20" d="M256.7,600.9c-0.4,0.5-0.4,1.2,0,1.8c0.1,0.1,0.3,0.5,0.3,0.5s0.2-0.1,0.2-0.1c0.4-0.4,0.8-0.9,1.1-1.3
			c0.4-0.5,0.9-0.8,1.4-1c0.7-0.1,1.4,0.2,2,0.6c0.3,0.1,0.5,0.3,0.7,0.5c0.1,0.2,0.2,0.5,0.2,0.7c0.2,1.6,0.3,3.2,0.2,4.8
			c0.1,1.2-0.1,2.3-0.2,3.5c-0.1,0.6-0.3,1.2-0.4,1.8c-0.1,0.5-0.1,1.1-0.1,1.6v2.2c0,0.4,0,0.8,0.1,1.2c0.1,0.5,0.3,1,0.5,1.4
			c0.2,0.5,0.3,1.1,0.3,1.6l0.3,2.3c0.1,0.7,0.2,1.5-0.3,2.1c-0.2,0.3-0.5,0.5-0.6,0.7c-0.7,1-0.5,2.4-0.8,3.6
			c-0.3,0.9-0.7,1.6-1.4,2.2c-0.5,0.5-1.2,0.7-1.9,0.7c-1-0.2-1.5-1.2-1.8-2.1c-0.3-0.9-0.3-1.9-0.9-2.7c-0.5-0.6-1.1-1.1-1.8-1.5
			c-0.7-0.4-1.2-1.1-1.4-1.8c-0.1-0.3,0-0.7-0.1-1c-0.1-0.9-0.7-1.6-1.5-2c-0.5-0.2-1.1-0.3-1.3-0.7c0.7-0.4,1.2-1.1,1.4-1.9
			c0.2-0.8,0.3-1.6,0.3-2.4l0.2-2.7c0.1-1.2,0.1-2.4,0.6-3.5c0.2-0.5,0.5-1,0.8-1.4c0.3-0.7,0.6-1.3,0.8-2.1
			c0.4-1.1,0.7-2.2,1.1-3.3c0.1-0.5,0.3-1.1,0.6-1.5C255.7,601.7,256.2,601,256.7,600.9z"/>
		<path class="st18" d="M250.8,618.3h0.7l0.2-1.1c0-0.2,0.1-0.4,0.2-0.6c0.1-0.2,0.3-0.4,0.4-0.6c0.7-1,0.6-2.3,0.8-3.5
			c0.3-1.6,0.9-3.1,1.5-4.6l1.4-3.1c0.1-0.3,0.2-0.5,0.3-0.8c0.1-0.3,0.1-0.6,0.1-0.9c0-0.5,0.2-2.2,0.2-2.7c0-0.2-0.4-0.1-0.5-0.2
			c-0.2-0.3-0.4,0.6-0.7,0.8c-0.3,0.2-0.5,0.5-0.6,0.9c-0.3,0.7-0.5,1.6-0.7,2.3c-0.3,0.8-0.7,1.5-1.3,2.1c-0.3,0.3-0.6,0.4-0.9,0.7
			c-0.9,0.9-1,2.2-1,3.3C250.7,611.3,250.6,618.3,250.8,618.3z"/>
		<path class="st18" d="M260.9,599.6c-0.7,0.4-1.1,1-1.3,1.8c-0.1,0.7-0.3,1.4-0.6,2.1c-0.9,1.5-3.1,1.9-3.7,3.6
			c-0.2,0.5-0.2,1.1-0.3,1.7c-0.1,1.2-0.5,2.3-0.6,3.5c-0.1,0.9-0.1,1.8,0.1,2.7l0.8,9.1c0.2,1.3,0.1,2.7-0.2,4
			c0.8,0.1,1.6,0,2.3-0.4c0.7-0.3,1.4-0.8,2.1-1.2c1.2-0.6,2.5-1.1,3.6-2c0.2-0.2,0.4-0.3,0.5-0.5c0.2-0.4,0.3-0.8,0.3-1.2
			c0.1-0.3,0.2-0.6,0.4-1c0.4-0.9,0.7-1.9,1-2.8c0.2-0.6,0.3-1.3,0.5-1.9c0.1-0.5,0.2-1.1,0.2-1.6c0.1-0.9,0.2-1.6,0.5-2.4
			c0.7-1.9,1.1-3.8,1.1-5.8c0-0.3,0-0.6-0.1-0.9c-0.1-0.3-0.3-0.7-0.5-1c-0.3-0.6-0.5-1.3-0.8-1.9c-0.7-1.3-1.9-2.5-3.1-3.3
			C262.4,599.9,261.6,599.4,260.9,599.6z"/>
		<path class="st19" d="M244.9,614.6c-0.5-0.3-1.1-0.6-1.5-1.1c-0.2-0.2-0.4-0.5-0.5-0.7c-0.5-0.5-1.1-0.9-1.9-1.1
			c-0.7-0.2-1.4-0.2-2.1-0.2c-0.5-0.1-1,0-1.4,0.2s-0.8,0.5-1,1c-0.1,0.6,0.2,1.2,0.7,1.5c0.4,0.3,0.9,0.6,1.4,0.7
			c0.4,0.1,0.9,0.1,1.3,0.2c2.6,0.3,4.8,1.6,7,2.9c2,1.1,3.9,2.1,6,3.1c0.1-0.6,0.1-1.2,0.1-1.9c0-0.5-0.1-1.2-0.5-1.4
			c-0.6-0.3-1.3-0.4-1.9-0.6c-1.3-0.4-2.6-1-3.8-1.5C246.2,615.4,245.5,615,244.9,614.6z"/>
		<ellipse class="st19" cx="256" cy="595.7" rx="4.5" ry="4.6"/>
		<path class="st18" d="M262.2,604.8c-0.4,0.5-0.6,1.1-0.9,1.6c-0.5,1.2-1.4,2.1-1.9,3.3c-0.4,1.2-0.4,2.8-1.3,3.8
			c-0.2,0.2-0.3,0.4-0.4,0.6c0,0.2,0,0.3-0.1,0.4c-0.2,0.4-0.7,0.4-0.9,0.7c-0.1,0.1,0,0.2-0.1,0.3c-0.1,0.3-0.4,0.3-0.6,0.4
			c-0.4,0.3-0.4,1-0.7,1.4c-0.3,0.3-0.7,0.5-1.1,0.4c-0.4-0.1-0.8-0.2-1.2-0.4c-0.1-0.1-0.3-0.1-0.4-0.2c-0.2,0-0.4,0.1-0.5,0.2
			c-0.8,0.6-1.3,1.5-1.2,2.6c0.1,1,0.3,2,0.7,2.9c0.1,0.2,0.1,0.3,0.2,0.4c0.3,0.3,0.7,0.3,1.1,0.1c0.4-0.2,0.7-0.4,1.1-0.5
			c0.7-0.1,1.4,0.4,2.1,0.3c0.5-0.1,1-0.3,1.4-0.6c0.7-0.4,1.4-1,1.9-1.6c0.3-0.4,0.5-0.9,0.8-1.3c0.4-0.5,0.7-1.1,1.1-1.5l2.6-3.2
			c0.3-0.3,0.5-0.6,0.7-1c0.2-0.5,0.4-1,0.5-1.5c0.3-0.9,0.5-1.7,0.5-2.6c0-0.7-0.1-1.5-0.2-2.2c-0.1-0.7-0.3-1.4-0.5-2.1
			C264.7,604.5,263.3,603.6,262.2,604.8z"/>
		<path class="st21" d="M271.3,598.9c0-1.6-0.8-3.2-2.1-4.1c-0.1-3-2.2-5.5-5.2-5.9c-0.6-3.2-3.7-5.3-6.9-4.6
			c-2.4,0.5-4.3,2.4-4.7,4.9c-1.9-0.4-3.6,0.1-3.9,1.3s1,2.7,3,3.2c0.6,0.2,1.3,0.3,1.9,0.2c1,1.4,2.4,2.3,4,2.6
			c0.5,2.2,2.2,4,4.4,4.6c0.3,0.7,0.7,1.4,1.4,1.9c0,0.2,0,0.3,0,0.4c0,2.1,1.7,3.8,3.8,3.8c2.1,0,3.8-1.7,3.8-3.8l0,0
			c0-0.6-0.1-1.2-0.4-1.7C271.1,600.7,271.4,599.8,271.3,598.9z"/>
		<path class="st6" d="M249.8,590.7c0.3-1.2,2-1.7,3.9-1.3c0.5-2.9,2.9-5,5.8-5.1h0.4c-0.5-0.2-1.1-0.3-1.6-0.3
			c-2.9,0.1-5.4,2.2-5.8,5.1c-1.9-0.4-3.6,0.1-3.9,1.3s1,2.7,3,3.2c0.4,0.1,0.7,0.2,1.1,0.2C250.8,593.3,249.5,591.9,249.8,590.7z"
			/>
		<path class="st6" d="M264.6,603.5c0-0.2,0-0.3,0-0.4c-0.6-0.5-1.1-1.2-1.4-1.9c-2.2-0.5-3.9-2.3-4.4-4.6c-1.6-0.2-3.1-1.2-4-2.5
			c-0.4,0.1-0.7,0-1.1-0.1c1,1.3,2.3,2.1,3.9,2.3c0.5,2.2,2.2,4,4.4,4.6c0.3,0.7,0.7,1.4,1.4,1.9c0,0.2,0,0.3,0,0.4
			c-0.1,2.1,1.6,3.9,3.8,4C265.6,606.6,264.6,605.1,264.6,603.5z"/>
		
			<ellipse transform="matrix(0.7963 -0.6049 0.6049 0.7963 -308.4443 277.284)" class="st19" cx="257.5" cy="596.6" rx="0.7" ry="1"/>
	</g>
</g>
</svg>
