<svg xmlns="http://www.w3.org/2000/svg" xmlns:xlink="http://www.w3.org/1999/xlink" viewBox="0 0 955 1084"><defs><style>.cls-1,.cls-10,.cls-16{fill:none;}.cls-2{fill:#697afe;}.cls-3{fill:#353e80;}.cls-4,.cls-8{opacity:0.6;}.cls-5{fill:#3f3d56;}.cls-6,.cls-8,.cls-9{fill:#ffe385;}.cls-14,.cls-16,.cls-7,.cls-9{opacity:0.1;}.cls-16,.cls-7,.cls-8,.cls-9{isolation:isolate;}.cls-10{stroke:#3f3d56;stroke-width:4px;}.cls-10,.cls-16{stroke-miterlimit:10;}.cls-11{fill:url(#Gradiente_sem_nome_2);}.cls-12{fill:#be6f72;}.cls-13{fill:#ff6f61;}.cls-15{fill:url(#SVGID_4_);}.cls-16{stroke:#000;}.cls-17{fill:url(#Gradiente_sem_nome_2-2);}.cls-18{fill:#2f2e41;}.cls-19{fill:#fbbebe;}.cls-20{fill:#e8e8f0;}.cls-21{fill:#f86d70;}</style><linearGradient id="Gradiente_sem_nome_2" x1="615.85" y1="501.03" x2="615.85" y2="621.4" gradientTransform="matrix(1, 0, 0, -1, -52, 1209.37)" gradientUnits="userSpaceOnUse"><stop offset="0" stop-color="gray" stop-opacity="0.25"/><stop offset="0.54" stop-color="gray" stop-opacity="0.12"/><stop offset="1" stop-color="gray" stop-opacity="0.1"/></linearGradient><pattern id="SVGID_4_" data-name="SVGID 4 " width="36.9" height="49.5" patternTransform="matrix(1, 0, 0, -1, -22.58, -15852.62)" patternUnits="userSpaceOnUse" viewBox="0 0 36.9 49.5"><rect class="cls-1" width="36.9" height="49.5"/><rect class="cls-1" width="36.9" height="49.5"/><rect class="cls-1" width="36.9" height="49.5"/><rect class="cls-1" width="36.9" height="49.5"/><path d="M4.3,36.3c4.5,0,4.5,7,0,7S-.2,36.3,4.3,36.3Z"/><path d="M4.5,32.3c4.5,0,4.5,7,0,7S0,32.3,4.5,32.3Z"/><path d="M4.5,28.6c4.5,0,4.5,7,0,7S0,28.6,4.5,28.6Z"/><path d="M3.4,24.8c4.5,0,4.5,7,0,7S-1.1,24.8,3.4,24.8Z"/><path d="M1.1,21.2l.2-.4a3.57,3.57,0,0,1,4.8-1.3,3.66,3.66,0,0,1,1.3,4.8l-.2.4A3.57,3.57,0,0,1,2.4,26,3.57,3.57,0,0,1,1.1,21.2Z"/><path d="M1.5,19.4l.2-.6a3.75,3.75,0,0,1,1.6-2.1A3.2,3.2,0,0,1,6,16.4a3.43,3.43,0,0,1,2.4,4.3l-.2.6a3.75,3.75,0,0,1-1.6,2.1,3.64,3.64,0,0,1-2.7.4A3.66,3.66,0,0,1,1.5,19.4Z"/><path d="M1.6,15.6v-.4a3.54,3.54,0,0,1,3.5-3.5,3.54,3.54,0,0,1,3.5,3.5v.4a3.54,3.54,0,0,1-3.5,3.5A3.54,3.54,0,0,1,1.6,15.6Z"/><path d="M4.9,7.2c4.5,0,4.5,7,0,7S.4,7.2,4.9,7.2Z"/><path d="M1.8,7.5V7.3A3.54,3.54,0,0,1,5.3,3.8,3.54,3.54,0,0,1,8.8,7.3v.2A3.54,3.54,0,0,1,5.3,11,3.54,3.54,0,0,1,1.8,7.5Z"/><path d="M6,.2c4.5,0,4.5,7,0,7S1.5.2,6,.2Z"/><path d="M10,35.4c4.5,0,4.5,7,0,7S5.5,35.4,10,35.4Z"/><path d="M6.6,28.6c4.5,0,4.5,7,0,7S2.1,28.6,6.6,28.6Z"/><path d="M8.5,22.5c4.5,0,4.5,7,0,7S4,22.5,8.5,22.5Z"/><path d="M8.5,20.2c4.5,0,4.5,7,0,7S4,20.2,8.5,20.2Z"/><path d="M14.9,15.7c4.5,0,4.5,7,0,7S10.4,15.7,14.9,15.7Z"/><path d="M9.8,11c4.5,0,4.5,7,0,7S5.3,11,9.8,11Z"/><path d="M10.6,4.4c4.5,0,4.5,7,0,7S6.1,4.4,10.6,4.4Z"/><path d="M10.6,0c4.5,0,4.5,7,0,7S6.1,0,10.6,0Z"/><path d="M12.8,31.4a2,2,0,0,1,0,4C10.2,35.4,10.3,31.4,12.8,31.4Z"/><path d="M13,29.1a2,2,0,0,1,0,4A2,2,0,0,1,13,29.1Z"/><path d="M13.1,28.5v-.2a2,2,0,0,1,4,0v.2a2,2,0,0,1-4,0Z"/><path d="M15.1,23.6a2,2,0,0,1,0,4A2,2,0,0,1,15.1,23.6Z"/><path d="M16.6,38.4a1,1,0,1,1-1,1A1,1,0,0,1,16.6,38.4Z"/><path d="M21.7,33a1,1,0,1,1-1,1A1,1,0,0,1,21.7,33Z"/><path d="M16.9,40.6V41a1,1,0,1,1-2,0v-.4a.94.94,0,0,1,1-1A1,1,0,0,1,16.9,40.6Z"/><path d="M16.5,44.7v.2a1,1,0,0,1-2,0v-.2a.94.94,0,0,1,1-1A1.08,1.08,0,0,1,16.5,44.7Z"/><path d="M15.5,47.5a1,1,0,1,1-1,1A.94.94,0,0,1,15.5,47.5Z"/><path d="M10.6,47.5a1,1,0,1,1,0,2,1,1,0,0,1,0-2Z"/><path d="M10.4,44.8a1,1,0,0,1,0,2,1,1,0,1,1,0-2Z"/><path d="M7.4,43.3a1,1,0,0,1,0,2,1,1,0,1,1,0-2Z"/><path d="M11.9,42.4h.4a1,1,0,1,1,0,2h-.4a1,1,0,1,1,0-2Z"/><path d="M13.3,38.5l.6-1.3a1.11,1.11,0,0,1,1.4-.4h0a1.11,1.11,0,0,1,.4,1.4h0L15,39.5a1.11,1.11,0,0,1-1.4.4h0A1.08,1.08,0,0,1,13.3,38.5Z"/><path d="M18.4,30.2V30a1,1,0,0,1,2,0v.2a.94.94,0,0,1-1,1A1,1,0,0,1,18.4,30.2Z"/><path d="M20.7,24.6l.2-.4c.6-1.1,2.3-.1,1.7,1l-.2.4C21.8,26.7,20.1,25.7,20.7,24.6Z"/><path d="M22.1,20.1a2.56,2.56,0,0,1-.8-1.9,1,1,0,0,1,2,0c0,.2.1.3.3.4a1,1,0,0,1,0,1.4h0A1,1,0,0,1,22.1,20.1Z"/><path d="M20.3,16.1l-.5-1.7a1,1,0,1,1,1.9-.5l.5,1.7C22.6,16.8,20.7,17.3,20.3,16.1Z"/><path d="M19.4,12.5h-.2a1,1,0,0,1,0-2h.2a1,1,0,0,1,0,2Z"/><path d="M17.6,8l-.2-.4c-.6-1.2,1.1-2.2,1.7-1l.2.4C19.9,8.2,18.2,9.2,17.6,8Z"/><path d="M15.8,1.6V1a1,1,0,0,1,2,0v.6a1,1,0,1,1-2,0Z"/><path d="M14.3.1a.94.94,0,0,1,1,1,1,1,0,0,1-2,0A1,1,0,0,1,14.3.1Z"/><path d="M14.3,8.2a.94.94,0,0,1,1,1,1,1,0,0,1-2,0A1,1,0,0,1,14.3,8.2Z"/><path d="M17.1,13a1.9,1.9,0,0,1,1,1.6,1,1,0,1,1-2,0c0,.1.2.2,0,.1C15,14.2,16,12.5,17.1,13Z"/><path d="M17.4,18.2a1,1,0,1,1-1,1A.94.94,0,0,1,17.4,18.2Z"/><path d="M18.1,21a1,1,0,1,1-1,1A1,1,0,0,1,18.1,21Z"/><path d="M19,24.6l.2.4c.6,1.1-1.1,2.2-1.7,1l-.2-.4C16.7,24.4,18.4,23.4,19,24.6Z"/><path d="M17.9,33.5a1,1,0,1,1-1,1A1,1,0,0,1,17.9,33.5Z"/><path d="M24.6,33.5l.6-.9a1.08,1.08,0,0,1,1.4-.2,1,1,0,0,1,.3,1.2l-.6,1a1,1,0,0,1-1.4.3,1.44,1.44,0,0,1-.3-1.4Z"/><path d="M34.9,19.8v-.2a1,1,0,0,1,2,0v.2a.94.94,0,0,1-1,1A1,1,0,0,1,34.9,19.8Z"/><path d="M24,10.3a.94.94,0,0,1,1,1,1,1,0,0,1-2,0A1,1,0,0,1,24,10.3Z"/><path d="M22.9,20.5a1,1,0,1,1-1,1A.94.94,0,0,1,22.9,20.5Z"/><path d="M18.2,27.6l.6.6a1,1,0,0,1-1.4,1.4l-.6-.6A1,1,0,0,1,18.2,27.6Z"/></pattern><linearGradient id="Gradiente_sem_nome_2-2" x1="366.62" y1="530.29" x2="366.62" y2="600.92" xlink:href="#Gradiente_sem_nome_2"/></defs><title>undraw_contact_us2</title><g id="Camada_2" data-name="Camada 2"><path class="cls-2" d="M494.19,0S1002.78,77.29,890.7,526.94,955.19,1084,955.19,1084h-905V0Z" transform="translate(-0.19)"/><path class="cls-3" d="M434.19,0S942.78,77.29,830.7,526.94,895.19,1084,895.19,1084H.19V0Z" transform="translate(-0.19)"/></g><g id="Camada_1" data-name="Camada 1"><g id="ae37f038-3a9e-4b82-ad68-fc94ba16af2a"><g class="cls-4"><ellipse class="cls-5" cx="362.38" cy="583.91" rx="7.98" ry="10.43"/><path class="cls-5" d="M368.88,539.32a12.75,12.75,0,0,0,1.68-6.37c0-5.74-3.57-10.43-8-10.43s-8,4.62-8,10.43a12.75,12.75,0,0,0,1.68,6.37,12.92,12.92,0,0,0,0,12.74,12.92,12.92,0,0,0,0,12.74,12.75,12.75,0,0,0-1.68,6.37c0,5.74,3.57,10.43,8,10.43s8-4.69,8-10.43a12.75,12.75,0,0,0-1.68-6.37,12.92,12.92,0,0,0,0-12.74,12.92,12.92,0,0,0,0-12.74Z" transform="translate(-0.19)"/><ellipse class="cls-5" cx="362.38" cy="520.21" rx="7.98" ry="10.43"/><ellipse class="cls-5" cx="362.38" cy="507.47" rx="7.98" ry="10.43"/><path class="cls-6" d="M332.76,420.18a33.83,33.83,0,0,1-2.94-4.34l20.93-3.43-22.61.14a38.17,38.17,0,0,1-.7-30.24l30.38,15.75-28-20.58a38.19,38.19,0,0,1,66.36,37.8,38.71,38.71,0,0,1-3.36,5,39.63,39.63,0,0,1,4.34,6.93L370,441.32l29-9.73a38.17,38.17,0,0,1-6.16,35.84,38.18,38.18,0,1,1-60,.07,38.37,38.37,0,0,1-.07-47.32Z" transform="translate(-0.19)"/><path class="cls-7" d="M400.94,443.77a38,38,0,0,1-8.19,23.59,38.18,38.18,0,1,1-60,.07C327.65,460.92,400.94,439.5,400.94,443.77Z" transform="translate(-0.19)"/></g><g class="cls-4"><ellipse class="cls-5" cx="455.41" cy="561.65" rx="5.95" ry="7.77"/><path class="cls-5" d="M460.3,528.26a9.5,9.5,0,0,0,1.26-4.76c0-4.27-2.66-7.77-5.95-7.77s-5.95,3.5-5.95,7.77a9.5,9.5,0,0,0,1.26,4.76,9.62,9.62,0,0,0,0,9.52,9.62,9.62,0,0,0,0,9.52,9.5,9.5,0,0,0-1.26,4.76c0,4.27,2.66,7.77,5.95,7.77s5.95-3.5,5.95-7.77a9.5,9.5,0,0,0-1.26-4.76,9.62,9.62,0,0,0,0-9.52A9.62,9.62,0,0,0,460.3,528.26Z" transform="translate(-0.19)"/><ellipse class="cls-5" cx="455.41" cy="513.98" rx="5.95" ry="7.77"/><ellipse class="cls-5" cx="455.41" cy="504.46" rx="5.95" ry="7.77"/><path class="cls-6" d="M433.28,439.29A27.18,27.18,0,0,1,431,436l15.61-2.59-16.94.14a28.53,28.53,0,0,1-.56-22.61l22.68,11.76L430.9,407.3a28.55,28.55,0,1,1,49.49,28.49,36.75,36.75,0,0,1-2.31,3.43,30.84,30.84,0,0,1,3.29,5.18L461.07,455l21.63-7.28a28.68,28.68,0,0,1-4.62,26.81,28.51,28.51,0,1,1-44.8,0,28.69,28.69,0,0,1,0-35.21Z" transform="translate(-0.19)"/><path class="cls-7" d="M484.24,456.93a28.82,28.82,0,0,1-6.09,17.64,28.51,28.51,0,1,1-44.8,0C429.5,469.67,484.24,453.71,484.24,456.93Z" transform="translate(-0.19)"/></g><g class="cls-4"><ellipse class="cls-5" cx="753.82" cy="555.91" rx="7.98" ry="10.43"/><path class="cls-5" d="M747.72,511.32A12.75,12.75,0,0,1,746,505c0-5.74,3.57-10.43,8-10.43s8,4.69,8,10.43a12.75,12.75,0,0,1-1.68,6.37,12.92,12.92,0,0,1,0,12.74,12.92,12.92,0,0,1,0,12.74,12.75,12.75,0,0,1,1.68,6.37c0,5.74-3.57,10.43-8,10.43s-8-4.69-8-10.43a12.75,12.75,0,0,1,1.68-6.37,12.92,12.92,0,0,1,0-12.74A12.92,12.92,0,0,1,747.72,511.32Z" transform="translate(-0.19)"/><ellipse class="cls-5" cx="753.82" cy="492.21" rx="7.98" ry="10.43"/><ellipse class="cls-5" cx="753.82" cy="479.47" rx="7.98" ry="10.43"/><path class="cls-6" d="M783.84,392.18a32.74,32.74,0,0,0,2.93-4.34l-20.92-3.43,22.6.14a38.17,38.17,0,0,0,.7-30.24l-30.37,15.75,28-20.58a38.18,38.18,0,1,0-66.35,37.8,38.71,38.71,0,0,0,3.36,5,39.63,39.63,0,0,0-4.34,6.93l27.16,14.14-29-9.73a38.17,38.17,0,0,0,6.16,35.84,38.18,38.18,0,1,0,60,.07,38.4,38.4,0,0,0,.07-47.32Z" transform="translate(-0.19)"/><path class="cls-7" d="M715.66,415.77a38,38,0,0,0,8.19,23.59,38.18,38.18,0,1,0,60,.07C789,432.92,715.66,411.5,715.66,415.77Z" transform="translate(-0.19)"/></g><g class="cls-4"><ellipse class="cls-5" cx="676.89" cy="557.45" rx="5.95" ry="7.77"/><path class="cls-5" d="M672.4,524.06a9.5,9.5,0,0,1-1.26-4.76c0-4.27,2.66-7.77,6-7.77S683,515,683,519.3a9.5,9.5,0,0,1-1.26,4.76,9.62,9.62,0,0,1,0,9.52,9.62,9.62,0,0,1,0,9.52,9.5,9.5,0,0,1,1.26,4.76c0,4.27-2.66,7.77-5.95,7.77s-6-3.5-6-7.77a9.5,9.5,0,0,1,1.26-4.76,9.62,9.62,0,0,1,0-9.52A9.62,9.62,0,0,1,672.4,524.06Z" transform="translate(-0.19)"/><ellipse class="cls-5" cx="676.89" cy="509.78" rx="5.95" ry="7.77"/><ellipse class="cls-5" cx="676.89" cy="500.26" rx="5.95" ry="7.77"/><path class="cls-6" d="M699.42,435.09a27.18,27.18,0,0,0,2.24-3.29l-15.61-2.59,16.94.14a28.53,28.53,0,0,0,.56-22.61L680.87,418.5l20.93-15.4a28.55,28.55,0,0,0-49.49,28.49,36.75,36.75,0,0,0,2.31,3.43,30.84,30.84,0,0,0-3.29,5.18l20.3,10.57L650,443.56a28.68,28.68,0,0,0,4.62,26.81,28.51,28.51,0,1,0,44.8,0,28.59,28.59,0,0,0,0-35.28Z" transform="translate(-0.19)"/><path class="cls-7" d="M648.46,452.73a28.82,28.82,0,0,0,6.09,17.64,28.51,28.51,0,1,0,44.8,0C703.2,465.47,648.46,449.51,648.46,452.73Z" transform="translate(-0.19)"/></g><g class="cls-4"><ellipse class="cls-5" cx="69.92" cy="555.91" rx="7.98" ry="10.43"/><path class="cls-5" d="M76.42,511.32A12.75,12.75,0,0,0,78.1,505c0-5.74-3.57-10.43-8-10.43s-8,4.69-8,10.43a12.75,12.75,0,0,0,1.68,6.37,12.92,12.92,0,0,0,0,12.74,12.92,12.92,0,0,0,0,12.74,12.75,12.75,0,0,0-1.68,6.37c0,5.74,3.57,10.43,8,10.43s8-4.69,8-10.43a12.75,12.75,0,0,0-1.68-6.37,12.92,12.92,0,0,0,0-12.74,12.92,12.92,0,0,0,0-12.74Z" transform="translate(-0.19)"/><ellipse class="cls-5" cx="69.92" cy="492.21" rx="7.98" ry="10.43"/><ellipse class="cls-5" cx="69.92" cy="479.47" rx="7.98" ry="10.43"/><path class="cls-6" d="M40.3,392.18a33.83,33.83,0,0,1-2.94-4.34l20.93-3.43-22.68.21a38.17,38.17,0,0,1-.7-30.24l30.38,15.75-28-20.58a38.17,38.17,0,0,1,66.29,37.87,36.75,36.75,0,0,1-3.29,4.83,39.63,39.63,0,0,1,4.34,6.93L77.47,413.32l29-9.73a38.17,38.17,0,0,1-6.16,35.84,38.18,38.18,0,1,1-60,.07,38.27,38.27,0,0,1,0-47.32Z" transform="translate(-0.19)"/><path class="cls-7" d="M108.48,415.77a38,38,0,0,1-8.19,23.59,38.18,38.18,0,1,1-60,.07C35.19,432.92,108.48,411.5,108.48,415.77Z" transform="translate(-0.19)"/></g><g class="cls-4"><ellipse class="cls-5" cx="146.78" cy="557.45" rx="5.95" ry="7.77"/><path class="cls-5" d="M151.74,524.06A9.5,9.5,0,0,0,153,519.3c0-4.27-2.66-7.77-5.95-7.77s-6,3.5-6,7.77a9.5,9.5,0,0,0,1.26,4.76,9.62,9.62,0,0,0,0,9.52,9.62,9.62,0,0,0,0,9.52,9.5,9.5,0,0,0-1.26,4.76c0,4.27,2.66,7.77,6,7.77s5.95-3.5,5.95-7.77a9.5,9.5,0,0,0-1.26-4.76,9.62,9.62,0,0,0,0-9.52A10,10,0,0,0,151.74,524.06Z" transform="translate(-0.19)"/><ellipse class="cls-5" cx="146.78" cy="509.78" rx="5.95" ry="7.77"/><ellipse class="cls-5" cx="146.78" cy="500.26" rx="5.95" ry="7.77"/><path class="cls-6" d="M124.72,435.09a27.18,27.18,0,0,1-2.24-3.29l15.68-2.59-16.94.14a28.53,28.53,0,0,1-.56-22.61l22.68,11.76-20.93-15.4a28.54,28.54,0,1,1,49.42,28.56,36.75,36.75,0,0,1-2.31,3.43,26.61,26.61,0,0,1,3.22,5.18l-20.3,10.57,21.63-7.28a28.68,28.68,0,0,1-4.62,26.81,28.51,28.51,0,1,1-44.8,0,28.69,28.69,0,0,1,.07-35.28Z" transform="translate(-0.19)"/><path class="cls-7" d="M175.68,452.73a28.82,28.82,0,0,1-6.09,17.64,28.51,28.51,0,1,1-44.8,0C120.87,465.47,175.68,449.51,175.68,452.73Z" transform="translate(-0.19)"/></g><ellipse class="cls-8" cx="410.4" cy="675.61" rx="383.6" ry="6.23"/><ellipse class="cls-8" cx="410.4" cy="726.57" rx="383.6" ry="6.23"/><ellipse class="cls-8" cx="410.4" cy="569.35" rx="383.6" ry="6.23"/><ellipse class="cls-8" cx="410.4" cy="622.48" rx="383.6" ry="6.23"/><path class="cls-9" d="M593.16,407.72a12.25,12.25,0,0,0-7.42.84,10.93,10.93,0,0,1-8.89,0,12.51,12.51,0,0,0-10.5.21,6.41,6.41,0,0,1-3,.77c-4.27,0-7.77-4.27-8.54-9.94a8.29,8.29,0,0,0,2.1-2.31c2.52-4,6.37-6.58,10.71-6.58s8.12,2.52,10.64,6.51a8.12,8.12,0,0,0,7.07,3.85h.14C588.82,401,591.76,403.73,593.16,407.72Z" transform="translate(-0.19)"/><path class="cls-8" d="M606.11,389.94l-6.86,4.34,4.2-7.56a6.91,6.91,0,0,0-4.13-1.47h-.14a9.38,9.38,0,0,1-1.4-.07l-2.38,1.47,1-1.82a8.13,8.13,0,0,1-4.06-3.08l-4.2,2.66,2.66-4.76a12.16,12.16,0,0,0-9.31-4.69c-4.34,0-8.19,2.59-10.71,6.58a7.83,7.83,0,0,1-7.07,3.78h-.21c-4.76,0-8.68,5.46-8.68,12.11s3.85,12.11,8.68,12.11a6.41,6.41,0,0,0,3-.77,12.51,12.51,0,0,1,10.5-.21,10.93,10.93,0,0,0,8.89,0,12.35,12.35,0,0,1,10.43.21,6.41,6.41,0,0,0,3,.77c4.76,0,8.68-5.46,8.68-12.11A17.2,17.2,0,0,0,606.11,389.94Z" transform="translate(-0.19)"/><path class="cls-9" d="M300.91,403.94a8.74,8.74,0,0,0-5.18.56,7.45,7.45,0,0,1-6.23,0,8.7,8.7,0,0,0-7.35.14,5.51,5.51,0,0,1-2.1.56c-3,0-5.46-3-5.95-6.93a5.4,5.4,0,0,0,1.47-1.61,9,9,0,0,1,7.49-4.62c3,0,5.67,1.82,7.42,4.55a5.88,5.88,0,0,0,5,2.73h.07C297.83,399.25,299.86,401.14,300.91,403.94Z" transform="translate(-0.19)"/><path class="cls-8" d="M309.94,391.48l-4.83,3.08,2.94-5.32a4.81,4.81,0,0,0-2.87-1.05h-.07a4.3,4.3,0,0,1-1-.07l-1.61,1.05.7-1.26a6,6,0,0,1-2.87-2.17l-2.94,1.82,1.82-3.36a8.5,8.5,0,0,0-6.51-3.29,9,9,0,0,0-7.49,4.62,5.66,5.66,0,0,1-5,2.66h-.14c-3.36,0-6.09,3.78-6.09,8.47s2.73,8.47,6.09,8.47a4.49,4.49,0,0,0,2.1-.56,8.7,8.7,0,0,1,7.35-.14,8,8,0,0,0,3.15.7,7.82,7.82,0,0,0,3.08-.63,8.81,8.81,0,0,1,7.28.14,4.41,4.41,0,0,0,2.1.49c3.36,0,6.09-3.78,6.09-8.47A11.39,11.39,0,0,0,309.94,391.48Z" transform="translate(-0.19)"/><path class="cls-9" d="M215.72,458.82a8.74,8.74,0,0,1,5.18.56,7.45,7.45,0,0,0,6.23,0,8.7,8.7,0,0,1,7.35.14,4.49,4.49,0,0,0,2.1.56c3,0,5.46-3,5.95-6.93a5.4,5.4,0,0,1-1.47-1.61,9,9,0,0,0-7.49-4.62,8.85,8.85,0,0,0-7.42,4.55,5.88,5.88,0,0,1-5,2.73h-.07C218.73,454.13,216.7,456,215.72,458.82Z" transform="translate(-0.19)"/><path class="cls-8" d="M206.62,446.43l4.83,3.08-2.94-5.32a4.85,4.85,0,0,1,2.94-1.05h.07a4.3,4.3,0,0,0,1-.07l1.61,1.05-.7-1.26a6.3,6.3,0,0,0,2.87-2.17l2.94,1.82-1.82-3.36a8.5,8.5,0,0,1,6.51-3.29,9,9,0,0,1,7.49,4.62,5.66,5.66,0,0,0,5,2.66h.14c3.36,0,6.09,3.78,6.09,8.47s-2.73,8.47-6.09,8.47a4.49,4.49,0,0,1-2.1-.56,8.7,8.7,0,0,0-7.35-.14,8,8,0,0,1-3.15.7,7.82,7.82,0,0,1-3.08-.63,8.81,8.81,0,0,0-7.28.14,4.41,4.41,0,0,1-2.1.49c-3.36,0-6.09-3.78-6.09-8.47A11.1,11.1,0,0,1,206.62,446.43Z" transform="translate(-0.19)"/><path class="cls-10" d="M492,673.65c1.82-3.36-.21-7.56-2.66-10.57s-5.32-6.16-5.25-10c.07-5.53,5.95-8.82,10.64-11.69a50.87,50.87,0,0,0,9.59-7.7,14.76,14.76,0,0,0,2.94-3.92c1-2.17.91-4.62.91-7-.21-7.91-.56-15.75-1.19-23.66" transform="translate(-0.19)"/><path class="cls-6" d="M516,598.68a8.57,8.57,0,0,0-4.34-7.07l-2,3.85.07-4.62a8.62,8.62,0,1,0,5.81,10.71A9.82,9.82,0,0,0,516,598.68Z" transform="translate(-0.19)"/><path class="cls-6" d="M500.55,657a8.65,8.65,0,0,1-16.31-3.5,8.55,8.55,0,0,1,.56-3.5,8.66,8.66,0,0,1,11.2-4.9,8.77,8.77,0,0,1,4.9,5l-5.39,4.41,5.95-1.4A8.29,8.29,0,0,1,500.55,657Z" transform="translate(-0.19)"/><path class="cls-6" d="M496.28,640.26a8.6,8.6,0,0,1-2.73-16.87l-.07,3.57,2-3.85h0a8.59,8.59,0,1,1,.84,17.15Z" transform="translate(-0.19)"/><path class="cls-6" d="M517.21,626.4a8.62,8.62,0,1,1-.84-17.22,8.47,8.47,0,0,1,4.69,1.12l-1.54,4.2,3.08-3.08a8.69,8.69,0,0,1,.56,12.18,8.84,8.84,0,0,1-5.95,2.8Z" transform="translate(-0.19)"/><path class="cls-7" d="M514.76,601c-2,.21-3.92.84-5.95,1a6.39,6.39,0,0,1-5.46-1.89c-.56-.91-1.12-1.82-1.61-2.8a6,6,0,0,0-2.17-2,8.64,8.64,0,0,0,15.4,7.84,12.71,12.71,0,0,0,.77-2.1A4.59,4.59,0,0,0,514.76,601Z" transform="translate(-0.19)"/><path class="cls-7" d="M517.21,626.4a8.62,8.62,0,0,1-9-8.19,8.16,8.16,0,0,1,.84-4.06,6.93,6.93,0,0,1,1.75,1.75c.49,1,1.12,2,1.68,2.87,1.33,1.61,3.64,2.1,5.74,2s4.06-.7,6.16-.91c.28,0,.56-.07.84-.07A8.66,8.66,0,0,1,517.21,626.4Z" transform="translate(-0.19)"/><path class="cls-7" d="M496.28,640.26A8.56,8.56,0,0,1,488,628.15a7.21,7.21,0,0,1,1.82,1.75,34.59,34.59,0,0,0,1.89,2.94c1.47,1.61,3.92,2.17,6.09,2.1s4.2-.56,6.3-.7A8.56,8.56,0,0,1,496.28,640.26Z" transform="translate(-0.19)"/><path class="cls-7" d="M500.55,657a8.65,8.65,0,0,1-16.31-3.5,8.55,8.55,0,0,1,.56-3.5,10.82,10.82,0,0,1,1.89,1.68c.84,1,1.33,2.1,2.31,3.08,1.75,1.75,4.62,2.45,7.14,2.52A31.1,31.1,0,0,0,500.55,657Z" transform="translate(-0.19)"/><path class="cls-10" d="M65,623.25c1.82-3.36-.21-7.56-2.66-10.57s-5.32-6.16-5.25-10c.07-5.53,5.95-8.82,10.64-11.69a50.87,50.87,0,0,0,9.59-7.7,14.76,14.76,0,0,0,2.94-3.92,15.75,15.75,0,0,0,.91-7c-.21-7.91-.63-15.75-1.19-23.66" transform="translate(-0.19)"/><path class="cls-6" d="M88.88,548.28a8.65,8.65,0,0,0-4.27-7.07l-2,3.85.07-4.62a8.62,8.62,0,1,0,5.81,10.71,7.9,7.9,0,0,0,.35-2.87Z" transform="translate(-0.19)"/><path class="cls-6" d="M73.55,606.59a8.65,8.65,0,0,1-16.31-3.5,8.55,8.55,0,0,1,.56-3.5,8.66,8.66,0,0,1,11.2-4.9,8.77,8.77,0,0,1,4.9,5l-5.39,4.41,5.95-1.4A8.29,8.29,0,0,1,73.55,606.59Z" transform="translate(-0.19)"/><path class="cls-6" d="M69.28,589.86A8.6,8.6,0,0,1,66.55,573l-.07,3.57,2-3.85h0a8.59,8.59,0,1,1,.84,17.15Z" transform="translate(-0.19)"/><path class="cls-6" d="M90.21,576a8.62,8.62,0,1,1-.84-17.22,8.47,8.47,0,0,1,4.69,1.12l-1.54,4.2L95.6,561a8.69,8.69,0,0,1,.56,12.18,8.84,8.84,0,0,1-6,2.8Z" transform="translate(-0.19)"/><path class="cls-7" d="M87.76,550.59c-2,.21-3.92.84-6,1a6.39,6.39,0,0,1-5.46-1.89c-.56-.91-1.12-1.82-1.61-2.8a6,6,0,0,0-2.17-2A8.64,8.64,0,0,0,88,552.69a12.71,12.71,0,0,0,.77-2.1A2.31,2.31,0,0,0,87.76,550.59Z" transform="translate(-0.19)"/><path class="cls-7" d="M90.21,576a8.62,8.62,0,0,1-9-8.19,8.16,8.16,0,0,1,.84-4.06,6.93,6.93,0,0,1,1.75,1.75c.49,1,1.12,2,1.68,2.87,1.33,1.61,3.64,2.1,5.74,2s4.06-.7,6.16-.91c.28,0,.56-.07.84-.07A8.67,8.67,0,0,1,90.21,576Z" transform="translate(-0.19)"/><path class="cls-7" d="M69.28,589.86A8.56,8.56,0,0,1,61,577.75a7.21,7.21,0,0,1,1.82,1.75,34.59,34.59,0,0,0,1.89,2.94c1.47,1.61,3.92,2.17,6.09,2.1s4.2-.56,6.3-.7A8.56,8.56,0,0,1,69.28,589.86Z" transform="translate(-0.19)"/><path class="cls-7" d="M73.55,606.59a8.65,8.65,0,0,1-16.31-3.5,8.55,8.55,0,0,1,.56-3.5,10.82,10.82,0,0,1,1.89,1.68c.84,1,1.33,2.1,2.31,3.08,1.75,1.75,4.62,2.45,7.14,2.52A31.1,31.1,0,0,0,73.55,606.59Z" transform="translate(-0.19)"/><path class="cls-10" d="M349.35,565.57c-1.82-3.36.21-7.56,2.66-10.57s5.25-6.16,5.25-10c-.07-5.53-5.95-8.82-10.64-11.69a50.42,50.42,0,0,1-9.52-7.7,14.76,14.76,0,0,1-2.94-3.92c-1-2.17-.91-4.62-.91-7,.21-7.91.63-15.75,1.19-23.66" transform="translate(-0.19)"/><path class="cls-6" d="M325.48,490.67a8.65,8.65,0,0,1,4.27-7.07l2,3.85-.07-4.62a9.6,9.6,0,0,1,2.8-.35,8.62,8.62,0,1,1-9,8.19Z" transform="translate(-0.19)"/><path class="cls-6" d="M340.81,549a8.63,8.63,0,1,0,3.71-11.62,8.77,8.77,0,0,0-4.13,4.69l5.39,4.41-5.95-1.4A9.82,9.82,0,0,0,340.81,549Z" transform="translate(-0.19)"/><path class="cls-6" d="M345.08,532.25a8.62,8.62,0,0,0,9-8.19,8.51,8.51,0,0,0-6.3-8.68l.07,3.57-2-3.85h0a8.62,8.62,0,0,0-9,8.19,8.47,8.47,0,0,0,.35,2.94A8.75,8.75,0,0,0,345.08,532.25Z" transform="translate(-0.19)"/><path class="cls-6" d="M324.15,518.32A8.62,8.62,0,0,0,325,501.1a8.47,8.47,0,0,0-4.69,1.12l1.54,4.2-3.15-3a8.41,8.41,0,0,0-2.8,5.95,6.87,6.87,0,0,0,.21,2.38A8.88,8.88,0,0,0,324.15,518.32Z" transform="translate(-0.19)"/><path class="cls-7" d="M326.6,492.91c2,.21,3.92.84,5.95,1A6.39,6.39,0,0,0,338,492c.56-.91,1.12-1.82,1.61-2.8a6,6,0,0,1,2.17-2,8.64,8.64,0,0,1-15.4,7.84,8.49,8.49,0,0,1-.77-2.1A4.57,4.57,0,0,1,326.6,492.91Z" transform="translate(-0.19)"/><path class="cls-7" d="M324.15,518.32a8.62,8.62,0,0,0,9-8.19,8.16,8.16,0,0,0-.84-4.06,6.93,6.93,0,0,0-1.75,1.75c-.49,1-1.12,2-1.68,2.87-1.33,1.61-3.64,2.1-5.74,2s-4.06-.7-6.16-.91c-.28,0-.56-.07-.84-.07A8.74,8.74,0,0,0,324.15,518.32Z" transform="translate(-0.19)"/><path class="cls-7" d="M345.08,532.25a8.62,8.62,0,0,0,9-8.19,8.37,8.37,0,0,0-.77-3.92,7.21,7.21,0,0,0-1.82,1.75,25.36,25.36,0,0,1-1.89,2.87c-1.47,1.61-3.92,2.17-6.09,2.1s-4.2-.56-6.3-.7A8.7,8.7,0,0,0,345.08,532.25Z" transform="translate(-0.19)"/><path class="cls-7" d="M340.81,549a8.63,8.63,0,0,0,15.75-7,10.82,10.82,0,0,0-1.89,1.68c-.84,1-1.4,2.1-2.31,3.08-1.75,1.75-4.62,2.45-7.14,2.52C343.75,549.19,342.28,549.12,340.81,549Z" transform="translate(-0.19)"/><circle class="cls-3" cx="572.59" cy="497.18" r="70"/><path class="cls-6" d="M602.82,515.24c-2.45-2.45-8.26-6.09-11.2-7.49-3.36-1.61-4.55-1.61-6.93.14-2,1.4-3.29,2.73-5.53,2.24s-6.79-3.85-11.13-8.19-7.7-8.82-8.19-11.13.84-3.57,2.24-5.53c1.68-2.38,1.75-3.57.14-6.93-1.4-2.87-5-8.75-7.49-11.2s-3-1.89-4.34-1.4a21.71,21.71,0,0,0-4,2.1,12,12,0,0,0-4.76,5c-1,2-2,5.81,3.5,15.75a87.57,87.57,0,0,0,15.47,20.65h0a86.08,86.08,0,0,0,20.72,15.47c9.94,5.6,13.72,4.48,15.75,3.5a12,12,0,0,0,5-4.76,21.71,21.71,0,0,0,2.1-4C604.78,518.18,605.34,517.62,602.82,515.24Z" transform="translate(-0.19)"/><path class="cls-2" d="M572.79,427.18a70,70,0,1,0,70,70v-.07A70.06,70.06,0,0,0,572.79,427.18Zm0,130.62a60.69,60.69,0,1,1,60.69-60.69h0a60.63,60.63,0,0,1-60.69,60.69Z" transform="translate(-0.19)"/><circle class="cls-3" cx="411.87" cy="603.44" r="70"/><path class="cls-6" d="M451.83,582.3,430.9,603.65a.42.42,0,0,0,0,.56h0l14.7,15.61a2.53,2.53,0,0,1,0,3.57,2.85,2.85,0,0,1-1.75.77,2.54,2.54,0,0,1-1.82-.77L427.4,607.78a.43.43,0,0,0-.56,0l-3.57,3.57a15.67,15.67,0,0,1-11.2,4.69,16,16,0,0,1-11.41-4.83l-3.43-3.5a.43.43,0,0,0-.56,0l-14.56,15.54a2.53,2.53,0,0,1-3.57,0h0a2.54,2.54,0,0,1,0-3.57h0l14.63-15.61a.43.43,0,0,0,0-.56l-20.93-21.35a.43.43,0,0,0-.56,0,.36.36,0,0,0-.14.28v42.63a6.24,6.24,0,0,0,6.23,6.23H446.3a6.24,6.24,0,0,0,6.23-6.23V582.44a.39.39,0,0,0-.35-.42C452,582.16,451.9,582.23,451.83,582.3Z" transform="translate(-0.19)"/><path class="cls-6" d="M412.07,611.07a10.75,10.75,0,0,0,7.63-3.15l30.52-31.08a5.92,5.92,0,0,0-3.85-1.4H377.84a5.92,5.92,0,0,0-3.85,1.4l30.52,31.08A10.47,10.47,0,0,0,412.07,611.07Z" transform="translate(-0.19)"/><path class="cls-2" d="M411.16,533.51a70,70,0,1,0,69.93,70v-.07A69.91,69.91,0,0,0,411.16,533.51Zm0,130.62a60.69,60.69,0,1,1,60.69-60.69h0A60.67,60.67,0,0,1,411.16,664.13Z" transform="translate(-0.19)"/><circle class="cls-3" cx="245.83" cy="551.22" r="70"/><path class="cls-6" d="M246,517.69l-27.93,64.4,2.59,2.59L246,573.55l25.27,11.13,2.59-2.59Z" transform="translate(-0.19)"/><path class="cls-2" d="M246,481.22A70,70,0,1,0,316,551.29v-.07A70,70,0,0,0,246,481.22Zm0,130.62a60.69,60.69,0,1,1,60.69-60.69h0A60.76,60.76,0,0,1,246,611.84Z" transform="translate(-0.19)"/><path class="cls-11" d="M579.23,618.35c-.63-1.54-1.26-3.08-2-4.62a14.4,14.4,0,0,0-2.38-4.13,4,4,0,0,0-3.22-1.4,13.13,13.13,0,0,0-2.87-.07c-.35-.14-.77-.28-1.19-.42A9.94,9.94,0,0,0,575,598.4V598a10,10,0,0,0-9.94-10h0a10.09,10.09,0,0,0-5.25,1.47,9.32,9.32,0,0,0-10.5,5,11.73,11.73,0,0,0-3.57,8.61v.42c.21,5.46,3.71,9.8,8.12,10.22a4,4,0,0,0-1.26.84c-1.33,1.33-1.61,3.36-1.75,5.25l-.14,1.4-2.38.84a.48.48,0,0,0-.28.56c0,.07.07.14.14.21l2.24,1.61v.42a1.37,1.37,0,0,0,.07.49,3.08,3.08,0,0,0-.84,1.26,6.1,6.1,0,0,0-.21,2.24l.07,2a18,18,0,0,0,.56,4.34c.28.84,1.54,2.94,2.45,3-.84,3.85-1,12-1,12s.21.21.7.28c.49,3.85,2.17,14.7,5,19.46a36.2,36.2,0,0,1,1.12,4.76s.84,10.29,2,13.37c.91,2.59,1.68,9,1.89,10.92a1,1,0,0,0-.77.77c-.56,1.68-4.13,4.2-4.13,4.2a15.38,15.38,0,0,0-3.08,2c-1.12,1-1,2,3.92,1.33,9.66-1.12,11.34-4.2,11.34-4.2s-.14-.49-.35-1.19a12.49,12.49,0,0,0-1.26-3c-.14-.14-.28.07-.42.42a58.33,58.33,0,0,1-.63-13.51s.28-4.76-1.12-8.05a16.51,16.51,0,0,1,0-5.25c.56-2.24-2.24-13.09-2.24-13.09l-1.61-8a2.17,2.17,0,0,1,.42.91l.07.14.07.21c0,.07.07.14.14.21,1,4.48,4.06,16.87,4.06,18.69,0,2.24,2.73,7.77,2.73,7.77s1.12,9.17,3,12.81c1.47,2.73,1.54,6.79,1.4,8.54h0s-.35,2.31-.91,2.87a9.45,9.45,0,0,0-1.05,1.82l-.07.14s-.84,1.68-.28,2a13.48,13.48,0,0,0,6.65.84s1.12-1.4,1.12-2a4.13,4.13,0,0,0-.14-1c-.21-1.33-.56-3.36-.56-3.43.21-.91-.7-3.36-.7-3.36l-.28-7.77a36,36,0,0,0-2-15.61s-1.4-5-1.12-6.37-.56-16.17-.56-16.17l-.07-.21a15.8,15.8,0,0,1,.07-3.15,41,41,0,0,0-1.12-10.57,13.37,13.37,0,0,1-.42-2.31c.07-.56.28-2.31.49-4.41a77.75,77.75,0,0,0,8.12-.7.9.9,0,0,0,.7-.28.75.75,0,0,0,.14-.56C582.38,626.26,580.84,622.2,579.23,618.35Zm-5.53,8.82c.28-2,.56-3.92.91-5.39l.07.14a35.21,35.21,0,0,1,1.33,4.41A15.33,15.33,0,0,1,573.7,627.17Z" transform="translate(-0.19)"/><path class="cls-12" d="M552.28,649.64s1.68,14.84,5.25,20.65a35.19,35.19,0,0,1,1.12,4.69s.84,10.15,2,13.23,2,11.27,2,11.27,3.85,4.41,5.25.84A61,61,0,0,1,567,686s.28-4.69-1.12-8a16.51,16.51,0,0,1,0-5.25c.56-2.24-2.24-12.95-2.24-12.95l-2.17-10.71Z" transform="translate(-0.19)"/><path class="cls-13" d="M569.57,703.05s-1.68,3-11.27,4.13c-5,.56-5-.35-3.92-1.33a17.65,17.65,0,0,1,3.08-2s3.57-2.45,4.13-4.13,2.45-.28,2.45-.28c2.73,4.13,3.29-1.12,3.85-.56a11,11,0,0,1,1.26,2.94C569.43,702.56,569.57,703.05,569.57,703.05Z" transform="translate(-0.19)"/><path class="cls-7" d="M569.57,703.05s-1.68,3-11.27,4.13c-5,.56-5-.35-3.92-1.33.77.49,2.38.7,5.53-.56,4.55-1.89,7.91-2.94,9.24-3.36A9.49,9.49,0,0,1,569.57,703.05Z" transform="translate(-0.19)"/><path class="cls-7" d="M566.84,686s.28-4.69-1.12-8a16.51,16.51,0,0,1,0-5.25c.56-2.24-2.24-13-2.24-13l-2.17-10.71-1.89.14,2.17,10.64s2.73,10.71,2.24,12.95a16.51,16.51,0,0,0,0,5.25c1.4,3.29,1.12,8,1.12,8a54.29,54.29,0,0,0,.84,14.28,2.49,2.49,0,0,1-.77,1.12,1.8,1.8,0,0,0,2.73-1.12A52,52,0,0,1,566.84,686Z" transform="translate(-0.19)"/><path class="cls-5" d="M565,589.3a9.67,9.67,0,0,0-5.18,1.47,9.32,9.32,0,0,0-10.5,5,11.58,11.58,0,0,0-3.57,8.54c0,5.88,3.92,10.57,8.82,10.57,3.5,0,6.58-2.52,8-6.09A9.91,9.91,0,1,0,565,589.3Z" transform="translate(-0.19)"/><path class="cls-12" d="M573.14,651l.84,2.17s.84,14.56.56,16,1.12,6.3,1.12,6.3a36,36,0,0,1,2,15.4l.28,7.7s1.12,3,.56,3.57-4.69-.49-4.69-.49.56-5.81-1.4-9.38-3-12.67-3-12.67-2.73-5.53-2.73-7.7-4.41-20.09-4.41-20.09Z" transform="translate(-0.19)"/><path class="cls-5" d="M551.72,650.76s.28-9.94,1.4-13a22.84,22.84,0,0,0,1.26-4.41s16.66,3,18.06,1.89c0,0,.28,3.85.56,4.13a40.11,40.11,0,0,1,1.12,10.43c-.28,3.29,0,3.29,0,3.29s-11.27,1.68-11.55,0-1.12-1.61-1.12-1.61S551.16,651.32,551.72,650.76Z" transform="translate(-0.19)"/><g class="cls-14"><path d="M560.75,650.76s-6.93-.21-9-.56v.56c-.56.56,9.66.84,9.66.84a.53.53,0,0,1,.35.14C561.38,650.76,560.75,650.76,560.75,650.76Z" transform="translate(-0.19)"/><path d="M572.86,639.49c-.28-.28-.56-4.13-.56-4.13a1,1,0,0,1-.49.14,11.2,11.2,0,0,0,.49,3.15,43,43,0,0,1,1.12,10.43c-.28,3.29,0,3.29,0,3.29s-9,1.33-11.06.42c0,.14.07.28.07.42.28,1.68,11.55,0,11.55,0s-.28,0,0-3.29A40.11,40.11,0,0,0,572.86,639.49Z" transform="translate(-0.19)"/><path class="cls-15" d="M560.75,650.76s-6.93-.21-9-.56v.56c-.56.56,9.66.84,9.66.84a.53.53,0,0,1,.35.14C561.38,650.76,560.75,650.76,560.75,650.76Z" transform="translate(-0.19)"/><path class="cls-15" d="M572.86,639.49c-.28-.28-.56-4.13-.56-4.13a1,1,0,0,1-.49.14,11.2,11.2,0,0,0,.49,3.15,43,43,0,0,1,1.12,10.43c-.28,3.29,0,3.29,0,3.29s-9,1.33-11.06.42c0,.14.07.28.07.42.28,1.68,11.55,0,11.55,0s-.28,0,0-3.29A40.11,40.11,0,0,0,572.86,639.49Z" transform="translate(-0.19)"/></g><path class="cls-12" d="M563.83,606.59a3.3,3.3,0,0,0,1,1.33,2.45,2.45,0,0,0,1,.42c-.63.35-1.26.63-1.89,1a26.54,26.54,0,0,0-2.8,2.1,5.43,5.43,0,0,1-3.22,1.26,3.93,3.93,0,0,0,.42-3.92,3.43,3.43,0,0,1-.49-1.33,2.5,2.5,0,0,1,1.33-1.82c.56-.35,1-.7,1.61-1.05s1-.84,1.61-.84.63.49.7,1A11.85,11.85,0,0,0,563.83,606.59Z" transform="translate(-0.19)"/><path class="cls-7" d="M563.83,606.59a3.3,3.3,0,0,0,1,1.33,2.45,2.45,0,0,0,1,.42c-.63.35-1.26.63-1.89,1a26.54,26.54,0,0,0-2.8,2.1,5.43,5.43,0,0,1-3.22,1.26,3.93,3.93,0,0,0,.42-3.92,3.43,3.43,0,0,1-.49-1.33,2.5,2.5,0,0,1,1.33-1.82c.56-.35,1-.7,1.61-1.05s1-.84,1.61-.84.63.49.7,1A11.85,11.85,0,0,0,563.83,606.59Z" transform="translate(-0.19)"/><circle class="cls-12" cx="570.07" cy="616.53" r="6.3"/><path class="cls-13" d="M579.23,706.34c0,.56-1.12,2-1.12,2a13.21,13.21,0,0,1-6.58-.84c-.56-.28.28-2,.28-2l.07-.14a9.45,9.45,0,0,1,1-1.82,7.85,7.85,0,0,0,.91-2.8c1.68-2.8,4.76,1.19,4.76,1.19l.56,3.36C579.16,705.85,579.23,706.2,579.23,706.34Z" transform="translate(-0.19)"/><path class="cls-7" d="M579.23,706.34c0,.56-1.12,2-1.12,2a13.21,13.21,0,0,1-6.58-.84c-.56-.28.28-2,.28-2l.07-.14a14.74,14.74,0,0,0,6,1.26l1.26-1.26C579.16,705.85,579.23,706.2,579.23,706.34Z" transform="translate(-0.19)"/><circle class="cls-12" cx="557.4" cy="603.3" r="6.16"/><path class="cls-12" d="M552.63,636.69c-1.33,1.26-1.61,3.36-1.75,5.25l-.21,2.73c-.07.77-.07,1.47-.07,2.24,0,.49.14.91.14,1.4s.07,1.12.07,1.61V654a4.92,4.92,0,0,0,.42,2.45,1.64,1.64,0,0,0,2.1.77,2.29,2.29,0,0,0,.84-1.33,21.25,21.25,0,0,0,1.4-5.11c.07-.63.07-1.19.14-1.82a17.59,17.59,0,0,1,.28-1.89c.42-2.59.56-5.18.77-7.77.07-.77.77-3.78-.28-4.13-.49-.14-1.54.35-2,.49A5,5,0,0,0,552.63,636.69Z" transform="translate(-0.19)"/><path class="cls-7" d="M552.63,636.69c-1.33,1.26-1.61,3.36-1.75,5.25l-.21,2.73c-.07.77-.07,1.47-.07,2.24,0,.49.14.91.14,1.4s.07,1.12.07,1.61V654a4.92,4.92,0,0,0,.42,2.45,1.64,1.64,0,0,0,2.1.77,2.29,2.29,0,0,0,.84-1.33,21.25,21.25,0,0,0,1.4-5.11c.07-.63.07-1.19.14-1.82a17.59,17.59,0,0,1,.28-1.89c.42-2.59.56-5.18.77-7.77.07-.77.77-3.78-.28-4.13-.49-.14-1.54.35-2,.49A5,5,0,0,0,552.63,636.69Z" transform="translate(-0.19)"/><path class="cls-13" d="M565.44,607.29s-4.69,3.57-7.42,4.41c0,0-1.61,1.89-1.89,2.31s-.84,5.39-1.4,6.51-2,3.57,0,6a10.09,10.09,0,0,1,.28,3.29c-.28.84-1.26,3.85-.35,4s3.64,2,6.16,1.54,11.69,2.1,11.69,2.1,1.54-14.14,2.66-16.66l-2.45-.84s-6.86-4.13-2.73-10.43C569.85,609.53,566,608.69,565.44,607.29Z" transform="translate(-0.19)"/><path class="cls-5" d="M548.36,644.88l5.67,4.06a.34.34,0,0,0,.49,0l1.54-1.19a.44.44,0,0,0,.07-.63l-.07-.07-4.41-3.85a.33.33,0,0,0-.42-.07l-2.8,1a.48.48,0,0,0-.28.56C548.29,644.74,548.29,644.81,548.36,644.88Z" transform="translate(-0.19)"/><path class="cls-12" d="M550.32,657a12.81,12.81,0,0,1-.56-4.27l-.07-2a6,6,0,0,1,.21-2.24,3.94,3.94,0,0,1,2.38-2.1,8.36,8.36,0,0,1,3.22-.21,1,1,0,0,1,.42.14.38.38,0,0,1,.21.35,2.55,2.55,0,0,1,.14,2,2,2,0,0,1-.63.7,27.69,27.69,0,0,0-2.38,1.54.72.72,0,0,0-.35.42v.42a5.25,5.25,0,0,0,.35,1.12.81.81,0,0,0,.35.49c.14.14.28.14.42.28s.91.56.91,1a33.79,33.79,0,0,1-1.26,4.34C552.91,661.68,550.74,658.18,550.32,657Z" transform="translate(-0.19)"/><g class="cls-14"><path d="M559.14,635.36H559a4,4,0,0,0,1.82,0H561A8.52,8.52,0,0,0,559.14,635.36Z" transform="translate(-0.19)"/><path d="M573.56,620.38c-1,2.24-2.45,14.21-2.73,16.66,1,.28,1.61.42,1.61.42S574,623.32,575,620.8Z" transform="translate(-0.19)"/></g><path class="cls-12" d="M570.48,616.74a2.08,2.08,0,0,0,.91,1.4,17.47,17.47,0,0,1,1.61,1.61,11.18,11.18,0,0,1,1.61,3.15,31.08,31.08,0,0,1,1.33,4.34c-3.5,1.61-7.49,1.54-11.2,2.59a8.81,8.81,0,0,0-4.2,2.45,5.69,5.69,0,0,0-1.54,4.55.42.42,0,0,0,.07.28.64.64,0,0,0,.49.21,4,4,0,0,0,2.59-.91,10.39,10.39,0,0,0,2-2,3,3,0,0,1,1.4-1.05,23.79,23.79,0,0,1,6.3-.63,69.66,69.66,0,0,0,9.38-.77.78.78,0,0,0,.84-.63v-.21c.28-4.13-1.26-8.19-2.8-12-.63-1.54-1.26-3.08-2-4.55a13.19,13.19,0,0,0-2.38-4.06,5.24,5.24,0,0,0-1.4-1.05,6,6,0,0,0-1.89-.35,15.11,15.11,0,0,0-3.08-.07,6,6,0,0,0-.28,1.61,15.1,15.1,0,0,0,1.68,5.39C570.06,616.46,570.34,616.46,570.48,616.74Z" transform="translate(-0.19)"/><path class="cls-16" d="M559.28,641.24a5.22,5.22,0,0,0-.7,2.66,3.17,3.17,0,0,0,.21,1.12,3.7,3.7,0,0,0,2.24,2.1" transform="translate(-0.19)"/><path class="cls-5" d="M562.85,597.28a5.4,5.4,0,0,0-1.05.14c-.91-1.4-3.08-2.38-5.6-2.38-3.36,0-6.09,1.75-6.09,3.85s2.73,3.85,6.09,3.85a9.17,9.17,0,0,0,3.64-.77,3.3,3.3,0,0,0,5.95-2.87,3.27,3.27,0,0,0-2.94-1.82Z" transform="translate(-0.19)"/><path class="cls-7" d="M563.13,603a3.14,3.14,0,0,1-2.94-1.89,9.17,9.17,0,0,1-3.64.77c-3.36,0-6-1.75-6-3.85v-.35a2.3,2.3,0,0,0-.28,1.19c0,2.1,2.73,3.85,6.09,3.85A9.17,9.17,0,0,0,560,602a3.31,3.31,0,0,0,6.23-.84A3.57,3.57,0,0,1,563.13,603Z" transform="translate(-0.19)"/><path class="cls-7" d="M549.34,597.42a9.41,9.41,0,0,1,10.5-5,10,10,0,0,1,13.65,3.22A9.71,9.71,0,0,1,575,600v-.84A9.92,9.92,0,0,0,565,589.3a9.67,9.67,0,0,0-5.18,1.47,9.32,9.32,0,0,0-10.5,5,11.58,11.58,0,0,0-3.57,8.54v.84A11.1,11.1,0,0,1,549.34,597.42Z" transform="translate(-0.19)"/><path class="cls-10" d="M612.48,620.52c1.82-3.36-.21-7.56-2.66-10.57s-5.25-6.16-5.25-10c.07-5.53,5.95-8.75,10.64-11.69a50.42,50.42,0,0,0,9.52-7.7,14.76,14.76,0,0,0,2.94-3.92c1-2.17.91-4.62.91-7-.21-7.91-.56-15.75-1.19-23.66" transform="translate(-0.19)"/><path class="cls-6" d="M636.35,545.55a8.65,8.65,0,0,0-4.27-7.07l-2,3.85.07-4.62a7.71,7.71,0,0,0-2.8-.35,8.62,8.62,0,1,0,9,8.19Z" transform="translate(-0.19)"/><path class="cls-6" d="M621,603.86a8.63,8.63,0,1,1-3.71-11.62,8.77,8.77,0,0,1,4.13,4.69l-5.39,4.41,6-1.4A9.54,9.54,0,0,1,621,603.86Z" transform="translate(-0.19)"/><path class="cls-6" d="M616.75,587.13a8.62,8.62,0,0,1-9-8.19,8.51,8.51,0,0,1,6.3-8.68l-.07,3.57,2-3.85h0a8.59,8.59,0,1,1,.84,17.15Z" transform="translate(-0.19)"/><path class="cls-6" d="M637.68,573.2a8.62,8.62,0,1,1-.84-17.22,8.47,8.47,0,0,1,4.69,1.12L640,561.3l3.15-3a8.41,8.41,0,0,1,2.8,6,6.87,6.87,0,0,1-.21,2.38A8.64,8.64,0,0,1,637.68,573.2Z" transform="translate(-0.19)"/><path class="cls-7" d="M635.23,547.86c-2,.21-3.92.84-6,1a6.39,6.39,0,0,1-5.46-1.89c-.56-.91-1.12-1.82-1.61-2.8a6,6,0,0,0-2.17-2,8.64,8.64,0,0,0,15.4,7.84,8.49,8.49,0,0,0,.77-2.1A2.31,2.31,0,0,0,635.23,547.86Z" transform="translate(-0.19)"/><path class="cls-7" d="M637.68,573.2a8.62,8.62,0,0,1-9-8.19,8.16,8.16,0,0,1,.84-4.06,6.93,6.93,0,0,1,1.75,1.75,23.63,23.63,0,0,0,1.68,2.87c1.33,1.61,3.64,2.1,5.74,2s4.06-.7,6.16-.91c.28,0,.56-.07.84-.07A8.58,8.58,0,0,1,637.68,573.2Z" transform="translate(-0.19)"/><path class="cls-7" d="M616.75,587.13a8.62,8.62,0,0,1-9-8.19,8.83,8.83,0,0,1,.77-4,7.21,7.21,0,0,1,1.82,1.75,34.59,34.59,0,0,0,1.89,2.94c1.47,1.61,3.92,2.17,6.09,2.17s4.2-.56,6.3-.7A8.64,8.64,0,0,1,616.75,587.13Z" transform="translate(-0.19)"/><path class="cls-7" d="M621,603.86a8.64,8.64,0,0,1-15.75-7,10.82,10.82,0,0,1,1.89,1.68c.84,1,1.4,2.1,2.31,3.08,1.75,1.75,4.62,2.45,7.14,2.52A31.1,31.1,0,0,0,621,603.86Z" transform="translate(-0.19)"/><path class="cls-10" d="M723.78,726.92c1.82-3.36-.21-7.56-2.66-10.57s-5.32-6.16-5.25-10c.07-5.53,6-8.75,10.64-11.69A50.42,50.42,0,0,0,736,687,14.76,14.76,0,0,0,739,683c1-2.17.91-4.62.91-7-.21-7.91-.56-15.75-1.19-23.66" transform="translate(-0.19)"/><path class="cls-6" d="M747.65,652a8.65,8.65,0,0,0-4.27-7.07l-2,3.85.07-4.62a7.52,7.52,0,0,0-2.8-.35,8.62,8.62,0,1,0,9,8.19Z" transform="translate(-0.19)"/><path class="cls-6" d="M732.32,710.26a8.63,8.63,0,1,1-3.71-11.62,8.77,8.77,0,0,1,4.13,4.69l-5.39,4.41,5.95-1.4A9.54,9.54,0,0,1,732.32,710.26Z" transform="translate(-0.19)"/><path class="cls-6" d="M728.05,693.53a8.62,8.62,0,0,1-9-8.19,8.51,8.51,0,0,1,6.3-8.68l-.07,3.57,2-3.85h0a8.59,8.59,0,1,1,.84,17.15Z" transform="translate(-0.19)"/><path class="cls-6" d="M749,679.6a8.62,8.62,0,1,1-.84-17.22,8.47,8.47,0,0,1,4.69,1.12l-1.54,4.2,3.15-3a8.41,8.41,0,0,1,2.8,5.95A6.87,6.87,0,0,1,757,673,8.64,8.64,0,0,1,749,679.6Z" transform="translate(-0.19)"/><path class="cls-7" d="M746.53,654.26c-2,.21-3.92.84-5.95,1a6.39,6.39,0,0,1-5.46-1.89c-.56-.91-1.12-1.82-1.61-2.8a6,6,0,0,0-2.17-2,8.64,8.64,0,0,0,15.4,7.84,8.49,8.49,0,0,0,.77-2.1A2.31,2.31,0,0,0,746.53,654.26Z" transform="translate(-0.19)"/><path class="cls-7" d="M749,679.6a8.62,8.62,0,0,1-9-8.19,8.16,8.16,0,0,1,.84-4.06,6.93,6.93,0,0,1,1.75,1.75,23.63,23.63,0,0,0,1.68,2.87c1.33,1.61,3.64,2.1,5.74,2s4.06-.7,6.16-.91c.28,0,.56-.07.84-.07A8.58,8.58,0,0,1,749,679.6Z" transform="translate(-0.19)"/><path class="cls-7" d="M728.05,693.53a8.62,8.62,0,0,1-9-8.19,8.83,8.83,0,0,1,.77-4,7.21,7.21,0,0,1,1.82,1.75c.7.91,1.12,2,1.89,2.94,1.47,1.61,3.92,2.17,6.09,2.17s4.2-.56,6.3-.7A8.64,8.64,0,0,1,728.05,693.53Z" transform="translate(-0.19)"/><path class="cls-7" d="M732.32,710.26a8.64,8.64,0,0,1-15.75-7,10.82,10.82,0,0,1,1.89,1.68c.84,1,1.4,2.1,2.31,3.08,1.75,1.75,4.62,2.45,7.14,2.52A31.1,31.1,0,0,0,732.32,710.26Z" transform="translate(-0.19)"/><path class="cls-17" d="M361.6,628.15a6.9,6.9,0,0,0-2.73-5.53,8,8,0,0,0-6.72-7.91,7.93,7.93,0,0,0-5.32-6h0a4.9,4.9,0,0,0-1-.21h-1.26a7.88,7.88,0,0,0-7.63,6.72c-2.45-.56-4.69.14-5.11,1.75a2.57,2.57,0,0,0,.07,1.26,5.36,5.36,0,0,0,3.64,2.94l.21.07.35.07h.07a5.87,5.87,0,0,0-.56,2.66,6.12,6.12,0,0,0,3.29,5.46l-.14.07a3.11,3.11,0,0,0-.56.77,15.19,15.19,0,0,0-1.05,2.45c-.21.77-.21,1.54-.42,2.24-.42,1.33-1.47,2.52-1.54,3.92-.07.63.07,1.4-.42,1.82-.14.07-.21.21-.35.28a3,3,0,0,0-.77.84,3.11,3.11,0,0,1-.56.77c-.42.28-1.05.28-1.26.77s.35,1.05.21,1.54-.56.63-.84.91a4,4,0,0,0-.77,1.4,4.39,4.39,0,0,1-3.78-1,8.18,8.18,0,0,1,.42,1.4,6.25,6.25,0,0,0-2-1,6.07,6.07,0,0,1-2.17-1.61l1.19-.14L319,637l-1.54-.35,1.33,2.59a.8.8,0,0,0-.49.56,3.7,3.7,0,0,0-.07.91c.07.7.21,1.4.35,2.1l.42,1.82a1.3,1.3,0,0,0,.14.49,5.74,5.74,0,0,0-1.54.14,17.22,17.22,0,0,0-3.15-.77,1.19,1.19,0,0,0-.7,0,1.78,1.78,0,0,0-.7.56,21.84,21.84,0,0,0-2.38,3.29c-2.8,4.83-6.44,9-9.87,13.3-2.38,1-4.76,1.89-7.21,2.8l-5.18,2a7.21,7.21,0,0,1-3.22.7c-.49,0-1.12-.14-1.4.35a6.5,6.5,0,0,0-.35.7l-.56.07h0a6.24,6.24,0,0,0-1.26-2.31.73.73,0,0,0-.56.42c-.14.21-.21.49-.35.7a4.57,4.57,0,0,1-1.12.91c-.35.28-.56.91-.91,1.26a3.85,3.85,0,0,1-1.75.7,9.21,9.21,0,0,0-2.73,1,4.83,4.83,0,0,1-1.05.49,6.79,6.79,0,0,1-1.19.07l-2.73-.21h-.7a1.32,1.32,0,0,0-.84,1.4,2.27,2.27,0,0,0,.84,1.54,6.59,6.59,0,0,0,1.54.84,54.19,54.19,0,0,0,7.28,2.17v.56a12,12,0,0,0,5.6,1.33.89.89,0,0,0,.42-.07,1,1,0,0,0,.35-.56,23.82,23.82,0,0,0,1.12-5.39h0a2.28,2.28,0,0,0,1-.28c.91-.28,1.89.35,2.87.49,1.19.14,2.31-.56,3.43-1l.49-.14a5.26,5.26,0,0,1-1.12,1c-.49.35-1,.56-1.47.91a8.66,8.66,0,0,1-1.26,1,4,4,0,0,1-1,.35,8,8,0,0,0-1.33.7,2.83,2.83,0,0,0-.91.91,1.33,1.33,0,0,0-.07,1.26,1.37,1.37,0,0,0,.91.63,3,3,0,0,0,1.12,0c1.47-.14,2.94-.21,4.41-.35a14.17,14.17,0,0,0,1.82-.28c.35-.07.63-.21,1-.28a14,14,0,0,1,1.68-.28,1.19,1.19,0,0,1,.49.07c.35.14.56.49.91.56a2.38,2.38,0,0,0,.7-.07,16.91,16.91,0,0,1,3.29-.35,1.36,1.36,0,0,0,1.26-.56c.21-.42-.21-1.19-.35-1.75a6.16,6.16,0,0,1-.14-1.19,6.23,6.23,0,0,0-.84-2.73l-.63-1.26a28.76,28.76,0,0,0,6-3.08,11.16,11.16,0,0,1,3.43-1.68,10.15,10.15,0,0,1,4.34.49,104.27,104.27,0,0,1,9.94,3.43c1.54.63,3.08,1.33,4.69,1.82a7.31,7.31,0,0,0,1.68,1.61,7.21,7.21,0,0,0,3.57,1c1.68.14,3.36.21,5.11.21a8.66,8.66,0,0,0,3.78-.7,3.11,3.11,0,0,0,.77-.56,3.42,3.42,0,0,0,2.52-.91,5.71,5.71,0,0,0,1.89-3c.42-1.61.07-3.5,1-4.76a10.45,10.45,0,0,0,.84-1,2.66,2.66,0,0,0,.42-1.61.07.07,0,0,1,.07-.07,6.05,6.05,0,0,0,.42-1.61,9.35,9.35,0,0,1,.49-1.26c.49-1.26.91-2.52,1.33-3.78.28-.84.42-1.75.63-2.59s.14-1.4.21-2.1a12.5,12.5,0,0,1,.63-3.22,24.64,24.64,0,0,0,1.47-7.77v-.14A5.2,5.2,0,0,0,361,634a5,5,0,0,0-.49-2.24A6.31,6.31,0,0,0,361.6,628.15ZM336.54,658.6a4,4,0,0,0,.28.84c-.42-.42-.84-.84-1.26-1.19a1.3,1.3,0,0,0,.49.14.64.64,0,0,1,.49.21Zm-2-1.4c-2.45-2.1-5.25-3.71-7.7-5.74,1.33.7,2.66,1.47,4,2.17,1.54.91,3.08,1.75,4.69,2.52a4.71,4.71,0,0,1-1,1.05Zm1.05-5.25.14-.14v.84l-.63-.21a3.23,3.23,0,0,1,.49-.49Zm-21.35,5.67a19.57,19.57,0,0,0,2.59-3.71c1,1.68,2.52,2.87,3.85,4.27C318.55,658,316.45,657.69,314.28,657.62Z" transform="translate(-0.19)"/><polygon class="cls-18" points="317.58 637.25 319.05 637.53 324.3 645.23 321.99 645.51 317.58 637.25"/><path class="cls-19" d="M280.75,668.4a31.15,31.15,0,0,0,1.54,4,32.73,32.73,0,0,0,5.11-1.47c-.35-.49-.7-1-1-1.4a7,7,0,0,0-1.4-1.12,3.7,3.7,0,0,0-1.75,0Z" transform="translate(-0.19)"/><path class="cls-18" d="M284.88,670.5a3.23,3.23,0,0,1-1.75-2,6.7,6.7,0,0,0-1.33-2.38.73.73,0,0,0-.56.42c-.14.21-.21.49-.35.7-.28.42-.77.56-1.12.91s-.56.84-.91,1.19a3.85,3.85,0,0,1-1.75.7,10.45,10.45,0,0,0-2.8,1,7.06,7.06,0,0,1-1.05.49,3.4,3.4,0,0,1-1.19,0l-2.73-.21a1.19,1.19,0,0,0-.7,0,1.46,1.46,0,0,0-.91,1.4,1.87,1.87,0,0,0,.91,1.47,4.55,4.55,0,0,0,1.54.77,44.9,44.9,0,0,0,7.42,2.1v.56a13.16,13.16,0,0,0,5.6,1.33.89.89,0,0,0,.42-.07,1,1,0,0,0,.35-.56,21.8,21.8,0,0,0,1.12-6,3.85,3.85,0,0,0-.14-1.54c-.14-.49.35-.28-.07-.35" transform="translate(-0.19)"/><path class="cls-18" d="M337.73,660.07c-8.19.49-16.24-1.89-24.43-2.17a10.73,10.73,0,0,0-3,.21,15.84,15.84,0,0,0-3,1.19c-4.41,2-9,3.71-13.44,5.46l-5.25,2a7.21,7.21,0,0,1-3.22.7c-.49,0-1.12-.14-1.4.28-.84,1.26-.42,3.08.14,4.55.21.49.49,1,1,1a2.28,2.28,0,0,0,1-.28c1-.28,1.89.35,2.87.49,1.19.14,2.31-.56,3.5-1a27.81,27.81,0,0,1,5.95-1,26.53,26.53,0,0,0,9.31-3.85,9.38,9.38,0,0,1,3.5-1.61,10.15,10.15,0,0,1,4.34.49,105.56,105.56,0,0,1,10,3.43,33.44,33.44,0,0,0,5.25,1.89,19.09,19.09,0,0,0,11.69-.7c1.33-.49,2.73-1.4,2.8-2.87.07-.84-.56-1.54-1-2.24-.28-.42-.56-.91-.84-1.33C341.93,662.66,340.25,659.93,337.73,660.07Z" transform="translate(-0.19)"/><path class="cls-7" d="M337.73,660.07c-8.19.49-16.24-1.89-24.43-2.17a10.73,10.73,0,0,0-3,.21,15.84,15.84,0,0,0-3,1.19c-4.41,2-9,3.71-13.44,5.46l-5.25,2a7.21,7.21,0,0,1-3.22.7c-.49,0-1.12-.14-1.4.28-.84,1.26-.42,3.08.14,4.55.21.49.49,1,1,1a2.28,2.28,0,0,0,1-.28c1-.28,1.89.35,2.87.49,1.19.14,2.31-.56,3.5-1a27.81,27.81,0,0,1,5.95-1,26.53,26.53,0,0,0,9.31-3.85,9.38,9.38,0,0,1,3.5-1.61,10.15,10.15,0,0,1,4.34.49,105.56,105.56,0,0,1,10,3.43,33.44,33.44,0,0,0,5.25,1.89,19.09,19.09,0,0,0,11.69-.7c1.33-.49,2.73-1.4,2.8-2.87.07-.84-.56-1.54-1-2.24-.28-.42-.56-.91-.84-1.33C341.93,662.66,340.25,659.93,337.73,660.07Z" transform="translate(-0.19)"/><path class="cls-19" d="M296.43,668.82c1.26.42,2.59.84,3.85,1.19.7-1.19,2.1-2,2.38-3.43v-.21c0-.07-.07-.07-.14-.14a7.53,7.53,0,0,0-3-.91c-.84-.07-1.26.84-1.61,1.47C297.76,667.14,296.78,669,296.43,668.82Z" transform="translate(-0.19)"/><path class="cls-18" d="M298.25,668a2.73,2.73,0,0,1-1.89-1.26c-.21-.35-.35-.77-.7-.7s-.49.42-.56.77a21.67,21.67,0,0,1-1.05,3.64,7.41,7.41,0,0,1-2.24,3c-.49.35-1,.56-1.47.91a8.26,8.26,0,0,1-1.26.91,4,4,0,0,1-1,.35,8,8,0,0,0-1.33.7,2.28,2.28,0,0,0-.91.91,1.33,1.33,0,0,0-.07,1.26,1.37,1.37,0,0,0,.91.63,3,3,0,0,0,1.12,0c1.47-.14,3-.21,4.48-.35a17.59,17.59,0,0,0,1.89-.28l1-.28a14,14,0,0,1,1.68-.28,1.19,1.19,0,0,1,.49.07c.35.14.56.49,1,.56a2.38,2.38,0,0,0,.7-.07,17.51,17.51,0,0,1,3.29-.35,1.36,1.36,0,0,0,1.26-.56c.28-.56-.21-1.19-.35-1.75a6.13,6.13,0,0,1-.14-1.12,6.23,6.23,0,0,0-.84-2.73c-.35-.7-.91-1.47-.63-2.24a2.51,2.51,0,0,0,.28-.77C301.68,667.7,299,668.12,298.25,668Z" transform="translate(-0.19)"/><path class="cls-19" d="M325.48,647a6.69,6.69,0,0,1-3.29-3.22,4.86,4.86,0,0,1-.35-.91,7.56,7.56,0,0,0-2-2.73.9.9,0,0,0-.7-.28.76.76,0,0,0-.56.56,3.7,3.7,0,0,0-.07.91,17.5,17.5,0,0,0,.35,2l.42,1.82a4,4,0,0,0,.28.84,2.42,2.42,0,0,0,.7.77c.35.35.7.63,1.12,1a2.51,2.51,0,0,0,.7.49,4.25,4.25,0,0,0,1.26.35,9.89,9.89,0,0,1,4.62,1.82v-1.33a1.67,1.67,0,0,0-.35-1A4.07,4.07,0,0,0,325.48,647Z" transform="translate(-0.19)"/><path class="cls-7" d="M325.48,647a6.69,6.69,0,0,1-3.29-3.22,4.86,4.86,0,0,1-.35-.91,7.56,7.56,0,0,0-2-2.73.9.9,0,0,0-.7-.28.76.76,0,0,0-.56.56,3.7,3.7,0,0,0-.07.91,17.5,17.5,0,0,0,.35,2l.42,1.82a4,4,0,0,0,.28.84,2.42,2.42,0,0,0,.7.77c.35.35.7.63,1.12,1a2.51,2.51,0,0,0,.7.49,4.25,4.25,0,0,0,1.26.35,9.89,9.89,0,0,1,4.62,1.82v-1.33a1.67,1.67,0,0,0-.35-1A4.07,4.07,0,0,0,325.48,647Z" transform="translate(-0.19)"/><ellipse class="cls-18" cx="341.94" cy="631.16" rx="1.96" ry="2.03"/><path class="cls-18" d="M340.88,629.9a1.93,1.93,0,0,0-1.54.21,2.74,2.74,0,0,0-.56.7,15.19,15.19,0,0,0-1,2.45c-.21.7-.21,1.47-.42,2.24-.42,1.33-1.47,2.45-1.54,3.85-.07.63.07,1.33-.42,1.75-.14.07-.21.21-.35.28a2.23,2.23,0,0,0-.77.84,3.11,3.11,0,0,1-.56.77c-.42.28-1.05.28-1.26.7s.35,1,.21,1.54-.56.63-.91.91a3.43,3.43,0,0,0-.77,1.4,4.58,4.58,0,0,1-3.78-.91,13,13,0,0,1,.63,4.34,1.75,1.75,0,0,1-.35,1.33,26.33,26.33,0,0,1,4.69.84,3.35,3.35,0,0,0,2,0,2.44,2.44,0,0,0,.91-.77,5.93,5.93,0,0,0,2-2.94,9.84,9.84,0,0,0,0-2,13.81,13.81,0,0,1,.49-2.45,31.78,31.78,0,0,0,.91-5c.07-1,1-1.89,1.47-2.8a13.65,13.65,0,0,0,1.89-5.6C341.79,630.81,341.58,630,340.88,629.9Z" transform="translate(-0.19)"/><path class="cls-7" d="M340.88,629.9a1.93,1.93,0,0,0-1.54.21,2.74,2.74,0,0,0-.56.7,15.19,15.19,0,0,0-1,2.45c-.21.7-.21,1.47-.42,2.24-.42,1.33-1.47,2.45-1.54,3.85-.07.63.07,1.33-.42,1.75-.14.07-.21.21-.35.28a2.23,2.23,0,0,0-.77.84,3.11,3.11,0,0,1-.56.77c-.42.28-1.05.28-1.26.7s.35,1,.21,1.54-.56.63-.91.91a3.43,3.43,0,0,0-.77,1.4,4.58,4.58,0,0,1-3.78-.91,13,13,0,0,1,.63,4.34,1.75,1.75,0,0,1-.35,1.33,26.33,26.33,0,0,1,4.69.84,3.35,3.35,0,0,0,2,0,2.44,2.44,0,0,0,.91-.77,5.93,5.93,0,0,0,2-2.94,9.84,9.84,0,0,0,0-2,13.81,13.81,0,0,1,.49-2.45,31.78,31.78,0,0,0,.91-5c.07-1,1-1.89,1.47-2.8a13.65,13.65,0,0,0,1.89-5.6C341.79,630.81,341.58,630,340.88,629.9Z" transform="translate(-0.19)"/><path class="cls-18" d="M339.06,661.82a19.36,19.36,0,0,1-4.34-3.64c-2.66-2.45-5.81-4.2-8.61-6.51a68.05,68.05,0,0,0-5.46-4.62,13.42,13.42,0,0,0-5.88-2,1.19,1.19,0,0,0-.7,0,1.78,1.78,0,0,0-.7.56,18.8,18.8,0,0,0-2.38,3.29c-3.5,6-8.47,10.92-12.6,16.45l-.21.42a2,2,0,0,0,.14.63l.84,1.61c.49.91,1.26,2,2.24,1.82a3.16,3.16,0,0,0,1.19-.77l3.78-3.64,3.92-3.78c2.31-2.24,4.69-4.48,6.16-7.28,1.19,2,3.29,3.36,4.69,5.25a24.7,24.7,0,0,1,1.47,2.24c.77,1.19,1.68,2.31,2.52,3.5l4.55,5.81a7.5,7.5,0,0,0,2.1,2.1,8.32,8.32,0,0,0,3.64,1c1.68.14,3.43.21,5.11.21a9.16,9.16,0,0,0,3.85-.7,3.66,3.66,0,0,0,2.1-3.08,4.33,4.33,0,0,0-.63-1.89C344.17,665.74,342.07,663.22,339.06,661.82Z" transform="translate(-0.19)"/><circle class="cls-20" cx="343.2" cy="632.49" r="1.54"/><path class="cls-19" d="M343.05,631.37a2.77,2.77,0,0,1,.14,2.24,7.76,7.76,0,0,1-1,2,10.57,10.57,0,0,1-1.26,1.82,12.92,12.92,0,0,0,6.72-2,10,10,0,0,0,4.27-3.71,1.94,1.94,0,0,1-1.54-.28,6,6,0,0,1-1.19-1.12L348,629.06a5,5,0,0,1-.7-1,2.94,2.94,0,0,1-.35-1.54,14,14,0,0,1-1.54,1.33c-.84.56-1.75,1-2.66,1.47-.28.21-1,.49-.77.91S342.77,631,343.05,631.37Z" transform="translate(-0.19)"/><path class="cls-7" d="M343.05,631.37a2.77,2.77,0,0,1,.14,2.24,7.76,7.76,0,0,1-1,2,10.57,10.57,0,0,1-1.26,1.82,12.92,12.92,0,0,0,6.72-2,10,10,0,0,0,4.27-3.71,1.94,1.94,0,0,1-1.54-.28,6,6,0,0,1-1.19-1.12L348,629.06a5,5,0,0,1-.7-1,2.94,2.94,0,0,1-.35-1.54,14,14,0,0,1-1.54,1.33c-.84.56-1.75,1-2.66,1.47-.28.21-1,.49-.77.91S342.77,631,343.05,631.37Z" transform="translate(-0.19)"/><path class="cls-20" d="M343.05,631.58a2,2,0,0,0,0,2.31c.07.07.35.63.42.63a.53.53,0,0,0,.28-.14,16.25,16.25,0,0,0,1.47-1.75,3.5,3.5,0,0,1,1.89-1.26,3.85,3.85,0,0,1,2.59.84,2.89,2.89,0,0,1,.91.7,2.28,2.28,0,0,1,.28,1,48.5,48.5,0,0,1,.28,6.37,24.46,24.46,0,0,1-.28,4.55c-.14.77-.35,1.54-.49,2.31a10.54,10.54,0,0,0-.07,2.1v2.94a6.27,6.27,0,0,0,.14,1.61c.14.63.42,1.26.63,1.89a11.87,11.87,0,0,1,.42,2.17l.42,3a3.86,3.86,0,0,1-.35,2.8,10.45,10.45,0,0,0-.84,1c-1,1.26-.7,3.15-1.05,4.69a6.29,6.29,0,0,1-1.89,2.94,3.42,3.42,0,0,1-2.52.91c-1.26-.21-2-1.54-2.31-2.73s-.42-2.52-1.19-3.57a12.25,12.25,0,0,0-2.31-2,4.1,4.1,0,0,1-1.82-2.38c-.07-.42,0-.91-.07-1.33a3.39,3.39,0,0,0-2-2.59c-.63-.21-1.4-.35-1.75-.91a4.25,4.25,0,0,0,1.82-2.45,12.18,12.18,0,0,0,.42-3.15l.21-3.5a11,11,0,0,1,.84-4.55,15.41,15.41,0,0,1,1.05-1.82,18.33,18.33,0,0,0,1-2.73c.49-1.47,1-2.87,1.47-4.34a7.15,7.15,0,0,1,.77-2C341.79,632.56,342.35,631.72,343.05,631.58Z" transform="translate(-0.19)"/><path class="cls-18" d="M335.28,654.47h.91l.21-1.4a1.86,1.86,0,0,1,.21-.84,3.11,3.11,0,0,1,.56-.77c.91-1.26.84-3,1.05-4.55a25.42,25.42,0,0,1,2-6l1.82-4.06.42-1.05a6.9,6.9,0,0,0,.14-1.19c0-.63.21-2.87.21-3.5,0-.21-.49-.14-.63-.28-.21-.42-.56.77-1,1.05a2.09,2.09,0,0,0-.84,1.19c-.42,1-.63,2.1-1,3.08a6.88,6.88,0,0,1-1.68,2.73c-.35.35-.77.56-1.12.91-1.12,1.12-1.26,2.87-1.26,4.41A102.41,102.41,0,0,0,335.28,654.47Z" transform="translate(-0.19)"/><path class="cls-18" d="M348.65,629.9a3.34,3.34,0,0,0-1.68,2.31,9.93,9.93,0,0,1-.84,2.8c-1.12,2-4.06,2.52-4.83,4.69a11.51,11.51,0,0,0-.35,2.24c-.14,1.54-.63,3-.77,4.55a20.28,20.28,0,0,0,.07,3.57l1.05,12a17,17,0,0,1-.28,5.32,4.93,4.93,0,0,0,3-.49c1-.42,1.82-1,2.73-1.54a26,26,0,0,0,4.69-2.66,2,2,0,0,0,.63-.7,6.05,6.05,0,0,0,.42-1.61,9.35,9.35,0,0,1,.49-1.26c.49-1.19.91-2.45,1.33-3.71.28-.84.42-1.68.63-2.52a10.68,10.68,0,0,0,.21-2.1,11.44,11.44,0,0,1,.63-3.15,23.8,23.8,0,0,0,1.47-7.63,6,6,0,0,0-.07-1.12,4.26,4.26,0,0,0-.63-1.26c-.42-.77-.7-1.68-1.05-2.45a12.27,12.27,0,0,0-4.13-4.34A3.13,3.13,0,0,0,348.65,629.9Z" transform="translate(-0.19)"/><path class="cls-19" d="M327.51,649.57a6.55,6.55,0,0,1-2-1.47,7.92,7.92,0,0,1-.7-.91,4.54,4.54,0,0,0-2.45-1.4,12.67,12.67,0,0,0-2.8-.28,4.38,4.38,0,0,0-1.89.21,2,2,0,0,0-1.26,1.33,2.05,2.05,0,0,0,1,2,4.74,4.74,0,0,0,1.89.91l1.68.21c3.36.35,6.3,2.17,9.24,3.85,2.59,1.47,5.18,2.8,7.91,4.06.07-.77.14-1.61.14-2.45,0-.63-.07-1.54-.63-1.89a17.31,17.31,0,0,0-2.52-.77,39.87,39.87,0,0,1-5-2A11.38,11.38,0,0,1,327.51,649.57Z" transform="translate(-0.19)"/><ellipse class="cls-19" cx="341.94" cy="624.72" rx="5.95" ry="6.02"/><path class="cls-18" d="M350.33,636.69a13.08,13.08,0,0,0-1.19,2.17c-.7,1.54-1.89,2.8-2.45,4.41s-.56,3.64-1.75,5a3.11,3.11,0,0,0-.56.77,1.54,1.54,0,0,1-.07.56c-.21.49-1,.49-1.12,1-.07.14,0,.28-.07.42-.14.35-.56.35-.84.56-.56.42-.49,1.33-.91,1.89a1.65,1.65,0,0,1-1.47.56,5.79,5.79,0,0,1-1.54-.56,4.82,4.82,0,0,0-.56-.21,1,1,0,0,0-.63.21,3.93,3.93,0,0,0-1.61,3.36,11.51,11.51,0,0,0,.91,3.78,1.11,1.11,0,0,0,1.75.7,5.49,5.49,0,0,1,1.47-.63c.91-.14,1.82.49,2.8.42a3.32,3.32,0,0,0,1.89-.84,10.33,10.33,0,0,0,2.52-2.1,14.47,14.47,0,0,0,1.05-1.75c.49-.7,1-1.4,1.47-2l3.43-4.2a14.19,14.19,0,0,0,.91-1.26,9.32,9.32,0,0,0,.7-2,14.22,14.22,0,0,0,.7-3.43,12.88,12.88,0,0,0-.28-2.87,9.23,9.23,0,0,0-.7-2.73C353.55,636.34,351.73,635.08,350.33,636.69Z" transform="translate(-0.19)"/><path class="cls-21" d="M362.3,628.92a6.86,6.86,0,0,0-2.73-5.46,8,8,0,0,0-6.79-7.77,7.74,7.74,0,0,0-15.26.42c-2.45-.56-4.76.14-5.18,1.68s1.33,3.5,3.92,4.2a7.75,7.75,0,0,0,2.52.28,8,8,0,0,0,5.32,3.36,8,8,0,0,0,5.81,6,5.79,5.79,0,0,0,1.82,2.45v.56a5,5,0,0,0,10.08,0h0a5,5,0,0,0-.49-2.24A5.93,5.93,0,0,0,362.3,628.92Z" transform="translate(-0.19)"/><path class="cls-7" d="M334,618.07c.42-1.54,2.66-2.24,5.18-1.68a7.94,7.94,0,0,1,7.7-6.65h.49a7.81,7.81,0,0,0-2.17-.35,7.94,7.94,0,0,0-7.7,6.65c-2.45-.56-4.76.14-5.18,1.68s1.33,3.5,3.92,4.2a10.87,10.87,0,0,0,1.47.28C335.28,621.5,333.6,619.68,334,618.07Z" transform="translate(-0.19)"/><path class="cls-7" d="M353.48,634.94v-.56a7.72,7.72,0,0,1-1.82-2.45,7.85,7.85,0,0,1-5.81-6,7.72,7.72,0,0,1-5.32-3.29,5.19,5.19,0,0,1-1.47-.07,7.72,7.72,0,0,0,5.18,3.08,8,8,0,0,0,5.81,6,5.79,5.79,0,0,0,1.82,2.45v.56a5.15,5.15,0,0,0,5,5.25A5.16,5.16,0,0,1,353.48,634.94Z" transform="translate(-0.19)"/><ellipse class="cls-19" cx="344.09" cy="625.92" rx="0.91" ry="1.26" transform="translate(-308.72 335.64) rotate(-37.22)"/></g></g></svg>