<?xml version="1.0" encoding="utf-8"?>
<!-- Generator: Adobe Illustrator 23.0.2, SVG Export Plug-In . SVG Version: 6.00 Build 0)  -->
<svg version="1.1" xmlns="http://www.w3.org/2000/svg" xmlns:xlink="http://www.w3.org/1999/xlink" x="0px" y="0px"
	 viewBox="0 0 1130.4 1080" style="enable-background:new 0 0 1130.4 1080;" xml:space="preserve">
<style type="text/css">
	.st0{fill:none;}
	.st1{fill:#697AFE;}
	.st2{fill:#353E80;}
	.st3{opacity:0.6;}
	.st4{fill:#3F3D56;}
	.st5{fill:#FFE385;}
	.st6{opacity:0.1;enable-background:new    ;}
	.st7{opacity:0.6;fill:#FFE385;enable-background:new    ;}
	.st8{opacity:0.1;fill:#FFE385;enable-background:new    ;}
	.st9{fill:none;stroke:#3F3D56;stroke-width:4;stroke-miterlimit:10;}
	.st10{fill:url(#SVGID_1_);}
	.st11{fill:#BE6F72;}
	.st12{fill:#FF6F61;}
	.st13{opacity:0.1;}
	.st14{fill:url(#SVGID_2_);}
	.st15{fill:url(#SVGID_3_);}
	.st16{opacity:0.1;fill:none;stroke:#000000;stroke-miterlimit:10;enable-background:new    ;}
	.st17{fill:url(#SVGID_6_);}
	.st18{fill:#2F2E41;}
	.st19{fill:#FBBEBE;}
	.st20{fill:#E8E8F0;}
	.st21{fill:#F86D70;}
</style>
<pattern  x="190.2" y="28" width="36.9" height="49.5" patternUnits="userSpaceOnUse" id="SVGID_4_" viewBox="0 -49.5 36.9 49.5" style="overflow:visible;">
	<g>
		<rect y="-49.5" class="st0" width="36.9" height="49.5"/>
		<g>
			<rect y="-49.5" class="st0" width="36.9" height="49.5"/>
			<g>
				<rect y="-49.5" class="st0" width="36.9" height="49.5"/>
				<rect y="-49.5" class="st0" width="36.9" height="49.5"/>
				<path d="M4.3-13.2c4.5,0,4.5,7,0,7S-0.2-13.2,4.3-13.2z"/>
				<path d="M4.5-17.2c4.5,0,4.5,7,0,7S0-17.2,4.5-17.2z"/>
				<path d="M4.5-20.9c4.5,0,4.5,7,0,7S0-20.9,4.5-20.9z"/>
				<path d="M3.4-24.7c4.5,0,4.5,7,0,7S-1.1-24.7,3.4-24.7z"/>
				<path d="M1.1-28.3l0.2-0.4c1-1.7,3.1-2.2,4.8-1.3c1.6,1,2.2,3.1,1.3,4.8l-0.2,0.4c-1,1.7-3.1,2.2-4.8,1.3
					C0.7-24.5,0.2-26.6,1.1-28.3z"/>
				<path d="M1.5-30.1l0.2-0.6c0.3-0.9,0.8-1.6,1.6-2.1s1.8-0.6,2.7-0.3c1.9,0.5,2.9,2.4,2.4,4.3l-0.2,0.6c-0.3,0.9-0.8,1.6-1.6,2.1
					s-1.8,0.6-2.7,0.4C2.1-26.3,1-28.2,1.5-30.1z"/>
				<path d="M1.6-33.9v-0.4c0-1.9,1.6-3.5,3.5-3.5s3.5,1.6,3.5,3.5v0.4c0,1.9-1.6,3.5-3.5,3.5S1.6-32,1.6-33.9z"/>
				<path d="M4.9-42.3c4.5,0,4.5,7,0,7S0.4-42.3,4.9-42.3z"/>
				<path d="M1.8-42v-0.2c0-1.9,1.6-3.5,3.5-3.5s3.5,1.6,3.5,3.5v0.2c0,1.9-1.6,3.5-3.5,3.5S1.8-40.1,1.8-42z"/>
				<path d="M6-49.3c4.5,0,4.5,7,0,7S1.5-49.3,6-49.3z"/>
				<path d="M10-14.1c4.5,0,4.5,7,0,7S5.5-14.1,10-14.1z"/>
				<path d="M6.6-20.9c4.5,0,4.5,7,0,7S2.1-20.9,6.6-20.9z"/>
				<path d="M8.5-27c4.5,0,4.5,7,0,7S4-27,8.5-27z"/>
				<path d="M8.5-29.3c4.5,0,4.5,7,0,7S4-29.3,8.5-29.3z"/>
				<path d="M14.9-33.8c4.5,0,4.5,7,0,7S10.4-33.8,14.9-33.8z"/>
				<path d="M9.8-38.5c4.5,0,4.5,7,0,7S5.3-38.5,9.8-38.5z"/>
				<path d="M10.6-45.1c4.5,0,4.5,7,0,7S6.1-45.1,10.6-45.1z"/>
				<path d="M10.6-49.5c4.5,0,4.5,7,0,7S6.1-49.5,10.6-49.5z"/>
				<path d="M12.8-18.1c2.6,0,2.6,4,0,4S10.3-18.1,12.8-18.1z"/>
				<path d="M13-20.4c2.6,0,2.6,4,0,4S10.4-20.4,13-20.4z"/>
				<path d="M13.1-21v-0.2c0-1.1,0.9-2,2-2s2,0.9,2,2v0.2c0,1.1-0.9,2-2,2S13.1-19.9,13.1-21z"/>
				<path d="M15.1-25.9c2.6,0,2.6,4,0,4S12.5-25.9,15.1-25.9z"/>
				<path d="M16.6-11.1c0.6,0,1,0.4,1,1s-0.4,1-1,1s-1-0.4-1-1C15.6-10.7,16.1-11.1,16.6-11.1z"/>
				<path d="M21.7-16.5c0.6,0,1,0.4,1,1s-0.4,1-1,1s-1-0.4-1-1S21.2-16.5,21.7-16.5z"/>
				<path d="M16.9-8.9v0.4c0,0.6-0.4,1-1,1s-1-0.4-1-1v-0.4c0-0.6,0.4-1,1-1C16.4-9.9,16.9-9.5,16.9-8.9z"/>
				<path d="M16.5-4.8v0.2c0,0.6-0.4,1-1,1s-1-0.4-1-1v-0.2c0-0.6,0.4-1,1-1C16-5.8,16.5-5.3,16.5-4.8z"/>
				<path d="M15.5-2c0.6,0,1,0.4,1,1s-0.4,1-1,1s-1-0.4-1-1S14.9-2,15.5-2z"/>
				<path d="M10.6-2c0.6,0,1,0.4,1,1s-0.4,1-1,1s-1-0.4-1-1S10-2,10.6-2z"/>
				<path d="M10.4-4.7c0.6,0,1,0.4,1,1s-0.4,1-1,1s-1-0.4-1-1S9.8-4.7,10.4-4.7z"/>
				<path d="M7.4-6.2c0.6,0,1,0.4,1,1s-0.4,1-1,1s-1-0.4-1-1C6.4-5.8,6.8-6.2,7.4-6.2z"/>
				<path d="M11.9-7.1h0.4c0.6,0,1,0.4,1,1s-0.4,1-1,1h-0.4c-0.6,0-1-0.4-1-1C10.9-6.7,11.3-7.1,11.9-7.1z"/>
				<path d="M13.3-11l0.6-1.3c0.3-0.5,0.9-0.6,1.4-0.4l0,0c0.5,0.3,0.6,0.9,0.4,1.4l0,0L15-10c-0.3,0.5-0.9,0.6-1.4,0.4l0,0
					C13.2-9.9,13-10.5,13.3-11z"/>
				<path d="M18.4-19.3v-0.2c0-0.6,0.4-1,1-1s1,0.4,1,1v0.2c0,0.6-0.4,1-1,1S18.4-18.8,18.4-19.3z"/>
				<path d="M20.7-24.9l0.2-0.4c0.6-1.1,2.3-0.1,1.7,1l-0.2,0.4C21.8-22.8,20.1-23.8,20.7-24.9z"/>
				<path d="M22.1-29.4c-0.5-0.5-0.8-1.1-0.8-1.9c0-0.6,0.4-1,1-1s1,0.4,1,1c0,0.2,0.1,0.3,0.3,0.4c0.4,0.4,0.4,1,0,1.4l0,0
					C23.2-29,22.5-29,22.1-29.4z"/>
				<path d="M20.3-33.4l-0.5-1.7c-0.4-1.2,1.5-1.8,1.9-0.5l0.5,1.7C22.6-32.7,20.7-32.2,20.3-33.4z"/>
				<path d="M19.4-37h-0.2c-0.6,0-1-0.4-1-1s0.4-1,1-1h0.2c0.6,0,1,0.4,1,1S20-37,19.4-37z"/>
				<path d="M17.6-41.5l-0.2-0.4c-0.6-1.2,1.1-2.2,1.7-1l0.2,0.4C19.9-41.3,18.2-40.3,17.6-41.5z"/>
				<path d="M15.8-47.9v-0.6c0-0.6,0.4-1,1-1c0.6,0,1,0.4,1,1v0.6c0,0.6-0.4,1-1,1S15.8-47.3,15.8-47.9z"/>
				<path d="M14.3-49.4c0.6,0,1,0.4,1,1c0,0.6-0.4,1-1,1s-1-0.4-1-1C13.3-49,13.8-49.4,14.3-49.4z"/>
				<path d="M14.3-41.3c0.6,0,1,0.4,1,1c0,0.6-0.4,1-1,1s-1-0.4-1-1C13.3-40.9,13.8-41.3,14.3-41.3z"/>
				<path d="M17.1-36.5c0.6,0.3,1,1,1,1.6c0,0.6-0.4,1-1,1s-1-0.4-1-1c0,0.1,0.2,0.2,0,0.1C15-35.3,16-37,17.1-36.5z"/>
				<path d="M17.4-31.3c0.6,0,1,0.4,1,1s-0.4,1-1,1s-1-0.4-1-1S16.8-31.3,17.4-31.3z"/>
				<path d="M18.1-28.5c0.6,0,1,0.4,1,1s-0.4,1-1,1s-1-0.4-1-1S17.6-28.5,18.1-28.5z"/>
				<path d="M19-24.9l0.2,0.4c0.6,1.1-1.1,2.2-1.7,1l-0.2-0.4C16.7-25.1,18.4-26.1,19-24.9z"/>
				<path d="M17.9-16c0.6,0,1,0.4,1,1s-0.4,1-1,1s-1-0.4-1-1S17.4-16,17.9-16z"/>
				<path d="M24.6-16l0.6-0.9c0.3-0.4,1-0.5,1.4-0.2s0.5,0.8,0.3,1.2l-0.6,1c-0.3,0.5-0.9,0.6-1.4,0.3C24.6-15,24.4-15.5,24.6-16
					L24.6-16z"/>
				<path d="M34.9-29.7v-0.2c0-0.6,0.4-1,1-1s1,0.4,1,1v0.2c0,0.6-0.4,1-1,1S34.9-29.2,34.9-29.7z"/>
				<path d="M24-39.2c0.6,0,1,0.4,1,1c0,0.6-0.4,1-1,1s-1-0.4-1-1C23-38.8,23.5-39.2,24-39.2z"/>
				<path d="M22.9-29c0.6,0,1,0.4,1,1s-0.4,1-1,1s-1-0.4-1-1S22.3-29,22.9-29z"/>
				<path d="M18.2-21.9l0.6,0.6c0.9,0.9-0.5,2.3-1.4,1.4l-0.6-0.6C15.9-21.4,17.3-22.8,18.2-21.9z"/>
			</g>
		</g>
	</g>
</pattern>
<pattern  x="190.2" y="28" width="36.9" height="49.5" patternUnits="userSpaceOnUse" id="SVGID_5_" viewBox="0 -49.5 36.9 49.5" style="overflow:visible;">
	<g>
		<rect y="-49.5" class="st0" width="36.9" height="49.5"/>
		<g>
			<rect y="-49.5" class="st0" width="36.9" height="49.5"/>
			<g>
				<rect y="-49.5" class="st0" width="36.9" height="49.5"/>
				<rect y="-49.5" class="st0" width="36.9" height="49.5"/>
				<path d="M4.3-13.2c4.5,0,4.5,7,0,7S-0.2-13.2,4.3-13.2z"/>
				<path d="M4.5-17.2c4.5,0,4.5,7,0,7S0-17.2,4.5-17.2z"/>
				<path d="M4.5-20.9c4.5,0,4.5,7,0,7S0-20.9,4.5-20.9z"/>
				<path d="M3.4-24.7c4.5,0,4.5,7,0,7S-1.1-24.7,3.4-24.7z"/>
				<path d="M1.1-28.3l0.2-0.4c1-1.7,3.1-2.2,4.8-1.3c1.6,1,2.2,3.1,1.3,4.8l-0.2,0.4c-1,1.7-3.1,2.2-4.8,1.3
					C0.7-24.5,0.2-26.6,1.1-28.3z"/>
				<path d="M1.5-30.1l0.2-0.6c0.3-0.9,0.8-1.6,1.6-2.1s1.8-0.6,2.7-0.3c1.9,0.5,2.9,2.4,2.4,4.3l-0.2,0.6c-0.3,0.9-0.8,1.6-1.6,2.1
					s-1.8,0.6-2.7,0.4C2.1-26.3,1-28.2,1.5-30.1z"/>
				<path d="M1.6-33.9v-0.4c0-1.9,1.6-3.5,3.5-3.5s3.5,1.6,3.5,3.5v0.4c0,1.9-1.6,3.5-3.5,3.5S1.6-32,1.6-33.9z"/>
				<path d="M4.9-42.3c4.5,0,4.5,7,0,7S0.4-42.3,4.9-42.3z"/>
				<path d="M1.8-42v-0.2c0-1.9,1.6-3.5,3.5-3.5s3.5,1.6,3.5,3.5v0.2c0,1.9-1.6,3.5-3.5,3.5S1.8-40.1,1.8-42z"/>
				<path d="M6-49.3c4.5,0,4.5,7,0,7S1.5-49.3,6-49.3z"/>
				<path d="M10-14.1c4.5,0,4.5,7,0,7S5.5-14.1,10-14.1z"/>
				<path d="M6.6-20.9c4.5,0,4.5,7,0,7S2.1-20.9,6.6-20.9z"/>
				<path d="M8.5-27c4.5,0,4.5,7,0,7S4-27,8.5-27z"/>
				<path d="M8.5-29.3c4.5,0,4.5,7,0,7S4-29.3,8.5-29.3z"/>
				<path d="M14.9-33.8c4.5,0,4.5,7,0,7S10.4-33.8,14.9-33.8z"/>
				<path d="M9.8-38.5c4.5,0,4.5,7,0,7S5.3-38.5,9.8-38.5z"/>
				<path d="M10.6-45.1c4.5,0,4.5,7,0,7S6.1-45.1,10.6-45.1z"/>
				<path d="M10.6-49.5c4.5,0,4.5,7,0,7S6.1-49.5,10.6-49.5z"/>
				<path d="M12.8-18.1c2.6,0,2.6,4,0,4S10.3-18.1,12.8-18.1z"/>
				<path d="M13-20.4c2.6,0,2.6,4,0,4S10.4-20.4,13-20.4z"/>
				<path d="M13.1-21v-0.2c0-1.1,0.9-2,2-2s2,0.9,2,2v0.2c0,1.1-0.9,2-2,2S13.1-19.9,13.1-21z"/>
				<path d="M15.1-25.9c2.6,0,2.6,4,0,4S12.5-25.9,15.1-25.9z"/>
				<path d="M16.6-11.1c0.6,0,1,0.4,1,1s-0.4,1-1,1s-1-0.4-1-1C15.6-10.7,16.1-11.1,16.6-11.1z"/>
				<path d="M21.7-16.5c0.6,0,1,0.4,1,1s-0.4,1-1,1s-1-0.4-1-1S21.2-16.5,21.7-16.5z"/>
				<path d="M16.9-8.9v0.4c0,0.6-0.4,1-1,1s-1-0.4-1-1v-0.4c0-0.6,0.4-1,1-1C16.4-9.9,16.9-9.5,16.9-8.9z"/>
				<path d="M16.5-4.8v0.2c0,0.6-0.4,1-1,1s-1-0.4-1-1v-0.2c0-0.6,0.4-1,1-1C16-5.8,16.5-5.3,16.5-4.8z"/>
				<path d="M15.5-2c0.6,0,1,0.4,1,1s-0.4,1-1,1s-1-0.4-1-1S14.9-2,15.5-2z"/>
				<path d="M10.6-2c0.6,0,1,0.4,1,1s-0.4,1-1,1s-1-0.4-1-1S10-2,10.6-2z"/>
				<path d="M10.4-4.7c0.6,0,1,0.4,1,1s-0.4,1-1,1s-1-0.4-1-1S9.8-4.7,10.4-4.7z"/>
				<path d="M7.4-6.2c0.6,0,1,0.4,1,1s-0.4,1-1,1s-1-0.4-1-1C6.4-5.8,6.8-6.2,7.4-6.2z"/>
				<path d="M11.9-7.1h0.4c0.6,0,1,0.4,1,1s-0.4,1-1,1h-0.4c-0.6,0-1-0.4-1-1C10.9-6.7,11.3-7.1,11.9-7.1z"/>
				<path d="M13.3-11l0.6-1.3c0.3-0.5,0.9-0.6,1.4-0.4l0,0c0.5,0.3,0.6,0.9,0.4,1.4l0,0L15-10c-0.3,0.5-0.9,0.6-1.4,0.4l0,0
					C13.2-9.9,13-10.5,13.3-11z"/>
				<path d="M18.4-19.3v-0.2c0-0.6,0.4-1,1-1s1,0.4,1,1v0.2c0,0.6-0.4,1-1,1S18.4-18.8,18.4-19.3z"/>
				<path d="M20.7-24.9l0.2-0.4c0.6-1.1,2.3-0.1,1.7,1l-0.2,0.4C21.8-22.8,20.1-23.8,20.7-24.9z"/>
				<path d="M22.1-29.4c-0.5-0.5-0.8-1.1-0.8-1.9c0-0.6,0.4-1,1-1s1,0.4,1,1c0,0.2,0.1,0.3,0.3,0.4c0.4,0.4,0.4,1,0,1.4l0,0
					C23.2-29,22.5-29,22.1-29.4z"/>
				<path d="M20.3-33.4l-0.5-1.7c-0.4-1.2,1.5-1.8,1.9-0.5l0.5,1.7C22.6-32.7,20.7-32.2,20.3-33.4z"/>
				<path d="M19.4-37h-0.2c-0.6,0-1-0.4-1-1s0.4-1,1-1h0.2c0.6,0,1,0.4,1,1S20-37,19.4-37z"/>
				<path d="M17.6-41.5l-0.2-0.4c-0.6-1.2,1.1-2.2,1.7-1l0.2,0.4C19.9-41.3,18.2-40.3,17.6-41.5z"/>
				<path d="M15.8-47.9v-0.6c0-0.6,0.4-1,1-1c0.6,0,1,0.4,1,1v0.6c0,0.6-0.4,1-1,1S15.8-47.3,15.8-47.9z"/>
				<path d="M14.3-49.4c0.6,0,1,0.4,1,1c0,0.6-0.4,1-1,1s-1-0.4-1-1C13.3-49,13.8-49.4,14.3-49.4z"/>
				<path d="M14.3-41.3c0.6,0,1,0.4,1,1c0,0.6-0.4,1-1,1s-1-0.4-1-1C13.3-40.9,13.8-41.3,14.3-41.3z"/>
				<path d="M17.1-36.5c0.6,0.3,1,1,1,1.6c0,0.6-0.4,1-1,1s-1-0.4-1-1c0,0.1,0.2,0.2,0,0.1C15-35.3,16-37,17.1-36.5z"/>
				<path d="M17.4-31.3c0.6,0,1,0.4,1,1s-0.4,1-1,1s-1-0.4-1-1S16.8-31.3,17.4-31.3z"/>
				<path d="M18.1-28.5c0.6,0,1,0.4,1,1s-0.4,1-1,1s-1-0.4-1-1S17.6-28.5,18.1-28.5z"/>
				<path d="M19-24.9l0.2,0.4c0.6,1.1-1.1,2.2-1.7,1l-0.2-0.4C16.7-25.1,18.4-26.1,19-24.9z"/>
				<path d="M17.9-16c0.6,0,1,0.4,1,1s-0.4,1-1,1s-1-0.4-1-1S17.4-16,17.9-16z"/>
				<path d="M24.6-16l0.6-0.9c0.3-0.4,1-0.5,1.4-0.2s0.5,0.8,0.3,1.2l-0.6,1c-0.3,0.5-0.9,0.6-1.4,0.3C24.6-15,24.4-15.5,24.6-16
					L24.6-16z"/>
				<path d="M34.9-29.7v-0.2c0-0.6,0.4-1,1-1s1,0.4,1,1v0.2c0,0.6-0.4,1-1,1S34.9-29.2,34.9-29.7z"/>
				<path d="M24-39.2c0.6,0,1,0.4,1,1c0,0.6-0.4,1-1,1s-1-0.4-1-1C23-38.8,23.5-39.2,24-39.2z"/>
				<path d="M22.9-29c0.6,0,1,0.4,1,1s-0.4,1-1,1s-1-0.4-1-1S22.3-29,22.9-29z"/>
				<path d="M18.2-21.9l0.6,0.6c0.9,0.9-0.5,2.3-1.4,1.4l-0.6-0.6C15.9-21.4,17.3-22.8,18.2-21.9z"/>
			</g>
		</g>
	</g>
</pattern>
<g id="Camada_3">
</g>
<g id="Camada_2">
	<path class="st1" d="M394.2,0c0,0,508.6,77.3,396.5,526.9s64.5,557.1,64.5,557.1h-805V0H394.2z"/>
	<path class="st2" d="M334.2,0c0,0,508.6,77.3,396.5,526.9s64.5,557.1,64.5,557.1H0.2V0H334.2z"/>
</g>
<g id="Camada_1">
	<g id="ae37f038-3a9e-4b82-ad68-fc94ba16af2a">
		<title>contact us</title>
		<g class="st3">
			<ellipse class="st4" cx="314.6" cy="571.2" rx="7.1" ry="9.2"/>
			<path class="st4" d="M320.1,531.8c1-1.7,1.5-3.6,1.5-5.6c0-5.1-3.2-9.2-7.1-9.2s-7.1,4.1-7.1,9.2c0,2,0.5,3.9,1.5,5.6
				c-2,3.5-2,7.8,0,11.3c-2,3.5-2,7.8,0,11.3c-1,1.7-1.5,3.6-1.5,5.6c0,5.1,3.2,9.2,7.1,9.2s7.1-4.1,7.1-9.2c0-2-0.5-3.9-1.5-5.6
				c2-3.5,2-7.8,0-11.3C322.1,539.5,322.1,535.3,320.1,531.8L320.1,531.8z"/>
			<ellipse class="st4" cx="314.6" cy="514.9" rx="7.1" ry="9.2"/>
			<ellipse class="st4" cx="314.6" cy="503.7" rx="7.1" ry="9.2"/>
			<path class="st5" d="M288.2,426.5c-1-1.2-1.9-2.5-2.6-3.8l18.5-3l-20,0.1c-3.9-8.5-4.1-18.1-0.6-26.7l26.8,13.9l-24.7-18.2
				c9.2-16.2,29.8-21.8,46-12.6c16.2,9.2,21.8,29.8,12.6,46c-0.9,1.5-1.9,3-3,4.4c1.5,1.9,2.8,4,3.8,6.1l-24,12.5l25.6-8.6
				c3.6,10.8,1.6,22.7-5.4,31.7c11.5,14.7,9,35.8-5.6,47.4c-14.7,11.5-35.8,9-47.4-5.6c-9.7-12.2-9.7-29.4,0-41.7
				C278.6,456,278.6,438.8,288.2,426.5L288.2,426.5z"/>
			<path class="st6" d="M348.5,447.4c0,7.5-2.5,14.9-7.2,20.8c11.5,14.7,9,35.8-5.6,47.4c-14.7,11.5-35.8,9-47.4-5.6
				c-9.7-12.2-9.7-29.4,0-41.7C283.7,462.5,348.5,443.6,348.5,447.4z"/>
		</g>
		<g class="st3">
			<ellipse class="st4" cx="396.8" cy="551.5" rx="5.3" ry="6.9"/>
			<path class="st4" d="M400.9,522c0.7-1.3,1.1-2.7,1.1-4.2c0-3.8-2.4-6.9-5.3-6.9s-5.3,3.1-5.3,6.9c0,1.5,0.4,2.9,1.1,4.2
				c-1.5,2.6-1.5,5.8,0,8.4c-1.5,2.6-1.5,5.8,0,8.4c-0.7,1.3-1.1,2.7-1.1,4.2c0,3.8,2.4,6.9,5.3,6.9s5.3-3.1,5.3-6.9
				c0-1.5-0.4-2.9-1.1-4.2c1.5-2.6,1.5-5.8,0-8.4C402.4,527.9,402.4,524.7,400.9,522z"/>
			<ellipse class="st4" cx="396.8" cy="509.4" rx="5.3" ry="6.9"/>
			<ellipse class="st4" cx="396.8" cy="501" rx="5.3" ry="6.9"/>
			<path class="st5" d="M377,443.4c-0.7-0.9-1.4-1.9-2-2.9l13.8-2.3l-15,0.1c-2.9-6.3-3.1-13.5-0.5-20l20,10.4l-18.5-13.6
				c6.9-12.1,22.4-16.2,34.5-9.3c12.1,6.9,16.2,22.4,9.3,34.5c-0.6,1.1-1.3,2-2,3c1.1,1.4,2.1,3,2.9,4.6l-17.9,9.3l19.1-6.4
				c2.7,8,1.2,16.9-4.1,23.7c8.6,10.9,6.7,26.8-4.2,35.4c-10.9,8.6-26.8,6.7-35.4-4.2c-7.2-9.2-7.2-22,0-31.2
				C369.9,465.4,369.9,452.6,377,443.4L377,443.4z"/>
			<path class="st6" d="M422.1,459c0,5.6-1.9,11.1-5.4,15.6c8.6,10.9,6.7,26.8-4.2,35.4c-10.9,8.6-26.8,6.7-35.4-4.2
				c-7.2-9.2-7.2-22,0-31.2C373.7,470.3,422.1,456.2,422.1,459z"/>
		</g>
		<g class="st3">
			<ellipse class="st4" cx="660.5" cy="546.5" rx="7.1" ry="9.2"/>
			<path class="st4" d="M654.9,507.1c-1-1.7-1.5-3.6-1.5-5.6c0-5.1,3.2-9.2,7.1-9.2c3.9,0,7.1,4.1,7.1,9.2c0,2-0.5,3.9-1.5,5.6
				c2,3.5,2,7.8,0,11.3c2,3.5,2,7.8,0,11.3c1,1.7,1.5,3.6,1.5,5.6c0,5.1-3.2,9.2-7.1,9.2c-3.9,0-7.1-4.1-7.1-9.2
				c0-2,0.5-3.9,1.5-5.6c-2-3.5-2-7.8,0-11.3C652.9,514.8,652.9,510.5,654.9,507.1z"/>
			<ellipse class="st4" cx="660.5" cy="490.2" rx="7.1" ry="9.2"/>
			<ellipse class="st4" cx="660.5" cy="478.9" rx="7.1" ry="9.2"/>
			<path class="st5" d="M686.8,401.8c1-1.2,1.9-2.5,2.6-3.8l-18.5-3l20,0.1c3.9-8.5,4.1-18.1,0.6-26.7l-26.8,13.9l24.7-18.2
				c-9.2-16.2-29.8-21.8-46-12.6c-16.2,9.2-21.8,29.8-12.6,46c0.9,1.5,1.9,3,3,4.4c-1.5,1.9-2.8,4-3.8,6.1l24,12.5l-25.6-8.6
				c-3.6,10.8-1.6,22.7,5.4,31.7c-11.5,14.7-9,35.8,5.6,47.4c14.6,11.6,35.8,9,47.4-5.6c9.7-12.2,9.7-29.4,0-41.7
				C696.4,431.3,696.4,414,686.8,401.8L686.8,401.8z"/>
			<path class="st6" d="M626.6,422.6c0,7.5,2.5,14.9,7.2,20.8c-11.5,14.7-9,35.8,5.6,47.4c14.6,11.6,35.8,9,47.4-5.6
				c9.7-12.2,9.7-29.4,0-41.7C691.4,437.8,626.6,418.9,626.6,422.6z"/>
		</g>
		<g class="st3">
			<ellipse class="st4" cx="592.5" cy="547.8" rx="5.3" ry="6.9"/>
			<path class="st4" d="M588.4,518.3c-0.7-1.3-1.1-2.7-1.1-4.2c0-3.8,2.4-6.9,5.3-6.9s5.3,3.1,5.3,6.9c0,1.5-0.4,2.9-1.1,4.2
				c1.5,2.6,1.5,5.8,0,8.4c1.5,2.6,1.5,5.8,0,8.4c0.7,1.3,1.1,2.7,1.1,4.2c0,3.8-2.4,6.9-5.3,6.9s-5.3-3.1-5.3-6.9
				c0-1.5,0.4-2.9,1.1-4.2c-1.5-2.6-1.5-5.8,0-8.4C586.9,524.1,586.9,521,588.4,518.3z"/>
			<ellipse class="st4" cx="592.5" cy="505.7" rx="5.3" ry="6.9"/>
			<ellipse class="st4" cx="592.5" cy="497.3" rx="5.3" ry="6.9"/>
			<path class="st5" d="M612.2,439.7c0.7-0.9,1.4-1.9,2-2.9l-13.8-2.3l15,0.1c2.9-6.3,3.1-13.5,0.5-20l-20,10.4l18.5-13.6
				c-6.9-12.1-22.4-16.2-34.5-9.3s-16.2,22.4-9.3,34.5c0.6,1.1,1.3,2,2,3c-1.1,1.4-2.1,3-2.9,4.6l17.9,9.3l-19.1-6.4
				c-2.7,8-1.2,16.9,4.1,23.7c-8.6,10.9-6.7,26.8,4.2,35.4c10.9,8.6,26.8,6.7,35.4-4.2c7.2-9.2,7.2-22,0-31.2
				C619.4,461.7,619.4,448.9,612.2,439.7L612.2,439.7z"/>
			<path class="st6" d="M567.2,455.3c0,5.6,1.9,11.1,5.4,15.6c-8.6,10.9-6.7,26.8,4.2,35.4c10.9,8.6,26.8,6.7,35.4-4.2
				c7.2-9.2,7.2-22,0-31.2C615.6,466.6,567.2,452.4,567.2,455.3z"/>
		</g>
		<g class="st3">
			<ellipse class="st4" cx="56.1" cy="546.5" rx="7.1" ry="9.2"/>
			<path class="st4" d="M61.7,507.1c1-1.7,1.5-3.6,1.5-5.6c0-5.1-3.2-9.2-7.1-9.2s-7.1,4.1-7.1,9.2c0,2,0.5,3.9,1.5,5.6
				c-2,3.5-2,7.8,0,11.3c-2,3.5-2,7.8,0,11.3c-1,1.7-1.5,3.6-1.5,5.6c0,5.1,3.2,9.2,7.1,9.2s7.1-4.1,7.1-9.2c0-2-0.5-3.9-1.5-5.6
				c2-3.5,2-7.8,0-11.3C63.7,514.8,63.7,510.5,61.7,507.1L61.7,507.1z"/>
			<ellipse class="st4" cx="56.1" cy="490.2" rx="7.1" ry="9.2"/>
			<ellipse class="st4" cx="56.1" cy="478.9" rx="7.1" ry="9.2"/>
			<path class="st5" d="M29.8,401.8c-1-1.2-1.9-2.5-2.6-3.8l18.5-3l-20,0.2c-3.9-8.5-4.1-18.1-0.6-26.7l26.8,13.9l-24.7-18.2
				c9.2-16.2,29.9-21.8,46-12.6c16.1,9.2,21.8,29.9,12.6,46c-0.9,1.5-1.8,2.9-2.9,4.3c1.5,1.9,2.8,4,3.8,6.1l-24,12.5l25.6-8.6
				c3.6,10.8,1.6,22.7-5.4,31.7c11.5,14.7,9,35.8-5.6,47.4c-14.6,11.6-35.8,9-47.4-5.6c-9.7-12.2-9.7-29.4,0-41.7
				C20.1,431.3,20.1,414,29.8,401.8L29.8,401.8z"/>
			<path class="st6" d="M90,422.6c0,7.5-2.5,14.9-7.2,20.8c11.5,14.7,9,35.8-5.6,47.4c-14.6,11.6-35.8,9-47.4-5.6
				c-9.7-12.2-9.7-29.4,0-41.7C25.2,437.8,90,418.9,90,422.6z"/>
		</g>
		<g class="st3">
			<ellipse class="st4" cx="124" cy="547.8" rx="5.3" ry="6.9"/>
			<path class="st4" d="M128.2,518.3c0.7-1.3,1.1-2.7,1.1-4.2c0-3.8-2.4-6.9-5.3-6.9s-5.3,3.1-5.3,6.9c0,1.5,0.4,2.9,1.1,4.2
				c-1.5,2.6-1.5,5.8,0,8.4c-1.5,2.6-1.5,5.8,0,8.4c-0.7,1.3-1.1,2.7-1.1,4.2c0,3.8,2.4,6.9,5.3,6.9s5.3-3.1,5.3-6.9
				c0-1.5-0.4-2.9-1.1-4.2c1.5-2.6,1.5-5.8,0-8.4C129.7,524.1,129.7,521,128.2,518.3z"/>
			<ellipse class="st4" cx="124" cy="505.7" rx="5.3" ry="6.9"/>
			<ellipse class="st4" cx="124" cy="497.3" rx="5.3" ry="6.9"/>
			<path class="st5" d="M104.4,439.7c-0.7-0.9-1.4-1.9-2-2.9l13.9-2.3l-15,0.1c-2.9-6.3-3.1-13.5-0.5-20l20,10.4l-18.5-13.6
				c6.9-12.1,22.4-16.2,34.5-9.2c12.1,6.9,16.2,22.4,9.2,34.5c-0.6,1.1-1.3,2-2,3c1.1,1.4,2.1,3,2.8,4.6l-17.9,9.3l19.1-6.4
				c2.7,8,1.2,16.9-4.1,23.7c8.6,10.9,6.7,26.8-4.2,35.4c-10.9,8.6-26.8,6.7-35.4-4.2c-7.2-9.2-7.2-22,0-31.2
				C97.2,461.7,97.2,448.9,104.4,439.7L104.4,439.7z"/>
			<path class="st6" d="M149.4,455.3c0,5.6-1.9,11.1-5.4,15.6c8.6,10.9,6.7,26.8-4.2,35.4c-10.9,8.6-26.8,6.7-35.4-4.2
				c-7.2-9.2-7.2-22,0-31.2C101,466.6,149.4,452.4,149.4,455.3z"/>
		</g>
		<ellipse class="st7" cx="357" cy="652.3" rx="339" ry="5.5"/>
		<ellipse class="st7" cx="357" cy="697.3" rx="339" ry="5.5"/>
		<ellipse class="st7" cx="357" cy="558.4" rx="339" ry="5.5"/>
		<ellipse class="st7" cx="357" cy="605.3" rx="339" ry="5.5"/>
		<path class="st8" d="M518.3,415.5c-2.2-0.4-4.5-0.2-6.6,0.7c-2.5,1.1-5.4,1.1-7.9,0c-3-1.3-6.4-1.2-9.3,0.2
			c-0.8,0.4-1.7,0.7-2.7,0.7c-3.8,0-6.9-3.8-7.5-8.8c0.7-0.6,1.4-1.2,1.9-2c2.2-3.5,5.6-5.8,9.5-5.8s7.2,2.2,9.4,5.8
			c1.4,2.2,3.7,3.5,6.2,3.4h0.1C514.5,409.6,517.1,412,518.3,415.5z"/>
		<path class="st7" d="M529.8,399.8l-6.1,3.8l3.7-6.7c-1.1-0.8-2.4-1.3-3.6-1.3h-0.1c-0.4,0-0.8,0-1.2-0.1l-2.1,1.3l0.9-1.6
			c-1.5-0.5-2.7-1.5-3.6-2.7l-3.7,2.4l2.4-4.2c-2.2-2.6-5.1-4.1-8.2-4.1c-3.8,0-7.2,2.3-9.5,5.8c-1.3,2.2-3.7,3.5-6.2,3.3h-0.2
			c-4.2,0-7.7,4.8-7.7,10.7c0,5.9,3.4,10.7,7.7,10.7c0.9,0,1.9-0.2,2.7-0.7c2.9-1.4,6.3-1.5,9.3-0.2c2.5,1.1,5.4,1.1,7.9,0
			c3-1.3,6.3-1.2,9.2,0.2c0.8,0.4,1.7,0.7,2.7,0.7c4.2,0,7.7-4.8,7.7-10.7C531.4,404.1,530.8,401.8,529.8,399.8z"/>
		<path class="st8" d="M260.1,412.2c-1.5-0.3-3.2-0.1-4.6,0.5c-1.7,0.8-3.8,0.8-5.5,0c-2.1-0.9-4.5-0.9-6.5,0.1
			c-0.6,0.3-1.2,0.4-1.9,0.5c-2.7,0-4.8-2.7-5.3-6.1c0.5-0.4,1-0.9,1.3-1.4c1.5-2.5,4-4.1,6.6-4.1c2.7,0,5,1.6,6.6,4
			c0.9,1.5,2.6,2.4,4.4,2.4h0.1C257.3,408,259.1,409.7,260.1,412.2z"/>
		<path class="st7" d="M268,401.2l-4.3,2.7l2.6-4.7c-0.7-0.6-1.6-0.9-2.5-0.9h-0.1c-0.3,0-0.6,0-0.9-0.1l-1.4,0.9l0.6-1.1
			c-1.1-0.4-1.9-1.1-2.5-1.9l-2.6,1.6l1.6-3c-1.4-1.8-3.5-2.8-5.8-2.9c-2.7,0-5.1,1.6-6.6,4.1c-0.9,1.5-2.6,2.4-4.4,2.4h-0.1
			c-3,0-5.4,3.3-5.4,7.5c0,4.1,2.4,7.5,5.4,7.5c0.6,0,1.3-0.2,1.9-0.5c2-1,4.4-1.1,6.5-0.1c0.9,0.4,1.8,0.6,2.8,0.6
			c0.9,0,1.9-0.2,2.7-0.6c2-0.9,4.4-0.9,6.4,0.1c0.6,0.3,1.2,0.4,1.9,0.4c3,0,5.4-3.3,5.4-7.5C269.2,404.2,268.8,402.6,268,401.2z"
			/>
		<path class="st8" d="M184.8,460.7c1.5-0.3,3.2-0.1,4.6,0.5c1.7,0.8,3.8,0.8,5.5,0c2.1-0.9,4.5-0.9,6.5,0.1
			c0.6,0.3,1.2,0.5,1.9,0.5c2.7,0,4.8-2.7,5.3-6.1c-0.5-0.4-1-0.9-1.3-1.4c-1.5-2.5-4-4.1-6.6-4.1s-5,1.5-6.6,4
			c-0.9,1.5-2.6,2.4-4.4,2.4h-0.1C187.4,456.5,185.6,458.2,184.8,460.7z"/>
		<path class="st7" d="M176.7,449.7l4.3,2.7l-2.6-4.7c0.7-0.6,1.6-0.9,2.6-0.9h0.1c0.3,0,0.6,0,0.9-0.1l1.4,0.9l-0.6-1.1
			c1-0.4,1.9-1.1,2.5-1.9l2.6,1.6l-1.6-3c1.4-1.8,3.5-2.8,5.8-2.9c2.7,0,5.1,1.6,6.6,4.1c0.9,1.5,2.6,2.4,4.4,2.4h0.1
			c3,0,5.4,3.3,5.4,7.5c0,4.1-2.4,7.5-5.4,7.5c-0.6,0-1.3-0.2-1.9-0.5c-2-1-4.4-1.1-6.5-0.1c-0.9,0.4-1.8,0.6-2.8,0.6
			c-0.9,0-1.9-0.2-2.7-0.6c-2-0.9-4.4-0.9-6.4,0.1c-0.6,0.3-1.2,0.4-1.9,0.4c-3,0-5.4-3.3-5.4-7.5
			C175.6,452.7,176,451.1,176.7,449.7z"/>
		<path class="st9" d="M428.9,650.5c1.6-3-0.2-6.7-2.4-9.3c-2.2-2.7-4.7-5.4-4.6-8.8c0.1-4.9,5.3-7.8,9.4-10.3
			c3.1-1.9,5.9-4.2,8.5-6.8c1.1-1,1.9-2.2,2.6-3.5c0.9-1.9,0.8-4.1,0.8-6.2c-0.2-7-0.5-13.9-1.1-20.9"/>
		<path class="st5" d="M450.1,584.3c-0.1-2.6-1.5-4.9-3.8-6.2l-1.7,3.4l0.1-4.1c-4-1.2-8.3,1.1-9.5,5.1c-1.2,4,1.1,8.3,5.1,9.5
			c4,1.2,8.3-1.1,9.5-5.1C450,586,450.1,585.1,450.1,584.3z"/>
		<path class="st5" d="M436.5,635.8c-1.9,3.7-6.5,5.2-10.3,3.3c-2.4-1.2-4-3.6-4.1-6.4c-0.1-1.1,0.1-2.1,0.5-3.1
			c1.5-3.9,5.9-5.9,9.9-4.3c2,0.8,3.6,2.4,4.3,4.4l-4.8,3.9l5.3-1.2C437.3,633.6,437,634.8,436.5,635.8z"/>
		<path class="st5" d="M432.7,621c-4.2,0.2-7.8-3-8-7.2c-0.2-3.5,2.2-6.7,5.6-7.7l-0.1,3.2l1.7-3.4l0,0c4.2-0.2,7.8,3,8,7.2
			C440.1,617.3,436.9,620.8,432.7,621L432.7,621z"/>
		<path class="st5" d="M451.2,608.8c-4.2,0.2-7.8-3-8-7.2c-0.2-4.2,3-7.8,7.2-8c1.4-0.1,2.9,0.2,4.1,1l-1.4,3.7l2.7-2.7
			c3.1,2.8,3.3,7.7,0.5,10.8C455.1,607.8,453.2,608.6,451.2,608.8L451.2,608.8z"/>
		<path class="st6" d="M449,586.3c-1.7,0.2-3.5,0.7-5.3,0.9c-1.8,0.1-3.7-0.3-4.8-1.7c-0.5-0.8-1-1.6-1.4-2.5
			c-0.5-0.7-1.1-1.4-1.9-1.8c-1.9,3.8-0.4,8.4,3.3,10.3c3.8,1.9,8.4,0.4,10.3-3.3c0.3-0.6,0.5-1.2,0.7-1.9
			C449.6,586.3,449.4,586.3,449,586.3z"/>
		<path class="st6" d="M451.2,608.8c-4.2,0.2-7.8-3-8-7.2c-0.1-1.2,0.2-2.5,0.7-3.6c0.6,0.4,1.1,0.9,1.5,1.5c0.4,0.9,1,1.7,1.5,2.5
			c1.2,1.4,3.2,1.9,5.1,1.7s3.6-0.6,5.4-0.8c0.2,0,0.5-0.1,0.7-0.1C457.5,606.2,454.6,608.6,451.2,608.8z"/>
		<path class="st6" d="M432.7,621c-4.2,0.2-7.8-3-8-7.2c-0.1-1.2,0.2-2.4,0.7-3.5c0.6,0.4,1.2,0.9,1.6,1.5c0.5,0.9,1.1,1.7,1.7,2.6
			c1.3,1.4,3.5,1.9,5.4,1.9s3.7-0.5,5.6-0.6C438.7,618.7,435.9,620.9,432.7,621z"/>
		<path class="st6" d="M436.5,635.8c-1.9,3.7-6.5,5.2-10.3,3.3c-2.4-1.2-4-3.6-4.1-6.4c-0.1-1.1,0.1-2.1,0.5-3.1
			c0.6,0.4,1.2,0.9,1.7,1.5c0.7,0.9,1.2,1.9,2,2.7c1.5,1.5,4.1,2.2,6.3,2.2C433.9,636.1,435.2,636,436.5,635.8z"/>
		<path class="st9" d="M51.6,606c1.6-3-0.2-6.7-2.4-9.3c-2.2-2.7-4.7-5.4-4.6-8.8c0.1-4.9,5.3-7.8,9.4-10.3c3.1-1.9,5.9-4.2,8.5-6.8
			c1.1-1,1.9-2.2,2.6-3.5c0.9-1.9,0.9-4.1,0.8-6.2c-0.2-7-0.6-13.9-1.1-20.9"/>
		<path class="st5" d="M72.7,539.7c-0.1-2.6-1.5-4.9-3.8-6.2l-1.7,3.4l0.1-4.1c-4-1.2-8.3,1.1-9.5,5.1c-1.2,4,1.1,8.3,5.1,9.5
			s8.3-1.1,9.5-5.1C72.6,541.5,72.7,540.6,72.7,539.7L72.7,539.7z"/>
		<path class="st5" d="M59.1,591.3c-1.9,3.7-6.5,5.2-10.3,3.3c-2.4-1.2-4-3.6-4.1-6.4c-0.1-1.1,0.1-2.1,0.5-3.1
			c1.5-3.9,5.9-5.9,9.9-4.3c2,0.8,3.6,2.4,4.3,4.4l-4.8,3.9l5.3-1.2C59.9,589,59.7,590.2,59.1,591.3z"/>
		<path class="st5" d="M55.4,576.5c-4.2,0.2-7.8-3-8-7.2c-0.2-3.5,2.2-6.7,5.6-7.7l-0.1,3.2l1.7-3.4l0,0c4.2-0.2,7.8,3,8,7.2
			C62.8,572.8,59.6,576.3,55.4,576.5L55.4,576.5z"/>
		<path class="st5" d="M73.9,564.2c-4.2,0.2-7.8-3-8-7.2c-0.2-4.2,3-7.8,7.2-8c1.4-0.1,2.9,0.2,4.1,1l-1.4,3.7l2.7-2.7
			c3.1,2.8,3.3,7.7,0.5,10.8C77.8,563.2,75.8,564.1,73.9,564.2L73.9,564.2z"/>
		<path class="st6" d="M71.7,541.8c-1.7,0.2-3.5,0.7-5.3,0.9s-3.7-0.3-4.8-1.7c-0.5-0.8-1-1.6-1.4-2.5c-0.5-0.7-1.1-1.4-1.9-1.8
			c-1.9,3.8-0.4,8.4,3.3,10.3c3.8,1.9,8.4,0.4,10.3-3.3c0.3-0.6,0.5-1.2,0.7-1.9C72.3,541.7,72,541.7,71.7,541.8z"/>
		<path class="st6" d="M73.9,564.2c-4.2,0.2-7.8-3-8-7.2c-0.1-1.2,0.2-2.5,0.7-3.6c0.6,0.4,1.1,0.9,1.5,1.5c0.4,0.9,1,1.7,1.5,2.5
			c1.2,1.4,3.2,1.9,5.1,1.8c1.9-0.1,3.6-0.6,5.4-0.8c0.2,0,0.5-0.1,0.7-0.1C80.2,561.6,77.3,564,73.9,564.2z"/>
		<path class="st6" d="M55.4,576.5c-4.2,0.2-7.8-3-8-7.2c-0.1-1.2,0.2-2.4,0.7-3.5c0.6,0.4,1.2,0.9,1.6,1.5c0.5,0.9,1.1,1.7,1.7,2.6
			c1.3,1.4,3.5,1.9,5.4,1.9c1.9-0.1,3.7-0.5,5.6-0.6C61.4,574.2,58.6,576.4,55.4,576.5z"/>
		<path class="st6" d="M59.1,591.3c-1.9,3.7-6.5,5.2-10.3,3.3c-2.4-1.2-4-3.6-4.1-6.4c-0.1-1.1,0.1-2.1,0.5-3.1
			c0.6,0.4,1.2,0.9,1.7,1.5c0.7,0.9,1.2,1.9,2,2.7c1.5,1.5,4.1,2.2,6.3,2.2C56.5,591.5,57.8,591.5,59.1,591.3z"/>
		<path class="st9" d="M302.9,555c-1.6-3,0.2-6.7,2.4-9.3c2.2-2.7,4.6-5.4,4.6-8.8c-0.1-4.9-5.3-7.8-9.4-10.3
			c-3.1-1.9-5.9-4.2-8.4-6.8c-1.1-1-1.9-2.2-2.6-3.5c-0.9-1.9-0.8-4.1-0.8-6.2c0.2-7,0.6-13.9,1.1-20.9"/>
		<path class="st5" d="M281.8,488.8c0.1-2.6,1.5-4.9,3.8-6.2l1.7,3.4l-0.1-4.1c0.8-0.2,1.7-0.3,2.5-0.3c4.2,0.2,7.4,3.8,7.2,8
			c-0.2,4.2-3.8,7.4-8,7.2C284.8,496.6,281.6,493,281.8,488.8L281.8,488.8z"/>
		<path class="st5" d="M295.3,540.4c1.9,3.7,6.5,5.2,10.3,3.3c3.7-1.9,5.2-6.5,3.3-10.3c-1.9-3.7-6.5-5.2-10.3-3.3
			c-1.7,0.9-3,2.4-3.6,4.1l4.8,3.9l-5.3-1.2C294.5,538.1,294.8,539.2,295.3,540.4z"/>
		<path class="st5" d="M299.1,525.6c4.2,0.2,7.8-3,8-7.2c0.2-3.5-2.1-6.7-5.6-7.7l0.1,3.2l-1.7-3.4l0,0c-4.2-0.2-7.8,3-8,7.2
			c-0.1,0.9,0.1,1.7,0.3,2.6C293.1,523.2,295.9,525.4,299.1,525.6z"/>
		<path class="st5" d="M280.6,513.3c4.2,0.2,7.8-3,8-7.2s-3-7.8-7.2-8c-1.4-0.1-2.9,0.2-4.1,1l1.4,3.7l-2.8-2.7
			c-1.5,1.4-2.4,3.2-2.5,5.3c-0.1,0.7,0,1.4,0.2,2.1C274.4,510.7,277.3,513.1,280.6,513.3z"/>
		<path class="st6" d="M282.8,490.8c1.7,0.2,3.5,0.7,5.3,0.9s3.7-0.3,4.8-1.7c0.5-0.8,1-1.6,1.4-2.5c0.5-0.7,1.1-1.4,1.9-1.8
			c1.9,3.8,0.4,8.4-3.3,10.3s-8.4,0.4-10.3-3.3c-0.3-0.6-0.6-1.2-0.7-1.9C282.2,490.7,282.5,490.8,282.8,490.8z"/>
		<path class="st6" d="M280.6,513.3c4.2,0.2,7.8-3,8-7.2c0.1-1.2-0.2-2.5-0.7-3.6c-0.6,0.4-1.1,0.9-1.5,1.5c-0.4,0.9-1,1.7-1.5,2.5
			c-1.2,1.4-3.2,1.9-5.1,1.8s-3.6-0.6-5.4-0.8c-0.2,0-0.5-0.1-0.7-0.1C274.4,510.7,277.2,513.1,280.6,513.3z"/>
		<path class="st6" d="M299.1,525.6c4.2,0.2,7.8-3,8-7.2c0.1-1.2-0.2-2.4-0.7-3.5c-0.6,0.4-1.2,0.9-1.6,1.5
			c-0.5,0.9-1.1,1.7-1.7,2.5c-1.3,1.4-3.5,1.9-5.4,1.9c-1.9-0.1-3.7-0.5-5.6-0.6C293.2,523.3,295.9,525.4,299.1,525.6z"/>
		<path class="st6" d="M295.3,540.4c1.9,3.7,6.6,5.2,10.3,3.3c3.4-1.8,4.9-5.8,3.6-9.5c-0.6,0.4-1.2,0.9-1.7,1.5
			c-0.7,0.9-1.2,1.9-2,2.7c-1.5,1.5-4.1,2.2-6.3,2.2C297.9,540.5,296.6,540.5,295.3,540.4z"/>
		<circle class="st2" cx="500.3" cy="494.6" r="61.9"/>
		<path class="st5" d="M526.9,510.5c-2.2-2.2-7.3-5.4-9.9-6.6c-3-1.4-4-1.4-6.1,0.1c-1.7,1.2-2.9,2.4-4.9,2c-2-0.4-6-3.4-9.8-7.2
			c-3.8-3.8-6.8-7.8-7.2-9.8c-0.4-2,0.7-3.2,2-4.9c1.5-2.1,1.5-3.2,0.1-6.1c-1.2-2.5-4.5-7.7-6.6-9.9c-2.2-2.2-2.7-1.7-3.8-1.2
			c-1.2,0.5-2.4,1.1-3.5,1.9c-2.2,1.4-3.3,2.7-4.2,4.5s-1.8,5.1,3.1,13.9c3.6,6.7,8.2,12.9,13.7,18.2l0,0l0,0
			c5.4,5.4,11.6,10.1,18.3,13.7c8.8,4.9,12.1,4,13.9,3.1c1.8-0.9,3-2,4.5-4.2c0.7-1.1,1.4-2.3,1.9-3.5
			C528.6,513.1,529.1,512.6,526.9,510.5z"/>
		<path class="st1" d="M500.3,432.7c-34.1,0-61.9,27.7-61.9,61.9c0,34.1,27.7,61.9,61.9,61.9c34.1,0,61.9-27.7,61.9-61.9v-0.1
			C562.2,460.4,534.5,432.8,500.3,432.7z M500.3,548.1c-29.6,0-53.6-24-53.6-53.6s24-53.6,53.6-53.6c29.6,0,53.6,24,53.6,53.6l0,0
			C554,524.1,530,548.2,500.3,548.1L500.3,548.1L500.3,548.1z"/>
		<circle class="st2" cx="358.3" cy="588.5" r="61.9"/>
		<path class="st5" d="M393.4,569.8l-18.5,18.9c-0.1,0.1-0.1,0.3,0,0.5l0,0l13,13.8c0.9,0.9,0.9,2.3,0,3.2c-0.4,0.4-1,0.6-1.5,0.7
			c-0.6,0-1.2-0.2-1.6-0.7l-12.9-13.8c-0.1-0.1-0.4-0.1-0.5,0l-3.2,3.2c-2.6,2.7-6.2,4.1-9.9,4.1c-3.8,0-7.4-1.5-10.1-4.3l-3-3.1
			c-0.1-0.1-0.4-0.1-0.5,0L331.8,606c-0.9,0.9-2.3,0.9-3.2,0l0,0c-0.9-0.9-0.9-2.3,0-3.2l0,0l12.9-13.8c0.1-0.1,0.1-0.4,0-0.5
			l-18.5-18.9c-0.1-0.1-0.4-0.1-0.5,0c-0.1,0.1-0.1,0.1-0.1,0.2v37.7c0,3,2.5,5.5,5.5,5.5h60.6c3,0,5.5-2.5,5.5-5.5v-37.7
			c0-0.2-0.1-0.4-0.3-0.4C393.6,569.7,393.5,569.7,393.4,569.8z"/>
		<path class="st5" d="M358.3,595.2c2.5,0,4.9-1,6.7-2.8l27-27.5c-0.9-0.8-2.2-1.2-3.4-1.2H328c-1.2,0-2.5,0.4-3.4,1.2l27,27.5
			C353.3,594.2,355.8,595.2,358.3,595.2z"/>
		<path class="st1" d="M357.5,526.7c-34.1,0-61.9,27.7-61.9,61.9c0,34.1,27.7,61.9,61.8,61.9s61.9-27.7,61.9-61.9v-0.1
			C419.3,554.3,391.6,526.7,357.5,526.7z M357.5,642.1c-29.6,0-53.6-24-53.6-53.6c0-29.6,24-53.6,53.6-53.6
			c29.6,0,53.6,24,53.6,53.6l0,0C411.1,618.1,387.1,642.1,357.5,642.1z"/>
		<circle class="st2" cx="211.6" cy="542.3" r="61.9"/>
		<path class="st5" d="M211.6,512.7l-24.7,56.9l2.3,2.3l22.3-9.8l22.3,9.8l2.3-2.3L211.6,512.7z"/>
		<path class="st1" d="M211.6,480.5c-34.1,0-61.9,27.7-61.9,61.8c0,34.1,27.7,61.9,61.8,61.9c34.1,0,61.9-27.7,61.9-61.8
			c0,0,0,0,0-0.1C273.4,508.2,245.7,480.5,211.6,480.5z M211.6,595.9c-29.6,0-53.6-24-53.6-53.6c0-29.6,24-53.6,53.6-53.6
			s53.6,24,53.6,53.6l0,0C265.1,571.9,241.1,595.9,211.6,595.9L211.6,595.9z"/>
		
			<linearGradient id="SVGID_1_" gradientUnits="userSpaceOnUse" x1="544.4327" y1="528.1906" x2="544.4327" y2="634.5606" gradientTransform="matrix(1 0 0 -1 -52 1209.37)">
			<stop  offset="0" style="stop-color:#808080;stop-opacity:0.25"/>
			<stop  offset="0.54" style="stop-color:#808080;stop-opacity:0.12"/>
			<stop  offset="1" style="stop-color:#808080;stop-opacity:0.1"/>
		</linearGradient>
		<path class="st10" d="M506,601.7c-0.6-1.4-1.1-2.7-1.7-4.1c-0.5-1.3-1.2-2.5-2.1-3.6c-0.4-0.4-0.7-0.7-1.2-0.9
			c-0.5-0.2-1.1-0.3-1.6-0.3c-0.9-0.1-1.7-0.1-2.5-0.1c-0.3-0.1-0.7-0.2-1.1-0.4c3.8-1,6.4-4.3,6.6-8.2c0-0.1,0-0.2,0-0.4
			c0-4.9-3.9-8.8-8.8-8.8l0,0c-1.6,0-3.2,0.4-4.6,1.3c-3.8-0.9-7.6,1-9.3,4.5c-2,2-3.2,4.8-3.2,7.6c0,0.1,0,0.2,0,0.4
			c0.2,4.8,3.3,8.7,7.2,9c-0.4,0.2-0.8,0.4-1.1,0.7c-1.2,1.2-1.4,3-1.5,4.6l-0.1,1.2l-2.1,0.7c-0.2,0.1-0.3,0.3-0.2,0.5
			c0,0.1,0.1,0.1,0.1,0.2l2,1.4c0,0.1,0,0.2,0,0.4c0,0.1,0,0.2,0.1,0.4c-0.3,0.3-0.6,0.7-0.7,1.1c-0.2,0.6-0.2,1.4-0.2,2l0.1,1.7
			c0,1.3,0.2,2.6,0.5,3.8c0.2,0.7,1.4,2.6,2.2,2.7c-0.7,3.4-0.9,10.6-0.9,10.6c-0.1,0.1,0.2,0.2,0.6,0.2c0.4,3.4,1.9,13,4.5,17.2
			c0.4,1.4,0.7,2.8,1,4.2c0,0,0.7,9.1,1.7,11.8c0.8,2.3,1.5,8,1.7,9.7c-0.4,0.1-0.6,0.4-0.7,0.7c-0.5,1.5-3.6,3.7-3.6,3.7
			c-1,0.5-1.9,1.1-2.7,1.7c-1,0.9-0.9,1.7,3.5,1.2c8.5-1,10-3.7,10-3.7s-0.1-0.4-0.3-1.1c-0.2-0.9-0.6-1.8-1.1-2.7
			c-0.1-0.1-0.2,0.1-0.4,0.4c-0.6-4-0.9-8-0.6-11.9c0,0,0.2-4.2-1-7.1c-0.2-1.5-0.2-3.2,0-4.6c0.5-2-2-11.6-2-11.6l-1.4-7.1
			c0.2,0.2,0.3,0.5,0.4,0.8l0.1,0.1l0.1,0.2c0,0.1,0.1,0.1,0.1,0.2c0.9,4,3.6,14.9,3.6,16.5c0,2,2.4,6.9,2.4,6.9s1,8.1,2.7,11.3
			c1.3,2.4,1.4,6,1.2,7.5l0,0c0,0-0.3,2-0.8,2.5c-0.4,0.5-0.7,1.1-0.9,1.6l-0.1,0.1c0,0-0.7,1.5-0.2,1.7c1.9,0.7,3.9,1,5.9,0.7
			c0,0,1-1.2,1-1.7c0-0.3-0.1-0.6-0.1-0.9c-0.2-1.2-0.5-3-0.5-3c0.2-0.8-0.6-3-0.6-3l-0.2-6.9c0.4-4.6-0.1-9.3-1.7-13.8
			c0,0-1.2-4.5-1-5.6s-0.5-14.3-0.5-14.3l-0.1-0.2c-0.1-0.9-0.1-1.9,0.1-2.8c0.2-3-0.7-9.1-1-9.3c-0.2-0.7-0.3-1.4-0.4-2
			c0.1-0.5,0.2-2,0.4-3.9c2.4-0.1,4.8-0.3,7.2-0.6c0.2,0,0.4-0.1,0.6-0.2c0.1-0.1,0.1-0.3,0.1-0.5
			C508.8,608.6,507.4,605.1,506,601.7z M501.1,609.5c0.2-1.7,0.5-3.5,0.8-4.8l0.1,0.1c0.5,1.3,0.9,2.6,1.2,3.9
			C502.5,609,501.8,609.3,501.1,609.5z"/>
		<path class="st11" d="M482.2,629.3c0,0,1.5,13.1,4.6,18.2c0.4,1.4,0.7,2.7,1,4.1c0,0,0.7,9,1.7,11.7c1,2.7,1.7,10,1.7,10
			s3.4,3.9,4.6,0.7c-0.7-4.1-1-8.4-0.7-12.6c0,0,0.2-4.1-1-7.1c-0.2-1.5-0.2-3.1,0-4.6c0.5-2-2-11.4-2-11.4l-1.9-9.5L482.2,629.3z"
			/>
		<path class="st12" d="M497.5,676.5c0,0-1.5,2.7-10,3.6c-4.4,0.5-4.5-0.3-3.5-1.2c0.9-0.7,1.7-1.2,2.7-1.7c0,0,3.2-2.2,3.6-3.6
			c0.5-1.5,2.2-0.2,2.2-0.2c2.4,3.6,2.9-1,3.4-0.5c0.5,0.8,0.9,1.7,1.1,2.6C497.4,676.1,497.5,676.5,497.5,676.5z"/>
		<path class="st6" d="M497.5,676.5c0,0-1.5,2.7-10,3.6c-4.4,0.5-4.5-0.3-3.5-1.2c0.7,0.4,2.1,0.6,4.9-0.5c4-1.7,7-2.6,8.2-3
			C497.4,676.1,497.5,676.5,497.5,676.5z"/>
		<path class="st6" d="M495.1,661.4c0,0,0.2-4.1-1-7.1c-0.2-1.5-0.2-3.1,0-4.6c0.5-2-2-11.4-2-11.4l-1.9-9.5l-1.7,0.1l1.9,9.4
			c0,0,2.4,9.5,2,11.4c-0.2,1.5-0.2,3.1,0,4.6c1.2,2.9,1,7.1,1,7.1c-0.3,4.2-0.1,8.5,0.7,12.6c-0.1,0.4-0.4,0.7-0.7,1
			c0.9,0.4,1.9,0.4,2.4-1C495,669.9,494.8,665.7,495.1,661.4z"/>
		<path class="st4" d="M493.5,576c-1.6,0-3.2,0.4-4.6,1.3c-3.8-0.9-7.6,1-9.3,4.5c-2,2-3.2,4.7-3.2,7.5c0,5.2,3.5,9.3,7.8,9.3
			c3.1,0,5.8-2.2,7.1-5.4c0.7,0.2,1.4,0.3,2.2,0.3c4.8,0,8.7-3.9,8.7-8.8C502.2,579.9,498.3,576,493.5,576L493.5,576z"/>
		<path class="st11" d="M500.6,630.5l0.7,1.9c0,0,0.7,12.9,0.5,14.1c-0.2,1.2,1,5.6,1,5.6c1.5,4.3,2.2,9,1.7,13.6l0.2,6.8
			c0,0,1,2.7,0.5,3.2s-4.1-0.4-4.1-0.4s0.5-5.1-1.2-8.3c-1.7-3.2-2.7-11.2-2.7-11.2s-2.4-4.9-2.4-6.8c0-1.9-3.9-17.8-3.9-17.8
			L500.6,630.5z"/>
		<path class="st4" d="M481.7,630.3c0,0,0.2-8.8,1.2-11.4c0.5-1.2,0.9-2.5,1.1-3.9c0,0,14.7,2.7,16,1.7c0,0,0.2,3.4,0.5,3.6
			c0.2,0.2,1.2,6.3,1,9.2c-0.2,2.9,0,2.9,0,2.9s-10,1.5-10.2,0s-1-1.4-1-1.4S481.2,630.8,481.7,630.3z"/>
		<g class="st13">
			<path d="M489.7,630.3c0,0-6.1-0.2-8-0.5c0,0.3,0,0.5,0,0.5c-0.5,0.5,8.5,0.7,8.5,0.7c0.1,0,0.2,0.1,0.3,0.1
				C490.2,630.3,489.7,630.3,489.7,630.3z"/>
			<path d="M500.4,620.3c-0.2-0.2-0.5-3.6-0.5-3.6c-0.1,0.1-0.2,0.1-0.4,0.1c0.1,1.1,0.2,2.6,0.4,2.8c0.2,0.2,1.2,6.3,1,9.2
				s0,2.9,0,2.9s-7.9,1.2-9.8,0.4c0,0.1,0.1,0.2,0.1,0.4c0.2,1.5,10.2,0,10.2,0s-0.2,0,0-2.9C501.6,626.6,500.6,620.6,500.4,620.3z"
				/>
			<pattern  id="SVGID_2_" xlink:href="#SVGID_4_" patternTransform="matrix(1 0 0 -1 -22.58 -29205.6211)"  class="st13">
			</pattern>
			<path class="st14" d="M489.7,630.3c0,0-6.1-0.2-8-0.5c0,0.3,0,0.5,0,0.5c-0.5,0.5,8.5,0.7,8.5,0.7c0.1,0,0.2,0.1,0.3,0.1
				C490.2,630.3,489.7,630.3,489.7,630.3z"/>
			<pattern  id="SVGID_3_" xlink:href="#SVGID_5_" patternTransform="matrix(1 0 0 -1 -22.58 -29205.6211)"  class="st13">
			</pattern>
			<path class="st15" d="M500.4,620.3c-0.2-0.2-0.5-3.6-0.5-3.6c-0.1,0.1-0.2,0.1-0.4,0.1c0.1,1.1,0.2,2.6,0.4,2.8
				c0.2,0.2,1.2,6.3,1,9.2s0,2.9,0,2.9s-7.9,1.2-9.8,0.4c0,0.1,0.1,0.2,0.1,0.4c0.2,1.5,10.2,0,10.2,0s-0.2,0,0-2.9
				C501.6,626.6,500.6,620.6,500.4,620.3z"/>
		</g>
		<path class="st11" d="M492.4,591.3c0.2,0.5,0.6,0.9,0.9,1.2c0.2,0.2,0.6,0.3,0.9,0.4c-0.6,0.3-1.1,0.6-1.7,0.9
			c-0.9,0.6-1.7,1.2-2.5,1.9c-0.8,0.7-1.8,1.1-2.8,1.1c0.7-1,0.9-2.3,0.4-3.5c-0.2-0.4-0.4-0.8-0.4-1.2c0-0.7,0.6-1.2,1.2-1.6
			c0.5-0.3,0.9-0.6,1.4-0.9c0.4-0.2,0.9-0.7,1.4-0.7s0.6,0.4,0.6,0.9C492,590.2,492.2,590.8,492.4,591.3z"/>
		<path class="st6" d="M492.4,591.3c0.2,0.5,0.6,0.9,0.9,1.2c0.2,0.2,0.6,0.3,0.9,0.4c-0.6,0.3-1.1,0.6-1.7,0.9
			c-0.9,0.6-1.7,1.2-2.5,1.9c-0.8,0.7-1.8,1.1-2.8,1.1c0.7-1,0.9-2.3,0.4-3.5c-0.2-0.4-0.4-0.8-0.4-1.2c0-0.7,0.6-1.2,1.2-1.6
			c0.5-0.3,0.9-0.6,1.4-0.9c0.4-0.2,0.9-0.7,1.4-0.7s0.6,0.4,0.6,0.9C492,590.2,492.2,590.8,492.4,591.3z"/>
		<circle class="st11" cx="498.1" cy="600" r="5.6"/>
		<path class="st12" d="M506,679.4c0,0.5-1,1.7-1,1.7c-2,0.2-4,0-5.8-0.7c-0.5-0.2,0.2-1.7,0.2-1.7l0.1-0.1c0.2-0.6,0.6-1.1,0.9-1.6
			c0.5-0.5,0.8-2.5,0.8-2.5c1.5-2.5,4.2,1.1,4.2,1.1s0.3,1.9,0.5,3C506,679,506,679.3,506,679.4z"/>
		<path class="st6" d="M506,679.4c0,0.5-1,1.7-1,1.7c-2,0.2-4,0-5.8-0.7c-0.5-0.2,0.2-1.7,0.2-1.7l0.1-0.1c1.7,0.7,3.5,1.1,5.3,1.1
			l1.1-1.1C506,679,506,679.3,506,679.4z"/>
		<circle class="st11" cx="486.9" cy="588.4" r="5.4"/>
		<path class="st11" d="M482.5,617.9c-1.2,1.1-1.4,3-1.5,4.6l-0.2,2.4c-0.1,0.7-0.1,1.3-0.1,2c0,0.4,0.1,0.8,0.1,1.2s0.1,1,0.1,1.4
			v3.6c-0.1,0.7,0.1,1.5,0.4,2.2c0.4,0.7,1.2,1,1.9,0.7c0.4-0.3,0.7-0.7,0.7-1.2c0.6-1.4,1-3,1.2-4.5c0.1-0.6,0.1-1.1,0.1-1.6
			c0.1-0.6,0.1-1.1,0.2-1.7c0.4-2.3,0.5-4.6,0.7-6.9c0.1-0.7,0.7-3.3-0.2-3.6c-0.4-0.1-1.4,0.3-1.7,0.4
			C483.6,617.1,483,617.4,482.5,617.9z"/>
		<path class="st6" d="M482.5,617.9c-1.2,1.1-1.4,3-1.5,4.6l-0.2,2.4c-0.1,0.7-0.1,1.3-0.1,2c0,0.4,0.1,0.8,0.1,1.2s0.1,1,0.1,1.4
			v3.6c-0.1,0.7,0.1,1.5,0.4,2.2c0.4,0.7,1.2,1,1.9,0.7c0.4-0.3,0.7-0.7,0.7-1.2c0.6-1.4,1-3,1.2-4.5c0.1-0.6,0.1-1.1,0.1-1.6
			c0.1-0.6,0.1-1.1,0.2-1.7c0.4-2.3,0.5-4.6,0.7-6.9c0.1-0.7,0.7-3.3-0.2-3.6c-0.4-0.1-1.4,0.3-1.7,0.4
			C483.6,617.1,483,617.4,482.5,617.9z"/>
		<path class="st12" d="M493.8,591.9c0,0-4.1,3.2-6.6,3.9c0,0-1.4,1.7-1.7,2s-0.7,4.8-1.2,5.8s-1.7,3.2,0,5.3c0,0,0.5,2.2,0.2,2.9
			c-0.2,0.7-1.1,3.4-0.3,3.5c0.8,0.1,3.2,1.8,5.4,1.4c2.2-0.4,10.3,1.9,10.3,1.9s1.4-12.5,2.4-14.7l-2.2-0.7c0,0-6.1-3.6-2.4-9.2
			C497.7,593.9,494.3,593.1,493.8,591.9z"/>
		<path class="st4" d="M478.7,625.1l5,3.6c0.1,0.1,0.3,0.1,0.4,0l1.4-1.1c0.2-0.1,0.2-0.4,0.1-0.6c0,0,0,0-0.1-0.1l-3.9-3.4
			c-0.1-0.1-0.2-0.1-0.4-0.1l-2.5,0.9c-0.2,0.1-0.3,0.3-0.2,0.5C478.7,625,478.7,625,478.7,625.1z"/>
		<path class="st11" d="M480.5,635.8c-0.4-1.2-0.6-2.5-0.5-3.8l-0.1-1.7c-0.1-0.7,0-1.4,0.2-2c0.4-0.9,1.2-1.5,2.1-1.9
			c0.9-0.2,1.9-0.3,2.8-0.2c0.1,0,0.2,0.1,0.4,0.1c0.1,0.1,0.2,0.2,0.2,0.3c0.3,0.6,0.3,1.2,0.1,1.8c-0.1,0.2-0.3,0.4-0.6,0.6
			c-0.7,0.5-1.5,0.8-2.1,1.4c-0.1,0.1-0.2,0.2-0.3,0.4c0,0.1,0,0.2,0,0.4c0.1,0.4,0.2,0.7,0.3,1c0.1,0.2,0.1,0.3,0.3,0.4
			c0.1,0.1,0.2,0.1,0.4,0.2c0.2,0.2,0.8,0.5,0.8,0.9c-0.1,1.2-0.8,2.6-1.1,3.8C482.8,639.9,480.8,636.9,480.5,635.8z"/>
		<g class="st13">
			<path d="M488.3,616.7h-0.1c0.5,0.1,1.1,0.1,1.6,0h0.2C489.3,616.6,488.8,616.6,488.3,616.7z"/>
			<path d="M501,603.5c-0.9,2-2.2,12.6-2.4,14.7c0.9,0.2,1.4,0.4,1.4,0.4s1.4-12.5,2.3-14.7L501,603.5z"/>
		</g>
		<path class="st11" d="M498.3,600.2c0.1,0.5,0.4,0.9,0.8,1.2c0.5,0.4,1,0.9,1.4,1.4c0.6,0.9,1.1,1.8,1.4,2.8
			c0.5,1.2,0.9,2.5,1.2,3.8c-3.1,1.4-6.6,1.4-9.9,2.3c-1.4,0.4-2.7,1.1-3.7,2.2s-1.5,2.5-1.4,4c0,0.1,0,0.2,0.1,0.2
			c0.1,0.1,0.2,0.2,0.4,0.2c0.8,0,1.6-0.2,2.3-0.8c0.6-0.5,1.2-1.1,1.7-1.7c0.3-0.4,0.7-0.7,1.2-0.9c1.8-0.6,3.7-0.5,5.6-0.6
			c2.8-0.1,5.6-0.2,8.3-0.7c0.4,0.1,0.7-0.2,0.7-0.6c0-0.1,0-0.1,0-0.2c0.2-3.6-1.1-7.2-2.5-10.6c-0.6-1.4-1.1-2.7-1.7-4
			c-0.5-1.3-1.2-2.5-2.1-3.6c-0.4-0.4-0.7-0.7-1.2-0.9c-0.6-0.2-1.1-0.3-1.7-0.3c-0.9-0.1-1.8-0.1-2.7-0.1c-0.1,0.4-0.2,0.9-0.2,1.4
			c0.1,1.7,0.8,3.2,1.5,4.8C497.9,600,498.2,600,498.3,600.2z"/>
		<path class="st16" d="M488.4,621.9c-0.4,0.7-0.6,1.5-0.6,2.4c0,0.3,0.1,0.7,0.2,1c0.4,0.9,1.1,1.5,2,1.9"/>
		<path class="st4" d="M491.5,583c-0.3,0-0.6,0.1-0.9,0.1c-0.8-1.2-2.7-2.1-4.9-2.1c-3,0-5.4,1.5-5.4,3.4s2.4,3.4,5.4,3.4
			c1.1,0,2.2-0.2,3.2-0.7c0.7,1.4,2.4,2,3.9,1.4c1.4-0.7,2-2.4,1.4-3.9C493.7,583.7,492.7,583,491.5,583L491.5,583z"/>
		<path class="st6" d="M491.8,588.1c-1.1,0-2.2-0.6-2.6-1.7c-1,0.4-2.1,0.7-3.2,0.7c-3,0-5.3-1.5-5.3-3.4c0-0.1,0-0.2,0-0.3
			c-0.2,0.3-0.2,0.7-0.2,1.1c0,1.9,2.4,3.4,5.4,3.4c1.1,0,2.2-0.2,3.2-0.7c0.7,1.4,2.4,2,3.9,1.4c0.8-0.4,1.4-1.2,1.6-2.1
			C493.9,587.5,492.9,588.1,491.8,588.1z"/>
		<path class="st6" d="M479.6,583.2c1.7-3.5,5.5-5.3,9.3-4.5c4.1-2.5,9.5-1.2,12.1,2.8c0.7,1.2,1.2,2.5,1.3,3.9c0-0.2,0-0.5,0-0.7
			c0-4.8-4-8.7-8.8-8.7c-1.6,0-3.2,0.4-4.6,1.3c-3.8-0.9-7.6,1-9.3,4.5c-2,2-3.2,4.7-3.2,7.5c0,0.2,0,0.5,0,0.7
			C476.6,587.4,477.7,584.9,479.6,583.2z"/>
		<path class="st9" d="M535.4,603.6c1.6-3-0.2-6.7-2.4-9.3c-2.2-2.7-4.6-5.4-4.6-8.8c0.1-4.9,5.3-7.7,9.4-10.3
			c3.1-1.9,5.9-4.2,8.4-6.8c1.1-1,1.9-2.2,2.6-3.5c0.9-1.9,0.8-4.1,0.8-6.2c-0.2-7-0.5-13.9-1.1-20.9"/>
		<path class="st5" d="M556.5,537.3c-0.1-2.6-1.5-4.9-3.8-6.2l-1.7,3.4l0.1-4.1c-0.8-0.2-1.7-0.4-2.5-0.3c-4.2,0.2-7.4,3.8-7.2,8
			c0.2,4.2,3.8,7.4,8,7.2C553.5,545.1,556.7,541.5,556.5,537.3L556.5,537.3L556.5,537.3z"/>
		<path class="st5" d="M543,588.9c-1.9,3.7-6.5,5.2-10.3,3.3c-3.8-1.9-5.2-6.5-3.3-10.3c1.9-3.7,6.5-5.2,10.3-3.3
			c1.7,0.9,3,2.4,3.6,4.1l-4.8,3.9l5.3-1.2C543.8,586.6,543.5,587.8,543,588.9z"/>
		<path class="st5" d="M539.2,574.1c-4.2,0.2-7.8-3-8-7.2c-0.2-3.5,2.1-6.7,5.6-7.7l-0.1,3.2l1.7-3.4l0,0c4.2-0.2,7.8,3,8,7.2
			C546.6,570.3,543.4,573.9,539.2,574.1L539.2,574.1L539.2,574.1z"/>
		<path class="st5" d="M557.7,561.8c-4.2,0.2-7.8-3-8-7.2c-0.2-4.2,3-7.8,7.2-8c1.4-0.1,2.9,0.2,4.1,1l-1.4,3.7l2.8-2.7
			c1.5,1.4,2.4,3.2,2.5,5.3c0.1,0.7,0,1.4-0.2,2.1C563.9,559.3,561.1,561.6,557.7,561.8z"/>
		<path class="st6" d="M555.5,539.4c-1.7,0.2-3.5,0.7-5.3,0.9s-3.7-0.3-4.8-1.7c-0.5-0.8-1-1.6-1.4-2.5c-0.5-0.7-1.1-1.4-1.9-1.8
			c-1.9,3.8-0.4,8.4,3.3,10.3c3.8,1.9,8.4,0.4,10.3-3.3c0.3-0.6,0.6-1.2,0.7-1.9C556.1,539.3,555.8,539.3,555.5,539.4z"/>
		<path class="st6" d="M557.7,561.8c-4.2,0.2-7.8-3-8-7.2c-0.1-1.2,0.2-2.5,0.7-3.6c0.6,0.4,1.1,0.9,1.5,1.5
			c0.4,0.9,0.9,1.7,1.5,2.5c1.2,1.4,3.2,1.9,5.1,1.8c1.9-0.1,3.6-0.6,5.4-0.8c0.2,0,0.5-0.1,0.7-0.1
			C563.9,559.2,561.1,561.6,557.7,561.8z"/>
		<path class="st6" d="M539.2,574.1c-4.2,0.2-7.8-3-8-7.2c-0.1-1.2,0.2-2.4,0.7-3.5c0.6,0.4,1.2,0.9,1.6,1.5
			c0.6,0.8,0.9,1.8,1.7,2.6c1.3,1.4,3.5,1.9,5.4,1.9s3.7-0.5,5.6-0.6C545.1,571.8,542.4,573.9,539.2,574.1z"/>
		<path class="st6" d="M543,588.9c-2,3.7-6.6,5.1-10.3,3.2c-3.3-1.8-4.9-5.8-3.6-9.3c0.6,0.4,1.2,0.9,1.7,1.5c0.7,0.9,1.2,1.9,2,2.7
			c1.5,1.5,4.1,2.2,6.3,2.2C540.4,589.1,541.7,589,543,588.9z"/>
		<path class="st9" d="M633.8,697.6c1.6-3-0.2-6.7-2.4-9.3s-4.7-5.4-4.6-8.8c0.1-4.9,5.3-7.7,9.4-10.3c3.1-1.9,5.9-4.2,8.4-6.8
			c1.1-1,1.9-2.2,2.6-3.5c0.9-1.9,0.8-4.1,0.8-6.2c-0.2-7-0.5-13.9-1.1-20.9"/>
		<path class="st5" d="M654.9,631.4c-0.1-2.6-1.5-4.9-3.8-6.2l-1.7,3.4l0.1-4.1c-0.8-0.2-1.6-0.4-2.5-0.3c-4.2,0.2-7.4,3.8-7.2,8
			c0.2,4.2,3.8,7.4,8,7.2C651.8,639.1,655.1,635.6,654.9,631.4C654.9,631.4,654.9,631.4,654.9,631.4L654.9,631.4z"/>
		<path class="st5" d="M641.3,682.9c-1.9,3.7-6.5,5.2-10.3,3.3c-3.7-1.9-5.2-6.5-3.3-10.3c1.9-3.8,6.5-5.2,10.3-3.3
			c1.7,0.9,3,2.4,3.6,4.1l-4.8,3.9l5.3-1.2C642.1,680.6,641.9,681.8,641.3,682.9z"/>
		<path class="st5" d="M637.5,668.1c-4.2,0.2-7.8-3-8-7.2c-0.2-3.5,2.1-6.7,5.6-7.7l-0.1,3.2l1.7-3.4l0,0c4.2-0.2,7.8,3,8,7.2
			C645,664.3,641.7,667.9,637.5,668.1L637.5,668.1L637.5,668.1z"/>
		<path class="st5" d="M656,655.8c-4.2,0.2-7.8-3-8-7.2c-0.2-4.2,3-7.8,7.2-8c1.4-0.1,2.9,0.2,4.1,1l-1.4,3.7l2.8-2.7
			c1.5,1.4,2.4,3.2,2.5,5.3c0.1,0.7,0,1.4-0.2,2.1C662.3,653.3,659.4,655.7,656,655.8z"/>
		<path class="st6" d="M653.9,633.4c-1.7,0.2-3.5,0.7-5.3,0.9c-1.8,0.1-3.7-0.3-4.8-1.7c-0.5-0.8-1-1.6-1.4-2.5
			c-0.5-0.7-1.1-1.4-1.9-1.8c-1.9,3.8-0.4,8.4,3.3,10.3c3.8,1.9,8.4,0.4,10.3-3.3c0.3-0.6,0.6-1.2,0.7-1.9
			C654.4,633.3,654.1,633.3,653.9,633.4z"/>
		<path class="st6" d="M656,655.8c-4.2,0.2-7.8-3-8-7.2c-0.1-1.2,0.2-2.5,0.7-3.6c0.6,0.4,1.1,0.9,1.5,1.5c0.4,0.9,0.9,1.7,1.5,2.5
			c1.2,1.4,3.2,1.9,5.1,1.8s3.6-0.6,5.4-0.8c0.2,0,0.5-0.1,0.7-0.1C662.3,653.2,659.4,655.7,656,655.8z"/>
		<path class="st6" d="M637.5,668.1c-4.2,0.2-7.8-3-8-7.2c-0.1-1.2,0.2-2.4,0.7-3.5c0.6,0.4,1.2,0.9,1.6,1.5c0.6,0.8,1,1.8,1.7,2.6
			c1.3,1.4,3.5,1.9,5.4,1.9c1.9,0,3.7-0.5,5.6-0.6C643.5,665.8,640.8,668,637.5,668.1z"/>
		<path class="st6" d="M641.3,682.9c-2,3.7-6.6,5.1-10.3,3.2c-3.3-1.8-4.9-5.8-3.6-9.3c0.6,0.4,1.2,0.9,1.7,1.5
			c0.7,0.9,1.2,1.9,2,2.7c1.5,1.5,4.1,2.2,6.3,2.2C638.7,683.1,640,683.1,641.3,682.9z"/>
		
			<linearGradient id="SVGID_6_" gradientUnits="userSpaceOnUse" x1="324.1834" y1="554.0405" x2="324.1834" y2="616.4583" gradientTransform="matrix(1 0 0 -1 -52 1209.37)">
			<stop  offset="0" style="stop-color:#808080;stop-opacity:0.25"/>
			<stop  offset="0.54" style="stop-color:#808080;stop-opacity:0.12"/>
			<stop  offset="1" style="stop-color:#808080;stop-opacity:0.1"/>
		</linearGradient>
		<path class="st17" d="M313.7,610.3c0-1.9-0.9-3.7-2.4-4.9c0-3.5-2.5-6.4-5.9-7c-0.5-2.5-2.4-4.5-4.7-5.3l0,0
			c-0.3-0.1-0.6-0.2-0.9-0.2h-0.1h-0.2h-0.1h-0.1H299h-0.4c-3.4,0.1-6.2,2.6-6.7,5.9c-2.2-0.5-4.1,0.1-4.5,1.5
			c-0.1,0.4-0.1,0.7,0.1,1.1c0.4,1.1,1.5,2.1,3.2,2.6l0.2,0.1l0.3,0.1h0.1l0,0c-0.4,0.7-0.5,1.5-0.5,2.4c0,2,1.1,3.9,2.9,4.8
			l-0.1,0.1c-0.2,0.2-0.4,0.4-0.5,0.7c-0.4,0.7-0.7,1.4-0.9,2.2c-0.2,0.7-0.2,1.4-0.4,2c-0.4,1.2-1.3,2.2-1.4,3.5
			c-0.1,0.6,0.1,1.2-0.4,1.6c-0.1,0.1-0.2,0.2-0.3,0.2c-0.2,0.2-0.5,0.4-0.7,0.7c-0.1,0.2-0.3,0.5-0.5,0.7c-0.4,0.2-0.9,0.2-1.1,0.7
			s0.3,0.9,0.2,1.4c-0.1,0.4-0.5,0.6-0.7,0.8c-0.3,0.4-0.6,0.8-0.7,1.2c-1.2,0.2-2.4-0.1-3.3-0.9c0.2,0.4,0.2,0.8,0.4,1.2
			c-0.6-0.4-1.2-0.7-1.8-0.9c-0.7-0.3-1.4-0.8-1.9-1.4l1.1-0.1l-4.5-6.9l-1.4-0.3l1.2,2.3c-0.2,0.1-0.4,0.2-0.4,0.5
			s-0.1,0.5-0.1,0.8c0.1,0.6,0.2,1.2,0.3,1.9l0.4,1.6c0,0.1,0.1,0.3,0.1,0.4c-0.4,0-0.9,0-1.4,0.1c-0.9-0.3-1.9-0.6-2.8-0.7
			c-0.2-0.1-0.4-0.1-0.6,0c-0.2,0.1-0.4,0.2-0.6,0.5c-0.8,0.9-1.5,1.9-2.1,2.9c-2.5,4.3-5.7,7.9-8.7,11.8c-2.1,0.9-4.2,1.7-6.4,2.5
			l-4.6,1.7c-0.9,0.4-1.9,0.6-2.8,0.6c-0.4,0-1-0.1-1.2,0.3c-0.1,0.2-0.2,0.4-0.3,0.6l-0.5,0.1l0,0c-0.2-0.7-0.6-1.4-1.1-2
			c-0.2,0.1-0.4,0.2-0.5,0.4c-0.1,0.2-0.2,0.4-0.3,0.6c-0.2,0.4-0.7,0.6-1,0.8c-0.3,0.2-0.5,0.8-0.8,1.1c-0.4,0.3-1,0.6-1.5,0.6
			c-0.9,0.2-1.7,0.5-2.4,0.9c-0.3,0.2-0.6,0.3-0.9,0.4c-0.4,0.1-0.7,0.1-1.1,0.1l-2.4-0.2c-0.2,0-0.4,0-0.6,0
			c-0.5,0.2-0.8,0.7-0.7,1.2c0.1,0.6,0.3,1,0.7,1.4c0.4,0.3,0.9,0.6,1.4,0.7c2.1,0.8,4.3,1.4,6.4,1.9v0.5c1.5,0.8,3.2,1.2,4.9,1.2
			c0.1,0,0.2,0,0.4-0.1c0.2-0.1,0.2-0.3,0.3-0.5c0.5-1.5,0.9-3.2,1-4.8l0,0c0.3,0,0.6-0.1,0.9-0.2c0.8-0.2,1.7,0.3,2.5,0.4
			c1.1,0.1,2-0.5,3-0.9l0.4-0.1c-0.3,0.4-0.6,0.7-1,0.9c-0.4,0.3-0.9,0.5-1.3,0.8c-0.4,0.3-0.7,0.6-1.1,0.9
			c-0.2,0.1-0.6,0.2-0.9,0.3c-0.4,0.2-0.8,0.4-1.2,0.6c-0.3,0.2-0.6,0.5-0.8,0.8c-0.2,0.3-0.2,0.7-0.1,1.1c0.2,0.3,0.5,0.5,0.8,0.6
			c0.3,0.1,0.7,0.1,1,0c1.3-0.1,2.6-0.2,3.9-0.3c0.6-0.1,1.1-0.1,1.6-0.2c0.3-0.1,0.6-0.2,0.9-0.2c0.5-0.1,1-0.2,1.5-0.2
			c0.1,0,0.3,0,0.4,0.1c0.3,0.1,0.5,0.4,0.8,0.5c0.2,0,0.4,0,0.6-0.1c0.9-0.2,1.9-0.3,2.9-0.3c0.4,0,0.9-0.1,1.1-0.5
			s-0.2-1.1-0.3-1.5c-0.1-0.3-0.1-0.7-0.1-1.1c-0.1-0.9-0.3-1.7-0.7-2.4c-0.2-0.4-0.4-0.7-0.6-1.1c1.9-0.7,3.6-1.6,5.3-2.7
			c0.9-0.7,2-1.2,3-1.5c1.3-0.1,2.6,0,3.8,0.4c3,0.9,5.9,1.9,8.8,3c1.4,0.6,2.7,1.2,4.1,1.6c0.4,0.6,0.9,1.1,1.5,1.4
			c1,0.6,2,0.9,3.2,0.9c1.5,0.1,3,0.2,4.5,0.2c1.2,0.1,2.3-0.2,3.3-0.6c0.2-0.1,0.5-0.3,0.7-0.5c0.8,0.1,1.6-0.2,2.2-0.8
			c0.8-0.7,1.4-1.6,1.7-2.7c0.4-1.4,0.1-3.1,0.9-4.2c0.2-0.3,0.6-0.6,0.7-0.9c0.2-0.4,0.4-0.9,0.4-1.4c0,0,0-0.1,0.1-0.1
			c0.2-0.4,0.3-0.9,0.4-1.4c0.1-0.4,0.2-0.7,0.4-1.1c0.4-1.1,0.8-2.2,1.2-3.3c0.2-0.7,0.4-1.5,0.6-2.3c0.1-0.6,0.1-1.2,0.2-1.9
			c0.1-1,0.2-1.9,0.6-2.8c0.8-2.2,1.2-4.5,1.3-6.9v-0.1c2.4-0.2,4.1-2.3,4.1-4.7c0-0.7-0.1-1.4-0.4-2
			C313.4,612.5,313.7,611.4,313.7,610.3z M291.5,637.2c0.1,0.2,0.1,0.5,0.2,0.7c-0.4-0.4-0.7-0.7-1.1-1.1c0.1,0.1,0.3,0.1,0.4,0.1
			C291.3,637,291.4,637.1,291.5,637.2L291.5,637.2z M289.8,636c-2.2-1.9-4.6-3.3-6.8-5.1c1.2,0.6,2.4,1.3,3.5,1.9
			c1.4,0.8,2.7,1.5,4.1,2.2C290.4,635.4,290.1,635.7,289.8,636L289.8,636z M290.7,631.4l0.1-0.1c0,0.2,0,0.5,0,0.7l-0.6-0.2
			C290.4,631.7,290.6,631.5,290.7,631.4L290.7,631.4z M271.9,636.4c0.9-1,1.7-2.1,2.3-3.3c0.9,1.5,2.2,2.5,3.4,3.8
			C275.7,636.7,273.8,636.4,271.9,636.4z"/>
		<polygon class="st18" points="275,618.4 276.3,618.6 280.9,625.4 278.9,625.7 		"/>
		<path class="st19" d="M242.2,645.9c0.4,1.2,0.8,2.4,1.4,3.5c1.5-0.3,3-0.7,4.5-1.3c-0.3-0.4-0.6-0.9-0.9-1.2
			c-0.4-0.4-0.8-0.7-1.2-1c-0.5-0.1-1.1-0.1-1.5,0C243.7,645.9,242.9,645.9,242.2,645.9z"/>
		<path class="st18" d="M245.9,647.7c-0.7-0.3-1.3-1-1.5-1.7c-0.2-0.7-0.6-1.5-1.2-2.1c-0.2,0.1-0.4,0.2-0.5,0.4
			c-0.1,0.2-0.2,0.4-0.3,0.6c-0.2,0.4-0.7,0.5-1,0.8s-0.5,0.7-0.8,1.1c-0.4,0.3-1,0.6-1.5,0.6c-0.9,0.2-1.7,0.5-2.5,0.9
			c-0.3,0.2-0.6,0.3-0.9,0.4c-0.4,0.1-0.7,0.1-1.1,0l-2.4-0.2c-0.2-0.1-0.4-0.1-0.6,0c-0.5,0.2-0.8,0.7-0.8,1.2
			c0.1,0.6,0.3,1,0.8,1.3c0.4,0.3,0.9,0.6,1.4,0.7c2.1,0.8,4.3,1.4,6.6,1.9v0.5c1.5,0.7,3.3,1.2,4.9,1.2c0.1,0,0.2,0,0.4-0.1
			c0.2-0.1,0.2-0.3,0.3-0.5c0.6-1.7,0.9-3.5,1-5.3c0.1-0.4,0-0.9-0.1-1.4C245.8,647.6,246.3,647.8,245.9,647.7"/>
		<path class="st18" d="M292.6,638.5c-7.2,0.4-14.4-1.7-21.6-1.9c-0.9-0.1-1.8,0-2.7,0.2c-0.9,0.2-1.8,0.6-2.7,1.1
			c-3.9,1.8-7.9,3.3-11.9,4.8l-4.6,1.7c-0.9,0.4-1.9,0.6-2.8,0.6c-0.4,0-1-0.1-1.2,0.2c-0.7,1.1-0.4,2.7,0.1,4
			c0.2,0.4,0.4,0.9,0.9,0.9c0.3,0,0.6-0.1,0.9-0.2c0.9-0.2,1.7,0.3,2.5,0.4c1.1,0.1,2-0.5,3.1-0.9c1.7-0.6,3.5-0.6,5.3-0.9
			c3-0.5,5.7-1.9,8.2-3.4c0.9-0.7,2-1.2,3.1-1.4c1.3-0.1,2.6,0,3.8,0.4c3,0.9,5.9,1.9,8.8,3c1.5,0.7,3,1.2,4.6,1.7
			c3.4,0.9,7.1,0.7,10.3-0.6c1.2-0.4,2.4-1.2,2.5-2.5c0.1-0.7-0.5-1.4-0.9-2c-0.2-0.4-0.5-0.8-0.7-1.2
			C296.3,640.8,294.8,638.4,292.6,638.5z"/>
		<path class="st6" d="M292.6,638.5c-7.2,0.4-14.4-1.7-21.6-1.9c-0.9-0.1-1.8,0-2.7,0.2c-0.9,0.2-1.8,0.6-2.7,1.1
			c-3.9,1.8-7.9,3.3-11.9,4.8l-4.6,1.7c-0.9,0.4-1.9,0.6-2.8,0.6c-0.4,0-1-0.1-1.2,0.2c-0.7,1.1-0.4,2.7,0.1,4
			c0.2,0.4,0.4,0.9,0.9,0.9c0.3,0,0.6-0.1,0.9-0.2c0.9-0.2,1.7,0.3,2.5,0.4c1.1,0.1,2-0.5,3.1-0.9c1.7-0.6,3.5-0.6,5.3-0.9
			c3-0.5,5.7-1.9,8.2-3.4c0.9-0.7,2-1.2,3.1-1.4c1.3-0.1,2.6,0,3.8,0.4c3,0.9,5.9,1.9,8.8,3c1.5,0.7,3,1.2,4.6,1.7
			c3.4,0.9,7.1,0.7,10.3-0.6c1.2-0.4,2.4-1.2,2.5-2.5c0.1-0.7-0.5-1.4-0.9-2c-0.2-0.4-0.5-0.8-0.7-1.2
			C296.3,640.8,294.8,638.4,292.6,638.5z"/>
		<path class="st19" d="M256.1,646.3c1.1,0.4,2.3,0.7,3.4,1.1c0.6-1.1,1.9-1.8,2.1-3c0-0.1,0-0.1,0-0.2c0-0.1-0.1-0.1-0.1-0.1
			c-0.8-0.4-1.7-0.7-2.7-0.8c-0.7-0.1-1.1,0.7-1.4,1.3C257.3,644.8,256.4,646.4,256.1,646.3z"/>
		<path class="st18" d="M257.7,645.5c-0.7-0.1-1.3-0.5-1.7-1.1c-0.2-0.3-0.3-0.7-0.6-0.6c-0.3,0.1-0.4,0.4-0.5,0.7
			c-0.2,1.1-0.6,2.2-0.9,3.2c-0.4,1.1-1.1,2-2,2.7c-0.4,0.3-0.9,0.5-1.3,0.8c-0.4,0.3-0.7,0.6-1.1,0.8c-0.2,0.1-0.6,0.2-0.9,0.3
			c-0.4,0.2-0.8,0.4-1.2,0.6c-0.3,0.2-0.6,0.4-0.8,0.8c-0.2,0.3-0.2,0.7-0.1,1.1c0.2,0.3,0.5,0.5,0.8,0.6c0.3,0.1,0.7,0.1,1,0
			c1.3-0.1,2.7-0.2,4-0.3c0.6-0.1,1.1-0.1,1.7-0.2l0.9-0.2c0.5-0.1,1-0.2,1.5-0.2c0.1,0,0.3,0,0.4,0.1c0.3,0.1,0.5,0.4,0.9,0.5
			c0.2,0,0.4,0,0.6-0.1c1-0.2,1.9-0.3,2.9-0.3c0.4,0,0.9-0.1,1.1-0.5c0.2-0.5-0.2-1.1-0.3-1.5c-0.1-0.3-0.1-0.7-0.1-1
			c-0.1-0.9-0.3-1.7-0.7-2.4c-0.3-0.6-0.8-1.3-0.6-2c0.1-0.2,0.2-0.4,0.2-0.7C260.7,645.3,258.3,645.6,257.7,645.5z"/>
		<path class="st19" d="M281.8,627c-1.3-0.6-2.3-1.6-2.9-2.8c-0.1-0.2-0.2-0.6-0.3-0.8c-0.4-0.9-1-1.7-1.7-2.4
			c-0.2-0.2-0.4-0.2-0.6-0.2c-0.2,0.1-0.4,0.2-0.5,0.5s-0.1,0.5-0.1,0.8c0.1,0.6,0.2,1.2,0.3,1.8l0.4,1.6c0.1,0.2,0.1,0.5,0.2,0.7
			s0.4,0.5,0.6,0.7c0.3,0.3,0.6,0.6,1,0.9c0.2,0.2,0.4,0.3,0.6,0.4c0.4,0.2,0.7,0.2,1.1,0.3c1.5,0.2,2.9,0.7,4.1,1.6
			c0,0,0-1.1,0-1.2c0-0.3-0.1-0.6-0.3-0.9C283.1,627.4,282.5,627.1,281.8,627z"/>
		<path class="st6" d="M281.8,627c-1.3-0.6-2.3-1.6-2.9-2.8c-0.1-0.2-0.2-0.6-0.3-0.8c-0.4-0.9-1-1.7-1.7-2.4
			c-0.2-0.2-0.4-0.2-0.6-0.2c-0.2,0.1-0.4,0.2-0.5,0.5s-0.1,0.5-0.1,0.8c0.1,0.6,0.2,1.2,0.3,1.8l0.4,1.6c0.1,0.2,0.1,0.5,0.2,0.7
			s0.4,0.5,0.6,0.7c0.3,0.3,0.6,0.6,1,0.9c0.2,0.2,0.4,0.3,0.6,0.4c0.4,0.2,0.7,0.2,1.1,0.3c1.5,0.2,2.9,0.7,4.1,1.6
			c0,0,0-1.1,0-1.2c0-0.3-0.1-0.6-0.3-0.9C283.1,627.4,282.5,627.1,281.8,627z"/>
		<ellipse class="st18" cx="296.5" cy="613" rx="1.7" ry="1.8"/>
		<path class="st18" d="M295.4,611.9c-0.5-0.1-1-0.1-1.4,0.2c-0.2,0.2-0.4,0.4-0.5,0.6c-0.4,0.7-0.7,1.4-0.9,2.2
			c-0.2,0.6-0.2,1.3-0.4,2c-0.4,1.2-1.3,2.2-1.4,3.4c-0.1,0.6,0.1,1.2-0.4,1.5c-0.1,0.1-0.2,0.2-0.3,0.2c-0.3,0.2-0.5,0.4-0.7,0.7
			c-0.1,0.2-0.3,0.5-0.5,0.7c-0.4,0.2-0.9,0.2-1.1,0.6c-0.2,0.4,0.3,0.9,0.2,1.4c-0.1,0.5-0.5,0.6-0.8,0.8c-0.3,0.4-0.6,0.7-0.7,1.2
			c-1.2,0.2-2.4-0.1-3.3-0.8c0.4,1.2,0.6,2.5,0.6,3.8c0.1,0.4-0.1,0.9-0.3,1.2c1.4,0.1,2.8,0.4,4.1,0.7c0.6,0.2,1.2,0.2,1.8,0
			c0.3-0.2,0.6-0.4,0.8-0.7c0.7-0.7,1.5-1.5,1.7-2.6c0.1-0.6,0.1-1.2,0-1.8c0.1-0.7,0.2-1.5,0.4-2.2c0.4-1.5,0.7-3,0.8-4.5
			c0.1-0.9,0.9-1.7,1.3-2.5c0.8-1.5,1.6-3.2,1.7-4.9C296.2,612.7,296,612,295.4,611.9z"/>
		<path class="st6" d="M295.4,611.9c-0.5-0.1-1-0.1-1.4,0.2c-0.2,0.2-0.4,0.4-0.5,0.6c-0.4,0.7-0.7,1.4-0.9,2.2
			c-0.2,0.6-0.2,1.3-0.4,2c-0.4,1.2-1.3,2.2-1.4,3.4c-0.1,0.6,0.1,1.2-0.4,1.5c-0.1,0.1-0.2,0.2-0.3,0.2c-0.3,0.2-0.5,0.4-0.7,0.7
			c-0.1,0.2-0.3,0.5-0.5,0.7c-0.4,0.2-0.9,0.2-1.1,0.6c-0.2,0.4,0.3,0.9,0.2,1.4c-0.1,0.5-0.5,0.6-0.8,0.8c-0.3,0.4-0.6,0.7-0.7,1.2
			c-1.2,0.2-2.4-0.1-3.3-0.8c0.4,1.2,0.6,2.5,0.6,3.8c0.1,0.4-0.1,0.9-0.3,1.2c1.4,0.1,2.8,0.4,4.1,0.7c0.6,0.2,1.2,0.2,1.8,0
			c0.3-0.2,0.6-0.4,0.8-0.7c0.7-0.7,1.5-1.5,1.7-2.6c0.1-0.6,0.1-1.2,0-1.8c0.1-0.7,0.2-1.5,0.4-2.2c0.4-1.5,0.7-3,0.8-4.5
			c0.1-0.9,0.9-1.7,1.3-2.5c0.8-1.5,1.6-3.2,1.7-4.9C296.2,612.7,296,612,295.4,611.9z"/>
		<path class="st18" d="M293.8,640.1c-1.5-0.7-2.6-2-3.8-3.2c-2.4-2.2-5.1-3.7-7.6-5.8c-1.6-1.4-3.1-2.9-4.8-4.1
			c-1.5-1-3.3-1.6-5.2-1.8c-0.2-0.1-0.4-0.1-0.6,0c-0.2,0.1-0.4,0.2-0.6,0.5c-0.8,0.9-1.5,1.9-2.1,2.9c-3.1,5.3-7.5,9.7-11.1,14.5
			c-0.1,0.1-0.1,0.2-0.2,0.4c0,0.2,0.1,0.4,0.1,0.6l0.7,1.4c0.4,0.8,1.1,1.7,2,1.6c0.4-0.1,0.7-0.4,1.1-0.7l3.3-3.2l3.5-3.3
			c2-2,4.1-4,5.4-6.4c1.1,1.8,2.9,3,4.1,4.6c0.5,0.6,0.9,1.3,1.3,2c0.7,1.1,1.5,2,2.2,3.1l4,5.1c0.5,0.7,1.1,1.4,1.9,1.9
			c1,0.6,2.1,0.8,3.2,0.9c1.5,0.1,3,0.2,4.5,0.2c1.2,0.1,2.3-0.2,3.4-0.6c1.1-0.5,1.8-1.5,1.9-2.7c-0.1-0.6-0.2-1.2-0.6-1.7
			C298.3,643.5,296.4,641.3,293.8,640.1z"/>
		<ellipse class="st20" cx="297.6" cy="614.2" rx="1.4" ry="1.4"/>
		<path class="st19" d="M297.3,613.2c0.3,0.6,0.4,1.3,0.1,2c-0.2,0.6-0.5,1.2-0.9,1.8c-0.3,0.6-0.7,1.1-1.1,1.6
			c2.1,0.1,4.1-0.7,5.9-1.7c1.5-0.8,3-1.8,3.8-3.3c-0.5,0.1-1,0-1.4-0.2c-0.4-0.2-0.7-0.6-1.1-1l-1.1-1.2c-0.2-0.2-0.4-0.6-0.6-0.9
			c-0.2-0.4-0.3-0.9-0.3-1.4c-0.4,0.4-0.9,0.8-1.4,1.2c-0.7,0.5-1.5,0.9-2.4,1.3c-0.2,0.2-0.9,0.4-0.7,0.8
			C296.6,612.5,297.1,612.8,297.3,613.2z"/>
		<path class="st6" d="M297.3,613.2c0.3,0.6,0.4,1.3,0.1,2c-0.2,0.6-0.5,1.2-0.9,1.8c-0.3,0.6-0.7,1.1-1.1,1.6
			c2.1,0.1,4.1-0.7,5.9-1.7c1.5-0.8,3-1.8,3.8-3.3c-0.5,0.1-1,0-1.4-0.2c-0.4-0.2-0.7-0.6-1.1-1l-1.1-1.2c-0.2-0.2-0.4-0.6-0.6-0.9
			c-0.2-0.4-0.3-0.9-0.3-1.4c-0.4,0.4-0.9,0.8-1.4,1.2c-0.7,0.5-1.5,0.9-2.4,1.3c-0.2,0.2-0.9,0.4-0.7,0.8
			C296.6,612.5,297.1,612.8,297.3,613.2z"/>
		<path class="st20" d="M297.3,613.3c-0.4,0.6-0.4,1.4,0,2c0.1,0.1,0.3,0.6,0.4,0.6s0.2-0.1,0.2-0.1c0.5-0.5,0.9-1.1,1.3-1.5
			c0.4-0.6,1-0.9,1.7-1.1c0.8-0.1,1.7,0.2,2.3,0.7c0.3,0.1,0.6,0.4,0.8,0.6c0.1,0.2,0.2,0.6,0.2,0.9c0.2,1.9,0.3,3.8,0.2,5.6
			c0.1,1.4-0.1,2.7-0.2,4c-0.1,0.7-0.3,1.4-0.4,2c-0.1,0.6-0.1,1.2-0.1,1.9v2.6c0,0.5,0,0.9,0.1,1.4c0.1,0.6,0.4,1.1,0.6,1.7
			c0.2,0.6,0.3,1.3,0.4,1.9l0.4,2.7c0.1,0.9,0.2,1.7-0.3,2.5c-0.2,0.3-0.6,0.6-0.7,0.9c-0.9,1.1-0.6,2.8-0.9,4.1
			c-0.3,1-0.9,1.9-1.7,2.6c-0.6,0.6-1.4,0.9-2.2,0.8c-1.1-0.2-1.7-1.4-2-2.4c-0.3-1.1-0.4-2.2-1.1-3.2c-0.6-0.7-1.3-1.2-2-1.7
			c-0.8-0.5-1.4-1.2-1.6-2.1c-0.1-0.4,0-0.8-0.1-1.2c-0.1-1-0.8-1.9-1.7-2.3c-0.6-0.2-1.2-0.3-1.5-0.8c0.8-0.5,1.4-1.3,1.6-2.2
			c0.2-0.9,0.4-1.9,0.4-2.8l0.2-3.1c0.1-1.4,0.1-2.8,0.7-4c0.2-0.6,0.6-1.1,0.9-1.6c0.4-0.8,0.7-1.5,0.9-2.4
			c0.4-1.3,0.9-2.5,1.3-3.8c0.1-0.6,0.4-1.2,0.7-1.8C296.2,614.2,296.7,613.5,297.3,613.3z"/>
		<path class="st18" d="M290.4,633.6h0.8l0.2-1.2c0-0.2,0.1-0.5,0.2-0.7c0.1-0.2,0.3-0.5,0.5-0.7c0.8-1.1,0.7-2.7,0.9-4
			c0.4-1.9,1-3.6,1.8-5.3l1.6-3.6c0.1-0.3,0.2-0.6,0.4-0.9c0.1-0.4,0.1-0.7,0.1-1.1c0-0.6,0.2-2.5,0.2-3.1c0-0.2-0.4-0.1-0.6-0.2
			c-0.2-0.4-0.5,0.7-0.9,0.9c-0.4,0.2-0.6,0.6-0.7,1.1c-0.4,0.9-0.6,1.9-0.9,2.7c-0.3,0.9-0.8,1.7-1.5,2.4c-0.3,0.3-0.7,0.5-1,0.8
			c-1,1-1.1,2.5-1.1,3.9C290.4,625.4,290.3,633.6,290.4,633.6z"/>
		<path class="st18" d="M302.3,611.9c-0.8,0.4-1.3,1.2-1.5,2c-0.1,0.9-0.4,1.7-0.7,2.5c-1,1.7-3.6,2.2-4.3,4.1
			c-0.2,0.6-0.2,1.3-0.3,2c-0.1,1.4-0.6,2.7-0.7,4c-0.1,1.1-0.1,2.1,0.1,3.2l0.9,10.6c0.2,1.5,0.1,3.2-0.2,4.7
			c0.9,0.1,1.9,0,2.7-0.4c0.9-0.4,1.6-0.9,2.4-1.4c1.4-0.7,2.9-1.3,4.1-2.4c0.2-0.2,0.4-0.4,0.6-0.6c0.2-0.4,0.3-0.9,0.4-1.4
			c0.1-0.4,0.2-0.7,0.4-1.1c0.4-1.1,0.8-2.2,1.2-3.3c0.2-0.7,0.4-1.5,0.6-2.2c0.1-0.6,0.2-1.2,0.2-1.9c0.1-1,0.2-1.9,0.6-2.8
			c0.8-2.2,1.2-4.5,1.3-6.7c0-0.3,0-0.7-0.1-1c-0.1-0.4-0.3-0.8-0.6-1.1c-0.4-0.7-0.6-1.5-0.9-2.2c-0.9-1.5-2.2-2.9-3.6-3.8
			C303.9,612.1,303.1,611.6,302.3,611.9z"/>
		<path class="st19" d="M283.6,629.2c-0.6-0.3-1.2-0.7-1.7-1.3c-0.2-0.2-0.4-0.6-0.6-0.8c-0.6-0.6-1.3-1.1-2.2-1.2
			c-0.8-0.2-1.7-0.2-2.5-0.2c-0.6-0.1-1.1,0-1.7,0.2s-0.9,0.6-1.1,1.2c-0.1,0.7,0.2,1.4,0.9,1.7c0.5,0.4,1.1,0.7,1.7,0.8
			c0.5,0.1,1,0.1,1.5,0.2c3,0.3,5.6,1.9,8.2,3.4c2.3,1.3,4.6,2.5,7,3.6c0.1-0.7,0.1-1.4,0.1-2.2c0-0.6-0.1-1.4-0.6-1.7
			c-0.7-0.3-1.5-0.5-2.2-0.7c-1.5-0.5-3-1.1-4.5-1.8C285.1,630.2,284.3,629.7,283.6,629.2z"/>
		<ellipse class="st19" cx="296.5" cy="607.3" rx="5.3" ry="5.3"/>
		<path class="st18" d="M303.7,617.9c-0.4,0.6-0.7,1.2-1.1,1.9c-0.6,1.4-1.7,2.5-2.2,3.9c-0.5,1.4-0.5,3.2-1.5,4.4
			c-0.2,0.2-0.4,0.4-0.5,0.7c0,0.2,0,0.3-0.1,0.5c-0.2,0.4-0.9,0.4-1,0.9c-0.1,0.1,0,0.2-0.1,0.4c-0.1,0.3-0.5,0.3-0.7,0.5
			c-0.5,0.4-0.4,1.2-0.8,1.7c-0.3,0.4-0.8,0.6-1.3,0.5c-0.5-0.1-0.9-0.2-1.4-0.5c-0.1-0.1-0.3-0.1-0.5-0.2c-0.2,0-0.4,0.1-0.6,0.2
			c-0.9,0.7-1.5,1.8-1.4,3c0.1,1.2,0.4,2.3,0.8,3.3c0.1,0.2,0.1,0.4,0.2,0.5c0.4,0.3,0.9,0.3,1.3,0.1c0.4-0.2,0.8-0.4,1.3-0.6
			c0.8-0.1,1.6,0.4,2.5,0.4c0.6-0.1,1.2-0.3,1.7-0.7c0.8-0.5,1.6-1.1,2.2-1.9c0.4-0.5,0.6-1,0.9-1.5c0.4-0.6,0.9-1.2,1.3-1.8l3-3.7
			c0.3-0.4,0.6-0.7,0.8-1.1c0.2-0.6,0.5-1.1,0.6-1.7c0.3-1,0.6-2,0.6-3c0-0.9-0.1-1.7-0.2-2.5c-0.1-0.8-0.3-1.7-0.6-2.4
			C306.6,617.6,305,616.4,303.7,617.9z"/>
		<path class="st21" d="M314.3,611c0-1.9-0.9-3.7-2.4-4.8c-0.1-3.5-2.6-6.4-6-6.9c-0.7-3.7-4.3-6.1-8-5.4c-2.8,0.6-5,2.8-5.4,5.8
			c-2.2-0.5-4.2,0.1-4.6,1.5c-0.4,1.4,1.2,3.1,3.5,3.7c0.7,0.2,1.5,0.3,2.2,0.2c1.1,1.6,2.8,2.7,4.7,3c0.6,2.6,2.5,4.6,5.1,5.3
			c0.4,0.9,0.9,1.6,1.6,2.2c0,0.2,0,0.3,0,0.5c0,2.5,2,4.5,4.5,4.5c2.5,0,4.5-2,4.5-4.5l0,0c0-0.7-0.1-1.4-0.4-2
			C314.1,613.1,314.4,612,314.3,611z"/>
		<path class="st6" d="M289.3,601.4c0.4-1.4,2.4-2,4.6-1.5c0.6-3.3,3.4-5.8,6.8-5.9h0.4c-0.6-0.2-1.3-0.3-1.9-0.3
			c-3.4,0.1-6.2,2.5-6.8,5.9c-2.2-0.5-4.2,0.1-4.6,1.5c-0.4,1.4,1.2,3.1,3.5,3.7c0.4,0.1,0.9,0.2,1.3,0.2
			C290.4,604.4,289,602.8,289.3,601.4z"/>
		<path class="st6" d="M306.5,616.3c0-0.2,0-0.3,0-0.5c-0.7-0.6-1.2-1.4-1.6-2.2c-2.6-0.6-4.6-2.7-5.1-5.3c-1.9-0.2-3.6-1.4-4.7-2.9
			c-0.4,0.1-0.9,0-1.3-0.1c1.1,1.5,2.7,2.5,4.6,2.7c0.6,2.6,2.5,4.6,5.1,5.3c0.4,0.9,0.9,1.6,1.6,2.2c0,0.2,0,0.3,0,0.5
			c-0.1,2.5,1.9,4.6,4.5,4.6C307.6,620,306.5,618.2,306.5,616.3z"/>
		
			<ellipse transform="matrix(0.7963 -0.6049 0.6049 0.7963 -307.2386 304.3168)" class="st19" cx="298.2" cy="608.3" rx="0.8" ry="1.1"/>
	</g>
</g>
</svg>
