<svg xmlns="http://www.w3.org/2000/svg" xmlns:xlink="http://www.w3.org/1999/xlink" viewBox="0 0 1135 1084"><defs><style>.cls-1,.cls-10,.cls-16{fill:none;}.cls-2{fill:#697afe;}.cls-3{fill:#353e80;}.cls-4,.cls-8{opacity:0.6;}.cls-5{fill:#3f3d56;}.cls-6,.cls-8,.cls-9{fill:#ffe385;}.cls-14,.cls-16,.cls-7,.cls-9{opacity:0.1;}.cls-16,.cls-7,.cls-8,.cls-9{isolation:isolate;}.cls-10{stroke:#3f3d56;stroke-width:4px;}.cls-10,.cls-16{stroke-miterlimit:10;}.cls-11{fill:url(#Gradiente_sem_nome_2);}.cls-12{fill:#be6f72;}.cls-13{fill:#ff6f61;}.cls-15{fill:url(#SVGID_4_);}.cls-16{stroke:#000;}.cls-17{fill:url(#Gradiente_sem_nome_2-2);}.cls-18{fill:#2f2e41;}.cls-19{fill:#fbbebe;}.cls-20{fill:#e8e8f0;}.cls-21{fill:#f86d70;}</style><linearGradient id="Gradiente_sem_nome_2" x1="726.41" y1="436.07" x2="726.41" y2="581.23" gradientTransform="matrix(1, 0, 0, -1, -52, 1209.37)" gradientUnits="userSpaceOnUse"><stop offset="0" stop-color="gray" stop-opacity="0.25"/><stop offset="0.54" stop-color="gray" stop-opacity="0.12"/><stop offset="1" stop-color="gray" stop-opacity="0.1"/></linearGradient><pattern id="SVGID_4_" data-name="SVGID 4 " width="36.9" height="49.5" patternTransform="matrix(1, 0, 0, -1, -22.58, -15852.62)" patternUnits="userSpaceOnUse" viewBox="0 0 36.9 49.5"><rect class="cls-1" width="36.9" height="49.5"/><rect class="cls-1" width="36.9" height="49.5"/><rect class="cls-1" width="36.9" height="49.5"/><rect class="cls-1" width="36.9" height="49.5"/><path d="M4.3,36.3c4.5,0,4.5,7,0,7S-.2,36.3,4.3,36.3Z"/><path d="M4.5,32.3c4.5,0,4.5,7,0,7S0,32.3,4.5,32.3Z"/><path d="M4.5,28.6c4.5,0,4.5,7,0,7S0,28.6,4.5,28.6Z"/><path d="M3.4,24.8c4.5,0,4.5,7,0,7S-1.1,24.8,3.4,24.8Z"/><path d="M1.1,21.2l.2-.4a3.57,3.57,0,0,1,4.8-1.3,3.66,3.66,0,0,1,1.3,4.8l-.2.4A3.57,3.57,0,0,1,2.4,26,3.57,3.57,0,0,1,1.1,21.2Z"/><path d="M1.5,19.4l.2-.6a3.75,3.75,0,0,1,1.6-2.1A3.2,3.2,0,0,1,6,16.4a3.43,3.43,0,0,1,2.4,4.3l-.2.6a3.75,3.75,0,0,1-1.6,2.1,3.64,3.64,0,0,1-2.7.4A3.66,3.66,0,0,1,1.5,19.4Z"/><path d="M1.6,15.6v-.4a3.54,3.54,0,0,1,3.5-3.5,3.54,3.54,0,0,1,3.5,3.5v.4a3.54,3.54,0,0,1-3.5,3.5A3.54,3.54,0,0,1,1.6,15.6Z"/><path d="M4.9,7.2c4.5,0,4.5,7,0,7S.4,7.2,4.9,7.2Z"/><path d="M1.8,7.5V7.3A3.54,3.54,0,0,1,5.3,3.8,3.54,3.54,0,0,1,8.8,7.3v.2A3.54,3.54,0,0,1,5.3,11,3.54,3.54,0,0,1,1.8,7.5Z"/><path d="M6,.2c4.5,0,4.5,7,0,7S1.5.2,6,.2Z"/><path d="M10,35.4c4.5,0,4.5,7,0,7S5.5,35.4,10,35.4Z"/><path d="M6.6,28.6c4.5,0,4.5,7,0,7S2.1,28.6,6.6,28.6Z"/><path d="M8.5,22.5c4.5,0,4.5,7,0,7S4,22.5,8.5,22.5Z"/><path d="M8.5,20.2c4.5,0,4.5,7,0,7S4,20.2,8.5,20.2Z"/><path d="M14.9,15.7c4.5,0,4.5,7,0,7S10.4,15.7,14.9,15.7Z"/><path d="M9.8,11c4.5,0,4.5,7,0,7S5.3,11,9.8,11Z"/><path d="M10.6,4.4c4.5,0,4.5,7,0,7S6.1,4.4,10.6,4.4Z"/><path d="M10.6,0c4.5,0,4.5,7,0,7S6.1,0,10.6,0Z"/><path d="M12.8,31.4a2,2,0,0,1,0,4C10.2,35.4,10.3,31.4,12.8,31.4Z"/><path d="M13,29.1a2,2,0,0,1,0,4A2,2,0,0,1,13,29.1Z"/><path d="M13.1,28.5v-.2a2,2,0,0,1,4,0v.2a2,2,0,0,1-4,0Z"/><path d="M15.1,23.6a2,2,0,0,1,0,4A2,2,0,0,1,15.1,23.6Z"/><path d="M16.6,38.4a1,1,0,1,1-1,1A1,1,0,0,1,16.6,38.4Z"/><path d="M21.7,33a1,1,0,1,1-1,1A1,1,0,0,1,21.7,33Z"/><path d="M16.9,40.6V41a1,1,0,1,1-2,0v-.4a.94.94,0,0,1,1-1A1,1,0,0,1,16.9,40.6Z"/><path d="M16.5,44.7v.2a1,1,0,0,1-2,0v-.2a.94.94,0,0,1,1-1A1.08,1.08,0,0,1,16.5,44.7Z"/><path d="M15.5,47.5a1,1,0,1,1-1,1A.94.94,0,0,1,15.5,47.5Z"/><path d="M10.6,47.5a1,1,0,1,1,0,2,1,1,0,0,1,0-2Z"/><path d="M10.4,44.8a1,1,0,0,1,0,2,1,1,0,1,1,0-2Z"/><path d="M7.4,43.3a1,1,0,0,1,0,2,1,1,0,1,1,0-2Z"/><path d="M11.9,42.4h.4a1,1,0,1,1,0,2h-.4a1,1,0,1,1,0-2Z"/><path d="M13.3,38.5l.6-1.3a1.11,1.11,0,0,1,1.4-.4h0a1.11,1.11,0,0,1,.4,1.4h0L15,39.5a1.11,1.11,0,0,1-1.4.4h0A1.08,1.08,0,0,1,13.3,38.5Z"/><path d="M18.4,30.2V30a1,1,0,0,1,2,0v.2a.94.94,0,0,1-1,1A1,1,0,0,1,18.4,30.2Z"/><path d="M20.7,24.6l.2-.4c.6-1.1,2.3-.1,1.7,1l-.2.4C21.8,26.7,20.1,25.7,20.7,24.6Z"/><path d="M22.1,20.1a2.56,2.56,0,0,1-.8-1.9,1,1,0,0,1,2,0c0,.2.1.3.3.4a1,1,0,0,1,0,1.4h0A1,1,0,0,1,22.1,20.1Z"/><path d="M20.3,16.1l-.5-1.7a1,1,0,1,1,1.9-.5l.5,1.7C22.6,16.8,20.7,17.3,20.3,16.1Z"/><path d="M19.4,12.5h-.2a1,1,0,0,1,0-2h.2a1,1,0,0,1,0,2Z"/><path d="M17.6,8l-.2-.4c-.6-1.2,1.1-2.2,1.7-1l.2.4C19.9,8.2,18.2,9.2,17.6,8Z"/><path d="M15.8,1.6V1a1,1,0,0,1,2,0v.6a1,1,0,1,1-2,0Z"/><path d="M14.3.1a.94.94,0,0,1,1,1,1,1,0,0,1-2,0A1,1,0,0,1,14.3.1Z"/><path d="M14.3,8.2a.94.94,0,0,1,1,1,1,1,0,0,1-2,0A1,1,0,0,1,14.3,8.2Z"/><path d="M17.1,13a1.9,1.9,0,0,1,1,1.6,1,1,0,1,1-2,0c0,.1.2.2,0,.1C15,14.2,16,12.5,17.1,13Z"/><path d="M17.4,18.2a1,1,0,1,1-1,1A.94.94,0,0,1,17.4,18.2Z"/><path d="M18.1,21a1,1,0,1,1-1,1A1,1,0,0,1,18.1,21Z"/><path d="M19,24.6l.2.4c.6,1.1-1.1,2.2-1.7,1l-.2-.4C16.7,24.4,18.4,23.4,19,24.6Z"/><path d="M17.9,33.5a1,1,0,1,1-1,1A1,1,0,0,1,17.9,33.5Z"/><path d="M24.6,33.5l.6-.9a1.08,1.08,0,0,1,1.4-.2,1,1,0,0,1,.3,1.2l-.6,1a1,1,0,0,1-1.4.3,1.44,1.44,0,0,1-.3-1.4Z"/><path d="M34.9,19.8v-.2a1,1,0,0,1,2,0v.2a.94.94,0,0,1-1,1A1,1,0,0,1,34.9,19.8Z"/><path d="M24,10.3a.94.94,0,0,1,1,1,1,1,0,0,1-2,0A1,1,0,0,1,24,10.3Z"/><path d="M22.9,20.5a1,1,0,1,1-1,1A.94.94,0,0,1,22.9,20.5Z"/><path d="M18.2,27.6l.6.6a1,1,0,0,1-1.4,1.4l-.6-.6A1,1,0,0,1,18.2,27.6Z"/></pattern><linearGradient id="Gradiente_sem_nome_2-2" x1="425.86" y1="471.35" x2="425.86" y2="556.52" xlink:href="#Gradiente_sem_nome_2"/></defs><title>undraw_contact_us</title><g id="Camada_2" data-name="Camada 2"><path class="cls-2" d="M664.19,0s508.59,77.29,396.51,526.94S1125.19,1084,1125.19,1084H50.19V0Z" transform="translate(9.81)"/><path class="cls-3" d="M604.19,0s508.59,77.29,396.51,526.94S1065.19,1084,1065.19,1084H-9.81V0Z" transform="translate(9.81)"/></g><g id="Camada_1" data-name="Camada 1"><g id="ae37f038-3a9e-4b82-ad68-fc94ba16af2a"><g class="cls-4"><ellipse class="cls-5" cx="441.49" cy="623.25" rx="9.62" ry="12.58"/><path class="cls-5" d="M439.29,569.48a15.43,15.43,0,0,0,2-7.69c0-6.92-4.3-12.57-9.62-12.57s-9.62,5.57-9.62,12.57a15.43,15.43,0,0,0,2,7.69,15.58,15.58,0,0,0,0,15.36,15.58,15.58,0,0,0,0,15.36,15.39,15.39,0,0,0-2,7.68c0,6.93,4.3,12.58,9.62,12.58s9.62-5.65,9.62-12.58a15.39,15.39,0,0,0-2-7.68,15.58,15.58,0,0,0,0-15.36,15.58,15.58,0,0,0,0-15.36Z" transform="translate(9.81)"/><ellipse class="cls-5" cx="441.49" cy="546.43" rx="9.62" ry="12.58"/><ellipse class="cls-5" cx="441.49" cy="531.07" rx="9.62" ry="12.58"/><path class="cls-6" d="M395.73,425.8a40.88,40.88,0,0,1-3.55-5.23l25.24-4.14-27.26.17a46,46,0,0,1-.85-36.47l36.64,19-33.77-24.81a46,46,0,1,1,76,51.57,48.74,48.74,0,0,1,5.23,8.36l-32.75,17.05,34.94-11.73a46,46,0,0,1-7.42,43.22,46,46,0,1,1-72.35.08,46.25,46.25,0,0,1-.08-57.06Z" transform="translate(9.81)"/><path class="cls-7" d="M478,454.25a45.84,45.84,0,0,1-9.88,28.45,46,46,0,1,1-72.34.08C389.57,474.93,478,449.1,478,454.25Z" transform="translate(9.81)"/></g><g class="cls-4"><ellipse class="cls-5" cx="553.68" cy="596.4" rx="7.18" ry="9.37"/><path class="cls-5" d="M549.53,556.14a11.42,11.42,0,0,0,1.52-5.74c0-5.15-3.21-9.37-7.17-9.37s-7.18,4.22-7.18,9.37a11.52,11.52,0,0,0,1.52,5.74,11.58,11.58,0,0,0,0,11.48,11.58,11.58,0,0,0,0,11.48,11.46,11.46,0,0,0-1.52,5.74c0,5.15,3.21,9.37,7.18,9.37s7.17-4.22,7.17-9.37a11.36,11.36,0,0,0-1.52-5.74,11.58,11.58,0,0,0,0-11.48A11.58,11.58,0,0,0,549.53,556.14Z" transform="translate(9.81)"/><ellipse class="cls-5" cx="553.68" cy="538.92" rx="7.18" ry="9.37"/><ellipse class="cls-5" cx="553.68" cy="527.44" rx="7.18" ry="9.37"/><path class="cls-6" d="M517,448.85a33.37,33.37,0,0,1-2.7-4l18.82-3.13-20.43.17a34.4,34.4,0,0,1-.67-27.26l27.35,14.18-25.24-18.57a34.43,34.43,0,0,1,59.68,34.35,41.67,41.67,0,0,1-2.79,4.14,37.09,37.09,0,0,1,4,6.25l-24.48,12.74L576.55,459A34.59,34.59,0,0,1,571,491.31a34.38,34.38,0,1,1-54,0,34.59,34.59,0,0,1,0-42.46Z" transform="translate(9.81)"/><path class="cls-7" d="M578.4,470.12a34.73,34.73,0,0,1-7.34,21.27,34.39,34.39,0,1,1-54,0C512.39,485.48,578.4,466.24,578.4,470.12Z" transform="translate(9.81)"/></g><g class="cls-4"><ellipse class="cls-5" cx="913.55" cy="589.48" rx="9.62" ry="12.58"/><path class="cls-5" d="M896.14,535.71a15.36,15.36,0,0,1-2-7.68c0-6.92,4.3-12.58,9.62-12.58s9.62,5.66,9.62,12.58a15.36,15.36,0,0,1-2,7.68,15.58,15.58,0,0,1,0,15.36,15.59,15.59,0,0,1,0,15.37,15.36,15.36,0,0,1,2,7.68c0,6.92-4.3,12.58-9.62,12.58s-9.62-5.66-9.62-12.58a15.36,15.36,0,0,1,2-7.68,15.59,15.59,0,0,1,0-15.37A15.58,15.58,0,0,1,896.14,535.71Z" transform="translate(9.81)"/><ellipse class="cls-5" cx="913.55" cy="512.66" rx="9.62" ry="12.58"/><ellipse class="cls-5" cx="913.55" cy="497.3" rx="9.62" ry="12.58"/><path class="cls-6" d="M939.7,392a41.21,41.21,0,0,0,3.55-5.23L918,382.66l27.26.17a46.06,46.06,0,0,0,.85-36.47l-36.64,19,33.77-24.82a46,46,0,1,0-76,51.58,47.39,47.39,0,0,0-5.23,8.36l32.75,17-34.95-11.74A46,46,0,0,0,867.27,449a46,46,0,1,0,72.35.09A46.27,46.27,0,0,0,939.7,392Z" transform="translate(9.81)"/><path class="cls-7" d="M857.48,420.48a45.82,45.82,0,0,0,9.88,28.45,46,46,0,1,0,72.34.08C945.86,441.16,857.48,415.33,857.48,420.48Z" transform="translate(9.81)"/></g><g class="cls-4"><ellipse class="cls-5" cx="820.77" cy="591.34" rx="7.18" ry="9.37"/><path class="cls-5" d="M805.31,551.07a11.46,11.46,0,0,1-1.52-5.74c0-5.15,3.21-9.37,7.18-9.37s7.17,4.22,7.17,9.37a11.36,11.36,0,0,1-1.52,5.74,11.58,11.58,0,0,1,0,11.48,11.58,11.58,0,0,1,0,11.48,11.42,11.42,0,0,1,1.52,5.74c0,5.15-3.2,9.37-7.17,9.37s-7.18-4.22-7.18-9.37a11.52,11.52,0,0,1,1.52-5.74,11.63,11.63,0,0,1,0-11.48A11.63,11.63,0,0,1,805.31,551.07Z" transform="translate(9.81)"/><ellipse class="cls-5" cx="820.77" cy="533.85" rx="7.18" ry="9.37"/><ellipse class="cls-5" cx="820.77" cy="522.37" rx="7.18" ry="9.37"/><path class="cls-6" d="M837.9,443.78a33.75,33.75,0,0,0,2.7-4l-18.83-3.12,20.43.17a34.43,34.43,0,0,0,.68-27.27l-27.35,14.18,25.24-18.57a34.44,34.44,0,0,0-59.69,34.36,46.87,46.87,0,0,0,2.79,4.14,37.41,37.41,0,0,0-4,6.24l24.48,12.75L778.3,454a34.58,34.58,0,0,0,5.57,32.34,34.38,34.38,0,1,0,54,0,34.49,34.49,0,0,0,0-42.55Z" transform="translate(9.81)"/><path class="cls-7" d="M776.44,465.05a34.75,34.75,0,0,0,7.35,21.28,34.38,34.38,0,1,0,54,0C842.45,480.42,776.44,461.17,776.44,465.05Z" transform="translate(9.81)"/></g><g class="cls-4"><ellipse class="cls-5" cx="88.81" cy="589.48" rx="9.62" ry="12.58"/><path class="cls-5" d="M86.6,535.71a15.36,15.36,0,0,0,2-7.68c0-6.92-4.3-12.58-9.62-12.58s-9.62,5.66-9.62,12.58a15.36,15.36,0,0,0,2,7.68,15.58,15.58,0,0,0,0,15.36,15.59,15.59,0,0,0,0,15.37,15.36,15.36,0,0,0-2,7.68c0,6.92,4.3,12.58,9.62,12.58s9.62-5.66,9.62-12.58a15.36,15.36,0,0,0-2-7.68,15.59,15.59,0,0,0,0-15.37,15.58,15.58,0,0,0,0-15.36Z" transform="translate(9.81)"/><ellipse class="cls-5" cx="88.81" cy="512.66" rx="9.62" ry="12.58"/><ellipse class="cls-5" cx="88.81" cy="497.3" rx="9.62" ry="12.58"/><path class="cls-6" d="M43,392a41.21,41.21,0,0,1-3.55-5.23l25.24-4.14-27.35.26a46,46,0,0,1-.84-36.47l36.64,19L39.41,340.62a46,46,0,0,1,79.94,45.67,44.09,44.09,0,0,1-4,5.83,47.44,47.44,0,0,1,5.24,8.36l-32.76,17,35-11.74A46,46,0,0,1,115.38,449,46,46,0,1,1,43,449.1,46.16,46.16,0,0,1,43,392Z" transform="translate(9.81)"/><path class="cls-7" d="M125.26,420.48a45.82,45.82,0,0,1-9.88,28.45A46,46,0,1,1,43,449C36.88,441.16,125.26,415.33,125.26,420.48Z" transform="translate(9.81)"/></g><g class="cls-4"><ellipse class="cls-5" cx="181.49" cy="591.34" rx="7.18" ry="9.37"/><path class="cls-5" d="M177.43,551.07a11.46,11.46,0,0,0,1.52-5.74c0-5.15-3.21-9.37-7.18-9.37s-7.17,4.22-7.17,9.37a11.36,11.36,0,0,0,1.52,5.74,11.58,11.58,0,0,0,0,11.48,11.58,11.58,0,0,0,0,11.48,11.42,11.42,0,0,0-1.52,5.74c0,5.15,3.21,9.37,7.17,9.37s7.18-4.22,7.18-9.37a11.52,11.52,0,0,0-1.52-5.74,11.63,11.63,0,0,0,0-11.48A12,12,0,0,0,177.43,551.07Z" transform="translate(9.81)"/><ellipse class="cls-5" cx="181.49" cy="533.85" rx="7.18" ry="9.37"/><ellipse class="cls-5" cx="181.49" cy="522.37" rx="7.18" ry="9.37"/><path class="cls-6" d="M144.84,443.78a33.75,33.75,0,0,1-2.7-4l18.91-3.12-20.43.17a34.43,34.43,0,0,1-.67-27.27l27.35,14.18L142.06,405.2a34.42,34.42,0,1,1,59.6,34.44,45.44,45.44,0,0,1-2.79,4.14,31.73,31.73,0,0,1,3.88,6.25l-24.48,12.74L204.36,454a34.63,34.63,0,0,1-5.57,32.34,34.38,34.38,0,1,1-54,0,34.61,34.61,0,0,1,.08-42.55Z" transform="translate(9.81)"/><path class="cls-7" d="M206.3,465.05A34.75,34.75,0,0,1,199,486.33a34.38,34.38,0,1,1-54,0C140.2,480.42,206.3,461.17,206.3,465.05Z" transform="translate(9.81)"/></g><ellipse class="cls-8" cx="499.4" cy="733.83" rx="462.6" ry="7.51"/><ellipse class="cls-8" cx="499.4" cy="795.29" rx="462.6" ry="7.51"/><ellipse class="cls-8" cx="499.4" cy="605.69" rx="462.6" ry="7.51"/><ellipse class="cls-8" cx="499.4" cy="669.76" rx="462.6" ry="7.51"/><path class="cls-9" d="M709.75,410.77a14.73,14.73,0,0,0-8.94,1,13.19,13.19,0,0,1-10.73,0,15.06,15.06,0,0,0-12.66.25,7.74,7.74,0,0,1-3.63.93c-5.15,0-9.37-5.15-10.3-12A10.07,10.07,0,0,0,666,398.2c3-4.82,7.68-7.94,12.91-7.94s9.79,3,12.83,7.85a9.77,9.77,0,0,0,8.53,4.64h.17C704.52,402.67,708.07,406,709.75,410.77Z" transform="translate(9.81)"/><path class="cls-8" d="M725.37,389.33l-8.27,5.24,5.06-9.12a8.31,8.31,0,0,0-5-1.77H717a10.7,10.7,0,0,1-1.69-.09l-2.87,1.77,1.19-2.19a9.85,9.85,0,0,1-4.9-3.71l-5.06,3.2,3.2-5.74a14.66,14.66,0,0,0-11.22-5.65c-5.24,0-9.88,3.12-12.92,7.93a9.42,9.42,0,0,1-8.53,4.56H674c-5.74,0-10.47,6.59-10.47,14.6S668.14,413,674,413a7.74,7.74,0,0,0,3.63-.93,15.06,15.06,0,0,1,12.66-.25,13.17,13.17,0,0,0,10.72,0,14.88,14.88,0,0,1,12.58.25,7.77,7.77,0,0,0,3.63.93c5.74,0,10.47-6.59,10.47-14.61A20.64,20.64,0,0,0,725.37,389.33Z" transform="translate(9.81)"/><path class="cls-9" d="M357.32,406.22a10.52,10.52,0,0,0-6.25.67,9,9,0,0,1-7.51,0,10.5,10.5,0,0,0-8.87.17,6.51,6.51,0,0,1-2.53.67c-3.63,0-6.58-3.62-7.17-8.35a6.57,6.57,0,0,0,1.77-1.94c2.11-3.38,5.4-5.58,9-5.58s6.84,2.2,8.95,5.49a7.08,7.08,0,0,0,6,3.29h.09C353.6,400.56,356.05,402.84,357.32,406.22Z" transform="translate(9.81)"/><path class="cls-8" d="M368.21,391.19l-5.83,3.71,3.55-6.41a5.81,5.81,0,0,0-3.46-1.27h-.09a5.47,5.47,0,0,1-1.18-.08l-1.94,1.26.84-1.52a7.18,7.18,0,0,1-3.46-2.61l-3.54,2.19,2.19-4a10.25,10.25,0,0,0-7.85-4c-3.63,0-6.92,2.2-9,5.57a6.81,6.81,0,0,1-6,3.21h-.17c-4.06,0-7.35,4.56-7.35,10.22s3.29,10.21,7.35,10.21a5.43,5.43,0,0,0,2.53-.67,10.44,10.44,0,0,1,8.86-.17,9.72,9.72,0,0,0,3.8.84,9.41,9.41,0,0,0,3.72-.76,10.64,10.64,0,0,1,8.78.17,5.29,5.29,0,0,0,2.53.59c4,0,7.34-4.56,7.34-10.21A13.78,13.78,0,0,0,368.21,391.19Z" transform="translate(9.81)"/><path class="cls-9" d="M254.58,472.4a10.6,10.6,0,0,1,6.25.67,9,9,0,0,0,7.51,0,10.54,10.54,0,0,1,8.87.17,5.45,5.45,0,0,0,2.53.68c3.63,0,6.58-3.63,7.18-8.36a6.48,6.48,0,0,1-1.78-1.94c-2.11-3.38-5.4-5.57-9-5.57s-6.84,2.11-8.95,5.48a7.07,7.07,0,0,1-6,3.3h-.09C258.21,466.74,255.77,469,254.58,472.4Z" transform="translate(9.81)"/><path class="cls-8" d="M243.61,457.46l5.83,3.71-3.55-6.42a5.83,5.83,0,0,1,3.55-1.26h.08a4.88,4.88,0,0,0,1.18-.09l1.94,1.27-.84-1.52a7.55,7.55,0,0,0,3.46-2.62l3.55,2.2-2.2-4.05a10.24,10.24,0,0,1,7.85-4c3.63,0,6.92,2.19,9,5.57a6.84,6.84,0,0,0,6,3.21h.17c4,0,7.34,4.56,7.34,10.21s-3.29,10.22-7.34,10.22a5.45,5.45,0,0,1-2.54-.68,10.51,10.51,0,0,0-8.86-.17,9.17,9.17,0,0,1-7.51.09,10.64,10.64,0,0,0-8.78.17,5.35,5.35,0,0,1-2.53.59c-4.06,0-7.35-4.56-7.35-10.22A13.41,13.41,0,0,1,243.61,457.46Z" transform="translate(9.81)"/><path class="cls-10" d="M587.77,731.47c2.2-4.05-.25-9.12-3.2-12.75s-6.42-7.43-6.34-12.07c.09-6.67,7.18-10.64,12.84-14.1a61.22,61.22,0,0,0,11.56-9.28,17.79,17.79,0,0,0,3.55-4.73c1.18-2.62,1.09-5.57,1.09-8.44-.25-9.54-.67-19-1.43-28.53" transform="translate(9.81)"/><path class="cls-6" d="M616.64,641.06a10.35,10.35,0,0,0-5.23-8.53l-2.36,4.65.08-5.57a10.39,10.39,0,1,0,7,12.91A12.11,12.11,0,0,0,616.64,641.06Z" transform="translate(9.81)"/><path class="cls-6" d="M598.07,711.38a10.43,10.43,0,0,1-19.67-4.22,10.32,10.32,0,0,1,.68-4.22,10.39,10.39,0,0,1,19.41.08l-6.5,5.32,7.18-1.69A10,10,0,0,1,598.07,711.38Z" transform="translate(9.81)"/><path class="cls-6" d="M592.92,691.2a10.36,10.36,0,0,1-3.29-20.34l-.08,4.3,2.36-4.64h0a10.35,10.35,0,1,1,1,20.68Z" transform="translate(9.81)"/><path class="cls-6" d="M618.16,674.49a10.4,10.4,0,1,1,4.65-19.42L621,660.14l3.71-3.72a10.49,10.49,0,0,1,.68,14.69,10.67,10.67,0,0,1-7.18,3.38Z" transform="translate(9.81)"/><path class="cls-7" d="M615.21,643.85c-2.37.25-4.73,1-7.18,1.18s-5.06-.42-6.58-2.28c-.68-1.1-1.35-2.2-1.94-3.38a7.34,7.34,0,0,0-2.62-2.45,10.42,10.42,0,1,0,18.57,9.46,15.54,15.54,0,0,0,.93-2.53A5.17,5.17,0,0,0,615.21,643.85Z" transform="translate(9.81)"/><path class="cls-7" d="M618.16,674.49a10.4,10.4,0,0,1-10.89-9.88,9.87,9.87,0,0,1,1-4.89,8.3,8.3,0,0,1,2.11,2.11c.59,1.18,1.35,2.36,2,3.46,1.61,1.94,4.39,2.53,6.92,2.36s4.9-.84,7.43-1.1c.34,0,.68-.08,1-.08A10.45,10.45,0,0,1,618.16,674.49Z" transform="translate(9.81)"/><path class="cls-7" d="M592.92,691.2a10.32,10.32,0,0,1-10-14.6,8.49,8.49,0,0,1,2.2,2.11,39.07,39.07,0,0,0,2.28,3.54c1.77,2,4.72,2.62,7.34,2.54s5.06-.68,7.6-.85A10.33,10.33,0,0,1,592.92,691.2Z" transform="translate(9.81)"/><path class="cls-7" d="M598.07,711.38a10.43,10.43,0,0,1-19.67-4.22,10.32,10.32,0,0,1,.68-4.22,13.3,13.3,0,0,1,2.28,2c1,1.18,1.6,2.53,2.78,3.72,2.11,2.11,5.57,3,8.61,3A37.92,37.92,0,0,0,598.07,711.38Z" transform="translate(9.81)"/><path class="cls-10" d="M72.84,670.69c2.19-4.05-.26-9.12-3.21-12.75s-6.42-7.43-6.33-12.07c.08-6.67,7.17-10.63,12.83-14.1a61.22,61.22,0,0,0,11.56-9.28,17.79,17.79,0,0,0,3.55-4.73c1.18-2.62,1.18-5.57,1.1-8.44-.26-9.54-.76-19-1.44-28.53" transform="translate(9.81)"/><path class="cls-6" d="M101.62,580.28a10.46,10.46,0,0,0-5.15-8.53l-2.36,4.65.08-5.57a10.39,10.39,0,1,0,7,12.91,9.36,9.36,0,0,0,.42-3.46Z" transform="translate(9.81)"/><path class="cls-6" d="M83.14,650.6a10.43,10.43,0,0,1-19.67-4.22,10.31,10.31,0,0,1,.67-4.22,10.44,10.44,0,0,1,13.51-5.91,10.58,10.58,0,0,1,5.91,6l-6.5,5.32,7.17-1.69A10,10,0,0,1,83.14,650.6Z" transform="translate(9.81)"/><path class="cls-6" d="M78,630.42a10.36,10.36,0,0,1-3.3-20.34l-.08,4.3L77,609.74h0a10.35,10.35,0,1,1,1,20.68Z" transform="translate(9.81)"/><path class="cls-6" d="M103.23,613.71a10.4,10.4,0,1,1,4.64-19.42L106,599.36l3.72-3.72a10.49,10.49,0,0,1,.67,14.69,10.63,10.63,0,0,1-7.17,3.38Z" transform="translate(9.81)"/><path class="cls-7" d="M100.27,583.07c-2.36.25-4.72,1-7.17,1.18S88,583.83,86.51,582c-.67-1.1-1.35-2.2-1.94-3.38A7.26,7.26,0,0,0,82,576.14a10.42,10.42,0,0,0,18.58,9.46,15.48,15.48,0,0,0,.92-2.53A2.61,2.61,0,0,0,100.27,583.07Z" transform="translate(9.81)"/><path class="cls-7" d="M103.23,613.71a10.39,10.39,0,0,1-10.89-9.88,9.75,9.75,0,0,1,1-4.89,8.3,8.3,0,0,1,2.11,2.11c.59,1.18,1.35,2.36,2,3.46,1.6,1.94,4.39,2.53,6.92,2.45s4.9-.85,7.43-1.1c.34,0,.67-.09,1-.09A10.45,10.45,0,0,1,103.23,613.71Z" transform="translate(9.81)"/><path class="cls-7" d="M78,630.42a10.38,10.38,0,0,1-10.89-9.87,10.17,10.17,0,0,1,.93-4.73,8.79,8.79,0,0,1,2.19,2.11c.68,1.18,1.44,2.36,2.28,3.55,1.77,1.94,4.73,2.61,7.34,2.53s5.07-.68,7.6-.85A10.31,10.31,0,0,1,78,630.42Z" transform="translate(9.81)"/><path class="cls-7" d="M83.14,650.6a10.43,10.43,0,0,1-19.67-4.22,10.31,10.31,0,0,1,.67-4.22,12.59,12.59,0,0,1,2.28,2c1,1.18,1.61,2.54,2.79,3.72,2.11,2.11,5.57,3,8.61,3A38.11,38.11,0,0,0,83.14,650.6Z" transform="translate(9.81)"/><path class="cls-10" d="M415.73,601.13c-2.19-4,.26-9.12,3.21-12.75s6.33-7.42,6.33-12.07c-.08-6.67-7.17-10.63-12.83-14.09A60.76,60.76,0,0,1,401,552.93a17.6,17.6,0,0,1-3.54-4.73c-1.19-2.61-1.1-5.57-1.1-8.44.25-9.54.76-19,1.43-28.53" transform="translate(9.81)"/><path class="cls-6" d="M387,510.81a10.43,10.43,0,0,1,5.15-8.53l2.36,4.64-.08-5.57a11.46,11.46,0,0,1,3.37-.42,10.4,10.4,0,1,1-10.8,9.88Z" transform="translate(9.81)"/><path class="cls-6" d="M405.44,581.12a10.4,10.4,0,1,0,4.47-14,10.57,10.57,0,0,0-5,5.66l6.5,5.32-7.18-1.69A11.88,11.88,0,0,0,405.44,581.12Z" transform="translate(9.81)"/><path class="cls-6" d="M410.58,561a10.39,10.39,0,0,0,10.89-9.88,10.25,10.25,0,0,0-7.59-10.46l.08,4.3-2.36-4.64h0a10.38,10.38,0,0,0-10.89,9.87,10,10,0,0,0,.42,3.55A10.55,10.55,0,0,0,410.58,561Z" transform="translate(9.81)"/><path class="cls-6" d="M385.34,544.15a10.4,10.4,0,0,0,1-20.77,10.23,10.23,0,0,0-5.66,1.36l1.86,5.06-3.8-3.63a10.16,10.16,0,0,0-3.38,7.18,8.26,8.26,0,0,0,.26,2.87A10.7,10.7,0,0,0,385.34,544.15Z" transform="translate(9.81)"/><path class="cls-7" d="M388.3,513.51c2.36.25,4.73,1,7.17,1.18s5.07-.42,6.59-2.28c.67-1.1,1.35-2.19,1.94-3.38a7.31,7.31,0,0,1,2.62-2.44A10.42,10.42,0,1,1,388.05,516a10,10,0,0,1-.93-2.53A5.16,5.16,0,0,1,388.3,513.51Z" transform="translate(9.81)"/><path class="cls-7" d="M385.34,544.15a10.39,10.39,0,0,0,10.89-9.88,9.77,9.77,0,0,0-1-4.89,8.3,8.3,0,0,0-2.11,2.11c-.59,1.18-1.35,2.36-2,3.46-1.6,1.94-4.39,2.53-6.92,2.45s-4.89-.85-7.43-1.1c-.33,0-.67-.08-1-.08A10.53,10.53,0,0,0,385.34,544.15Z" transform="translate(9.81)"/><path class="cls-7" d="M410.58,561a10.39,10.39,0,0,0,10.89-9.88,10,10,0,0,0-.92-4.72,8.49,8.49,0,0,0-2.2,2.11,29.49,29.49,0,0,1-2.28,3.46c-1.77,1.94-4.73,2.61-7.34,2.53s-5.07-.68-7.6-.84A10.48,10.48,0,0,0,410.58,561Z" transform="translate(9.81)"/><path class="cls-7" d="M405.44,581.12a10.45,10.45,0,0,0,14,4.48,10.57,10.57,0,0,0,5-12.92,12.64,12.64,0,0,0-2.28,2c-1,1.18-1.69,2.53-2.79,3.71-2.11,2.11-5.57,3-8.61,3C409,581.38,407.21,581.29,405.44,581.12Z" transform="translate(9.81)"/><circle class="cls-3" cx="694.99" cy="518.66" r="84.42"/><path class="cls-6" d="M721.4,540.44c-2.95-3-10-7.35-13.5-9-4.06-1.94-5.49-1.94-8.36.17-2.36,1.69-4,3.29-6.67,2.7s-8.19-4.64-13.42-9.87-9.29-10.64-9.88-13.42,1-4.31,2.7-6.67c2-2.87,2.11-4.31.17-8.36-1.69-3.46-6.08-10.55-9-13.51s-3.63-2.28-5.23-1.69a26.11,26.11,0,0,0-4.82,2.54,14.56,14.56,0,0,0-5.74,6.07c-1.18,2.45-2.44,7,4.22,19a105.5,105.5,0,0,0,18.66,24.9h0a103.85,103.85,0,0,0,25,18.66c12,6.75,16.54,5.4,19,4.22s4.14-2.79,6.08-5.74a26.3,26.3,0,0,0,2.53-4.81C723.77,544,724.44,543.31,721.4,540.44Z" transform="translate(9.81)"/><path class="cls-2" d="M685.19,434.24a84.42,84.42,0,1,0,84.41,84.42v-.09A84.48,84.48,0,0,0,685.19,434.24Zm0,157.52a73.19,73.19,0,1,1,73.19-73.19h0a73.12,73.12,0,0,1-73.19,73.19Z" transform="translate(9.81)"/><circle class="cls-3" cx="501.18" cy="646.8" r="84.42"/><path class="cls-6" d="M539.32,621.31l-25.24,25.74a.51.51,0,0,0,0,.68h0l17.73,18.82a3.07,3.07,0,0,1,0,4.31,3.52,3.52,0,0,1-2.12.93,3.06,3.06,0,0,1-2.19-.93L509.86,652a.52.52,0,0,0-.68,0l-4.3,4.31A18.9,18.9,0,0,1,491.37,662a19.31,19.31,0,0,1-13.76-5.82L473.47,652a.5.5,0,0,0-.67,0l-17.56,18.74a3.05,3.05,0,0,1-4.3,0h0a3,3,0,0,1,0-4.31h0l17.64-18.82a.52.52,0,0,0,0-.68l-25.24-25.74a.52.52,0,0,0-.68,0,.45.45,0,0,0-.17.34v51.4A7.54,7.54,0,0,0,450,680.4h82.64a7.53,7.53,0,0,0,7.51-7.52v-51.4a.47.47,0,0,0-.42-.51C539.57,621.14,539.4,621.22,539.32,621.31Z" transform="translate(9.81)"/><path class="cls-6" d="M491.37,656a13,13,0,0,0,9.2-3.8l36.81-37.48a7.15,7.15,0,0,0-4.65-1.69H450.09a7.11,7.11,0,0,0-4.64,1.69l36.8,37.48A12.64,12.64,0,0,0,491.37,656Z" transform="translate(9.81)"/><path class="cls-2" d="M490.27,562.47a84.42,84.42,0,1,0,84.33,84.41v-.08A84.3,84.3,0,0,0,490.27,562.47Zm0,157.52a73.19,73.19,0,1,1,73.19-73.19h0A73.17,73.17,0,0,1,490.27,720Z" transform="translate(9.81)"/><circle class="cls-3" cx="300.94" cy="583.83" r="84.42"/><path class="cls-6" d="M291.14,543.39l-33.69,77.66,3.13,3.13,30.47-13.43,30.48,13.43,3.12-3.13Z" transform="translate(9.81)"/><path class="cls-2" d="M291.14,499.41a84.42,84.42,0,1,0,84.33,84.5v-.08A84.38,84.38,0,0,0,291.14,499.41Zm0,157.52a73.19,73.19,0,1,1,73.18-73.19h0a73.27,73.27,0,0,1-73.18,73.19Z" transform="translate(9.81)"/><path class="cls-11" d="M693,664.78c-.76-1.86-1.51-3.71-2.36-5.57a17.2,17.2,0,0,0-2.87-5,4.82,4.82,0,0,0-3.88-1.69,15.41,15.41,0,0,0-3.46-.08c-.43-.17-.93-.34-1.44-.51a12,12,0,0,0,8.95-11.23v-.5a12,12,0,0,0-12-12.08h0a12.2,12.2,0,0,0-6.33,1.78A11.25,11.25,0,0,0,656.91,636a14.17,14.17,0,0,0-4.31,10.39v.5c.26,6.59,4.48,11.82,9.8,12.33a4.75,4.75,0,0,0-1.52,1c-1.61,1.61-1.94,4-2.11,6.33l-.17,1.69-2.87,1a.58.58,0,0,0-.34.68c0,.08.08.17.17.25l2.7,1.94v.51a1.72,1.72,0,0,0,.08.59,3.73,3.73,0,0,0-1,1.52,7.32,7.32,0,0,0-.25,2.7l.08,2.37a21.8,21.8,0,0,0,.68,5.23c.34,1,1.85,3.55,2.95,3.63-1,4.64-1.26,14.44-1.26,14.44-.17.16.25.25.84.33.59,4.65,2.62,17.73,6.08,23.47a44.34,44.34,0,0,1,1.35,5.74s1,12.41,2.36,16.12c1.1,3.13,2,10.89,2.28,13.17a1.2,1.2,0,0,0-.93.93c-.67,2-5,5.07-5,5.07a18.29,18.29,0,0,0-3.71,2.36c-1.35,1.27-1.27,2.36,4.73,1.6,11.64-1.35,13.67-5.06,13.67-5.06l-.42-1.44a15.64,15.64,0,0,0-1.52-3.63c-.17-.16-.34.09-.51.51A70.67,70.67,0,0,1,678,746s.34-5.74-1.35-9.71a19.77,19.77,0,0,1,0-6.33c.68-2.7-2.7-15.79-2.7-15.79L672,704.54a2.77,2.77,0,0,1,.51,1.1l.08.17.08.25c0,.08.09.17.17.25,1.27,5.41,4.9,20.35,4.9,22.54,0,2.7,3.29,9.37,3.29,9.37s1.35,11.06,3.63,15.45c1.77,3.29,1.86,8.19,1.69,10.3h0s-.42,2.78-1.1,3.46a11.4,11.4,0,0,0-1.26,2.19l-.09.17s-1,2-.34,2.37a16.28,16.28,0,0,0,8,1s1.35-1.69,1.35-2.36a5.27,5.27,0,0,0-.16-1.19c-.26-1.6-.68-4-.68-4.13.25-1.1-.84-4-.84-4l-.34-9.37a43.39,43.39,0,0,0-2.37-18.83s-1.68-6.08-1.35-7.68-.67-19.5-.67-19.5l-.09-.25a19.3,19.3,0,0,1,.09-3.8c.34-4-1-12.41-1.35-12.75a17.14,17.14,0,0,1-.51-2.78c.09-.68.34-2.79.59-5.32a95.46,95.46,0,0,0,9.79-.85,1.09,1.09,0,0,0,.85-.33.92.92,0,0,0,.17-.68C696.75,674.32,694.9,669.42,693,664.78Zm-6.66,10.64c.33-2.37.67-4.73,1.09-6.5l.09.17a42.87,42.87,0,0,1,1.6,5.31A18.74,18.74,0,0,1,686.29,675.42Z" transform="translate(9.81)"/><path class="cls-12" d="M660.45,702.51s2,17.9,6.34,24.91a42.64,42.64,0,0,1,1.35,5.65s1,12.24,2.36,16,2.36,13.59,2.36,13.59,4.65,5.32,6.33,1a73.56,73.56,0,0,1-1-17.22s.34-5.66-1.35-9.62a19.77,19.77,0,0,1,0-6.33c.68-2.71-2.7-15.62-2.7-15.62l-2.62-12.92Z" transform="translate(9.81)"/><path class="cls-13" d="M681.31,766.92s-2,3.63-13.6,5c-6,.68-6.07-.42-4.72-1.6a20.81,20.81,0,0,1,3.71-2.36s4.31-3,5-5,3-.34,3-.34c3.29,5,4-1.35,4.64-.68a13.49,13.49,0,0,1,1.52,3.55C681.14,766.33,681.31,766.92,681.31,766.92Z" transform="translate(9.81)"/><path class="cls-7" d="M681.31,766.92s-2,3.63-13.6,5c-6,.68-6.07-.42-4.72-1.6.93.59,2.87.84,6.67-.68,5.48-2.27,9.53-3.54,11.14-4A11.43,11.43,0,0,1,681.31,766.92Z" transform="translate(9.81)"/><path class="cls-7" d="M678,746.33s.34-5.66-1.35-9.63a19.77,19.77,0,0,1,0-6.33c.68-2.7-2.7-15.62-2.7-15.62l-2.62-12.91-2.27.17,2.61,12.83s3.29,12.91,2.7,15.62a20.36,20.36,0,0,0,0,6.33c1.69,4,1.35,9.62,1.35,9.62a65.43,65.43,0,0,0,1,17.22,3,3,0,0,1-.93,1.35c1.26.59,2.53.51,3.29-1.35A62.83,62.83,0,0,1,678,746.33Z" transform="translate(9.81)"/><path class="cls-5" d="M675.82,629.75a11.68,11.68,0,0,0-6.25,1.77,11.24,11.24,0,0,0-12.66,6.08,14,14,0,0,0-4.31,10.3c0,7.09,4.73,12.74,10.64,12.74,4.22,0,7.94-3,9.62-7.34a12.15,12.15,0,0,0,3,.42,12,12,0,0,0,0-24Z" transform="translate(9.81)"/><path class="cls-12" d="M685.61,704.2l1,2.62s1,17.56.68,19.25,1.35,7.59,1.35,7.59A43.48,43.48,0,0,1,691,752.24l.34,9.28s1.35,3.63.68,4.31-5.66-.59-5.66-.59.68-7-1.69-11.32-3.63-15.28-3.63-15.28-3.29-6.66-3.29-9.28-5.32-24.23-5.32-24.23Z" transform="translate(9.81)"/><path class="cls-5" d="M659.78,703.86s.34-12,1.69-15.61a28.1,28.1,0,0,0,1.52-5.32s20.09,3.63,21.78,2.28c0,0,.33,4.64.67,5s1.69,8.61,1.35,12.58,0,4,0,4-13.59,2-13.93,0-1.35-2-1.35-2S659.1,704.54,659.78,703.86Z" transform="translate(9.81)"/><g class="cls-14"><path d="M670.67,703.86s-8.36-.25-10.89-.67v.67c-.68.68,11.65,1,11.65,1a.6.6,0,0,1,.42.17C671.43,703.86,670.67,703.86,670.67,703.86Z" transform="translate(9.81)"/><path d="M685.27,690.27c-.33-.33-.67-5-.67-5a1.17,1.17,0,0,1-.59.17,13.06,13.06,0,0,0,.59,3.8A51.93,51.93,0,0,1,686,701.84c-.34,4,0,4,0,4s-10.81,1.6-13.34.5c0,.17.08.34.08.51.34,2,13.93,0,13.93,0s-.33,0,0-4S685.61,690.61,685.27,690.27Z" transform="translate(9.81)"/><path class="cls-15" d="M670.67,703.86s-8.36-.25-10.89-.67v.67c-.68.68,11.65,1,11.65,1a.6.6,0,0,1,.42.17C671.43,703.86,670.67,703.86,670.67,703.86Z" transform="translate(9.81)"/><path class="cls-15" d="M685.27,690.27c-.33-.33-.67-5-.67-5a1.17,1.17,0,0,1-.59.17,13.06,13.06,0,0,0,.59,3.8A51.93,51.93,0,0,1,686,701.84c-.34,4,0,4,0,4s-10.81,1.6-13.34.5c0,.17.08.34.08.51.34,2,13.93,0,13.93,0s-.33,0,0-4S685.61,690.61,685.27,690.27Z" transform="translate(9.81)"/></g><path class="cls-12" d="M674.38,650.6a4,4,0,0,0,1.27,1.6,3,3,0,0,0,1.18.51c-.76.42-1.52.76-2.28,1.18a31.19,31.19,0,0,0-3.37,2.53,6.52,6.52,0,0,1-3.89,1.52,4.72,4.72,0,0,0,.51-4.72,4.05,4.05,0,0,1-.59-1.61,3,3,0,0,1,1.6-2.19c.68-.43,1.27-.85,1.94-1.27.51-.34,1.27-1,1.94-1s.76.59.85,1.18A15.1,15.1,0,0,0,674.38,650.6Z" transform="translate(9.81)"/><path class="cls-7" d="M674.38,650.6a4,4,0,0,0,1.27,1.6,3,3,0,0,0,1.18.51c-.76.42-1.52.76-2.28,1.18a31.19,31.19,0,0,0-3.37,2.53,6.52,6.52,0,0,1-3.89,1.52,4.72,4.72,0,0,0,.51-4.72,4.05,4.05,0,0,1-.59-1.61,3,3,0,0,1,1.6-2.19c.68-.43,1.27-.85,1.94-1.27.51-.34,1.27-1,1.94-1s.76.59.85,1.18A15.1,15.1,0,0,0,674.38,650.6Z" transform="translate(9.81)"/><circle class="cls-12" cx="691.95" cy="662.59" r="7.6"/><path class="cls-13" d="M693,770.89c0,.68-1.35,2.36-1.35,2.36a15.91,15.91,0,0,1-7.93-1c-.68-.34.34-2.36.34-2.36l.08-.17a11.52,11.52,0,0,1,1.27-2.2c.67-.67,1.09-3.37,1.09-3.37,2-3.38,5.74,1.43,5.74,1.43s.43,2.54.68,4C692.87,770.3,693,770.72,693,770.89Z" transform="translate(9.81)"/><path class="cls-7" d="M693,770.89c0,.68-1.35,2.36-1.35,2.36a15.91,15.91,0,0,1-7.93-1c-.68-.34.34-2.36.34-2.36l.08-.17a17.83,17.83,0,0,0,7.26,1.52l1.52-1.52C692.87,770.3,693,770.72,693,770.89Z" transform="translate(9.81)"/><circle class="cls-12" cx="676.68" cy="646.63" r="7.43"/><path class="cls-12" d="M660.88,686.9c-1.61,1.52-1.94,4.05-2.11,6.33l-.26,3.29c-.08.93-.08,1.77-.08,2.7,0,.59.17,1.1.17,1.69s.08,1.35.08,1.94v4.9a6,6,0,0,0,.51,3,2,2,0,0,0,2.53.93,2.71,2.71,0,0,0,1-1.6,25.39,25.39,0,0,0,1.69-6.17c.09-.75.09-1.43.17-2.19a22.4,22.4,0,0,1,.34-2.28c.51-3.12.67-6.25.93-9.37.08-.93.93-4.56-.34-5-.59-.17-1.86.42-2.36.59A6,6,0,0,0,660.88,686.9Z" transform="translate(9.81)"/><path class="cls-7" d="M660.88,686.9c-1.61,1.52-1.94,4.05-2.11,6.33l-.26,3.29c-.08.93-.08,1.77-.08,2.7,0,.59.17,1.1.17,1.69s.08,1.35.08,1.94v4.9a6,6,0,0,0,.51,3,2,2,0,0,0,2.53.93,2.71,2.71,0,0,0,1-1.6,25.39,25.39,0,0,0,1.69-6.17c.09-.75.09-1.43.17-2.19a22.4,22.4,0,0,1,.34-2.28c.51-3.12.67-6.25.93-9.37.08-.93.93-4.56-.34-5-.59-.17-1.86.42-2.36.59A6,6,0,0,0,660.88,686.9Z" transform="translate(9.81)"/><path class="cls-13" d="M676.32,651.44s-5.65,4.31-8.94,5.32c0,0-1.94,2.28-2.28,2.79s-1,6.5-1.69,7.85-2.36,4.3,0,7.26c0,0,.67,3,.34,4s-1.52,4.65-.43,4.82,4.39,2.44,7.43,1.85,14.1,2.54,14.1,2.54,1.86-17.06,3.21-20.09l-3-1s-8.27-5-3.29-12.58C681.64,654.14,677,653.13,676.32,651.44Z" transform="translate(9.81)"/><path class="cls-5" d="M655.73,696.77l6.84,4.9a.4.4,0,0,0,.59,0l1.85-1.43a.53.53,0,0,0,.09-.76l-.09-.09-5.32-4.64a.39.39,0,0,0-.5-.09l-3.38,1.19a.58.58,0,0,0-.34.67C655.64,696.61,655.64,696.69,655.73,696.77Z" transform="translate(9.81)"/><path class="cls-12" d="M658.09,711.38a15.22,15.22,0,0,1-.67-5.15l-.09-2.37a7.38,7.38,0,0,1,.25-2.7,4.78,4.78,0,0,1,2.87-2.53,10,10,0,0,1,3.89-.25,1.07,1.07,0,0,1,.5.17.46.46,0,0,1,.26.42,3.11,3.11,0,0,1,.17,2.45,2.51,2.51,0,0,1-.76.84,33.61,33.61,0,0,0-2.87,1.86.87.87,0,0,0-.43.5v.51a6.48,6.48,0,0,0,.43,1.35,1,1,0,0,0,.42.59c.17.17.34.17.5.34.34.25,1.1.68,1.1,1.18-.17,1.69-1.1,3.55-1.52,5.24C661.21,717,658.6,712.81,658.09,711.38Z" transform="translate(9.81)"/><g class="cls-14"><path d="M668.73,685.29h-.17a4.76,4.76,0,0,0,2.19,0H671A10.85,10.85,0,0,0,668.73,685.29Z" transform="translate(9.81)"/><path d="M686.12,667.23c-1.18,2.7-3,17.13-3.3,20.09,1.19.34,1.95.51,1.95.51s1.85-17.06,3.12-20.09Z" transform="translate(9.81)"/></g><path class="cls-12" d="M682.4,662.84a2.54,2.54,0,0,0,1.1,1.69,19.74,19.74,0,0,1,1.94,1.94,13.27,13.27,0,0,1,1.94,3.8A36.74,36.74,0,0,1,689,675.5c-4.22,1.94-9,1.86-13.51,3.12a10.61,10.61,0,0,0-5.06,3,6.88,6.88,0,0,0-1.86,5.49.51.51,0,0,0,.08.33.77.77,0,0,0,.59.26,4.89,4.89,0,0,0,3.13-1.1,12.86,12.86,0,0,0,2.36-2.36,3.56,3.56,0,0,1,1.69-1.27,28.49,28.49,0,0,1,7.6-.76,83.48,83.48,0,0,0,11.31-.93.93.93,0,0,0,1-.76v-.25c.34-5-1.52-9.88-3.38-14.44-.76-1.85-1.51-3.71-2.36-5.48a15.72,15.72,0,0,0-2.87-4.9,6.3,6.3,0,0,0-1.69-1.27,7.33,7.33,0,0,0-2.28-.42,17.69,17.69,0,0,0-3.71-.08,7.1,7.1,0,0,0-.34,1.94c.09,2.28,1.1,4.39,2,6.5C681.9,662.5,682.23,662.5,682.4,662.84Z" transform="translate(9.81)"/><path class="cls-16" d="M668.9,692.38a6.33,6.33,0,0,0-.85,3.21,3.8,3.8,0,0,0,.26,1.35,4.47,4.47,0,0,0,2.7,2.54" transform="translate(9.81)"/><path class="cls-5" d="M673.2,639.37a6.81,6.81,0,0,0-1.26.17c-1.1-1.69-3.72-2.87-6.76-2.87-4,0-7.34,2.11-7.34,4.64s3.29,4.65,7.34,4.65a11.07,11.07,0,0,0,4.39-.93,4,4,0,0,0,7.18-3.46,4,4,0,0,0-3.55-2.2Z" transform="translate(9.81)"/><path class="cls-7" d="M673.54,646.29A3.78,3.78,0,0,1,670,644a10.9,10.9,0,0,1-4.39.93c-4.05,0-7.26-2.11-7.26-4.64v-.42a2.79,2.79,0,0,0-.33,1.43c0,2.54,3.29,4.65,7.34,4.65a11.07,11.07,0,0,0,4.39-.93,4,4,0,0,0,7.51-1A4.29,4.29,0,0,1,673.54,646.29Z" transform="translate(9.81)"/><path class="cls-7" d="M656.91,639.54a11.34,11.34,0,0,1,12.66-6.08A12,12,0,0,1,686,637.35a11.61,11.61,0,0,1,1.78,5.31v-1a12,12,0,0,0-12-11.9,11.68,11.68,0,0,0-6.25,1.77,11.24,11.24,0,0,0-12.66,6.08,14,14,0,0,0-4.31,10.3v1A13.38,13.38,0,0,1,656.91,639.54Z" transform="translate(9.81)"/><path class="cls-10" d="M733.05,667.4c2.2-4-.25-9.12-3.21-12.75s-6.33-7.43-6.33-12.07c.09-6.67,7.18-10.55,12.83-14.1a60.78,60.78,0,0,0,11.48-9.28,17.79,17.79,0,0,0,3.55-4.73c1.18-2.62,1.1-5.57,1.1-8.44-.26-9.54-.68-19-1.44-28.54" transform="translate(9.81)"/><path class="cls-6" d="M761.84,577a10.45,10.45,0,0,0-5.15-8.53l-2.37,4.65.09-5.58a9.58,9.58,0,0,0-3.38-.42A10.4,10.4,0,1,0,761.84,577Z" transform="translate(9.81)"/><path class="cls-6" d="M743.35,647.31a10.4,10.4,0,1,1-4.47-14,10.61,10.61,0,0,1,5,5.66l-6.5,5.32,7.17-1.69A11.47,11.47,0,0,1,743.35,647.31Z" transform="translate(9.81)"/><path class="cls-6" d="M738.2,627.13a10.4,10.4,0,0,1-10.89-9.88,10.26,10.26,0,0,1,7.6-10.46l-.09,4.3,2.37-4.64h0a10.35,10.35,0,1,1,1,20.68Z" transform="translate(9.81)"/><path class="cls-6" d="M763.44,610.33a10.39,10.39,0,1,1-1-20.76,10.08,10.08,0,0,1,5.65,1.35L766.23,596l3.8-3.63a10.15,10.15,0,0,1,3.37,7.18,8.23,8.23,0,0,1-.25,2.87A10.42,10.42,0,0,1,763.44,610.33Z" transform="translate(9.81)"/><path class="cls-7" d="M760.49,579.77c-2.37.26-4.73,1-7.18,1.19s-5.06-.43-6.58-2.28c-.68-1.1-1.35-2.2-1.94-3.38a7.34,7.34,0,0,0-2.62-2.45,10.42,10.42,0,1,0,19.5,6.92A2.92,2.92,0,0,0,760.49,579.77Z" transform="translate(9.81)"/><path class="cls-7" d="M763.44,610.33a10.38,10.38,0,0,1-10.89-9.87,9.9,9.9,0,0,1,1-4.9,8.63,8.63,0,0,1,2.11,2.11,28.63,28.63,0,0,0,2,3.46c1.61,1.94,4.39,2.53,6.92,2.45s4.9-.84,7.43-1.1c.34,0,.68-.08,1-.08A10.36,10.36,0,0,1,763.44,610.33Z" transform="translate(9.81)"/><path class="cls-7" d="M738.2,627.13a10.4,10.4,0,0,1-10.89-9.88,10.79,10.79,0,0,1,.93-4.81,9,9,0,0,1,2.2,2.11c.84,1.1,1.26,2.45,2.27,3.55,1.78,1.94,4.73,2.62,7.35,2.62s5.06-.68,7.6-.85A10.42,10.42,0,0,1,738.2,627.13Z" transform="translate(9.81)"/><path class="cls-7" d="M743.35,647.31a10.42,10.42,0,0,1-19-8.45,13.79,13.79,0,0,1,2.28,2c1,1.18,1.68,2.53,2.78,3.72,2.11,2.11,5.57,2.95,8.61,3A37.91,37.91,0,0,0,743.35,647.31Z" transform="translate(9.81)"/><path class="cls-10" d="M867.27,795.71c2.2-4.05-.25-9.12-3.2-12.75s-6.42-7.43-6.34-12.07c.09-6.67,7.18-10.55,12.84-14.1a61,61,0,0,0,11.48-9.28,18,18,0,0,0,3.54-4.73c1.18-2.62,1.1-5.57,1.1-8.44-.25-9.54-.68-19-1.44-28.53" transform="translate(9.81)"/><path class="cls-6" d="M896.06,705.3a10.45,10.45,0,0,0-5.15-8.53l-2.36,4.65.08-5.57a9.12,9.12,0,0,0-3.38-.43,10.4,10.4,0,1,0,10.81,9.88Z" transform="translate(9.81)"/><path class="cls-6" d="M877.57,775.62a10.4,10.4,0,1,1-4.47-14,10.55,10.55,0,0,1,5,5.65l-6.5,5.32,7.17-1.69A11.47,11.47,0,0,1,877.57,775.62Z" transform="translate(9.81)"/><path class="cls-6" d="M872.42,755.44a10.38,10.38,0,0,1-10.89-9.87,10.26,10.26,0,0,1,7.6-10.47l-.08,4.3,2.36-4.64h0a10.35,10.35,0,1,1,1,20.68Z" transform="translate(9.81)"/><path class="cls-6" d="M897.66,738.64a10.39,10.39,0,1,1-1-20.76,10.22,10.22,0,0,1,5.66,1.35l-1.86,5.06,3.8-3.63a10.15,10.15,0,0,1,3.37,7.18,8.23,8.23,0,0,1-.25,2.87A10.4,10.4,0,0,1,897.66,738.64Z" transform="translate(9.81)"/><path class="cls-7" d="M894.71,708.09c-2.37.25-4.73,1-7.18,1.18s-5.06-.42-6.58-2.28c-.68-1.1-1.35-2.2-1.94-3.38a7.34,7.34,0,0,0-2.62-2.45A10.42,10.42,0,1,0,895,710.62a10.51,10.51,0,0,0,.93-2.53A2.61,2.61,0,0,0,894.71,708.09Z" transform="translate(9.81)"/><path class="cls-7" d="M897.66,738.64a10.38,10.38,0,0,1-10.89-9.87,9.9,9.9,0,0,1,1-4.9A8.46,8.46,0,0,1,889.9,726a27.88,27.88,0,0,0,2,3.46c1.61,1.94,4.39,2.54,6.92,2.45s4.9-.84,7.43-1.1c.34,0,.68-.08,1-.08A10.34,10.34,0,0,1,897.66,738.64Z" transform="translate(9.81)"/><path class="cls-7" d="M872.42,755.44a10.38,10.38,0,0,1-10.89-9.87,10.8,10.8,0,0,1,.93-4.82,8.84,8.84,0,0,1,2.2,2.11c.84,1.1,1.35,2.45,2.28,3.55,1.77,1.94,4.72,2.62,7.34,2.62s5.06-.68,7.6-.85A10.42,10.42,0,0,1,872.42,755.44Z" transform="translate(9.81)"/><path class="cls-7" d="M877.57,775.62a10.42,10.42,0,0,1-19-8.44,13.3,13.3,0,0,1,2.28,2c1,1.18,1.69,2.54,2.78,3.72,2.11,2.11,5.57,3,8.61,3A37.92,37.92,0,0,0,877.57,775.62Z" transform="translate(9.81)"/><path class="cls-17" d="M430.51,676.6a8.32,8.32,0,0,0-3.3-6.67,9.69,9.69,0,0,0-8.1-9.54,9.54,9.54,0,0,0-6.42-7.17h0a5.42,5.42,0,0,0-1.18-.26H410a9.52,9.52,0,0,0-9.2,8.11c-3-.68-5.65.17-6.16,2.11a3.27,3.27,0,0,0,.08,1.52,6.46,6.46,0,0,0,4.39,3.54l.26.09.42.08h.08a7.15,7.15,0,0,0-.67,3.21,7.37,7.37,0,0,0,4,6.58l-.17.09a3.54,3.54,0,0,0-.68.93,17.93,17.93,0,0,0-1.26,2.95c-.26.93-.26,1.86-.51,2.7-.51,1.61-1.77,3-1.86,4.73-.08.76.09,1.69-.5,2.19-.17.09-.26.26-.43.34a3.79,3.79,0,0,0-.93,1,3.51,3.51,0,0,1-.67.93c-.51.34-1.27.34-1.52.93s.42,1.27.25,1.86-.67.76-1,1.1a4.73,4.73,0,0,0-.93,1.68,5.28,5.28,0,0,1-4.56-1.18,9.52,9.52,0,0,1,.51,1.69,7.65,7.65,0,0,0-2.45-1.27,7.26,7.26,0,0,1-2.62-1.94l1.44-.17-6.16-9.45-1.86-.42,1.6,3.12a1,1,0,0,0-.59.68,4.61,4.61,0,0,0-.08,1.09,24.9,24.9,0,0,0,.42,2.54l.51,2.19a1.47,1.47,0,0,0,.17.59,6.9,6.9,0,0,0-1.86.17,21.05,21.05,0,0,0-3.8-.93,1.5,1.5,0,0,0-.84,0,2.19,2.19,0,0,0-.85.68,26.44,26.44,0,0,0-2.87,4c-3.37,5.83-7.76,10.81-11.9,16-2.87,1.19-5.74,2.28-8.7,3.38l-6.24,2.36a8.71,8.71,0,0,1-3.89.85c-.59,0-1.35-.17-1.68.42a8.12,8.12,0,0,0-.43.84l-.67.09h0a7.64,7.64,0,0,0-1.52-2.79.91.91,0,0,0-.68.51c-.16.25-.25.59-.42.84a5.58,5.58,0,0,1-1.35,1.1c-.42.34-.67,1.1-1.1,1.52a4.61,4.61,0,0,1-2.11.84,11.3,11.3,0,0,0-3.29,1.27,6.08,6.08,0,0,1-1.26.59,7.74,7.74,0,0,1-1.44.09l-3.29-.26h-.85a1.6,1.6,0,0,0-1,1.69,2.78,2.78,0,0,0,1,1.86,8,8,0,0,0,1.86,1,65.87,65.87,0,0,0,8.78,2.62v.67a14.44,14.44,0,0,0,6.75,1.61,1,1,0,0,0,.51-.09,1.15,1.15,0,0,0,.42-.67,28.59,28.59,0,0,0,1.35-6.5h0a2.7,2.7,0,0,0,1.18-.34c1.1-.34,2.28.42,3.47.59,1.43.17,2.78-.67,4.13-1.18l.59-.17a6.21,6.21,0,0,1-1.35,1.27c-.59.42-1.18.67-1.77,1.09a10.36,10.36,0,0,1-1.52,1.19,5.65,5.65,0,0,1-1.18.42,9.43,9.43,0,0,0-1.61.84,3.47,3.47,0,0,0-1.09,1.1,1.6,1.6,0,0,0-.09,1.52,1.71,1.71,0,0,0,1.1.76,3.83,3.83,0,0,0,1.35,0c1.77-.17,3.55-.25,5.32-.42a17.64,17.64,0,0,0,2.19-.34c.43-.09.76-.25,1.19-.34a17.74,17.74,0,0,1,2-.34,1.35,1.35,0,0,1,.59.09c.42.17.68.59,1.1.67a3,3,0,0,0,.84-.08,20.71,20.71,0,0,1,4-.42,1.64,1.64,0,0,0,1.52-.68c.25-.5-.25-1.43-.42-2.11a7,7,0,0,1-.17-1.43,7.49,7.49,0,0,0-1-3.3l-.76-1.52a34.31,34.31,0,0,0,7.26-3.71,13.58,13.58,0,0,1,4.13-2,12.26,12.26,0,0,1,5.24.6,125.61,125.61,0,0,1,12,4.13c1.86.76,3.72,1.61,5.66,2.2a8.87,8.87,0,0,0,2,1.94,8.67,8.67,0,0,0,4.3,1.18c2,.17,4.05.25,6.16.25a10.35,10.35,0,0,0,4.56-.84,3.54,3.54,0,0,0,.93-.68,4.08,4.08,0,0,0,3-1.09,6.9,6.9,0,0,0,2.28-3.63c.51-2,.08-4.22,1.26-5.74a13.48,13.48,0,0,0,1-1.19,3.13,3.13,0,0,0,.5-1.94.08.08,0,0,1,.09-.08,7.69,7.69,0,0,0,.51-1.94,9.17,9.17,0,0,1,.59-1.52c.59-1.52,1.09-3,1.6-4.56.34-1,.51-2.11.76-3.12a24.26,24.26,0,0,0,.25-2.54,15.42,15.42,0,0,1,.76-3.88,29.8,29.8,0,0,0,1.78-9.37V690a6.28,6.28,0,0,0,5.57-6.41,6.08,6.08,0,0,0-.59-2.71A7.67,7.67,0,0,0,430.51,676.6Zm-30.22,36.72a4.41,4.41,0,0,0,.33,1c-.5-.5-1-1-1.52-1.43a1.71,1.71,0,0,0,.59.17.77.77,0,0,1,.6.25Zm-2.37-1.69c-2.95-2.53-6.33-4.47-9.28-6.92,1.6.84,3.2,1.77,4.81,2.62,1.86,1.09,3.71,2.11,5.65,3a5.54,5.54,0,0,1-1.18,1.27Zm1.27-6.33.17-.17v1l-.76-.25a4.1,4.1,0,0,1,.59-.59Zm-25.75,6.84a23.82,23.82,0,0,0,3.13-4.48c1.18,2,3,3.46,4.64,5.15C378.59,712.56,376.06,712.22,373.44,712.14Z" transform="translate(9.81)"/><polygon class="cls-18" points="387.47 687.57 389.24 687.91 395.57 697.2 392.79 697.53 387.47 687.57"/><path class="cls-19" d="M333,725.14a36.52,36.52,0,0,0,1.85,4.81,39.43,39.43,0,0,0,6.17-1.77c-.43-.59-.85-1.19-1.27-1.69a8.57,8.57,0,0,0-1.69-1.35,4.43,4.43,0,0,0-2.11,0Z" transform="translate(9.81)"/><path class="cls-18" d="M338,727.67a3.85,3.85,0,0,1-2.11-2.36,8,8,0,0,0-1.61-2.87.86.86,0,0,0-.67.5c-.17.26-.26.59-.42.85-.34.5-.93.67-1.36,1.09s-.67,1-1.09,1.44a4.61,4.61,0,0,1-2.11.84,13,13,0,0,0-3.38,1.27A8.53,8.53,0,0,1,324,729a3.82,3.82,0,0,1-1.43,0l-3.29-.25a1.37,1.37,0,0,0-.85,0,1.76,1.76,0,0,0-1.09,1.69,2.24,2.24,0,0,0,1.09,1.77,5.51,5.51,0,0,0,1.86.93,54.77,54.77,0,0,0,8.95,2.53v.67A15.75,15.75,0,0,0,336,738a1,1,0,0,0,.51-.09,1.12,1.12,0,0,0,.42-.67,26.11,26.11,0,0,0,1.35-7.26,4.72,4.72,0,0,0-.17-1.86c-.17-.59.42-.34-.08-.42" transform="translate(9.81)"/><path class="cls-18" d="M401.72,715.09c-9.88.59-19.58-2.28-29.46-2.61a12.84,12.84,0,0,0-3.63.25,19.15,19.15,0,0,0-3.63,1.43c-5.32,2.45-10.81,4.48-16.21,6.59l-6.33,2.36a8.7,8.7,0,0,1-3.88.85c-.59,0-1.35-.17-1.69.33-1,1.52-.51,3.72.17,5.49.25.59.59,1.18,1.18,1.18a2.74,2.74,0,0,0,1.18-.34c1.18-.33,2.28.43,3.46.6,1.44.16,2.79-.68,4.22-1.19,2.28-.84,4.73-.84,7.18-1.18a31.92,31.92,0,0,0,11.23-4.64,11.27,11.27,0,0,1,4.22-1.94,12.23,12.23,0,0,1,5.23.59A127.27,127.27,0,0,1,387,727a40.4,40.4,0,0,0,6.33,2.28,23,23,0,0,0,14.1-.84c1.61-.59,3.29-1.69,3.38-3.46.08-1-.68-1.86-1.18-2.7-.34-.51-.68-1.1-1-1.61C406.79,718.22,404.76,714.92,401.72,715.09Z" transform="translate(9.81)"/><path class="cls-7" d="M401.72,715.09c-9.88.59-19.58-2.28-29.46-2.61a12.84,12.84,0,0,0-3.63.25,19.15,19.15,0,0,0-3.63,1.43c-5.32,2.45-10.81,4.48-16.21,6.59l-6.33,2.36a8.7,8.7,0,0,1-3.88.85c-.59,0-1.35-.17-1.69.33-1,1.52-.51,3.72.17,5.49.25.59.59,1.18,1.18,1.18a2.74,2.74,0,0,0,1.18-.34c1.18-.33,2.28.43,3.46.6,1.44.16,2.79-.68,4.22-1.19,2.28-.84,4.73-.84,7.18-1.18a31.92,31.92,0,0,0,11.23-4.64,11.27,11.27,0,0,1,4.22-1.94,12.23,12.23,0,0,1,5.23.59A127.27,127.27,0,0,1,387,727a40.4,40.4,0,0,0,6.33,2.28,23,23,0,0,0,14.1-.84c1.61-.59,3.29-1.69,3.38-3.46.08-1-.68-1.86-1.18-2.7-.34-.51-.68-1.1-1-1.61C406.79,718.22,404.76,714.92,401.72,715.09Z" transform="translate(9.81)"/><path class="cls-19" d="M351.92,725.64c1.52.51,3.12,1,4.64,1.44.84-1.44,2.53-2.45,2.87-4.14v-.25c0-.08-.09-.08-.17-.17a9.18,9.18,0,0,0-3.63-1.1c-1-.08-1.52,1-1.94,1.78C353.52,723.62,352.34,725.81,351.92,725.64Z" transform="translate(9.81)"/><path class="cls-18" d="M354.11,724.63a3.28,3.28,0,0,1-2.28-1.52c-.25-.42-.42-.93-.84-.84s-.59.5-.68.93a26.55,26.55,0,0,1-1.26,4.39,9,9,0,0,1-2.71,3.63c-.59.42-1.18.67-1.77,1.09a9.82,9.82,0,0,1-1.52,1.1,4.7,4.7,0,0,1-1.18.42,9.71,9.71,0,0,0-1.6.85,2.68,2.68,0,0,0-1.1,1.09,1.46,1.46,0,0,0,1,2.28,3.41,3.41,0,0,0,1.35,0c1.78-.17,3.63-.25,5.41-.42a20.08,20.08,0,0,0,2.27-.34l1.19-.33a15.78,15.78,0,0,1,2-.34,1.51,1.51,0,0,1,.59.08c.43.17.68.59,1.18.68a2.71,2.71,0,0,0,.85-.09,21.41,21.41,0,0,1,4-.42,1.67,1.67,0,0,0,1.52-.67c.33-.68-.26-1.44-.43-2.11a7.88,7.88,0,0,1-.16-1.35,7.63,7.63,0,0,0-1-3.3c-.42-.84-1.1-1.77-.76-2.7a2.85,2.85,0,0,0,.34-.93C358.25,724.29,355,724.8,354.11,724.63Z" transform="translate(9.81)"/><path class="cls-19" d="M387,699.31a8.08,8.08,0,0,1-4-3.89,5.43,5.43,0,0,1-.42-1.09,9.1,9.1,0,0,0-2.37-3.3,1.07,1.07,0,0,0-.84-.33.88.88,0,0,0-.67.67,4.23,4.23,0,0,0-.09,1.1,22.31,22.31,0,0,0,.42,2.45l.51,2.19a4.29,4.29,0,0,0,.34,1,2.84,2.84,0,0,0,.84.93c.42.43.85.76,1.35,1.19a3.23,3.23,0,0,0,.85.59,5.31,5.31,0,0,0,1.52.42,12,12,0,0,1,5.57,2.19v-1.6a2,2,0,0,0-.42-1.18A4.92,4.92,0,0,0,387,699.31Z" transform="translate(9.81)"/><path class="cls-7" d="M387,699.31a8.08,8.08,0,0,1-4-3.89,5.43,5.43,0,0,1-.42-1.09,9.1,9.1,0,0,0-2.37-3.3,1.07,1.07,0,0,0-.84-.33.88.88,0,0,0-.67.67,4.23,4.23,0,0,0-.09,1.1,22.31,22.31,0,0,0,.42,2.45l.51,2.19a4.29,4.29,0,0,0,.34,1,2.84,2.84,0,0,0,.84.93c.42.43.85.76,1.35,1.19a3.23,3.23,0,0,0,.85.59,5.31,5.31,0,0,0,1.52.42,12,12,0,0,1,5.57,2.19v-1.6a2,2,0,0,0-.42-1.18A4.92,4.92,0,0,0,387,699.31Z" transform="translate(9.81)"/><ellipse class="cls-18" cx="416.84" cy="680.23" rx="2.36" ry="2.45"/><path class="cls-18" d="M405.52,678.71a2.32,2.32,0,0,0-1.86.25,3.5,3.5,0,0,0-.67.85,18.35,18.35,0,0,0-1.27,3c-.25.85-.25,1.77-.51,2.7-.5,1.61-1.77,3-1.85,4.65-.09.75.08,1.6-.51,2.11-.17.08-.25.25-.42.33a2.69,2.69,0,0,0-.93,1,3.66,3.66,0,0,1-.68.92c-.5.34-1.26.34-1.51.85s.42,1.18.25,1.86-.68.76-1.1,1.09a4.24,4.24,0,0,0-.93,1.69,5.5,5.5,0,0,1-4.56-1.1,15.55,15.55,0,0,1,.76,5.24,2.07,2.07,0,0,1-.42,1.6,31.67,31.67,0,0,1,5.66,1,4.1,4.1,0,0,0,2.45,0,3,3,0,0,0,1.09-.93,7.18,7.18,0,0,0,2.37-3.55,12.54,12.54,0,0,0,0-2.45,15.73,15.73,0,0,1,.59-2.95,38.06,38.06,0,0,0,1.09-6.08c.09-1.27,1.19-2.28,1.78-3.38a16.51,16.51,0,0,0,2.28-6.75C406.62,679.81,406.36,678.88,405.52,678.71Z" transform="translate(9.81)"/><path class="cls-7" d="M405.52,678.71a2.32,2.32,0,0,0-1.86.25,3.5,3.5,0,0,0-.67.85,18.35,18.35,0,0,0-1.27,3c-.25.85-.25,1.77-.51,2.7-.5,1.61-1.77,3-1.85,4.65-.09.75.08,1.6-.51,2.11-.17.08-.25.25-.42.33a2.69,2.69,0,0,0-.93,1,3.66,3.66,0,0,1-.68.92c-.5.34-1.26.34-1.51.85s.42,1.18.25,1.86-.68.76-1.1,1.09a4.24,4.24,0,0,0-.93,1.69,5.5,5.5,0,0,1-4.56-1.1,15.55,15.55,0,0,1,.76,5.24,2.07,2.07,0,0,1-.42,1.6,31.67,31.67,0,0,1,5.66,1,4.1,4.1,0,0,0,2.45,0,3,3,0,0,0,1.09-.93,7.18,7.18,0,0,0,2.37-3.55,12.54,12.54,0,0,0,0-2.45,15.73,15.73,0,0,1,.59-2.95,38.06,38.06,0,0,0,1.09-6.08c.09-1.27,1.19-2.28,1.78-3.38a16.51,16.51,0,0,0,2.28-6.75C406.62,679.81,406.36,678.88,405.52,678.71Z" transform="translate(9.81)"/><path class="cls-18" d="M403.32,717.2c-2-1-3.54-2.78-5.23-4.39-3.21-2.95-7-5.06-10.38-7.85a82.6,82.6,0,0,0-6.59-5.57,16.24,16.24,0,0,0-7.09-2.45,1.5,1.5,0,0,0-.84,0,2.19,2.19,0,0,0-.85.68,23.13,23.13,0,0,0-2.87,4c-4.22,7.17-10.21,13.16-15.19,19.83l-.25.51a2.58,2.58,0,0,0,.16.76l1,1.94c.59,1.1,1.52,2.36,2.7,2.2a3.8,3.8,0,0,0,1.43-.93l4.56-4.39,4.73-4.56c2.79-2.7,5.66-5.4,7.43-8.78,1.43,2.45,4,4.05,5.65,6.33a29.27,29.27,0,0,1,1.78,2.7c.93,1.44,2,2.79,3,4.22l5.48,7a9,9,0,0,0,2.54,2.53,10,10,0,0,0,4.39,1.18c2,.17,4.13.26,6.16.26a11.14,11.14,0,0,0,4.64-.85,4.39,4.39,0,0,0,2.53-3.71,5.06,5.06,0,0,0-.76-2.28C409.49,721.93,407,718.89,403.32,717.2Z" transform="translate(9.81)"/><circle class="cls-20" cx="418.36" cy="681.83" r="1.86"/><path class="cls-19" d="M408.14,680.48a3.38,3.38,0,0,1,.17,2.7,9.41,9.41,0,0,1-1.19,2.45,12.89,12.89,0,0,1-1.52,2.2c2.87.16,5.58-1,8.11-2.37a12.19,12.19,0,0,0,5.15-4.47,2.34,2.34,0,0,1-1.86-.34,7,7,0,0,1-1.43-1.35l-1.44-1.6a5.66,5.66,0,0,1-.84-1.19,3.51,3.51,0,0,1-.43-1.85,17.69,17.69,0,0,1-1.85,1.6c-1,.68-2.11,1.18-3.21,1.77-.34.26-1.18.59-.93,1.1S407.8,680,408.14,680.48Z" transform="translate(9.81)"/><path class="cls-7" d="M408.14,680.48a3.38,3.38,0,0,1,.17,2.7,9.41,9.41,0,0,1-1.19,2.45,12.89,12.89,0,0,1-1.52,2.2c2.87.16,5.58-1,8.11-2.37a12.19,12.19,0,0,0,5.15-4.47,2.34,2.34,0,0,1-1.86-.34,7,7,0,0,1-1.43-1.35l-1.44-1.6a5.66,5.66,0,0,1-.84-1.19,3.51,3.51,0,0,1-.43-1.85,17.69,17.69,0,0,1-1.85,1.6c-1,.68-2.11,1.18-3.21,1.77-.34.26-1.18.59-.93,1.1S407.8,680,408.14,680.48Z" transform="translate(9.81)"/><path class="cls-20" d="M408.14,680.74a2.4,2.4,0,0,0,0,2.78c.08.09.42.76.5.76a.58.58,0,0,0,.34-.17,17.53,17.53,0,0,0,1.77-2.11,4.25,4.25,0,0,1,2.28-1.52,4.71,4.71,0,0,1,3.13,1,3.4,3.4,0,0,1,1.09.85,2.74,2.74,0,0,1,.34,1.18,59.82,59.82,0,0,1,.34,7.68,30.17,30.17,0,0,1-.34,5.49c-.17.93-.42,1.86-.59,2.79a12.58,12.58,0,0,0-.08,2.53v3.54a7.91,7.91,0,0,0,.16,1.94c.17.76.51,1.52.76,2.28a13.62,13.62,0,0,1,.51,2.62l.51,3.63a4.69,4.69,0,0,1-.42,3.38,13.4,13.4,0,0,0-1,1.18c-1.18,1.52-.84,3.8-1.26,5.66a7.7,7.7,0,0,1-2.28,3.54,4.15,4.15,0,0,1-3,1.1c-1.52-.26-2.37-1.86-2.79-3.29s-.5-3-1.43-4.31a14.8,14.8,0,0,0-2.79-2.36,4.92,4.92,0,0,1-2.19-2.87c-.09-.51,0-1.1-.09-1.61a4.09,4.09,0,0,0-2.36-3.12c-.76-.25-1.69-.42-2.11-1.1a5.05,5.05,0,0,0,2.19-3,14.6,14.6,0,0,0,.51-3.8l.25-4.22a13.25,13.25,0,0,1,1-5.49,17.34,17.34,0,0,1,1.26-2.19,21.86,21.86,0,0,0,1.27-3.3c.59-1.77,1.18-3.46,1.77-5.23a8.78,8.78,0,0,1,.93-2.45C406.62,681.92,407.29,680.9,408.14,680.74Z" transform="translate(9.81)"/><path class="cls-18" d="M398.77,708.34h1.09l.26-1.69a2.22,2.22,0,0,1,.25-1,3.54,3.54,0,0,1,.68-.93c1.09-1.52,1-3.63,1.26-5.49a30.75,30.75,0,0,1,2.45-7.26l2.19-4.89.51-1.27a7.86,7.86,0,0,0,.17-1.44c0-.75.25-3.46.25-4.22,0-.25-.59-.16-.76-.33-.25-.51-.67.93-1.18,1.26a2.57,2.57,0,0,0-1,1.44c-.51,1.18-.76,2.53-1.18,3.71a8.29,8.29,0,0,1-2,3.29c-.42.43-.93.68-1.35,1.1-1.35,1.35-1.52,3.46-1.52,5.32C398.68,697.2,398.51,708.34,398.77,708.34Z" transform="translate(9.81)"/><path class="cls-18" d="M414.89,678.71a4,4,0,0,0-2,2.78,11.87,11.87,0,0,1-1,3.38c-1.35,2.37-4.9,3-5.82,5.66a13.72,13.72,0,0,0-.43,2.7c-.16,1.86-.76,3.63-.92,5.49a23.77,23.77,0,0,0,.08,4.3L406,717.54a20.72,20.72,0,0,1-.34,6.42,6,6,0,0,0,3.63-.6c1.18-.5,2.19-1.26,3.29-1.85,1.86-1,4-1.77,5.66-3.21a2.51,2.51,0,0,0,.76-.84,7.35,7.35,0,0,0,.5-2,12.5,12.5,0,0,1,.59-1.52c.59-1.43,1.1-3,1.61-4.47.34-1,.5-2,.76-3a12.77,12.77,0,0,0,.25-2.53,13.71,13.71,0,0,1,.76-3.8,28.5,28.5,0,0,0,1.77-9.2,7.65,7.65,0,0,0-.08-1.35,5,5,0,0,0-.76-1.52c-.51-.93-.85-2-1.27-3a14.77,14.77,0,0,0-5-5.23C417.17,679.05,416,678.37,414.89,678.71Z" transform="translate(9.81)"/><path class="cls-19" d="M389.4,702.43a7.86,7.86,0,0,1-2.37-1.77,8.93,8.93,0,0,1-.84-1.1,5.47,5.47,0,0,0-3-1.69,15.42,15.42,0,0,0-3.37-.34,5.26,5.26,0,0,0-2.28.26,2.39,2.39,0,0,0-1.52,1.6,2.46,2.46,0,0,0,1.18,2.36,5.76,5.76,0,0,0,2.28,1.1l2,.26c4.05.42,7.59,2.61,11.14,4.64,3.12,1.77,6.25,3.37,9.54,4.89.08-.92.17-1.94.17-2.95,0-.76-.09-1.86-.76-2.28a22.47,22.47,0,0,0-3-.93,47.06,47.06,0,0,1-6.08-2.45A13.2,13.2,0,0,1,389.4,702.43Z" transform="translate(9.81)"/><ellipse class="cls-19" cx="416.84" cy="672.46" rx="7.18" ry="7.26"/><path class="cls-18" d="M416.92,686.9a15.13,15.13,0,0,0-1.44,2.61c-.84,1.86-2.28,3.38-3,5.32s-.68,4.39-2.11,6a3.66,3.66,0,0,0-.68.92,2,2,0,0,1-.08.68c-.26.59-1.19.59-1.35,1.18-.09.17,0,.34-.09.51-.17.42-.67.42-1,.67-.68.51-.59,1.61-1.1,2.28a2,2,0,0,1-1.77.68,6.9,6.9,0,0,1-1.86-.68,6.06,6.06,0,0,0-.67-.25,1.14,1.14,0,0,0-.76.25,4.75,4.75,0,0,0-1.95,4,14,14,0,0,0,1.1,4.56,1.74,1.74,0,0,0,.34.68,1.69,1.69,0,0,0,1.77.17,6.62,6.62,0,0,1,1.77-.76c1.1-.17,2.2.59,3.38.5a4,4,0,0,0,2.28-1,12.27,12.27,0,0,0,3-2.53,18.43,18.43,0,0,0,1.27-2.11c.59-.85,1.18-1.69,1.77-2.45l4.13-5.06a17.5,17.5,0,0,0,1.1-1.52,11.13,11.13,0,0,0,.85-2.37,17,17,0,0,0,.84-4.13,15.19,15.19,0,0,0-.34-3.47,11.15,11.15,0,0,0-.84-3.29C420.8,686.48,418.6,685,416.92,686.9Z" transform="translate(9.81)"/><path class="cls-21" d="M431.35,677.53a8.3,8.3,0,0,0-3.29-6.59,9.63,9.63,0,0,0-8.19-9.37,9.34,9.34,0,0,0-18.4.51c-3-.68-5.74.17-6.25,2s1.6,4.22,4.73,5.06a9.54,9.54,0,0,0,3,.34,9.61,9.61,0,0,0,6.41,4,9.59,9.59,0,0,0,7,7.26,7,7,0,0,0,2.19,2.95v.68a6.08,6.08,0,0,0,12.16,0h0a6,6,0,0,0-.59-2.7A7.14,7.14,0,0,0,431.35,677.53Z" transform="translate(9.81)"/><path class="cls-7" d="M397.25,664.44c.5-1.85,3.2-2.7,6.24-2a9.58,9.58,0,0,1,9.29-8h.59a9.13,9.13,0,0,0-2.62-.42,9.57,9.57,0,0,0-9.28,8c-3-.67-5.74.17-6.25,2s1.6,4.22,4.73,5.07a13.75,13.75,0,0,0,1.77.33C398.77,668.58,396.74,666.38,397.25,664.44Z" transform="translate(9.81)"/><path class="cls-7" d="M420.71,684.79v-.68a9.5,9.5,0,0,1-2.19-3,9.49,9.49,0,0,1-7-7.26,9.31,9.31,0,0,1-6.41-4,6.67,6.67,0,0,1-1.78-.08,9.35,9.35,0,0,0,6.25,3.71,9.59,9.59,0,0,0,7,7.26,6.94,6.94,0,0,0,2.19,2.95v.68a6.21,6.21,0,0,0,6.08,6.33A6.23,6.23,0,0,1,420.71,684.79Z" transform="translate(9.81)"/><ellipse class="cls-19" cx="409.4" cy="673.9" rx="1.1" ry="1.52" transform="translate(-314.45 384.92) rotate(-37.22)"/></g></g></svg>