<?xml version="1.0" encoding="utf-8"?>
<!-- Generator: Adobe Illustrator 23.0.2, SVG Export Plug-In . SVG Version: 6.00 Build 0)  -->
<svg version="1.1" id="e2aa729d-9dcf-480b-9ac5-ecb6b2972507"
	 xmlns="http://www.w3.org/2000/svg" xmlns:xlink="http://www.w3.org/1999/xlink" x="0px" y="0px" viewBox="0 0 1093.9 755.9"
	 style="enable-background:new 0 0 1093.9 755.9;" xml:space="preserve">
<style type="text/css">
	.st0{fill:#FBFBFB;}
	.st1{fill:#697AFF;}
	.st2{fill:#353E80;}
	.st3{fill:#FFE385;}
	.st4{fill:#F2F2F2;}
	.st5{fill:#CFCCE0;}
	.st6{fill:#3F3D56;}
	.st7{fill:#2F2E41;}
	.st8{fill:#FFB9B9;}
	.st9{fill:#FFFFFF;}
	.st10{fill:#D0CDE1;}
	.st11{opacity:0.15;enable-background:new    ;}
</style>
<title>web_browsing</title>
<g id="Camada_3_1_">
	<rect class="st0" width="1093.9" height="755.9"/>
</g>
<g id="Camada_2">
	<path class="st1" d="M900.6,328.6h-0.4c-6.6,0-12-5.4-12-12V192.1c0-6.6,5.4-12,12-12h0.4c6.6,0,12,5.4,12,12v124.6
		C912.6,323.2,907.2,328.6,900.6,328.6z"/>
	<path class="st2" d="M248.2,477.3h-0.4c-6.6,0-12-5.4-12-12V340.7c0-6.6,5.4-12,12-12h0.4c6.6,0,12,5.4,12,12v124.6
		C260.2,471.9,254.8,477.3,248.2,477.3z"/>
	<circle class="st1" cx="249" cy="505.5" r="16.1"/>
	<circle class="st2" cx="900.4" cy="363.5" r="16.1"/>
	<path class="st1" d="M133,311.8h-0.4c-6.6,0-12-5.4-12-12V175.2c0-6.6,5.4-12,12-12h0.4c6.6,0,12,5.4,12,12v124.6
		C145,306.4,139.6,311.8,133,311.8z"/>
	<circle class="st2" cx="132.9" cy="346.6" r="16.1"/>
	<path class="st2" d="M682.2,669.8h-0.4c-6.6,0-12-5.4-12-12V533.2c0-6.6,5.4-12,12-12h0.4c6.6,0,12,5.4,12,12v124.6
		C694.2,664.4,688.8,669.8,682.2,669.8z"/>
	<circle class="st1" cx="682" cy="704.6" r="16.1"/>
</g>
<polyline class="st1" points="994.7,15.2 985.4,0 11.7,0 11.7,27.1 "/>
<path class="st1" d="M11.9,15.2c0,0-10.2,185.7,112.5,115.5s109.7,103.5,115.4,150.6c4.7,39.5,33.7,120.3,158.2-16.4
	s190.6,59.7,232.5,108.2c37.5,43.4,120.7,75.9,190.6-127.3S923,126.4,956.7,150.5c28.6,20.4,116.3,25.7,38-135.2H11.9z"/>
<path class="st2" d="M52.6,0c0,0-9.3,169.1,102.5,105.2s99.9,94.3,105.1,137.2c4.3,35.9,30.6,109.5,144-15s173.6,54.4,211.7,98.6
	C650,365.4,725.9,395,789.5,210.1s92.7-108.9,123.4-86.9c26,18.6,105.9,23.4,34.6-123.1H52.6z"/>
<g id="Camada_3">
</g>
<path class="st3" d="M314.9,683.5H65.3c0,0-5-74.2,24.9-75c29.9-0.8,26.6,32.9,64.1-13.5c37.5-46.4,83-43.9,88.9-16.5
	c5.9,27.4-11.4,49.3,20.2,42.5S340.6,632.1,314.9,683.5z"/>
<path class="st4" d="M185.9,683.5h-0.8c2-48.8,12.2-80.2,20.4-98c9-19.3,17.6-27,17.7-27.1l0.6,0.7c-0.1,0.1-8.6,7.8-17.5,26.9
	C198,603.7,187.8,634.9,185.9,683.5z"/>
<path class="st4" d="M276.2,683.7l-0.8-0.3c9.7-33.5,32.7-54.6,32.9-54.8l0.6,0.7C308.6,629.5,285.9,650.4,276.2,683.7z"/>
<path class="st4" d="M104.7,683.6l-0.8-0.1c3.3-23.8-2.7-42.4-8.2-53.7c-6.1-12.2-13-19-13-19l0.6-0.7c0.1,0.1,7.1,6.8,13.2,19.3
	C101.9,640.9,107.9,659.6,104.7,683.6z"/>
<path class="st5" d="M348.7,684.7H38.4l-0.1-1c-0.2-2.6-4.1-64.3,15.9-86.3c4.5-5,9.8-7.5,16-7.7c13-0.4,21.2,4.5,27.9,8.4
	c12.4,7.4,20.7,12.2,50.6-24.7c32.4-40,67.3-48.6,87.4-43.9c13,3.1,21.9,11.9,24.5,24c2.5,11.5,1.7,22.3,1,31
	c-0.7,9.3-1.2,16.6,2.6,20c3.2,2.8,9.5,3,20,0.7c21.3-4.6,51.1-0.7,65.9,18.6c8,10.4,14.3,29.2-1.1,60.1L348.7,684.7z M40.5,682.4
	h306.8c11.5-23.4,11.9-43.1,1-57.1c-13.7-17.7-42.4-22.3-63.7-17.8c-11.4,2.4-18.1,2.1-22-1.3c-4.7-4.1-4.1-11.9-3.4-21.9
	c0.7-8.5,1.4-19.2-1-30.4c-2.4-11.3-10.8-19.4-22.8-22.3c-19.4-4.7-53.4,3.8-85.2,43.1c-31.1,38.4-40.5,32.9-53.5,25.2
	c-6.6-3.9-14.3-8.4-26.6-8.1c-5.5,0.2-10.4,2.5-14.4,6.9C37.9,618.6,40,674.1,40.5,682.4z"/>
<path class="st3" d="M1017.1,683.5H767.5c0,0-5-74.2,24.9-75c29.9-0.8,26.6,32.9,64.1-13.5c37.5-46.4,83-43.9,88.9-16.5
	c5.9,27.4-11.4,49.3,20.2,42.5S1042.8,632.1,1017.1,683.5z"/>
<path class="st4" d="M888.2,683.5h-0.8c2-48.8,12.2-80.2,20.4-98c9-19.3,17.6-27,17.7-27.1l0.6,0.7c-0.1,0.1-8.6,7.8-17.5,26.9
	C900.2,603.7,890,634.9,888.2,683.5z"/>
<path class="st4" d="M978.4,683.7l-0.8-0.3c9.7-33.5,32.7-54.6,32.9-54.8l0.6,0.7C1010.8,629.5,988.1,650.4,978.4,683.7z"/>
<path class="st4" d="M806.9,683.6l-0.8-0.1c3.3-23.8-2.7-42.4-8.2-53.7c-6.1-12.2-13-19-13-19l0.6-0.7c0.1,0.1,7.1,6.8,13.2,19.3
	C804.2,640.9,810.2,659.6,806.9,683.6z"/>
<path class="st5" d="M1051,684.7H740.6l-0.1-1c-0.2-2.6-4.1-64.3,15.9-86.3c4.5-5,9.8-7.5,16-7.7c13-0.4,21.2,4.5,27.9,8.4
	c12.4,7.4,20.7,12.2,50.6-24.7c32.4-40,67.3-48.6,87.4-43.9c13,3.1,21.9,11.9,24.5,24c2.5,11.5,1.7,22.3,1,31
	c-0.7,9.3-1.2,16.6,2.6,20c3.2,2.8,9.5,3,20,0.7c21.3-4.6,51.1-0.7,65.9,18.6c8,10.4,14.3,29.2-1.1,60.1L1051,684.7z M742.8,682.4
	h306.8c11.5-23.4,11.9-43.1,1-57.1c-13.7-17.7-42.4-22.3-63.7-17.8c-11.4,2.4-18.1,2.1-22-1.3c-4.7-4.1-4.1-11.9-3.4-21.9
	c0.7-8.5,1.4-19.2-1-30.4c-2.4-11.3-10.8-19.4-22.8-22.3c-19.4-4.7-53.4,3.8-85.2,43.1C821.4,613.2,812,607.7,799,600
	c-6.6-3.9-14.3-8.4-26.6-8.1c-5.5,0.2-10.4,2.5-14.4,6.9C740.1,618.6,742.3,674.1,742.8,682.4L742.8,682.4z"/>
<path class="st6" d="M434.6,472.9c-21.9,0-41,22.8-51.6,56.9c-0.7,2.4-1.4,4.9-2.2,7.4c-4.5,17.5-6.6,35.4-6.5,53.5
	c0,65,27,117.8,60.3,117.8S495,655.7,495,590.7S467.9,472.9,434.6,472.9z M434.6,706.6c-32.3,0-58.4-52-58.4-115.9
	c-0.1-18.1,2.2-36.2,6.6-53.8c0.7-2.3,1.3-4.7,2-6.9c10.3-33.2,28.8-55.4,49.8-55.4c32.3,0,58.4,52,58.4,115.9
	S466.9,706.6,434.6,706.6z"/>
<path class="st6" d="M449.1,658.8c-11.5,0-20.6-29.9-20.6-68.2c0-38.2,9.1-68.2,20.6-68.2c11.5,0,20.6,29.9,20.6,68.2
	C469.7,628.9,460.7,658.8,449.1,658.8z M449.1,524.5c-10.1,0-18.7,30.3-18.7,66.3s8.6,66.3,18.7,66.3s18.7-30.3,18.7-66.3
	S459.3,524.5,449.1,524.5z"/>
<ellipse class="st5" cx="451.5" cy="590.7" rx="7.9" ry="15.6"/>
<polygon class="st6" points="434.2,378.4 562.3,378 562.3,428.4 434.2,433.6 "/>
<polygon class="st6" points="324.8,549.6 322.9,549.5 328.6,446.7 444.5,446.7 444.5,448.6 330.4,448.6 "/>
<polygon class="st6" points="324.6,716 259.1,704.8 259.5,702.9 325,714.1 "/>
<rect x="376.7" y="701.9" transform="matrix(8.207715e-02 -0.9966 0.9966 8.207715e-02 -392.6134 1057.2255)" class="st6" width="1.9" height="79.8"/>
<path class="st6" d="M522.4,549.7c-0.7,2.2-1.4,4.6-2,6.9l-2,0.2l-60.8,6.7l-139.3-14l144.9-7.5l57.3,7.4L522.4,549.7z"/>
<path class="st7" d="M490.5,215.1c0,0-20.3-7.2-33.3,21.7s-33.3,60.8-33.3,60.8l11.6,2.9c0,0,2.9-20.3,10.1-23.2l-2.9,26
	c0,0,86.8,30.4,125.9-2.9l-1.4-10.1c0,0,5.8,1.4,5.8,10.1l4.3-4.3c0,0-4.3-8.7-17.4-20.3c-8.5-7.6-11.5-22.1-12.5-31
	c-0.7-7.6-3.7-14.7-8.7-20.5C530.1,214.2,514.3,203.6,490.5,215.1z"/>
<path class="st8" d="M378.5,242.4l-8.4-87.9c0,0-16.8-47.7,8.4-43.9s10.3,40.2,10.3,40.2l14,91.6H378.5z"/>
<polygon class="st8" points="313.1,641.6 303.7,673.4 321.5,688.4 334.6,648.2 "/>
<path class="st8" d="M385.1,665l-9.4,33.7l32.7,20.6c0,0,0.9-38.3,5.6-45.8L385.1,665z"/>
<path class="st7" d="M425.3,485.5l-4.7,9.4c0,0-53.3-24.3-67.3,9.4s-44.9,140.3-44.9,140.3l27.1,11.2l49.6-113.1l113.1-2.8l4.7-62.6
	L425.3,485.5z"/>
<path class="st7" d="M464.6,501.4c0,0-76.7-15.9-82.3,22.4s2.8,111.3,3.7,113.1c0.9,1.9-3.7,36.5-3.7,36.5l33.7,4.7
	c0,0,21.5-101.9,12.2-128.1l63.3-3.9c21.9-1.3,39.6-18.6,41-40.5c0.5-8.3-1.6-16-8.8-20.2c-22.4-13.1-63.6-13.1-63.6-13.1
	L464.6,501.4z"/>
<path class="st7" d="M315.9,672.5c0,0-6.5-14-15.9-7.5c-9.4,6.5-30.9,20.6-30.9,20.6s-33.3,11.7-3.7,19.6c26.3,7,32.7,5.6,32.7,5.6
	s21.5,3.7,24.3,1.9c2.8-1.9,4.7-31.8,4.7-31.8S314,678.1,315.9,672.5z"/>
<path class="st7" d="M388.8,701.5c0,0-9.4-13.1-15.9-7.5c-6.5,5.6-29.9,21.5-29.9,21.5s-39.3,11.2-4.7,21.5
	c34.6,10.3,72.9,8.4,73.9,4.7c0.9-3.7-1.9-30.9-1.9-30.9S390.7,709.9,388.8,701.5z"/>
<circle class="st8" cx="501" cy="274.2" r="33.7"/>
<path class="st8" d="M476.7,289.1c0,0-1.9,38.3-11.2,41.1c-9.4,2.8-35.5,33.7-23.4,43s82.3,2.8,82.3,2.8l-6.5-48.6
	c0,0-15-10.3-2.8-28.1L476.7,289.1z"/>
<path class="st5" d="M475.8,352.7l-6.5-30.9l-21.5-8.4L430,354.6c0,0-20.1,133.2-14.5,135.1c3.2,1.1,6.5,1.6,9.8,1.4
	c0,0,29.9-9.4,39.3-4.7c9.4,4.7,58,8.4,58,8.4s33.7-17.8,31.8-33.7c-1.9-15.9,0-104.7,0-104.7l-4.2-39.7l-36.9,5.8L475.8,352.7z"/>
<polygon class="st5" points="448.7,318.1 447.7,312.5 421.6,280.7 406.6,227.4 370.1,241.4 396.3,306 433.7,353.6 "/>
<path class="st7" d="M456.8,278.2c0,0,11.6-15.9,21.7-18.8c10.1-2.9,11.6-17.4,11.6-17.4s26,28.9,42,30.4c16,1.5,1.4-34.7,1.4-34.7
	l-28.9-7.2l-27.5,2.9l-21.7,14.5L456.8,278.2z"/>
<polygon class="st6" points="565.1,494.5 564.2,456 477.2,456 474.4,559 472.5,558.9 475.3,454.2 566,454.2 566,455.1 567,494.4 "/>
<polygon class="st6" points="563.2,442 561.3,442 561.3,370.7 591.6,379.4 591,381.2 563.2,373.2 "/>
<path class="st6" d="M572.1,492.5c-21.9,0-41,22.8-51.6,56.9c-0.7,2.4-1.4,4.9-2.2,7.4c-4.5,17.5-6.6,35.4-6.5,53.5
	c0,65,27,117.8,60.3,117.8c33.3,0,60.3-52.8,60.3-117.8S605.4,492.5,572.1,492.5z M572.1,726.3c-32.3,0-58.4-52-58.4-115.9
	c-0.1-18.1,2.2-36.2,6.6-53.8c0.7-2.3,1.3-4.7,2-6.9c10.3-33.2,28.8-55.4,49.8-55.4c32.3,0,58.4,52,58.4,115.9
	S604.4,726.3,572.1,726.3z"/>
<path class="st6" d="M586.6,678.5c-11.5,0-20.6-29.9-20.6-68.2c0-38.2,9.1-68.2,20.6-68.2c11.5,0,20.6,29.9,20.6,68.2
	C607.2,648.6,598.2,678.5,586.6,678.5z M586.6,544.1c-10.1,0-18.7,30.3-18.7,66.3s8.6,66.3,18.7,66.3c10.1,0,18.7-30.3,18.7-66.3
	S596.8,544.1,586.6,544.1z"/>
<ellipse class="st5" cx="588.9" cy="610.3" rx="7.9" ry="15.6"/>
<polygon class="st6" points="576.3,369.1 595.9,376.5 592.2,386.8 576.3,380.3 "/>
<polygon class="st6" points="498.7,449.5 498.7,464.4 554.4,464.4 554.4,450.5 "/>
<polygon class="st6" points="355.6,442 355.6,457 411.4,457 411.4,443 "/>
<path class="st9" d="M630.3,125.4H249V39.1h381.1L630.3,125.4L630.3,125.4z M251.3,123.1h376.6V41.3H251.3V123.1z"/>
<rect x="279.3" y="68.3" class="st3" width="42.6" height="42.6"/>
<path class="st6" d="M316.4,105.2h-44.9V60.3h44.9V105.2z M273.7,102.9h40.4V62.6h-40.4V102.9z"/>
<rect x="387" y="69.4" class="st9" width="199.5" height="2.2"/>
<rect x="387" y="85.1" class="st9" width="199.5" height="2.2"/>
<rect x="387" y="100.7" class="st9" width="199.5" height="2.2"/>
<path class="st6" d="M457.6,405.7h-0.5v-12.4c0-4-3.3-7.2-7.2-7.2l0,0h-26.4c-4,0-7.2,3.3-7.2,7.2l0,0v68.4c0,4,3.3,7.2,7.2,7.2l0,0
	h26.4c4,0,7.2-3.3,7.2-7.2l0,0v-47h0.5V405.7z"/>
<circle class="st10" cx="437" cy="407.3" r="4.4"/>
<path class="st8" d="M548.8,450.4l-88.3-1.7c0,0-49.3,11.3-42.7-13.4c6.5-24.7,41.1-5.6,41.1-5.6l92.7-3.5L548.8,450.4z"/>
<path class="st5" d="M539.8,323.3l8.4-6.5c0,0,14-7.5,16.8,18.7c2.8,26.2,23.4,113.1,2.8,114.1c-20.6,0.9-72.9,1.9-72.9,1.9l5.6-29
	l43-2.8L539.8,323.3z"/>
<polygon class="st11" points="542.6,363.5 539.8,416.8 498.7,425.2 536.1,410.2 "/>
</svg>
